<?xml version="1.0" encoding="UTF-8" standalone="no"?>
<!-- Generator: Adobe Illustrator 19.0.0, SVG Export Plug-In . SVG Version: 6.00 Build 0)  -->

<svg
   version="1.1"
   id="Layer_1"
   x="0px"
   y="0px"
   viewBox="0 0 1088 512"
   xml:space="preserve"
   sodipodi:docname="btViaScratchLink.svg"
   inkscape:version="1.1 (c68e22c387, 2021-05-23)"
   width="1088"
   height="512"
   xmlns:inkscape="http://www.inkscape.org/namespaces/inkscape"
   xmlns:sodipodi="http://sodipodi.sourceforge.net/DTD/sodipodi-0.dtd"
   xmlns="http://www.w3.org/2000/svg"
   xmlns:svg="http://www.w3.org/2000/svg"><defs
   id="defs45"><linearGradient
     id="linearGradient3576"
     inkscape:swatch="solid"><stop
       style="stop-color:#ff9955;stop-opacity:1;"
       offset="0"
       id="stop3574" /></linearGradient></defs><sodipodi:namedview
   id="namedview43"
   pagecolor="#ffffff"
   bordercolor="#666666"
   borderopacity="1.0"
   inkscape:pageshadow="2"
   inkscape:pageopacity="0.0"
   inkscape:pagecheckerboard="0"
   showgrid="false"
   inkscape:snap-global="true"
   inkscape:zoom="0.5"
   inkscape:cx="481"
   inkscape:cy="381"
   inkscape:window-width="1600"
   inkscape:window-height="847"
   inkscape:window-x="-8"
   inkscape:window-y="-8"
   inkscape:window-maximized="1"
   inkscape:current-layer="Layer_1"
   fit-margin-top="0"
   fit-margin-left="0"
   fit-margin-right="0"
   fit-margin-bottom="0" />

















<rect
   id="bg"
   fill="#0fbd8c"
   x="2.5197749"
   y="2.5197749"
   width="1082.9604"
   height="506.96045"
   style="display:inline;opacity:1;fill:#ff9955;fill-opacity:1;stroke:none;stroke-width:5.04;stroke-miterlimit:4;stroke-dasharray:none;stroke-opacity:1;fill-rule:evenodd;stroke-linejoin:round;stroke-linecap:butt" /><g
   id="g9189"
   inkscape:label="BLT"
   transform="matrix(0.857375,0,0,0.857375,65.784427,33.784427)"
   style="display:inline"><circle
     style="display:inline;fill:#ffffff;fill-opacity:1;stroke:none;stroke-width:8.98435;stroke-linecap:round;stroke-miterlimit:4;stroke-dasharray:none;stroke-opacity:1"
     id="path1445"
     cx="256"
     cy="256"
     r="230" /><path
     style="display:inline;fill:#2d527c"
     d="M 256,512 C 114.841,512 0,397.159 0,256 0,114.841 114.841,0 256,0 c 48.07,0 94.924,13.404 135.497,38.761 39.452,24.655 71.474,59.555 92.609,100.923 3.85,7.535 0.862,16.762 -6.671,20.611 -7.535,3.85 -16.762,0.861 -20.611,-6.671 C 418.069,77.762 341.118,30.637 256,30.637 131.735,30.637 30.637,131.736 30.637,256 c 0,124.265 101.097,225.363 225.363,225.363 124.266,0 225.363,-101.098 225.363,-225.363 0,-8.459 6.86,-15.319 15.319,-15.319 8.459,0 15.318,6.86 15.318,15.319 0,141.159 -114.84,256 -256,256 z"
     id="path2" /><g
     id="g8"
     style="display:inline;fill:#ffffff">
	<polygon
   style="fill:#ffffff"
   points="370.222,167.236 242.549,80.328 242.549,254.143 "
   id="polygon4" />
	<polygon
   style="fill:#ffffff"
   points="370.222,344.764 242.549,257.857 242.549,431.672 "
   id="polygon6" />
</g><path
     style="display:inline;fill:#2d527c"
     d="m 378.844,332.1 -111.44,-75.858 60.103,-41.232 c 0.533,-0.366 1.025,-0.767 1.498,-1.186 l 49.839,-33.925 c 4.19,-2.852 6.699,-7.593 6.699,-12.664 0,-5.07 -2.509,-9.81 -6.699,-12.664 L 251.169,67.664 c -4.692,-3.192 -10.761,-3.531 -15.783,-0.878 -5.017,2.655 -8.156,7.866 -8.156,13.542 v 149.846 l -76.944,-51.4 c -7.036,-4.698 -16.547,-2.806 -21.247,4.229 -4.698,7.034 -2.806,16.547 4.23,21.247 l 78.919,52.719 -79.075,54.248 c -6.976,4.786 -8.752,14.321 -3.966,21.298 2.969,4.328 7.765,6.654 12.646,6.654 2.986,0 6.003,-0.87 8.652,-2.688 l 76.787,-52.678 V 431.67 c 0,5.676 3.139,10.885 8.156,13.542 2.249,1.189 4.707,1.777 7.161,1.777 3.022,0 6.033,-0.893 8.621,-2.655 l 127.675,-86.908 c 4.19,-2.852 6.699,-7.593 6.699,-12.664 0,-5.071 -2.511,-9.808 -6.7,-12.662 z M 257.867,109.287 343,167.236 257.868,225.185 V 109.287 Z m 0,293.426 V 287.486 l 52.958,35.377 32.175,21.901 z"
     id="path10" /><g
     id="g12"
     style="display:inline">
</g><g
     id="g14"
     style="display:inline">
</g><g
     id="g16"
     style="display:inline">
</g><g
     id="g18"
     style="display:inline">
</g><g
     id="g20"
     style="display:inline">
</g><g
     id="g22"
     style="display:inline">
</g><g
     id="g24"
     style="display:inline">
</g><g
     id="g26"
     style="display:inline">
</g><g
     id="g28"
     style="display:inline">
</g><g
     id="g30">
</g><g
     id="g32">
</g><g
     id="g34">
</g><g
     id="g36">
</g><g
     id="g38"
     style="display:inline">
</g><g
     id="g40"
     style="display:inline">
</g></g>
<g
   id="Windows-Menu-400x400"
   stroke="none"
   stroke-width="1"
   fill="none"
   fill-rule="evenodd"
   transform="matrix(1.7134665,0,0,1.7134665,439.25725,-76.803659)"
   style="display:inline"
   inkscape:label="SCratch Link"><path
     d="m 293.04009,297.65625 c -1.73473,0 -3.41237,-0.69043 -4.67657,-1.96785 -2.5892,-2.63518 -2.57755,-6.9128 0.0284,-9.52704 22.91704,-23.03538 35.53407,-53.63333 35.53407,-86.15819 0,-32.528 -12.61491,-63.12079 -35.53245,-86.16273 -2.60809,-2.61635 -2.61975,-6.89629 -0.03,-9.52252 2.57593,-2.62162 6.7439,-2.63321 9.33087,-0.0286 25.4417,25.57566 39.46147,59.57503 39.46147,95.71389 0,36.13352 -14.02035,70.13265 -39.46318,95.70943 -1.25727,1.26126 -2.92604,1.94365 -4.65261,1.94365 z m -23.81253,-30.31449 c -1.74082,0 -3.41929,-0.6883 -4.67657,-1.96785 -2.5892,-2.63519 -2.57755,-6.90664 0.0281,-9.52052 14.86038,-14.94369 23.03617,-34.76856 23.03617,-55.84961 0,-21.08642 -8.17524,-40.91152 -23.03419,-55.85378 -2.6076,-2.61586 -2.61925,-6.88732 -0.0301,-9.5225 2.56982,-2.61547 6.74389,-2.62708 9.32486,-0.0286 17.38148,17.47445 26.96315,40.71151 26.96315,65.40486 0,24.68892 -9.5829,47.92566 -26.95903,65.3884 -1.25218,1.26524 -2.92325,1.94958 -4.65241,1.94958 z m -23.8985,-30.39581 c -1.73473,0 -3.41237,-0.69043 -4.67657,-1.96785 -2.5892,-2.63518 -2.57755,-6.90664 0.0276,-9.52006 6.77673,-6.81853 10.50179,-15.8508 10.50179,-25.45487 0,-9.61007 -3.72491,-18.64198 -10.50231,-25.4554 -2.60417,-2.62189 -2.6158,-6.89101 -0.0271,-9.52569 2.57175,-2.61743 6.74806,-2.62614 9.32392,-0.0234 9.29996,9.33888 14.42926,21.78178 14.42926,35.00447 0,13.21737 -5.1299,25.66002 -14.4242,34.9932 -1.25217,1.26525 -2.92325,1.94958 -4.65241,1.94958 z"
     id="signal"
     fill="#FFFFFF"
     fill-rule="nonzero"
     style="fill:#ffffff;fill-opacity:1" /><path
     d="m 224.64352,226.1989 c 0.29075,24.3694 -10.22664,47.82699 -28.83431,64.30503 -14.80903,13.25721 -33.49255,20.87306 -52.9219,21.61431 -8.98149,7.3141 -19.87178,11.6632 -31.53318,12.43069 -1.24515,0.0853 -2.49029,0.13775 -3.73544,0.13775 -29.788713,0 -54.855981,-24.14636 -57.137697,-54.97709 -0.02528,-0.35423 -0.05056,-0.85277 -0.07585,-1.48906 -0.0316,-0.21647 -0.05689,-0.4395 -0.05689,-0.68221 -0.58149,-12.98171 -0.290745,-23.70686 0.08217,-30.53554 0.341309,-6.29734 0.556208,-17.626 0.58149,-20.26301 v -0.16399 c 0.158013,-9.21642 2.357562,-18.20981 6.358465,-26.27172 -1.137698,-9.01962 -1.112416,-18.66899 0.107449,-28.79065 l 0.158013,-1.57433 c 0.0316,-0.19024 0.0316,-0.41327 0.05056,-0.6035 0.0316,-0.16399 0.05689,-0.35422 0.08217,-0.54446 1.004966,-8.61292 2.755756,-22.7229 10.176072,-37.1871 C 80.294981,97.346138 103.72523,82.875375 130.59385,82.875375 h 1.1377 c 8.45688,-4.893558 17.9693,-7.50433 27.74718,-7.50433 h 1.03656 c 31.10971,0.577256 56.41716,27.255675 56.41716,59.490185 0,0.35423 -1.06185,39.02383 -2.25643,52.2548 6.44063,11.68944 9.83476,24.94666 9.96749,39.08287"
     id="scratch-outline-2"
     fill="#FFFFFF"
     style="fill:#ffffff;fill-opacity:1" /><path
     d="m 198.14212,226.5 c 0.2149,16.14349 -6.93995,31.93276 -19.63792,43.18269 -10.78285,9.65592 -24.56163,14.98898 -38.7386,14.98898 -2.43973,-0.0262 -4.90474,-0.16399 -7.31919,-0.49853 -0.55621,0.77404 -1.1377,1.51529 -1.74447,2.2303 -5.46095,6.40886 -12.98871,10.20694 -21.20542,10.69892 -0.63205,0.0525 -1.24514,0.0787 -1.8772,0.0787 -16.035212,0 -29.523248,-13.03418 -30.71783,-29.64342 -0.02528,-0.32798 -0.05056,-0.66253 -0.05056,-1.01676 l -0.02528,-0.24927 c -0.530925,-11.82719 -0.265462,-21.56183 0.05057,-27.64269 0.398194,-7.03859 0.613092,-19.00354 0.638374,-21.58808 0.132732,-8.08814 3.122348,-15.42848 7.976524,-21.01737 -2.414447,-8.65884 -3.185553,-19.05601 -1.700226,-31.34895 l 0.189617,-1.7908 c 0.02528,-0.13776 0.02528,-0.27551 0.05056,-0.41326 0.846952,-7.20259 2.117381,-17.84903 7.338149,-28.02317 7.793228,-15.29073 22.102932,-24.06764 39.225282,-24.06764 0.9544,0 1.95937,0.0262 2.99594,0.0853 1.80135,0.11152 3.62799,0.32799 5.40406,0.66253 5.56208,-5.20186 12.95711,-8.42269 21.06637,-8.25214 16.74943,0.30175 30.3702,14.65444 30.3702,31.98524 0,0.38047 -1.48533,46.67248 -2.19955,50.68703 -0.42347,2.50582 -1.1377,4.89356 -2.06682,7.15011 7.71107,9.24266 11.86998,20.7681 11.97743,33.80229"
     id="scratch-outline-1"
     fill="#f9a83a" /><path
     d="m 131.29544,193.22708 c -7.94492,-1.28571 -12.186,-6.80244 -10.08126,-23.87086 l 0.2465,-2.05975 c 1.76975,-14.83155 3.25508,-18.13109 10.13183,-17.74407 2.00993,0.1312 4.32957,1.4497 6.64288,3.42418 2.14899,2.57797 6.921,5.91688 9.60723,12.52908 1.92776,4.8542 2.59142,8.02255 2.86952,11.42705 l 0.42348,4.17855 v -0.0197 c 0.56885,2.86004 2.67991,5.20842 5.6,5.72008 3.76072,0.71501 7.38871,-1.88264 8.04605,-5.78568 0.0885,-0.46574 1.78871,-45.41956 1.78871,-46.15425 0,-3.96208 -3.05914,-7.17635 -6.90203,-7.24195 -3.83025,-0.0197 -6.93995,3.21427 -6.93995,7.16323 0,0.0853 -0.019,6.29078 -0.14538,12.54876 -5.46094,-6.16614 -12.45146,-11.68944 -20.27629,-12.1683 -20.94628,-1.16107 -23.23431,18.82643 -24.61219,30.34531 l -0.20858,2.04008 c -2.82528,22.76226 4.49391,37.12151 21.67946,39.90939 18.6772,3.04372 31.14763,7.49777 31.2614,19.42336 0.0695,4.63773 -2.28172,9.39353 -6.38375,13.05386 -4.94266,4.36222 -11.55395,6.32358 -17.78601,5.2609 -1.93408,-0.3083 -3.74808,-0.85932 -5.48623,-1.45626 -2.44604,-1.4169 -8.60857,-5.30682 -11.73724,-9.80023 -2.63567,-3.79152 -3.55215,-9.74776 -3.83657,-13.52616 0.0316,-1.69241 0.0379,-2.81413 0.0379,-2.93876 0.0695,-3.98176 -3.00857,-7.22226 -6.8009,-7.3141 -3.84921,-0.0918 -7.00948,3.12243 -7.07901,7.09763 0,0.13119 -0.17065,14.21493 -0.66997,22.69666 -0.714225,13.66392 0,25.23528 0,25.74038 0.28442,3.96864 3.5711,6.95987 7.40135,6.69748 3.81761,-0.20991 6.72506,-3.64721 6.45959,-7.6224 0,-0.0656 -0.3413,-5.67417 -0.29706,-13.42121 5.08171,3.36514 11.75621,6.63845 19.70113,8.04223 10.36569,1.80392 20.96523,-1.30539 29.06185,-8.52765 7.24966,-6.43509 11.40226,-15.23169 11.28849,-24.13324 -0.24651,-26.57347 -29.14402,-31.24399 -43.00497,-33.51366"
     id="scratch-fill"
     fill="#FFFFFF"
     style="fill:#ffffff;fill-opacity:1" /></g></svg>
