<?xml version="1.0" encoding="UTF-8" standalone="no"?>
<!-- Generator: Adobe Illustrator 25.0.1, SVG Export Plug-In . SVG Version: 6.00 Build 0)  -->

<svg
   version="1.1"
   id="PISHI_1_"
   x="0px"
   y="0px"
   viewBox="0 0 80 100"
   xml:space="preserve"
   sodipodi:docname="pishi-ai-1.svg"
   width="80"
   height="100"
   inkscape:version="1.3.2 (091e20e, 2023-11-25, custom)"
   xmlns:inkscape="http://www.inkscape.org/namespaces/inkscape"
   xmlns:sodipodi="http://sodipodi.sourceforge.net/DTD/sodipodi-0.dtd"
   xmlns="http://www.w3.org/2000/svg"
   xmlns:svg="http://www.w3.org/2000/svg"><defs
   id="defs1" /><sodipodi:namedview
   id="namedview1"
   pagecolor="#ffffff"
   bordercolor="#666666"
   borderopacity="1.0"
   inkscape:showpageshadow="2"
   inkscape:pageopacity="0.0"
   inkscape:pagecheckerboard="0"
   inkscape:deskcolor="#d1d1d1"
   showgrid="false"
   inkscape:zoom="5.6568543"
   inkscape:cx="11.932427"
   inkscape:cy="51.88396"
   inkscape:window-width="1600"
   inkscape:window-height="847"
   inkscape:window-x="-8"
   inkscape:window-y="-8"
   inkscape:window-maximized="1"
   inkscape:current-layer="PISHI" />
<style
   type="text/css"
   id="style1">
	.st0{fill:#00CCCC;}
	.st1{fill:#FFFFFF;}
	.st2{fill:#CCF5F5;}
	.st3{fill:#E0F9F9;}
	.st4{display:none;}
	.st5{display:inline;fill:#00CCCC;}
	.st6{display:inline;fill:#FFFFFF;}
	.st7{display:inline;fill:#CCF5F5;}
</style>
<g
   id="PISHI"
   transform="translate(-214.67735,-184.82075)"
   inkscape:label="PISHI.AI">
	<g
   id="FOOT-LEFT_1_"
   inkscape:label="RIGHT-LEG"
   transform="translate(0.96449929,0.19400206)">
		<path
   id="FOOT-LEFT-BACKGROUND-BLUE_1_"
   inkscape:label="RIGHT-LEG-BACKGROUND"
   class="st0"
   d="m 265.52942,267.85214 c 2.30862,2.21405 3.74582,3.21085 5.64331,5.41217 0.15881,0.26679 0.51303,0.49201 0.4765,0.80032 0.0815,0.38343 0.26071,0.74607 0.53763,1.0879 0.87143,1.21728 1.91788,2.29718 2.96429,3.37704 0.13846,0.17093 0.33383,0.1294 0.50882,-0.008 0.1546,-0.23325 0.40689,-0.48728 0.48419,-0.60389 3.08017,-3.76068 6.08301,-7.40475 9.26087,-11.18621 1.14337,-1.34516 2.16867,-2.76539 3.29169,-4.20639 0.1546,-0.23325 0.40689,-0.48728 0.4638,-0.69974 0.1546,-0.23325 0.13422,-0.3291 -0.1019,-0.47925 -0.23614,-0.15018 -0.49264,-0.39618 -0.7084,-0.45047 -1.61215,-0.85941 -3.33817,-1.29388 -5.03955,-1.13245 -1.40833,0.0991 -3.76892,1.00177 -5.39301,1.04657 -1.10119,-0.5191 -8.03393,-4.87755 -8.2785,-6.02775 -0.12231,-0.57511 0.10809,2.65571 -0.57916,4.70536 -1.2038,3.46189 -3.53058,8.36478 -3.53058,8.36478 z" />
		<path
   id="FOOT-LEFT-WHITE-BOTTOM_1_"
   inkscape:label="RIGHT-FOOT"
   class="st1"
   d="m 277.39841,266.53052 c 0.9523,-2.13147 2.38022,-3.21112 2.5552,-3.34851 1.83844,-1.13086 3.61332,-1.51657 5.96295,-0.76706 0.0204,0.0959 -0.0569,0.21246 -0.13421,0.3291 -1.52988,1.92825 -3.08017,3.76068 -4.58966,5.78482 -0.4653,0.55081 -2.42944,2.01935 -3.797,2.31015 -0.78149,0.16617 -1.79648,-0.28571 -1.79648,-0.28571 0,0 0.29172,-0.80151 0.60486,-1.596 0,0 0.6167,-1.30213 1.19434,-2.42679 z" />
		<path
   id="FOOT-LEFT-SHADOW-BOTTOM_1_"
   inkscape:label="RIGHT-FOOT-SHADOW"
   class="st2"
   d="m 275.76776,270.0513 c 1.04221,0.57986 0.97388,0.70667 2.22339,0.34079 1.3125,-0.5181 2.92548,-1.72098 3.12085,-1.76251 -0.0773,0.11664 -4.70935,5.84109 -4.84195,6.03882 -0.19482,-0.11167 -0.90799,-0.90894 -1.16452,-1.15494 -0.13843,-0.17093 -0.1792,-0.36264 -0.12228,-0.57511 0.0703,-0.89163 0.78451,-2.88705 0.78451,-2.88705 z" />
		<path
   id="FOOT-LEFT-WHITE-TOP_3_"
   inkscape:label="RIGHT-LEG"
   class="st1"
   d="m 270.63965,258.75339 c -3.1e-4,-0.001 -1.6e-4,-0.003 9.1e-4,-0.004 0.26935,-0.23929 5.19477,3.30569 5.90183,3.75534 0.47226,0.30032 -2.34409,7.10226 -2.93772,8.38416 -0.46127,0.99606 -4.17837,-3.33487 -5.41037,-4.68403 -3.3e-4,-3.6e-4 3.15772,-4.09915 2.44535,-7.45153 z" />
		<path
   id="FOOT-LEFT-WHITE-TOP_2_"
   inkscape:label="RIGHT-LEG-SHADOW"
   class="st2"
   d="m 269.19174,264.68179 c 0.57416,0.77957 1.10758,1.36744 2.03595,2.37226 1.16809,1.39779 2.51965,1.46722 3.41919,1.37613 -0.24808,0.75402 -0.79205,2.58404 -1.2406,3.5028 -0.3746,-0.3211 -5.83789,-4.80212 -6.11481,-5.14398 1.10685,-1.03683 1.10685,-1.03683 1.90027,-2.10721 z" />
	</g>
	<g
   id="TUMMY"
   inkscape:label="CHEST"
   style="display:inline"
   transform="translate(0.96449929,0.19400206)">
		<path
   class="st0"
   d="m 241.57313,252.66998 c -1.36692,8.83734 3.39779,16.69028 10.21677,18.1185 9.35747,2.57178 20.35747,-0.54587 19.94573,-16.07528 -0.4238,-15.98314 -5.36661,-16.63062 -14.32978,-17.05698 -1.05432,-0.0502 -2.11963,0.0193 -3.15416,0.22867 -6.80055,1.37605 -11.2033,5.24739 -12.67856,14.78509 z"
   id="path1"
   inkscape:label="CHEST-BACKGROUND" />
		<path
   id="TUMMY-SHADOW"
   inkscape:label="CHEST-SHADOW"
   class="st3"
   d="m 267.4433,243.57124 c -2.76282,-1.45363 -11.0018,-0.0933 -13.77875,6.78257 -5.69363,19.80058 11.68838,15.85896 13.25409,13.76182 -0.54199,1.14545 -5.0221,6.69135 -14.63377,3.21411 -7.31395,-2.64596 -8.10808,-6.52832 -7.59629,-14.91066 0.89998,-7.14706 4.17021,-13.00371 11.373,-13.05563 9.62256,-0.0694 11.38172,4.20779 11.38172,4.20779 z" />
		<path
   id="TUMMY-WHITE"
   inkscape:label="CHEST-FRONT"
   class="st1"
   d="m 262.25903,242.08952 c 2.95331,-0.71272 5.30011,-1.22926 6.42584,5.84023 0.85956,4.93051 0.80625,7.04622 0,10.89999 -0.74475,3.55994 -1.12573,7.10834 -6.39999,7.70001 -8.74043,0.41874 -11.08304,-6.16949 -10.37715,-11.11067 1.54488,-10.14706 8.3159,-12.83836 10.3513,-13.32956 z" />
	</g>
	<g
   id="TAIL"
   transform="translate(0.96449929,0.19400206)">
		<path
   id="TAIL-BLUE-BACKGROUND"
   inkscape:label="TAIL-BACKGROUND"
   class="st0"
   d="m 242.58491,260.97678 -0.1,0.1 c -0.7,0.60001 -1.5,1 -2.3,1.29999 -2.10001,0.70001 -4.10001,0.60001 -6.10001,-0.10001 -1.89999,-0.70001 -3.5,-1.79998 -5,-3.20001 -1.39999,-1.29999 -2.5,-2.70001 -3.7,-4.20001 -0.1,-0.20001 -0.19999,-0.39999 -0.3,-0.60001 -0.8,-1.8 -2.89999,-3.5 -5.8,-3.1 -2.30001,0.3 -4.4,2.20001 -4.60001,5 -0.10001,2 0.8,3.5 2.39999,4.6 0.4,0.29999 0.7,0.60001 0.9,1 0.7,1.10001 1.5,2.10001 2.39999,3 2.10001,2.20002 4.5,3.9 7.2,5.29999 3.8,2 7.89999,2.60001 12.10001,1.79999 2.6,-0.5 5.1,-1.39999 7.39999,-2.89999 0.10001,-0.10001 0.3,-0.20002 0.39999,-0.29999 -0.49994,-2.99994 -2.69993,-5.59995 -4.89995,-7.69995 z" />
		<path
   id="TAIL-WHITE-END"
   inkscape:label="TAIL-END"
   class="st1"
   d="m 233.24971,265.72528 c 0.10001,-0.29999 0.2,-0.29999 0.5,-0.20001 0.60001,0.20001 1.2,0.29999 1.89999,0.39999 1.9,0.29999 3.11412,0.20001 4.76673,-0.27817 0.69539,-0.21911 0.95292,-0.29632 1.33328,-0.42184 0.4017,-0.13257 0.39999,0 0.60001,0.20001 0.28025,0.31449 0.35137,0.39871 0.6,0.70001 0.1673,0.36216 -0.20085,0.74201 -0.73001,0.90839 -2.89999,0.79999 -5.96999,1.09158 -8.96999,1.2916 -0.5,0 -1.20001,3e-5 -1.5,-0.59998 0,0 1.2,-1.30002 1.49999,-2 z" />
		<path
   id="TAIL-SHADOW"
   inkscape:label="TAIL-END-SHADOW"
   class="st2"
   d="m 231.74972,267.72528 c 0.10001,0.10001 1.24601,0.16776 1.93522,0.15152 0.1,0 1.93618,-0.11847 2.79998,-0.20001 0.9,-0.10001 1.9,-0.29999 2.80001,-0.5 1.1,-0.20001 2.35946,-0.60834 3.66479,-1.05152 0.30315,0.3408 0.5352,0.65152 0.7352,0.95151 0.17328,0.26184 -0.2,0.29999 -0.39999,0.4 -2.60001,1.1 -5.30001,1.70001 -8.10001,1.39999 -1.2,-0.10001 -2.39999,-0.29999 -3.5,-0.70001 -0.1223,-0.0569 -0.23364,-0.14469 -0.0392,-0.32843 z" />
		<path
   id="TAIL-WHITE-MIDDLE"
   inkscape:label="TAIL-MIDDLE"
   class="st1"
   d="m 224.68492,259.27679 c 0.2,0 0.15057,-0.0285 0.25057,0.0715 1.42334,1.48584 3.43719,3.18875 5.34942,4.52847 0.4,0.29999 0.5,0.39999 0.2,0.89999 -0.33293,0.52896 -1.3,1.20002 -2.2,1.5 -0.48588,0.0705 -0.42842,0.0769 -0.64764,0.0329 -0.25647,-0.0515 -0.51262,-0.2518 -1.13236,-0.65097 -1.53991,-1.11099 -2.52,-1.9819 -3.82,-3.28189 -0.30001,-0.29999 -0.49309,-0.4776 -0.72687,-0.74747 -0.0819,-0.17859 0.0135,-0.27569 0.12686,-0.35251 1,-0.39999 1.8,-1 2.39999,-1.89999 0.0903,-0.089 0.20003,-0.10004 0.20003,-0.10004 z" />
		<path
   id="TAIL-WHITE-CIRCLE"
   inkscape:label="TAIL-HEAD"
   class="st1"
   d="m 220.08491,258.47678 c -1.19999,0 -2.19999,-0.9 -2.19999,-2.10001 0,-1.20001 1,-2.10001 2.19999,-2 1.2,0 2.10001,1 2.10001,2.10001 0.10001,1 -0.89999,2 -2.10001,2 z" />
	</g>
	
	<g
   id="FOOT-LEFT"
   inkscape:label="LEFT-LEG"
   style="display:inline"
   transform="translate(0.96449929,0.19400206)">
		<path
   id="FOOT-LEFT-BACKGROUND-BLUE"
   inkscape:label="LEFT-LEG-BACKGROUND"
   class="st0"
   d="m 245.98486,268.92667 v 0.1 c -0.39999,2.9 -0.8,5.79999 -1.3,8.70001 -0.10001,0.29999 -0.10001,0.70002 -0.3,0.9 -0.30001,0.29999 -0.4,0.70001 -0.5,1.1 -0.4,1.5 -0.60001,3 -0.80001,4.5 0,0.20002 0.10001,0.4 0.30001,0.4 0.3,0 0.6,0 0.8,0 4.89999,0 9.7,0 14.59999,0 1.79999,0 3.60001,-0.10001 5.39999,-0.10001 0.29999,0 0.60001,0 0.9,-0.1 0.29999,0 0.39999,-0.10001 0.29999,-0.4 0,-0.29999 0,-0.6 -0.10001,-0.89999 -0.29999,-1.79999 -1.10001,-3.4 -2.29999,-4.70001 -1,-1.10001 -2.20001,-1.9 -3.6,-2.5 -0.79999,-0.29999 -0.79999,-0.20002 -0.70002,-1.10001 0.10001,-1.39999 0.20002,-2.89999 0.29999,-4.29999 -3.99994,-1.6 -8.99994,-3.1 -12.99994,-1.6 z" />
		<path
   id="FOOT-LEFT-WHITE-BOTTOM"
   inkscape:label="LEFT-FOOT"
   class="st1"
   d="m 249.88486,279.02972 c 1.3025,-0.38726 2.5,-0.70001 3.8,-0.89999 1.3,-0.20001 2.49998,-0.29999 3.8,-0.20001 0.29999,0 0.5,0 0.79999,0.1 1.79999,0.70002 3.20001,1.79999 4.20001,3.5 0.10001,0.29999 0.29999,0.5 0.29999,0.79999 -0.10001,0.10001 -0.20001,0.10001 -0.29999,0.10001 -2.6,0 -5.20001,0 -7.89999,0.1 -0.10001,0 -0.3,0 -0.39999,0 -1.4,-0.29998 -2.9,-0.6 -4.10001,-1.5 -0.60001,-0.5 -0.85237,-1.76687 -0.85237,-1.76687 0,0 0.38785,-0.15528 0.65236,-0.23313 z" />
		<path
   id="FOOT-LEFT-SHADOW-BOTTOM"
   inkscape:label="LEFT-FOOT-SHADOW"
   class="st2"
   d="m 249.55241,279.14136 c 0.15723,1.16778 0.001,1.28836 1.10117,1.98834 0.3,0.20001 0.62242,0.33649 1.10001,0.5 0.85594,0.29474 1.17411,0.42804 2,0.70001 0.19999,0.10001 0.31185,0.10748 0.5,0.20001 -0.2,0 -0.4,0 -0.5,0 -2.30001,0 -4.7,0 -7,0 -0.2,0 -0.4,0 -0.60001,0 -0.2,0 -0.3,-0.1 -0.2,-0.29998 0.10001,-0.5 0.2,-1 0.30001,-1.4 0.0873,-0.23721 0.18831,-0.38946 0.39999,-0.5 0.79999,-0.40005 2.89883,-1.18838 2.89883,-1.18838 z" />
		<path
   id="FOOT-LEFT-WHITE-TOP_1_"
   inkscape:label="LEFT-LEG"
   class="st1"
   d="m 250.30041,270.18347 c 2.95267,0.8035 3.12682,0.85282 6.52442,1.20682 0.0415,1.29318 0.008,2.44025 -0.0389,4.1167 -1.64871,0.18838 -5.51579,0.52246 -6.86728,0.70273 -0.49561,0.0661 -0.53381,-0.87998 -0.53381,-1.17997 -0.009,-1.41149 -0.005,-3.43463 0.72302,-4.55487 z" />
		<path
   id="FOOT-LEFT-WHITE-TOP"
   inkscape:label="LEFT-LEG-SHADOW"
   class="st2"
   d="m 250.30041,270.18347 c -0.45483,1.05264 -0.58087,1.46552 -0.67785,2.81714 -0.0513,0.7153 -0.0386,2.46509 0.46141,3.16507 -1.07867,0.28528 -2.33321,0.51779 -3.24498,0.7825 0.10001,-0.5 1.21739,-6.21963 1.34589,-6.81842 0.18391,-0.83435 0.0839,-0.83435 0.18391,-0.83435 0.86633,0.53326 0.81219,0.48575 1.93162,0.88806 z" />
	</g>
	<g
   id="HAND-RIGHT"
   inkscape:label="RIGHT-HAND"
   transform="translate(0.96449929,0.19400206)">
		<path
   id="HAND-RIGHT-BACKGROUND-BLUE"
   inkscape:label="RIGHT-HAND-BACKGROUND"
   class="st0"
   d="m 280.99149,248.88628 c 0.39263,-0.12586 0.79178,-0.15192 1.19094,-0.178 2.0254,-0.20325 3.24393,-0.45776 4.69855,-1.70984 1.97153,-1.99112 2.79581,-6.34407 0.0187,-8.92018 -2.34055,-1.69424 -3.75232,-2.30624 -8.9332,-0.21828 -2.36883,0.55556 -9.06317,2.39574 -10.048,2.6605 0.21634,4.38319 0.92059,8.45381 3.63098,11.31614 0,0 6.50055,-1.95652 9.44202,-2.95034 z" />
		<path
   id="HAND-RIGHT-WHITE-TOP"
   inkscape:label="RIGHT-ARM"
   class="st1"
   d="m 276.42252,243.86369 c 0.14901,0.63649 -4.79371,1.39846 -6.64982,-0.58479 2.36365,-0.70955 4.11274,-1.2379 7.03248,-2.01086 -0.37265,0.77847 -0.50904,1.92622 -0.38266,2.59565 z" />
		<path
   id="HAND-RIGHT-SHADOW"
   inkscape:label="RIGHT-ARM-SHADOW"
   class="st3"
   d="m 276.38071,243.63777 c 0.29058,1.38738 0.77353,2.44484 2.26547,3.36337 -7.87656,2.49405 0.62103,-0.17768 -7.25553,2.31638 -0.19561,-1.24368 -0.52371,-3.79387 -1.61795,-6.03862 2.01777,1.07564 4.43177,1.61118 6.60801,0.35887 z" />
		<path
   id="HAND-RIGHT-WHITE-CIRCLE"
   inkscape:label="RIGHT-HAND"
   class="st1"
   d="m 285.13257,240.70941 c 0.53711,0.95996 0.66595,1.80457 0.29922,2.58272 -0.6358,1.73082 -2.5661,2.58171 -4.25848,1.80981 -1.18643,-0.48205 -1.82123,-1.61653 -1.61136,-2.87983 0.26593,-1.98226 2.31155,-3.24143 4.31454,-2.52875 0.59324,0.24104 1.06077,0.66699 1.25608,1.01605 z" />
	</g>
	<g
   id="HAND-LEFT"
   inkscape:label="LEFT-HAND"
   transform="translate(0.96449929,0.19400206)">
		<path
   id="HAND-LEFT-BACKGROUND-BLUE"
   inkscape:label="LEFT-HAND-BACKGROUND"
   class="st0"
   d="m 248.38486,254.02974 c 0.6,-0.5 1.3,-1.3 1.5,-2.60001 0.1,-1.1 0,-2.39999 -0.60001,-4.1 -0.60001,-1.5 -1.3,-2.60001 -3.3,-2.60001 -1.60001,0 -3.4538,0.40877 -4.7,0.7 0,0 -8.40443,2.30702 -8.91856,2.3762 -0.41468,0.0558 -0.88144,0.22379 -1.28145,0.32379 -3.64848,1.30106 -4.8,6.20002 -2.2,9.1 1.60001,1.70001 3.5,2.39999 5.7,1.89999 0.5,-0.10001 0.8325,-0.18924 1.39999,-0.39999 1.50708,-0.53458 8.2525,-2.8004 9.2,-3.1 1.50003,-0.49996 2.60004,-0.99996 3.20003,-1.59997 z" />
		<path
   id="HAND-LEFT-WHITE"
   inkscape:label="LEFT-ARM"
   class="st1"
   d="m 247.28633,250.61633 c -0.15642,0.82668 -0.93364,1.5047 -1.2,1.63866 -0.48547,0.24419 -0.82406,0.43487 -1.8,0.8 -1.5,0.50002 -2.93661,0.95099 -4.5,1.40001 -0.74466,0.22016 -0.51143,0.32309 -0.5,-0.39999 0.0174,-1.09987 -0.25232,-1.86389 -0.8,-3 -0.30001,-0.5 -0.7,-1 -1.10001,-1.4 -0.39999,-0.39999 -0.39999,-0.39999 0.2,-0.6 0.8,-0.2 1.5,-0.4 2.3,-0.60001 1.60001,-0.39999 3.6142,-0.78691 4.77971,-0.98936 1.20653,-0.20226 1.70143,0.19981 2.02028,0.68936 0.27119,0.31952 0.80189,1.39441 0.60002,2.46133 z" />
		<path
   id="HAND-LEFT-WHITE-CIRCLE"
   inkscape:label="LEFT-HAND"
   class="st1"
   d="m 236.38904,254.52635 c -0.59737,1.79732 -2.6919,2.2672 -4.29901,1.17761 -1.0161,-0.67643 -1.5259,-1.9803 -1.14496,-3.20297 0.51466,-1.70444 2.3398,-2.3864 3.92013,-1.6364 1.47795,0.66176 1.83089,2.75734 1.52384,3.66176 z" />
	</g>
	<g
   id="HEAD"
   transform="translate(0.96449929,0.19400206)">
		<path
   id="FACE-BLUE-BACKGROUND"
   inkscape:label="HEAD-BACKGROUND"
   class="st0"
   d="m 292.18487,222.62975 c -0.20001,-0.10001 -0.5,-0.2 -0.70001,-0.2 -0.70001,-0.10001 -1.39999,-0.10001 -2.1,-0.2 -0.79999,-0.1 -1.60001,-0.2 -2.5,-0.3 -0.29999,0 -0.4,-0.10001 -0.5,-0.4 -0.20002,-0.89999 -0.4,-1.69999 -0.60001,-2.6 -0.10001,-0.3 0,-0.4 0.20001,-0.4 0.20001,-0.1 0.4,-0.1 0.60001,-0.1 1.5,-0.2 3.1,-0.4 4.6,-0.60001 0.20002,0 0.4,-0.1 0.60001,-0.19999 0.39999,-0.2 0.60001,-0.5 0.60001,-0.9 0,-0.39999 -0.29999,-0.8 -0.70002,-0.89999 -0.20001,-0.10001 -0.39999,-0.10001 -0.5,-0.10001 -0.39999,0 -0.70001,0.10001 -1.1,0.10001 -1.5,0.19999 -3,0.39999 -4.5,0.6 -0.29999,0.10001 -0.4,0 -0.5,-0.39999 -0.35483,-1.38629 -0.76779,-2.81262 -0.90003,-3.20001 -0.1,-0.5 -0.1,-0.5 0.29999,-0.7 0.20001,-0.10001 0.1449,-0.0665 1.10678,-0.43938 1.10001,-0.5 1.89322,-0.86062 2.9932,-1.26062 0.20001,-0.1 0.5,-0.19999 0.60001,-0.3 0.5,-0.39999 0.5,-1.10001 0,-1.5 -0.4,-0.3 -0.78306,-0.36171 -1.20002,-0.2 -0.70416,0.27306 -0.70416,0.27306 -1.29998,0.5 -1,0.4 -1.9,0.80001 -2.9,1.30001 -0.20001,0.1 -0.39999,0 -0.39999,-0.2 -0.10001,-0.3 -0.10001,-0.60001 -0.20001,-0.89999 -0.5,-1.9 -0.9,-3.7 -1.4,-5.60001 -0.89999,-3.2 -2.70001,-5.7 -5.5,-7.5 -0.29999,-0.2 -0.5,-0.39999 -0.6,-0.60001 -0.29999,-0.5 -0.60001,-1 -0.9,-1.5 -1.29999,-2.19999 -2.6,-4.5 -4.20001,-6.6 -0.5,-0.7 -1,-1.30001 -1.60001,-1.9 -0.20001,-0.19999 -0.39999,-0.39999 -0.6,-0.5 -0.29999,-0.19999 -0.5,-0.1 -0.70002,0.10001 -0.29998,0.39999 -0.70001,0.7 -1,1.10001 -1.29998,1.19999 -2.39999,2.6 -3.29998,4.1 -1.29999,2 -2.4,4.2 -3.5,6.4 -0.10001,0.19999 -0.20002,0.39999 -0.29999,0.6 -0.10001,0.2 -0.20001,0.3 -0.39999,0.3 -0.10001,0 -0.29999,0.10001 -0.4,0.10001 -3.5,0.8 -7.1,1.60001 -10.6,2.5 -3.4,0.8 -6.80001,1.39999 -10.10001,2.60001 -1.89999,0.6 -3.89999,1.19999 -5.8,1.89999 -0.9,0.3 -0.9,0.3 -1.60001,-0.10001 -1.8,-1.1 -3.60001,-2.1 -5.5,-2.89999 -2.3,-1.10001 -4.7,-2 -7.3,-2.39999 -1.30001,-0.2 -1.4,-0.30001 -1.60001,1.19999 0,0.10001 0,0.10001 0,0.2 -0.2,1.2 -0.2,2.5 -0.2,3.8 0,3.4 0.2,6.80001 0.4,10.2 0,0.5 0,0.89999 -0.10001,1.39999 -0.2,1 -0.3,2.10001 -0.2,3.10001 0.10001,1.2 0.4,2.39999 0.80001,3.60001 0.19999,0.5 0.19999,1 0.19999,1.5 -0.1,2.6 0.60001,5 2.2,7 0.3,0.39999 0.60001,0.89999 0.7,1.39999 0.6,1.89999 1.2,3.89999 1.8,5.8 0.4,1.4 1.10001,2.7 2,3.9 0.9,1.1 1.9,2 3.10001,2.6 1.3,0.60001 2.69999,0.9 4.19999,0.60001 1.5,-0.3 3,-0.7 4.60001,-1 1.60001,-0.39999 3.3,-0.7 4.89999,-1 0.60001,-0.10001 1.10001,-0.3 1.7,-0.39999 -0.3,0.1 -0.3,0.1 0,0 0,0 6.4,-1.4 12.2,-2.7 4.79999,-1.10001 13.39999,-3.4 15,-3.9 3.29999,-0.89999 6.6,-1.8 9.89999,-2.69999 1.4,-0.4 2.70001,-1 3.79999,-2 1.10001,-1.10001 2,-2.30001 2.5,-3.80001 0.39999,-1.1 0.70001,-2.19999 0.70001,-3.3 0,-0.2 0.10001,-0.3 0.4,-0.3 0.5,0.1 1.1,0.1 1.6,0.2 0.9,0.1 1.79999,0.19999 2.60001,0.3 0.29999,0 0.6,0 0.79999,0 0.39999,-0.10001 0.70001,-0.4 0.79998,-0.8 0.20011,-0.90007 -0.0999,-1.30007 -0.49988,-1.50006 z" />
		<path
   id="FACE-LEFT-WHITE"
   inkscape:label="HEAD-SIDE"
   class="st1"
   d="m 223.95406,233.60342 c -0.0381,-0.1513 -0.0183,-0.0745 -0.0692,-0.27368 0.31903,0.0525 0.31903,0.0525 0.41902,0.0525 2.84256,0.26842 4.88097,-0.85249 6.38097,-3.25249 1.1,-1.69999 1.3,-3.6 1.1,-5.6 -0.2,-1.8 -0.89999,-3.4 -2,-4.9 -0.89999,-1.1 -2,-2.1 -3.3,-2.6 -2.4,-1 -4.7,-0.7 -6.8,1 -0.10001,0.1 -0.30001,0.2 -0.4,0.39999 -0.2,-0.1 -0.2,-0.19999 -0.2,-0.39999 -0.1,-1.60001 0.30001,-3.10001 1.2,-4.4 0.4,-0.5 0.8,-0.89999 1.2,-1.19999 1.8,-1.10001 3.7,-2 5.6,-2.9 2.10001,-0.89999 4.30001,-1.8 6.5,-2.5 0.24444,-0.0799 0.4,-0.1 0.5,-0.1 0.10001,0 0.2,0 0.2,0.1 0,0.10001 -0.1,0.2 -0.1,0.30001 -1.10001,2.6 -1.10001,5.3 -0.30001,8 0.4,1.3 0.80001,2.69999 1.10001,4 0,0.1 0.1,0.3 0.1,0.39999 0,0.10001 -0.1,0.2 -0.19999,0.2 -0.60001,0 -1.10001,-0.10001 -1.60001,-0.10001 -0.2,0 -0.5,0 -0.7,0 -0.6,0 -1.1,0.5 -1.19999,1.10001 -0.10001,0.6 0.39999,1.19999 1,1.3 0.6,0.10001 1.3,0.10001 1.89999,0.2 0.4,0 0.7,0.1 1.10001,0.1 0.39999,0 0.6,0.2 0.6,0.5 0.2,0.7 0.4,1.4 0.60001,2.2 0.10001,0.3 0.2,0.60001 0.3,0.89999 -0.19999,0.2 -0.39999,0.2 -0.6,0.30001 -0.9,0.19999 -1.9,0.39999 -2.80001,0.6 -0.34048,0.0857 -0.5,0.10001 -0.69999,0.2 -0.5,0.2 -0.80001,0.8 -0.7,1.3 0.10001,0.60001 0.60001,1 1.2,1 0.19999,0 0.3723,-0.0675 0.6,-0.1 1.10001,-0.2 2.2,-0.5 3.30001,-0.7 0.3,-0.10001 0.39999,0 0.5,0.3 0.3,1.2 0.69999,2.30001 1,3.5 0.1,0.2 -0.0117,0.31011 -0.2,0.4 -0.7807,0.4152 -1.48998,0.81964 -2.4,1.3 -0.19775,0.10437 -0.35177,0.19809 -0.6,0.39999 -0.5,0.4 -0.7,1 -0.4,1.5 0.30001,0.5 0.9,0.80001 1.5,0.60001 0.32106,-0.12537 0.41242,-0.16273 0.7,-0.3 0.8,-0.4 1.5,-0.80001 2.2,-1.2 0.29443,-0.13679 0.39999,-0.10001 0.5,0.10001 0.6,1 1.44702,2.03033 2.3,2.8 0.33539,0.25493 0.60001,0.5 0.9,0.7 -0.49793,0.12532 -0.61641,0.14644 -1.17582,0.28257 -5.23565,0.58158 -8.42419,0.11744 -12.62419,-0.88256 -1.19999,-0.30001 -2.30353,-0.90322 -3.26231,-1.68871 -0.73583,-0.61664 -1.43183,-1.24188 -2.03183,-2.44188 z" />
		<path
   id="SHADOW"
   inkscape:label="HEAD-SIDE-SHADOW"
   class="st3"
   d="m 223.88486,233.32974 c 0,0 0.1,0.1 0,0 1,0.9 1.90783,1.89127 2.8,2.7 0.92348,0.83711 1.7067,1.26796 2.8,1.7 0.7,0.19999 1.4,0.39999 2.10001,0.5 1.17438,0.19035 2.10001,0.3 3.10001,0.39999 1.33502,0.079 6.02592,0.26427 7.05271,0.26439 0.10001,0 1.24729,-0.0644 1.44729,-0.0644 -1.17408,0.30421 -11.18621,2.62616 -11.90001,2.79999 -1.79467,0.48484 -2.9,-0.10001 -4,-1.10001 -0.9,-0.8 -1.5,-1.7 -2,-2.8 -0.60001,-1.30001 -1,-2.80001 -1.40001,-4.4 z" />
		<path
   id="FACE-RIGHT-WHITE"
   inkscape:label="FACE-FRONT"
   class="st1"
   d="m 241.88486,231.52974 c -0.30001,-1 -0.60001,-2 -0.80001,-2.89999 -0.1,-0.2 0,-0.30001 0.2,-0.4 1.10001,-0.2 2.2,-0.5 3.3,-0.7 0.30001,-0.1 0.7,-0.1 1,-0.19999 0.80001,-0.30001 1.10001,-1.10001 0.7,-1.80001 -0.2,-0.39999 -0.5,-0.6 -1,-0.6 -0.3,0 -0.60001,0 -0.89999,0.1 -1.2,0.30001 -2.4,0.5 -3.7,0.80001 -0.39999,0.1 -0.5,0 -0.60001,-0.4 -0.19999,-0.6 -0.39999,-1.3 -0.6,-1.89999 -0.10001,-0.3 0.1,-0.39999 0.39999,-0.39999 1.5,0.1 3,0.3 4.5,0.39999 0.2,0 0.4,0 0.5,0 0.5,-0.10001 0.9,-0.5 1,-1.10001 0.10001,-0.5 -0.2,-1 -0.8,-1.19999 -0.2,-0.10001 -0.4,-0.10001 -0.60001,-0.10001 -1.6,-0.10001 -3.19999,-0.3 -4.8,-0.39999 -1,-0.10001 -1,-0.10001 -1.2,-1 -0.39999,-1.60001 -0.89999,-3.10001 -1.3,-4.7 -0.2,-0.8 -0.39999,-1.7 -0.5,-2.5 -0.10001,-1.89999 0.3,-3.7 1.39999,-5.3 0.9,-1.30001 2.10001,-2.10001 3.60001,-2.4 1.3,-0.3 2.7,-0.6 4,-0.89999 7.8,-1.8 15.59999,-3.60001 23.49998,-5.5 0.5,-0.10001 0.9,-0.2 1.29999,-0.3 1.20001,-0.30001 2.4,-0.10001 3.60001,0.39999 1.6,0.7 2.79999,1.89999 3.6,3.39999 0.5,0.80001 0.9,1.7 1.10001,2.7 0.5,2.2 1.10001,4.3 1.60001,6.5 v 0.10001 c 0.1,0.5 0.1,0.5 -0.29999,0.69999 -0.60001,0.30001 -1.29999,0.60001 -1.9,0.9 -0.20001,0.1 -0.5,0.19999 -0.6,0.39999 -0.5,0.4 -0.5,1 0,1.4 0.51572,0.28796 0.51572,0.28796 1.1,0.19999 0.29999,-0.1 0.5,-0.19999 0.79999,-0.3 0.5,-0.2 0.9,-0.39999 1.29999,-0.60001 0.20001,-0.1 0.29999,0 0.39999,0.10001 0.20002,0.89999 0.5,1.89999 0.70002,2.8 -0.4,0.2 -1.80002,0.30001 -2.10001,0.4 -0.5,0.1 -0.70001,0.5 -0.70001,0.89999 0,0.39999 0.29999,0.8 0.79999,0.89999 0.20001,0.10001 0.5,0.10001 0.70001,0.10001 0.5,-0.10001 1,-0.10001 1.5,-0.2 0.29999,0 0.39999,0 0.5,0.30001 0.20001,0.6 0.29999,1.19999 0.5,1.89999 0,0.2 0,0.3 -0.29999,0.3 -0.70001,-0.1 -1.5,-0.1 -2.20001,-0.19999 -0.29999,0 -0.60001,0 -0.9,0.1 -0.39999,0.2 -0.6,0.5 -0.6,0.9 0,0.39999 0.20001,0.69999 0.6,0.89999 0.29999,0.2 0.70002,0.2 1.10001,0.2 0.70001,0.1 1.5,0.1 2.20001,0.19999 0.29999,0 0.4,0.10001 0.4,0.4 -0.20002,2 -0.79999,3.8 -2.4,5.19999 -0.6,0.60001 -1.39999,0.9 -2.20001,1.10001 -1.79999,0.5 -3.60001,1 -5.39999,1.5 -7.29999,2 -14.60001,4 -21.80001,6 -3.19999,0.89999 -5.69999,-0.10001 -7.8,-2.5 -0.3,-0.39999 -0.60001,-0.8 -0.8,-1.2 0.19999,-0.5 3.09999,-1.90001 4.09999,-2.40001 0.2,-0.1 0.5,-0.3 0.7,-0.39999 0.5,-0.39999 0.6,-1 0.3,-1.60001 -0.3,-0.5 -0.9,-0.8 -1.5,-0.6 -0.2,0.1 -0.4,0.2 -0.60001,0.3 -1.1,0.60001 -3.79994,2.00003 -4.09994,2.20003 z" />
		<path
   id="MOUTH"
   class="st0"
   d="m 268.88486,224.82974 c -1.10001,2.9 -3.20002,4.60001 -6.29999,5 -2.20001,0.30001 -4.20001,-0.39999 -5.79999,-1.89999 -1.7,-1.5 -2.8,-3.4 -3.3,-5.7 -0.10001,-0.5 -0.10001,-1 -0.10001,-1.5 0,-0.5 0.30001,-0.89999 0.80001,-1 0.39999,-0.1 0.89999,-0.2 1.3,-0.3 0.89998,-0.10001 1.90001,-0.2 2.8,-0.4 3,-0.5 6,-1.1 8.9,-2.19999 0.89999,-0.30001 1.29998,-0.2 1.89999,0.6 0.14444,0.23714 0.28061,0.45241 0.34351,0.68171 0.17953,0.65454 0.26266,1.12902 0.22122,1.70916 -0.0929,1.3002 -0.36487,3.88944 -0.76474,5.00911 z" />
		<path
   id="EYE-RIGHT"
   class="st0"
   d="m 270.58487,205.42973 c 0.60001,0 1.20001,0.10001 1.79999,0.30001 1.89999,0.6 3.5,1.69999 4.5,3.5 0,0.1 0.1,0.19999 0.1,0.19999 0.29999,0.60001 0.29999,0.7 -0.29998,1 -0.29999,0.2 -0.70002,0.30001 -1,0.5 -0.29999,0.2 -0.5,0.2 -0.79999,-0.1 -0.5,-0.5 -1,-1 -1.60001,-1.4 -0.6,-0.5 -1.20001,-0.8 -1.89999,-1 -0.79999,-0.19999 -1.5,-0.1 -2.20001,0.2 -0.5,0.2 -0.9,0.60001 -1.10001,1 -0.32309,0.64619 -0.64621,1.29239 -0.9693,1.93861 -0.17059,0.34122 -0.4837,0.60215 -0.85519,0.68888 -1.17862,0.27514 -1.79718,-0.25411 -1.67551,-1.2275 0.20001,-1.19999 0.5,-2.39999 1.10001,-3.5 0.29998,-0.69999 1.39996,-1.37507 2.09997,-1.57507 0.99997,-0.39999 1.70001,-0.42491 2.80002,-0.52492 z" />
		<path
   id="EYE-LEFT"
   class="st0"
   d="m 248.98486,210.32974 c 1.10001,-0.1 2.2,0.30001 3.10001,1.10001 0.5,0.5 1,0.89999 1.5,1.39999 0.39999,0.4 0.6,0.9 0.5,1.5 0,0.30001 -0.10001,0.4 -0.4,0.60001 -0.39999,0.3 -0.89999,0.3 -1.39999,0.1 -0.39999,-0.1 -0.7,-0.3 -1.10001,-0.6 -0.19999,-0.2 -0.5,-0.4 -0.8,-0.5 -1.6,-1 -3.89999,-0.60001 -5,1.1 -0.39999,0.60001 -0.7,1.2 -0.89999,1.9 -0.10001,0.3 -0.30001,0.7 -0.4,1 -0.19999,0.39999 -0.5,0.6 -1,0.6 -0.39999,0 -0.69999,-0.3 -0.8,-0.6 -0.10001,-0.2 -0.10001,-0.4 -0.10001,-0.5 -0.1,-1.10001 0,-2.2 0.5,-3.2 0.7,-1.2 1.60001,-2.2 2.7,-2.89999 1.09999,-0.70001 2.29999,-1.00002 3.59999,-1.00002 z" />
		<g
   id="g3"
   inkscape:label="ROBOT-EAR">
			<path
   id="EAR-ROBOT-WHITE"
   inkscape:label="ROBOT-EAR-OUTSIDE"
   class="st1"
   d="m 226.48486,231.12975 c 0.10001,-0.10001 0.2,-0.2 0.30001,-0.4 1.1,-1.5 1.39999,-3.1 1.1,-4.89999 -0.3,-1.5 -0.89999,-2.9 -1.89999,-4 -0.80001,-0.9 -1.7,-1.5 -2.9,-1.9 -0.3,-0.1 -0.6,-0.19999 -0.89999,-0.3 -0.10001,0 -0.2,-0.10001 -0.2,-0.10001 -0.1,-0.19999 0.0185,-0.20675 0.22223,-0.30487 1.11397,-0.29815 1.87776,-0.39512 2.87776,-0.0951 0.80001,0.2 1.5,0.60001 2.10001,1.2 2.10001,2.19999 2.89999,4.8 2.10001,7.69999 -0.4,1.30001 -1.10001,2.30001 -2.30001,3 -0.1,0.10001 -0.3,0.10001 -0.39999,0.2 -3e-5,-1e-5 -0.10004,-1e-5 -0.10004,-0.1 z" />
			<path
   id="EAR-ROBOT-CIRCLE-WHITE"
   inkscape:label="ROBOT-EAR-MIDDLE"
   class="st1"
   d="m 225.68486,227.02974 c 0,1.2 -0.39999,2.10001 -1.2,2.89999 -0.8,0.80001 -1.69999,0.80001 -2.5,0 -0.3,-0.3 -0.6,-0.6 -0.8,-1 -0.89999,-1.5 -1.2,-3.19999 -1,-4.89999 0.10001,-0.5 0.2,-1 0.5,-1.39999 0.39999,-0.60001 0.7,-0.59362 1.3,-0.5 1.10001,0.3 2.10001,0.89999 2.7,2 0.60001,0.79998 0.90001,1.79998 1,2.89999 z" />
			<path
   id="EAR-ROBOT-DOT"
   inkscape:label="ROBOT-EAR-CENTER"
   class="st0"
   d="m 221.38486,226.12975 c 0,-0.5 0.3,-0.9 0.6,-1 0.4,-0.10001 0.9,0 1.2,0.39999 0.3,0.39999 0.3,0.89999 0.2,1.3 -0.2,0.60001 -0.9329,0.73103 -1.4,0.4 -0.39999,-0.2 -0.6,-0.59999 -0.6,-1.09999 z" />
		</g>
		<g
   id="g2"
   inkscape:label="RIGHT-EAR">
			<path
   id="EAR-LEFT-MIDDLE-WHITE"
   inkscape:label="RIGHT-EAR-MIDDLE"
   class="st1"
   d="m 262.48486,196.82974 c 0.5,-2 4,-7.5 5.79999,-8.89999 1.01785,0.79881 3.74948,4.61131 4.79999,7.39999 -0.70001,0.10001 -0.70001,0.2 -1,-0.3 -0.70001,-1.10001 -1.29999,-2.2 -2.10001,-3.2 -0.29999,-0.39999 -0.6,-0.8 -0.89999,-1.1 -0.36591,-0.25975 -0.36591,-0.25975 -0.79999,0 -1.20001,1 -2.10001,2.19999 -2.79999,3.6 -0.39999,0.60001 -0.70001,1.2 -1,1.9 -0.1,0.19999 -0.26541,0.35112 -0.5,0.39999 -0.59076,0.12306 -1,0.20001 -1.5,0.20001 z" />
			<path
   id="EAR-LEFT-INSIDE_1_"
   inkscape:label="RIGHT-EAR-INSIDE"
   class="st1"
   d="m 266.25491,196.144 c 0.34214,-1.21852 1.4827,-3.24942 2.16703,-3.79102 0.11404,-0.13539 0.34213,-0.13539 0.4562,0.13541 0.57025,0.94775 1.02646,1.89549 1.59674,2.70787 0.11405,0.13539 0,0.40617 -0.22812,0.40617 h -0.11407 c -1.25455,-1e-5 -2.50912,0.27077 -3.87778,0.54157 z" />
		</g>
		<g
   id="g1"
   inkscape:label="LEFT-EAR">
			<path
   id="EAR-RIGHT-MIDDLE-WHITE"
   inkscape:label="LEFT-EAR-MIDDLE"
   class="st1"
   d="m 228.56976,205.85277 c -0.5914,0.2189 -0.93808,0.37697 -1.43808,0.57698 -0.3,0.1 -0.6,0.1 -0.89999,-0.10001 -1,-0.6 -2,-1.1 -3,-1.6 -0.9,-0.4 -1.8,-0.7 -2.8,-0.80001 -0.5,-0.1 -0.54134,0.0651 -0.7,0.5 -0.0753,0.3048 -0.10001,0.5 -0.10001,0.80001 0,1.19999 -0.0154,2.30832 0.10001,3.5 0.0587,0.60543 -0.14293,0.7355 -0.60001,1.19999 -0.32261,0.26911 -0.12884,0.13071 -0.3,0.2 -0.13109,0.0531 -0.3,0 -0.3,-0.2 0,-0.1 0,-0.1 0,-0.19999 0,-2.2 -0.2,-4.30001 -0.2,-6.5 0,-0.5 0.0721,-1.00606 0.10001,-1.60001 0.0141,-0.29968 0.1,-0.39999 0.39999,-0.3 0.49797,0.0996 1.03665,0.28433 1.4944,0.39859 0.004,9.7e-4 0.008,0.002 0.0114,0.003 2.39772,0.79968 4.59595,1.79903 6.79416,2.99806 0.4,0.2 0.80001,0.4 1.2,0.7 0.18257,0.0992 0.29884,0.2155 0.4151,0.36497 z" />
			<path
   id="EAR-LEFT-INSIDE"
   inkscape:label="LEFT-EAR-INSIDE"
   class="st1"
   d="m 221.08485,208.59253 c -0.1,0.0437 0,-0.56279 0,-0.66278 0,-0.5 0,-1 0,-1.60001 0,-1 0,-1 0.9,-0.6 0.6,0.19999 1.19999,0.5 1.8,0.8 0.20419,0.12434 0.87346,0.48253 0.98407,0.59367 -1.11238,0.36405 -2.1563,0.69706 -3.32283,1.29265 z" />
		</g>
	</g>
</g>
</svg>
