<?xml version="1.0" standalone="no"?>
<!DOCTYPE svg PUBLIC "-//W3C//DTD SVG 1.0//EN" "http://www.w3.org/TR/2001/REC-SVG-20010904/DTD/svg10.dtd">
<svg xmlns="http://www.w3.org/2000/svg" xmlns:xlink="http://www.w3.org/1999/xlink" id="body_1" width="48" height="40">

<g transform="matrix(0.19138758 0 0 0.19138758 0.2842121 -0)">
    <path d="M218.15 206.5L29.68 206.5C 14.67 206.5 2.5 194.33 2.5 179.32L2.5 179.32L2.5 29.68C 2.5 14.67 14.67 2.5 29.68 2.5L29.68 2.5L218.15 2.5C 233.15999 2.5 245.32999 14.67 245.32999 29.68L245.32999 29.68L245.32999 179.32999C 245.32999 194.32999 233.15999 206.49998 218.15 206.49998L218.15 206.49998L218.15 206.5z" stroke="#000000" stroke-width="5" fill="#E8CC71" fill-rule="nonzero" />
    <path d="M209.87 73.31C 209.87 63.802414 206.50856 55.687187 199.78569 48.96431C 193.0628 42.241436 184.94759 38.879997 175.44 38.879997C 165.93243 38.879997 157.8172 42.241436 151.09431 48.96431C 144.37144 55.687187 141.01001 63.802414 141.01001 73.31C 141.01001 82.81758 144.37144 90.932816 151.09431 97.655685C 157.8172 104.37856 165.93243 107.740005 175.44 107.74C 184.94759 107.740005 193.0628 104.37856 199.78569 97.655685C 206.50856 90.932816 209.87 82.81758 209.87 73.31" stroke="#000000" stroke-width="7" fill="#E9D581" fill-rule="nonzero" />
    <path d="M106.82 73.31C 106.82 63.802414 103.458565 55.687187 96.73569 48.96431C 90.01282 42.241436 81.89758 38.879997 72.39 38.879997C 62.88242 38.879997 54.76719 42.241436 48.04431 48.96431C 41.321438 55.687187 37.96 63.802414 37.96 73.31C 37.96 82.81758 41.321438 90.932816 48.04431 97.655685C 54.76719 104.37856 62.88242 107.740005 72.39 107.74C 81.89758 107.740005 90.01282 104.37856 96.73569 97.655685C 103.458565 90.932816 106.82 82.81758 106.82 73.31" stroke="#000000" stroke-width="7" fill="#E9D581" fill-rule="nonzero" />
    <path d="M103.44 88.52C 103.44 88.52 110.28 68.909996 123.92 68.909996C 137.56 68.909996 144.4 88.52 144.4 88.52" stroke="#000000" stroke-width="6" fill="none" />
    <path d="M77.84 136.97C 77.84 136.97 96.14 154.44 121.78999 154.44C 147.43999 154.44 166.07999 136.97 166.07999 136.97" stroke="#000000" stroke-width="7" fill="none" />
    <path d="M84.69 130.4C 83.03 135.57999 78.18 139.31999 72.450005 139.31999C 70.15 139.31999 67.990005 138.71999 66.130005 137.65999" stroke="#000000" stroke-width="4" fill="none" />
    <path d="M163.15 130.4C 164.81 135.57999 169.65999 139.31999 175.39 139.31999C 177.69 139.31999 179.85 138.71999 181.71 137.65999" stroke="#000000" stroke-width="4" fill="none" />
    <path d="M116.2 171.88L105.85 171.88C 103.38 171.88 101.38 169.88 101.38 167.41L101.38 167.41L101.38 156.38C 101.38 153.91 103.38 151.91 105.85 151.91L105.85 151.91L116.2 151.91C 118.67 151.91 120.67 153.91 120.67 156.38L120.67 156.38L120.67 167.41C 120.67 169.88 118.67 171.88 116.2 171.88z" stroke="none" fill="#000000" fill-rule="nonzero" />
    <path d="M137.74 171.88L127.39001 171.88C 124.920006 171.88 122.920006 169.88 122.920006 167.41L122.920006 167.41L122.920006 156.38C 122.920006 153.91 124.920006 151.91 127.39001 151.91L127.39001 151.91L137.74 151.91C 140.21 151.91 142.21 153.91 142.21 156.38L142.21 156.38L142.21 167.41C 142.21 169.88 140.21 171.88 137.74 171.88z" stroke="none" fill="#000000" fill-rule="nonzero" />
    <path d="M196.13 73.149994C 196.13 67.62715 194.1774 62.9131 190.27214 59.00786C 186.36691 55.102615 181.65286 53.149994 176.13 53.149994C 170.60716 53.149994 165.89311 55.102615 161.98787 59.00786C 158.08263 62.9131 156.13 67.62715 156.13 73.149994C 156.13 78.672844 158.08263 83.38689 161.98787 87.29213C 165.89311 91.19737 170.60716 93.149994 176.13 93.149994C 181.65286 93.149994 186.36691 91.19737 190.27214 87.29213C 194.1774 83.38689 196.13 78.672844 196.13 73.149994" stroke="#000000" stroke-width="1" fill="#FFFFFF" fill-rule="nonzero" />
    <path d="M185.25 80.97C 185.25 78.451584 184.3596 76.30199 182.57881 74.52119C 180.79803 72.7404 178.64844 71.850006 176.13 71.85C 173.61159 71.850006 171.46198 72.7404 169.6812 74.52119C 167.90042 76.30199 167.01001 78.451584 167.01001 80.97C 167.01001 83.48842 167.90042 85.63803 169.6812 87.418816C 171.46198 89.199615 173.61159 90.09001 176.13 90.090004C 178.64844 90.09001 180.79803 89.199615 182.57881 87.418816C 184.3596 85.63803 185.25 83.48842 185.25 80.97" stroke="none" fill="#000000" fill-rule="nonzero" />
    <path d="M91.95999 73.149994C 91.95999 67.62715 90.00737 62.9131 86.10213 59.00786C 82.196884 55.102615 77.48284 53.149994 71.95999 53.149994C 66.43715 53.149994 61.7231 55.102615 57.817856 59.00786C 53.912613 62.9131 51.95999 67.62715 51.95999 73.149994C 51.95999 78.672844 53.912613 83.38689 57.817856 87.29213C 61.7231 91.19737 66.43715 93.149994 71.95999 93.149994C 77.48284 93.149994 82.196884 91.19737 86.10213 87.29213C 90.00737 83.38689 91.95999 78.672844 91.95999 73.149994" stroke="#000000" stroke-width="1" fill="#FFFFFF" fill-rule="nonzero" />
    <path d="M81.079994 80.97C 81.079994 78.451584 80.1896 76.30199 78.408806 74.52119C 76.62801 72.7404 74.47841 71.850006 71.95999 71.85C 69.441574 71.850006 67.29197 72.7404 65.51118 74.52119C 63.73039 76.30199 62.839996 78.451584 62.839993 80.97C 62.839996 83.48842 63.73039 85.63803 65.51118 87.418816C 67.29197 89.199615 69.441574 90.09001 71.95999 90.090004C 74.47841 90.09001 76.62801 89.199615 78.408806 87.418816C 80.1896 85.63803 81.079994 83.48842 81.079994 80.97" stroke="none" fill="#000000" fill-rule="nonzero" />
    <path d="M13.919999 60.14999L21.21 60.14999L21.21 144.85999L13.919999 144.85999z" stroke="none" fill="#000000" fill-rule="nonzero" />
    <path d="M225.09 60.14999L232.37999 60.14999L232.37999 144.85999L225.09 144.85999z" stroke="none" fill="#000000" fill-rule="nonzero" />
</g>
</svg>