<?xml version="1.0" encoding="UTF-8" standalone="no"?>
<!-- Generator: Adobe Illustrator 24.0.2, SVG Export Plug-In . SVG Version: 6.00 Build 0)  -->

<svg
   version="1.1"
   id="Layer_1"
   x="0px"
   y="0px"
   viewBox="0 0 247.82999 209"
   xml:space="preserve"
   sodipodi:docname="pbot-illustration.svg"
   width="148.7"
   height="125.4"
   inkscape:version="1.1 (c68e22c387, 2021-05-23)"
   xmlns:inkscape="http://www.inkscape.org/namespaces/inkscape"
   xmlns:sodipodi="http://sodipodi.sourceforge.net/DTD/sodipodi-0.dtd"
   xmlns="http://www.w3.org/2000/svg"
   xmlns:svg="http://www.w3.org/2000/svg"><defs
   id="defs118" /><sodipodi:namedview
   id="namedview116"
   pagecolor="#ffffff"
   bordercolor="#666666"
   borderopacity="1.0"
   inkscape:pageshadow="2"
   inkscape:pageopacity="0.0"
   inkscape:pagecheckerboard="0"
   showgrid="false"
   inkscape:zoom="0.75900652"
   inkscape:cx="123.18735"
   inkscape:cy="-63.899319"
   inkscape:window-width="1600"
   inkscape:window-height="847"
   inkscape:window-x="-8"
   inkscape:window-y="-8"
   inkscape:window-maximized="1"
   inkscape:current-layer="Layer_1" />
<style
   type="text/css"
   id="style83">
	.st0{fill:#E8CC71;stroke:#000000;stroke-width:5;stroke-miterlimit:10;}
	.st1{fill:#E9D581;stroke:#000000;stroke-width:7;stroke-miterlimit:10;}
	.st2{fill:none;stroke:#000000;stroke-width:6;stroke-miterlimit:10;}
	.st3{fill:none;stroke:#000000;stroke-width:7;stroke-miterlimit:10;}
	.st4{fill:none;stroke:#000000;stroke-width:4;stroke-miterlimit:10;}
	.st5{fill:#FFFFFF;stroke:#000000;stroke-miterlimit:10;}
</style>
<path
   class="st0"
   d="M 218.15,206.5 H 29.68 C 14.67,206.5 2.5,194.33 2.5,179.32 V 29.68 C 2.5,14.67 14.67,2.5 29.68,2.5 h 188.47 c 15.01,0 27.18,12.17 27.18,27.18 v 149.65 c 0,15 -12.17,27.17 -27.18,27.17 z"
   id="path85" />
<circle
   class="st1"
   cx="175.44"
   cy="73.309998"
   r="34.43"
   id="circle87" />
<circle
   class="st1"
   cx="72.389999"
   cy="73.309998"
   r="34.43"
   id="circle89" />
<path
   class="st2"
   d="m 103.44,88.52 c 0,0 6.84,-19.61 20.48,-19.61 13.64,0 20.48,19.61 20.48,19.61"
   id="path91" />
<path
   class="st3"
   d="m 77.84,136.97 c 0,0 18.3,17.47 43.95,17.47 25.65,0 44.29,-17.47 44.29,-17.47"
   id="path93" />
<path
   class="st4"
   d="m 84.69,130.4 c -1.66,5.18 -6.51,8.92 -12.24,8.92 -2.3,0 -4.46,-0.6 -6.32,-1.66"
   id="path95" />
<path
   class="st4"
   d="m 163.15,130.4 c 1.66,5.18 6.51,8.92 12.24,8.92 2.3,0 4.46,-0.6 6.32,-1.66"
   id="path97" />
<path
   d="m 116.2,171.88 h -10.35 c -2.47,0 -4.47,-2 -4.47,-4.47 v -11.03 c 0,-2.47 2,-4.47 4.47,-4.47 h 10.35 c 2.47,0 4.47,2 4.47,4.47 v 11.03 c 0,2.47 -2,4.47 -4.47,4.47 z"
   id="path99" />
<path
   d="m 137.74,171.88 h -10.35 c -2.47,0 -4.47,-2 -4.47,-4.47 v -11.03 c 0,-2.47 2,-4.47 4.47,-4.47 h 10.35 c 2.47,0 4.47,2 4.47,4.47 v 11.03 c 0,2.47 -2,4.47 -4.47,4.47 z"
   id="path101" />
<circle
   class="st5"
   cx="176.13"
   cy="73.149994"
   r="20"
   id="circle103" />
<circle
   cx="176.13"
   cy="80.970001"
   r="9.1199999"
   id="circle105" />
<circle
   class="st5"
   cx="71.959991"
   cy="73.149994"
   r="20"
   id="circle107" />
<circle
   cx="71.959991"
   cy="80.970001"
   r="9.1199999"
   id="circle109" />
<rect
   x="13.919999"
   y="60.14999"
   width="7.29"
   height="84.709999"
   id="rect111" />
<rect
   x="225.09"
   y="60.14999"
   width="7.29"
   height="84.709999"
   id="rect113" />
</svg>
