<?xml version="1.0" encoding="UTF-8" standalone="no"?>
<!-- Generator: Adobe Illustrator 20.0.0, SVG Export Plug-In . SVG Version: 6.00 Build 0)  -->

<svg
   version="1.1"
   id="svg2"
   inkscape:version="1.1 (c68e22c387, 2021-05-23)"
   sodipodi:docname="pishrobotcustomespbotfrienda-.svg"
   x="0px"
   y="0px"
   viewBox="0 0 130.75087 130.18274"
   overflow="scroll"
   xml:space="preserve"
   width="130.75085"
   height="130.18274"
   xmlns:inkscape="http://www.inkscape.org/namespaces/inkscape"
   xmlns:sodipodi="http://sodipodi.sourceforge.net/DTD/sodipodi-0.dtd"
   xmlns="http://www.w3.org/2000/svg"
   xmlns:svg="http://www.w3.org/2000/svg"><defs
   id="defs1362" />
<sodipodi:namedview
   bordercolor="#666666"
   borderopacity="1.0"
   id="base"
   inkscape:current-layer="svg2"
   inkscape:cx="197.80755"
   inkscape:cy="71.405184"
   inkscape:document-units="px"
   inkscape:guide-bbox="true"
   inkscape:pageopacity="0.0"
   inkscape:pageshadow="2"
   inkscape:snap-center="true"
   inkscape:window-height="847"
   inkscape:window-maximized="1"
   inkscape:window-width="1600"
   inkscape:window-x="-8"
   inkscape:window-y="-8"
   inkscape:zoom="1.6455388"
   pagecolor="#ffffff"
   showgrid="false"
   showguides="true"
   inkscape:pagecheckerboard="0"
   fit-margin-top="0"
   fit-margin-left="0"
   fit-margin-right="0"
   fit-margin-bottom="0"
   units="px"
   width="130.75085px"
   viewbox-x="-6">
	
	
</sodipodi:namedview>
<g
   id="g1359"
   transform="matrix(1.0000013,0,0,1,65.350928,65.1)">
	<g
   id="g1357">
		<path
   fill="#5f5f5f"
   d="m 47.8,-60 c 0.6,2.1 0.8,4.2 0.8,6.4 0,2 -0.3,3.8 -0.8,5.6 -0.7,2.1 -0.9,4.4 -2.2,6.2 -1,1.3 -1.1,2.6 -1.1,4.1 0,7.2 0,14.3 0,21.5 0,13.2 0,26.4 0,39.7 0,1.5 0.3,2.5 1.4,3.6 1.8,1.7 3.8,3.2 5.8,4.7 0.5,0.4 1.1,0.5 1.7,0.2 0.6,-0.3 1.1,-0.6 1.7,-0.8 0.6,-0.2 1.3,-0.5 1.5,0.5 -0.1,0.1 -0.2,0.1 -0.3,0.1 -0.3,0 -0.6,-0.1 -0.9,0 -0.5,0.1 -1,0.4 -1.4,0.6 -1,0.7 -1.8,0.5 -2.8,-0.2 -2,-1.5 -4.1,-2.9 -5.7,-4.8 -0.3,-0.4 -0.8,-0.5 -1.2,-0.8 -0.2,0.3 -0.1,0.6 -0.1,0.9 -0.3,0.7 0,1.6 -0.3,2.3 -0.2,0.2 -0.4,0.1 -0.5,-0.1 -0.2,-0.4 -0.2,-0.8 -0.2,-1.2 0,-12.7 0,-25.4 0,-38.1 0,-6.3 0,-12.6 0,-18.9 0,-1.7 0,-1.7 -1.7,-1.7 -1.6,0 -3.3,0 -4.9,0 -1.7,0 -2.2,-0.5 -2.2,-2.3 0,-2.4 0,-4.7 0,-7.1 0,-1.7 0.5,-2.1 2.2,-2 1.8,0.1 3.7,0 5.5,0.1 0.5,0 1,0.1 1.5,0.3 0.4,0.8 0.5,1.7 0.5,2.5 0,1.7 0,3.4 0,5.1 0,0.4 0.2,0.9 -0.4,1.1 -0.6,-0.5 -0.6,-1.2 -0.7,-1.8 0,-1.4 0,-2.7 0,-4.1 0,-0.8 -0.4,-1.2 -1.2,-1.2 -1.5,0 -2.9,0 -4.4,0 -0.8,0 -1.1,0.3 -1.1,1.1 -0.1,1.4 -0.4,2.8 -0.1,4.2 0.1,0.5 0,1 -0.3,1.5 -0.5,0.2 -0.6,-0.1 -0.6,-0.4 0,-2.2 -0.1,-4.4 0,-6.4 0,2.5 -0.2,5.2 0.1,7.8 0.4,0 0.4,-0.3 0.6,-0.4 0.6,-0.2 1.2,-0.1 1.8,0 2,0.3 3.9,0 5.8,-0.2 0.3,0.2 0.2,0.6 0.4,1 0.2,-2.7 0.1,-5.3 0.1,-7.9 0,-0.8 0.1,-1.4 0.5,-2 0.8,-1 1.3,-2.2 1.4,-3.5 0,-0.2 0.1,-0.4 0.2,-0.5 0.7,-0.6 0.6,-1.4 0.9,-2.2 1,-3.1 1.3,-6.2 0.7,-9.4 -0.2,-1 -0.6,-2 -0.4,-3 0.1,-0.1 0.2,-0.1 0.4,-0.1 z"
   id="path969" />
		<path
   fill="#4a4a4a"
   d="m -46.4,30.2 c 0.1,-0.2 0.1,-0.4 0.3,-0.5 1.7,-1.1 1.7,-2.7 1.7,-4.4 0,-21.6 0,-43.3 0,-64.9 0,-1.2 -0.6,-2 -1.1,-3 -1.6,-3.1 -2.3,-6.4 -2.5,-9.9 -0.1,-2.5 -0.2,-5.1 0.7,-7.6 0.2,0 0.5,0 0.7,0 0.1,0.1 0.1,0.2 0.1,0.4 -1.1,1.9 -0.6,4 -0.7,6 0,0.4 0,0.9 0,1.3 0,0.8 -0.1,1.6 0,2.5 0,-0.2 0.1,-0.4 0.3,-0.5 1,1.1 1.1,2.4 0.9,3.8 0,0 -0.5,-0.4 -0.5,-0.5 0.1,0.8 0.5,1.4 0.7,2.1 0.3,0.9 0.7,1.8 1.2,2.6 0.8,1.2 1,2.4 1,3.8 -0.1,1.9 0,3.9 0,5.8 0,1.5 0.2,1.6 1.6,1.7 0.3,0 0.6,0 1,0 1.7,0 3.5,0 5.2,0 0.6,0 1.1,-0.1 1.1,-0.9 0.4,-2.7 0.2,-5.4 0,-8.1 -0.3,-0.3 -0.7,-0.1 -1.1,-0.2 -2.3,-0.3 -4.6,-0.3 -6.9,-0.1 -1.2,-0.4 -1.6,-1 -1.2,-2 1.3,1.1 2.8,1 4.3,0.8 1.5,-0.2 3,0.2 4.5,0.1 0.9,-0.1 1.4,0.5 1.4,1.4 0.1,2.8 0.1,5.6 0,8.4 0,1.1 -0.5,1.4 -1.6,1.5 -2.2,0.1 -4.4,0 -6.6,0 -0.7,0 -1.4,0.1 -1.5,1 -0.1,2.2 -0.1,4.4 -0.1,6.7 0.1,12.8 0.1,25.6 0,38.4 0,2.7 0.1,5.3 0,8 0,1.3 -0.2,2.6 -0.2,3.9 -0.4,0.6 -1.1,1 -1.7,1.5 -0.1,0.6 -0.4,1.1 -1,0.9 z"
   id="path971" />
		<path
   fill="#333333"
   d="m 47.3,-60 c 1,2.8 1.1,5.8 0.9,8.7 -0.1,1.4 -0.3,2.8 -1,4.1 -0.2,0.4 -0.4,0.8 -0.4,1.2 0,0.5 -0.2,0.6 -0.7,0.6 -0.5,-0.5 -0.3,-1.1 -0.2,-1.7 0.8,-2.9 1.1,-5.8 0.9,-8.8 -0.1,-0.9 -0.1,-1.8 -0.7,-2.6 -0.5,-0.3 -1,0 -1.5,0 -0.6,-0.1 -1.2,0 -1.3,-0.7 -0.1,-0.8 0.7,-0.6 1,-0.8 1.1,0 2,0 3,0 z"
   id="path973" />
		<path
   fill="#757575"
   d="m -41.3,-60 c 0.2,0.5 0.6,0.6 1,0.7 3.3,0.4 6.4,1.4 9.2,3.3 2.3,1.5 4,3.5 5.8,5.4 0.1,0.1 0.1,0.2 0,0.3 -0.7,0.2 -1,-0.3 -1.4,-0.7 -2.4,-2.9 -5.3,-5.2 -8.9,-6.4 -1.9,-0.6 -3.8,-1.2 -5.8,-1.4 -0.5,-0.2 -1,-0.1 -1.5,-0.2 -0.6,-0.1 -1.2,-0.2 -1.3,-1 1,0 2,0 2.9,0 z"
   id="path975" />
		<path
   fill="#7b7b7b"
   d="m 44.4,-60 c -0.2,0.3 -1,0.2 -0.8,0.8 0.2,0.6 0.8,0.3 1.2,0.4 0.6,0.2 1.2,-0.7 1.7,0 -0.8,0.7 -1.7,0.6 -2.6,0.6 -0.7,0.1 -1.4,0.3 -2,0 -0.3,-0.3 -0.1,-0.4 0.1,-0.5 0,-0.1 0.3,-0.1 0.1,-0.2 -0.2,-0.1 -0.5,0.1 -0.8,0.1 -3.1,0.6 -6.1,1.2 -8.8,2.9 -0.3,0.2 -0.7,0.5 -1.1,0.3 -0.1,-0.1 -0.1,-0.2 0,-0.3 1.5,-1.3 3.4,-2 5.3,-2.5 1.4,-0.4 2.7,-1 4.2,-0.9 0.3,0 0.6,-0.3 0.7,-0.6 0.9,-0.1 1.9,-0.1 2.8,-0.1 z"
   id="path977" />
		<path
   fill="#363636"
   d="m -44.1,-60 c 0.7,1.1 2,0.4 2.9,0.9 -0.3,0.3 -0.7,0.5 -1,0.7 -1,-0.3 -2.2,0.2 -3.1,-0.5 -0.2,-0.1 0.7,-0.5 -0.1,-0.5 -0.4,0 -0.8,0 -1.1,-0.4 0,-0.1 0,-0.1 0,-0.2 0.8,0 1.6,0 2.4,0 z"
   id="path979" />
		<path
   fill="#828282"
   d="m 25.2,57.1 c -0.6,-0.8 -1.5,-1 -2.5,-1 -15.8,0 -31.5,0 -47.3,0 -0.5,0 -1,0 -1.5,0.3 -0.2,-0.2 -0.2,-0.4 -0.2,-0.6 0.1,-0.1 0.2,-0.3 0.3,-0.3 4.5,-0.1 9,0 13.5,-0.1 2.2,0 4.4,0 6.7,0 -6.2,0 -12.5,0 -18.7,0 -0.6,0 -1.3,0.1 -1.8,-0.4 -0.2,-0.7 0.3,-0.6 0.7,-0.6 2.5,0.4 4.9,-0.2 7.4,0 2.1,0.2 4.2,0 6.3,-0.2 2.8,-0.3 5.6,0.4 8.3,0.2 -0.5,-0.1 -1.1,-0.2 -1.7,-0.3 -0.3,0.1 -0.7,0.1 -0.7,-0.4 0.7,-0.5 1.4,-0.3 2.1,-0.2 1.5,0.3 3.1,0.1 4.6,0.2 1.2,0 2.4,-0.3 3.5,0.2 0.1,0.3 -0.1,0.4 -0.3,0.6 0.4,0.1 0.8,0.1 1.2,0 5.1,-0.4 10.2,0.1 15.3,0 1.1,0 2.2,0 3.3,-0.1 0.4,0 1.1,-0.3 1.1,0.6 -0.5,0.5 -1.2,0.4 -1.8,0.4 -5.7,0 -11.4,0 -17,0 -0.4,0 -0.8,-0.1 -1.1,0.1 0.1,-0.2 0.5,-0.1 0.7,-0.1 6,0 11.9,0 17.9,0 0.3,0 0.6,0 0.8,0.1 0.6,0.5 1.3,0.8 0.9,1.6 z"
   id="path981" />
		<path
   fill="#3e3e3e"
   d="m -46.4,30.2 c 0.3,-0.2 0.7,-0.5 1,-0.7 0.5,0 0.9,-0.1 1.4,-0.1 0.3,0.2 0.6,0.5 1,0.6 0.1,0 0.3,0.1 0.4,0.1 11.3,0 22.7,0 34,0 0.4,0 0.8,0 1.2,-0.1 0.5,0.3 1.3,0.5 0.6,1.3 -7.4,-0.2 -14.9,-0.1 -22.3,-0.1 -0.1,0 -0.3,0 -0.4,0 -0.3,0 -0.5,-0.3 -0.9,-0.2 0,0.9 1.4,1.5 0.5,2.5 -0.3,-0.1 -0.5,-0.3 -0.6,-0.6 -0.5,-1.4 -1.5,-1.6 -2.9,-1.6 -3.1,0.1 -6.2,0 -9.3,0 -0.5,0 -1.1,0.1 -1.5,-0.3 -0.7,-0.8 -1.3,-0.4 -1.9,0.1 -1.5,1.3 -3.1,2.5 -4.6,3.8 -1.1,1 -2.2,1.1 -3.5,0.3 -0.4,-0.3 -0.9,-0.6 -1.4,-0.4 -0.5,0.4 -0.2,0.8 -0.1,1.2 0.2,0.8 0.1,1.5 -0.6,2 -0.5,0.4 -0.9,0.8 -1.5,1 -0.9,-0.3 -0.5,-0.8 0,-1 1.2,-0.7 1.4,-1.6 1.2,-2.8 -0.2,-1.6 0.6,-2.3 1.9,-1.4 1.8,1.1 3.1,0.7 4.5,-0.7 0.9,-0.9 2,-1.7 3.1,-2.4 0.2,-0.1 0.4,-0.4 0.7,-0.5 z"
   id="path983" />
		<path
   fill="#4f4f4f"
   d="m 38,49.2 c -0.3,0.9 -1,1.5 -1.7,2.1 -0.7,0.6 -0.6,1 0,1.4 1.1,0.8 1.8,1.9 2.6,2.9 0.6,0.6 1,1.5 0.4,2.3 -0.6,0.8 -1.7,0.6 -2.4,0.1 -1.1,-0.7 -1.6,-0.6 -2.1,0.7 -0.6,1.5 -2.1,1.8 -3.5,0.8 -0.5,-0.4 -1,-0.4 -1.4,0.1 -0.2,0.4 -0.5,0.5 -0.9,0.4 0,-0.8 0.6,-1 1,-1.4 0.2,-0.2 0.5,-0.2 0.7,-0.3 -0.5,-0.3 -0.6,0.2 -0.9,0.3 -0.1,0 -0.2,-0.1 -0.3,-0.1 0,-1.2 0.8,-1.7 1.7,-1.1 0.1,0.1 0.2,0.1 0.3,0.2 1.6,1.2 1.7,1.2 2.1,-0.7 0.2,-0.9 0.7,-1.2 1.7,-1.1 0.8,0.1 1.5,0.6 2.4,0.8 0.2,-0.7 -0.4,-1 -0.5,-1.5 -0.1,-1 -0.5,-1.5 -1.5,-1.5 -0.6,-0.1 -1.2,-0.3 -1.4,-1 0.7,-0.3 0.9,-0.7 0.2,-1.2 0.4,-0.9 1.1,-1.4 1.9,-1.7 0.2,0.2 0.2,0.4 0.1,0.6 C 37,49.8 37.1,49 38,49.2 Z"
   id="path985" />
		<path
   fill="#6e6e6e"
   d="m -52.3,44.8 c 0,0.4 -0.3,0.7 -0.7,0.6 -0.4,0 -0.4,-0.4 -0.5,-0.7 -0.2,-0.9 -0.6,-1.1 -1.4,-0.6 -0.9,0.5 -2,-0.1 -1.8,-1.1 0.2,-1 -0.2,-1.3 -1,-1.6 -0.5,-0.2 -1.3,-0.2 -1.4,-1 0.8,0.1 0.8,-0.9 1.5,-1 0.3,0.4 0.6,0.8 1.2,0.9 1.6,0.3 1.6,0.3 1.5,2 1.5,-1 2.1,0.2 2.8,1.1 0.1,0.1 0.1,0.2 0.1,0.3 -0.6,0.3 -1.2,0.6 -0.3,1.1 z"
   id="path987" />
		<path
   fill="#555555"
   d="m -30.7,59.9 c -0.4,0.1 -0.7,0 -0.9,-0.4 -0.3,-0.4 -0.9,-0.5 -1.1,-0.2 -0.9,1 -2,0.6 -3,0.6 -0.4,-0.5 -0.8,-1 -1,-1.6 -0.3,-0.9 -0.7,-1 -1.5,-0.5 -0.3,0.2 -0.6,0.5 -1.1,0.3 -0.2,-0.4 -0.6,-0.3 -0.8,-0.5 -0.4,-0.4 -0.7,-0.8 0.1,-1.1 0.5,0.3 1,0.1 1.5,-0.2 0.5,-0.3 1,-0.5 1.5,-0.6 1.1,-0.2 1.6,0.1 1.8,1.2 0.3,1.7 0.3,1.7 2,1 0.3,0.5 0.9,0.5 1.4,0.6 0.1,0 0.2,0.1 0.3,0.1 0.4,0.4 0.9,0.7 0.8,1.3 z"
   id="path989" />
		<path
   fill="#b7b7b7"
   d="m -39.3,58.1 c 0,0 0.1,0 0.1,0 0.8,0 1.5,-1.4 2.4,-0.4 0.5,0.6 0.8,1.5 1.1,2.3 -0.8,-0.2 -0.9,-1 -1.2,-1.6 -0.3,-0.7 -0.7,-0.7 -1.1,-0.3 -0.4,0.4 -0.9,0.5 -1.4,0.5 -0.7,0 -1.6,0.3 -1.9,-0.6 -0.3,-0.8 -0.1,-1.7 0.5,-2.3 0.8,-1 1.7,-1.9 2.6,-2.8 0.5,-0.5 0.6,-0.9 0,-1.4 -1.9,-2 -3.4,-4.4 -4.8,-6.8 -0.1,-0.2 -0.1,-0.4 -0.2,-0.7 0.8,0 0.9,0.7 1.2,1.2 0.9,1.5 1.9,2.9 3,4.3 0.3,0.5 0.8,0.9 1.2,1.4 1.1,1.1 1.1,1.4 0,2.5 -0.8,0.8 -1.5,1.7 -2.2,2.5 -1.1,1.1 -0.9,1.6 0.7,2.2 z"
   id="path991" />
		<path
   fill="#2a2a2a"
   d="m 38,49.2 c -0.6,0.5 -1.3,1.1 -2.1,1.8 0.1,-0.7 0.7,-0.8 0.6,-1.3 -0.1,-0.1 -0.1,-0.3 0,-0.4 2.4,-3.1 4.3,-6.4 6.3,-9.8 0.1,-0.1 0,0.1 0.1,-0.1 0.3,-0.2 0.6,-0.2 0.8,0.2 0.2,0.6 -0.3,1 -0.5,1.4 -1.1,2.3 -2.6,4.4 -4,6.6 -0.5,0.4 -0.5,1.2 -1.2,1.6 z"
   id="path993" />
		<path
   fill="#2c2c2c"
   d="m -39.2,49.4 c -1.2,-1.2 -2,-2.7 -3,-4.2 -0.3,-0.5 -0.5,-1.1 -1,-1.4 -0.3,-0.5 -0.5,-1.1 -0.8,-1.6 -0.1,-0.5 -0.8,-0.7 -0.8,-1.3 0.2,-0.7 0.7,-0.6 1.1,-0.3 0.6,0.8 1.2,1.6 1.5,2.5 0.7,1.8 2.1,3.2 3.1,4.8 0.3,0.5 0.7,1 0.9,1.6 0,0.4 -0.1,0.6 -0.5,0.4 -0.1,0 -0.2,-0.3 -0.5,-0.5 z"
   id="path995" />
		<path
   fill="#4c4c4c"
   d="m -57.8,39.3 c -0.5,0.3 -0.2,1.8 -1.5,0.9 -0.3,-1.3 0.8,-1.7 1.4,-2.2 0.9,-0.7 1.2,-1.4 1,-2.6 -0.3,-1.8 0.7,-2.6 2.2,-1.7 2,1.2 3.2,0.3 4.6,-0.9 0.9,-0.8 1.7,-1.7 2.9,-2 -1.5,1.3 -3.1,2.6 -4.6,3.9 -0.5,0.4 -1,0.3 -1.5,0.1 -0.6,-0.3 -1.2,-0.6 -1.8,-0.8 -1.1,-0.4 -1.4,-0.2 -1.4,1 0,1.4 0.2,2.7 -1.4,3.5 -0.3,0.1 -0.4,0.5 0.1,0.6 0.3,0.2 0.2,0.2 0,0.2 z"
   id="path997" />
		<path
   fill="#505050"
   d="m -43.7,40.8 c -0.4,0 -0.8,-0.3 -1,0.3 -1.3,0.6 -2.8,0.9 -4.2,1.1 -1.4,0.2 -2.2,1 -2.9,1.9 -0.1,0.1 -0.1,0.1 -0.2,0.1 -0.2,-0.1 -0.3,-0.3 -0.3,-0.5 0,-0.1 0,-0.2 0,-0.3 -0.1,-1.3 0.7,-1.8 1.7,-2.1 1.9,-0.7 3.9,-0.9 5.9,-1.2 0.5,-0.1 1.1,-0.1 1,0.7 z"
   id="path999" />
		<path
   fill="#595959"
   d="m 59.3,37.9 c 0.1,1 -0.7,1.1 -1.4,1.1 -0.9,0.1 -1.1,0.4 -1,1.2 0,1.3 -0.4,1.7 -1.7,1.4 -0.7,-0.2 -1.3,0 -1.5,0.6 -0.4,1.4 -0.8,0.9 -1.4,0.2 -0.1,-0.2 -0.3,-0.3 -0.4,-0.4 -0.1,-0.1 -0.1,-0.3 0,-0.4 0.4,-0.2 0.6,0.2 0.9,0.3 0.2,-0.2 -0.1,-0.4 0,-0.6 0.2,-0.4 0.2,-0.9 0.8,-1 0.1,0.1 0.2,0.2 0.3,0.2 -0.1,-0.2 -0.3,-0.2 -0.4,-0.3 0.1,-0.7 0.7,-0.7 1,-0.4 0.7,0.5 0.9,0 1.3,-0.4 0.8,0.6 0.4,1.3 0,1.8 0.5,-0.3 0.4,-0.8 0.4,-1.3 0,-0.9 0.4,-1.4 1.3,-1.5 0.6,-0.1 1.1,-0.7 1.8,-0.5 z"
   id="path1001" />
		<path
   fill="#393939"
   d="m -31.7,58.8 c -0.4,0 -0.7,0 -1.1,0 -0.7,0.1 -0.3,-0.4 -0.4,-0.7 0.3,-1 0.8,-1.2 1.6,-0.5 1.8,1.5 1.8,1.5 3.1,-0.4 0.5,-0.7 0.7,-1.5 1.5,-1.9 0.3,0 0.7,0 0.7,0.5 0,0.1 -0.1,0.1 -0.1,0.2 -0.2,0.7 -0.7,1.2 -1.1,1.8 0,0.1 0,0.1 -0.1,0.1 -0.6,0.8 -1.4,1.5 -2.2,2.1 -0.4,0 -0.8,0 -1.2,0 0,-0.5 -0.3,-0.8 -0.7,-1.2 0.2,-0.3 -0.1,-0.4 -0.2,-0.5 0.1,0.1 0.4,0.2 0.2,0.5 z"
   id="path1003" />
		<path
   fill="#363636"
   d="m 30,58.8 c -0.3,0.4 -0.6,0.8 -1,1.2 -0.5,0 -1,0 -1.4,0 -0.6,-0.6 -1.1,-1.4 -1.9,-1.9 -0.2,-0.3 -0.4,-0.6 -0.5,-0.9 0.2,-0.6 -0.5,-0.8 -0.7,-1.2 -0.2,-0.2 -0.3,-0.5 0,-0.7 0.4,-0.2 0.7,0 1,0.2 0.8,1.1 1.4,2.4 2.4,3.4 0.6,0.4 1,0.3 1.5,-0.2 0,0 0.1,-0.1 0.1,-0.1 0.1,0 0.2,0 0.2,0 0.2,-0.1 0.3,0 0.3,0.2 z"
   id="path1005" />
		<path
   fill="#313131"
   d="m 59.3,37.9 c -0.6,0.3 -1.1,0.8 -1.9,0.8 -0.8,0 -0.9,0.7 -0.9,1.4 0,0.6 0,1.2 -1,1.2 0.4,-0.6 0.9,-1.2 0.3,-1.9 -0.4,-0.5 -0.2,-1 0.3,-1.3 0.4,-0.2 0.9,-0.2 1.3,-0.2 0.3,0 0.6,0.1 0.8,-0.2 0.2,-0.3 -0.1,-0.6 -0.3,-0.8 -0.1,-0.1 -0.2,-0.2 -0.4,-0.3 -0.1,-0.1 -0.2,-0.1 -0.3,-0.2 -0.3,-0.3 -0.7,-0.4 -0.7,-0.9 0.1,-0.2 0.2,-0.3 0.4,-0.3 1,0.5 1.8,1.2 2.5,2 -0.1,0.2 -0.1,0.4 -0.1,0.7 z"
   id="path1007" />
		<path
   fill="#c0c0c0"
   d="m 51.9,41.5 c 0,0.2 0,0.3 0,0.5 -1.3,-1.2 -2.9,-1.7 -4.6,-1.9 -0.4,0 -0.9,-0.1 -1.3,-0.3 -1,-0.7 -1.7,-0.3 -2.3,0.6 -0.1,-0.2 -0.1,-0.5 -0.1,-0.7 0,-0.3 0.1,-0.5 0.4,-0.6 0.1,-0.1 0.2,-0.1 0.4,-0.1 2.2,0 4.2,0.7 6.2,1.3 0.6,0.2 1,0.6 1.3,1.2 -0.1,-0.1 -0.1,-0.1 0,0 z"
   id="path1009" />
		<path
   fill="#6e6e6e"
   d="m -51.8,44.1 c 0.5,-1.7 2.1,-1.9 3.4,-2.3 1.2,-0.3 2.5,-0.5 3.7,-0.8 0.2,0.4 0.9,0.6 0.7,1.2 -0.8,-1.1 -2,-0.6 -2.9,-0.4 -1,0.3 -1.9,0.7 -3,0.7 -0.5,0 -0.7,0.4 -1,0.7 -0.2,0.4 -0.4,0.8 -0.9,0.9 z"
   id="path1011" />
		<path
   fill="#5d5d5d"
   d="m 43.7,39.6 c 0,0.2 0,0.5 0,0.7 -1.3,2.5 -2.6,5.1 -4.5,7.2 0.4,-1.5 1.7,-2.5 2.3,-3.9 0.6,-1.3 1.6,-2.5 2,-4 0,-0.1 0.1,-0.1 0.2,0 z"
   id="path1013" />
		<path
   fill="#595959"
   d="m 59.3,37.2 c -0.9,-0.6 -1.7,-1.3 -2.6,-1.9 -0.5,-0.3 -0.6,-0.8 -0.5,-1.2 0.2,-0.7 0.1,-1.5 0.1,-2.2 0,-0.1 0.1,-0.1 0.1,-0.2 0.1,0 0.2,0 0.2,0 0.4,0.5 0.4,1.1 0.3,1.7 -0.2,1 0,1.7 0.9,2.3 0.6,0.3 1.6,0.5 1.5,1.5 z"
   id="path1015" />
		<path
   fill="#191919"
   d="m -52.3,43.7 c 0.1,0.2 0.2,0.3 0.3,0.5 0.1,0.3 -0.2,0.5 -0.3,0.6 -0.4,0.1 -0.8,0.3 -0.9,-0.3 -0.2,-0.8 0.4,-0.8 0.9,-0.8 z"
   id="path1017" />
		<path
   fill="#3a3a3a"
   d="m -29.5,59.9 c 0.6,-0.9 1.4,-1.5 2.2,-2.1 -0.6,0.9 -1,1.9 -2.2,2.1 z"
   id="path1019" />
		<path
   fill="#767676"
   d="m -27.2,57.7 c 0.1,-0.8 0.6,-1.3 1.1,-1.8 0,0.2 0,0.4 0,0.5 -0.2,0.6 -0.6,1 -1.1,1.3 z"
   id="path1021" />
		<path
   fill="#4f4f4f"
   d="m 25.7,58 c 0.9,0.3 1.5,1.1 1.9,1.9 -0.9,-0.3 -1.3,-1.2 -1.9,-1.9 z"
   id="path1023" />
		<path
   fill="#bfbfbf"
   d="m -21.3,-51.9 c 1.1,-0.8 2.4,-1.1 3.6,-1.4 2.1,-0.6 4.2,-1 6.2,-1.5 0.3,-0.1 0.6,-0.2 0.9,-0.2 3.7,0 7.4,-0.4 11.1,-0.4 3.7,-0.1 7.4,0.3 11.1,0.5 1.9,0.1 3.9,0.6 5.8,1 0.4,0.1 0.7,0.2 0.9,0.5 -0.6,0.6 -1.3,0 -2,0.1 -1.8,-0.2 -3.6,-0.4 -5.3,-0.9 -0.9,-0.5 -1.8,-0.3 -2.7,-0.3 -0.8,0 -1.5,0 -2.3,0 -1.1,0 -2.2,0 -3.2,0 -0.2,0 -0.4,0 -0.6,-0.1 -1,-0.3 -2.1,-0.1 -3.1,-0.1 -1.2,0.1 -2.4,-0.1 -3.5,0.1 -0.2,0.1 -0.4,0.1 -0.6,0.1 -1.4,0 -2.8,0 -4.2,0 -0.5,0 -1,0 -1.4,0.3 -1.2,0.6 -2.5,0.6 -3.8,0.9 -0.7,0.2 -1.4,0.1 -2,0.4 -1.2,0.4 -2.4,0.7 -3.6,1 -0.5,0.1 -0.9,0.3 -1.3,0 z"
   id="path1025" />
		<path
   fill="#848484"
   d="m 16.3,-53.5 c 0.6,0.1 1.3,0.1 1.9,0.2 2.2,0.3 4.3,1.1 6.4,1.9 0.9,0.3 1.4,0.1 2,-0.5 1.1,-1.2 2.2,-2.4 3.5,-3.4 0.4,-0.3 0.8,-0.5 1.3,-0.7 0,0.1 0,0.2 0,0.3 -0.8,1.1 -1.9,1.9 -2.9,2.9 -0.8,0.7 -1.3,1.8 -2.5,2.2 -1.4,0.1 -2.5,-0.6 -3.8,-0.9 -1.7,-0.6 -3.3,-1.2 -5.1,-1.2 -0.1,-0.1 -0.1,0.2 0,0.1 0,-0.1 0.1,-0.1 0.1,0 0.2,0.1 0.4,0.2 0.2,0.5 -1,0.1 -2,0 -2.9,-0.7 0.5,-0.9 1.4,-0.2 1.8,-0.7 z"
   id="path1027" />
		<path
   fill="#868686"
   d="m -21.3,-51.9 c 0.4,-0.1 0.8,-0.1 1.2,-0.2 0.1,0.5 -0.3,0.5 -0.6,0.5 0.3,0.2 0.8,-0.2 0.8,0.4 -0.5,0.6 -1.3,0.6 -2,0.9 -1,0.4 -2.1,0.5 -3.1,1 -0.3,0.2 -0.6,0.1 -0.9,-0.1 -0.2,-0.6 0.6,-0.6 0.7,-1 0,-0.1 0,-0.2 0,-0.3 1.3,-0.4 2.6,-0.8 3.9,-1.2 z"
   id="path1029" />
		<path
   fill="#fefefe"
   d="m 41.8,-58.3 c 0.7,0.1 1.4,-0.3 2.2,-0.1 0.4,0 0.7,0.3 1,0.6 0.4,0.3 0.7,0.7 1.3,0.7 0.5,0 0.7,0.5 0.9,0.9 0.5,3.3 -0.1,6.4 -0.9,9.5 -0.1,0.4 -0.3,0.8 -0.1,1.3 0,0.1 0,0.3 -0.1,0.4 -0.5,0.9 -0.8,2 -1.4,2.9 -0.3,0.4 -0.6,1 -1.2,1 -0.6,0.4 -1.2,0 -1.7,0 -2,0 -4.1,-0.1 -6.1,-0.1 -0.8,0 -1.1,0.4 -1.1,1.1 0,2.8 0,5.6 0,8.4 0,0.7 0.3,1.2 1.1,1.1 2.4,0 4.7,0.2 7.1,-0.1 0.8,-0.1 0.9,0.4 0.9,0.9 0,0.8 0,1.7 0,2.5 0,16.9 0,33.8 0,50.7 0,2.2 0,4.3 -0.1,6.5 0,0.1 -0.1,0.1 -0.1,0.2 -0.1,0.1 -0.2,0.2 -0.4,0.3 -2.2,0.2 -4.3,0.1 -6.5,0.1 -3.3,0 -6.7,-0.2 -10,-0.1 -5,0.1 -10,0 -15,0.1 -0.2,0 -0.5,0 -0.7,0 -1.1,0 -1.6,-0.5 -1.6,-1.5 0,-0.9 0,-1.8 0,-2.6 0,-0.7 -0.3,-1.1 -1.1,-1.1 -4.6,0 -9.3,0 -13.9,0 -0.8,0 -1.1,0.4 -1.1,1.2 0,0.8 0,1.7 0,2.5 0,0.9 -0.5,1.3 -1.4,1.3 -0.2,0 -0.4,0 -0.6,0 -11.1,0 -22.1,0 -33.2,0 -0.4,0 -0.8,0.1 -1.2,-0.1 v 0 c -0.6,-0.3 -0.6,-0.8 -0.5,-1.4 0.2,-2.5 0.2,-4.9 0.2,-7.4 0,-10.4 0,-20.8 0,-31.2 0,-0.4 0.2,-0.5 0.5,-0.3 0.6,0.3 1,0.8 1.1,1.5 0.1,0.8 0,1.6 -0.2,2.4 -0.5,1.9 -1,3.9 -0.3,5.9 0.2,0.5 0.2,1 0,1.4 -0.5,1.2 -0.4,2.5 -0.4,3.8 0,6.4 0,12.9 0,19.3 0,0.5 0,1 0.1,1.4 0.3,1.2 0.6,1.5 1.8,1.2 1.8,-0.4 3.7,0 5.5,0 0.4,0 1.1,0.4 1.3,-0.2 0.2,-0.7 0.9,-1.4 0.2,-2.3 -0.4,-0.5 -0.8,-1 -0.1,-1.5 0.6,-0.5 1.6,-0.5 1.9,0.1 0.6,1.3 1.4,0.9 2.5,0.8 2.7,-0.2 5.1,-1.2 7.8,-1.3 0.6,0 1.2,-0.3 1.8,-0.4 2,-0.3 3.3,1 2.9,3.1 -0.4,1.9 -0.4,1.9 1.6,1.9 1.2,0 2.5,0 3.7,0 0.4,0 0.9,0.1 1,-0.2 0.5,-1.6 2.9,-1.8 3,-3.7 0,-0.4 0.4,-0.7 0.8,-0.9 0.8,-0.4 0.8,-1 0.3,-1.7 -0.3,-0.4 -0.7,-0.8 -0.8,-1.3 -0.3,-0.9 0.6,-1.5 0.7,-2.2 0.1,-0.6 -0.9,-1.3 -0.3,-2.1 0.3,-0.4 0.5,-0.9 0.6,-1.4 0.2,-0.6 0.6,-1.2 1.3,-0.9 0.8,0.3 0.6,1 0.3,1.5 0,0 -0.1,0.2 0,0.1 1.5,-1.4 3,-2.6 5.3,-1.6 0.5,0.2 1,0.2 1.5,0.2 0.7,0 1.1,-0.3 1,-1 -0.1,-0.7 0.2,-1.2 0.9,-1.2 0.7,0 1,0.4 1.2,1.1 0,1.2 0.3,1.3 1.4,0.9 1.2,-0.5 2.1,-0.2 2.8,0.9 0.3,0.5 0.5,1 0.8,1.5 0.2,0.5 0.1,0.8 -0.3,1.2 -0.9,0.7 -0.9,1.1 0,1.6 0.8,0.5 0.9,1 0.4,1.8 -0.4,0.5 -0.8,1 -1.2,1.5 -0.5,0.5 -0.5,0.9 0.2,1.1 1.2,0.3 1.8,1 2.4,2.1 0.3,0.7 0.9,1.2 1.1,2.1 0.1,0.4 0.4,0.6 0.8,0.6 1.3,0.1 2.6,0.1 4,0 0.2,0 0.3,-0.1 0.4,-0.2 0.2,-0.1 0.4,-0.3 0.4,-0.5 0,-0.2 -0.3,-0.3 -0.5,-0.3 -0.2,0 -0.4,0 -0.6,-0.1 -0.6,-0.2 -0.9,-0.6 -0.9,-1.3 0,-0.6 0.3,-1.1 0.9,-1.3 1.7,-0.6 3.4,-1.1 5.3,-0.6 1.2,0.3 2.4,0.2 3.5,0.8 1.3,0.6 2.8,0.1 4.2,0.3 -0.9,-0.1 -1.7,0 -2.6,0 -0.8,0 -1.7,-0.1 -2.3,-0.8 -0.4,-0.4 -1,-0.6 -1.5,-0.4 -1.1,0.4 -2.1,0 -3,-0.3 -0.9,-0.3 -2.5,-3.2 -2.4,-4.1 0,-0.4 0.1,-0.8 0.5,-1.1 1.1,-0.8 2.3,-1.2 3.6,-1.5 2,-0.3 2,-0.4 2.9,-2.4 C 24,14 22.7,14 21.5,14 20.3,14 19.1,13.8 18,13.2 c 0.4,0.6 1.3,0.4 1.9,0.6 0.6,0.2 1.1,0.5 1.2,1.2 0.1,0.7 -0.5,1.1 -1.1,1.2 -0.5,0.1 -0.9,0.4 -1.3,0.8 -0.6,0.1 -1,-0.2 -0.8,-0.8 C 18.2,15.3 17.7,14.9 17,14.6 15.4,14 14,13.1 13.1,11.7 12.6,10.9 11.7,10.7 11.1,10 9.4,8.3 9,6.1 8.6,4 8.5,3.4 8.4,3 8.2,2.4 7.4,0.5 7.3,-1.6 8.3,-3.5 8.5,-4 8.8,-4.4 8.7,-5 c -0.1,-1.6 1,-2.9 1.3,-4.3 0,-0.2 0.3,-0.3 0.5,-0.5 0.9,-0.8 1.8,-1.5 2.6,-2.3 1.1,-1.1 1.6,-1 2.4,0.5 0.1,-0.4 0.9,-0.6 0,-0.8 -0.5,-0.1 -0.8,-0.3 -0.9,-0.9 0,-0.5 0.3,-0.8 0.7,-1 1.9,-1.1 3.8,-2 6.1,-1.5 0.9,0.2 1.9,-0.4 3,-0.1 1,0.2 1.8,0.8 2.6,1.4 0.3,0.2 0.6,0.7 0.4,1.1 -0.5,0.8 0,1.2 0.6,1.6 0.4,-1.4 1,-1.6 2.1,-0.7 0.4,0.3 0.7,0.7 1,1.1 0.8,1 1.4,2.1 2.3,3 0.8,0.8 0.8,2 1.1,3.1 0.1,0.5 -0.2,0.9 -0.7,1.1 -0.3,0.1 -0.7,0.2 -0.5,0.6 1,-0.7 1.7,-0.5 1.9,0.8 0.3,1.8 0.2,3.6 0,5.4 -0.1,0.6 -0.3,1.1 -1,1.2 C 32.7,4 32.7,4 32.4,5.4 32.5,5.2 32.5,4.9 32.6,4.7 32.7,4.2 33,4 33.5,4.2 c 0.4,0.1 0.8,0.6 0.6,0.9 -0.6,1.1 0,2.6 -1.3,3.6 -0.7,0.6 -0.2,1.5 0.7,1.5 1.1,0.1 2.2,-0.1 3.2,0.2 1.2,0.3 2.2,0.7 2.9,1.7 0.1,0.2 0.3,0.4 0.7,0.5 0.2,-0.7 -0.1,-1.3 -0.1,-1.9 0,-2.4 0.3,-4.8 0.3,-7.2 0,-0.8 0.5,-1.2 1.2,-1.1 -0.1,0 0.1,0 0.1,0 -1.4,0 -1.6,-1 -1.5,-2 0.2,-2.7 0.2,-5.4 -0.1,-8.1 -0.1,-1.2 0.3,-2.5 0.2,-3.7 0,-0.6 0.3,-1.1 0.9,-1.3 0.6,-0.1 0.6,-0.5 0.6,-1 0,-0.5 -0.2,-0.7 -0.7,-0.8 -0.8,-0.2 -0.9,-1 -1,-1.6 -0.1,-2.2 -0.1,-4.5 0,-6.7 0.1,-0.8 0.1,-1.8 1.4,-1.8 0.6,0 0,-0.8 0.4,-1.1 -0.9,0.3 -1.5,0 -1.7,-0.9 -0.2,-0.8 -0.6,-0.9 -1.4,-0.8 -1.9,0.1 -3.8,0.2 -5.6,-0.9 -0.4,-0.3 -0.8,-0.6 -1.1,-1.1 -0.4,-0.5 -0.5,-1 0.1,-1.6 0.9,-1 0.9,-1.5 -0.1,-2.5 -1,-1 -1.1,-4.1 -0.1,-5.3 0.3,-0.4 0.4,-0.6 0,-1.1 -0.9,-1.2 -0.4,-2.2 1.2,-2.5 -1.1,-1.3 -1.7,-2.8 -2.5,-4.2 -0.8,-1.4 -0.6,-2.8 0.5,-4.2 -0.4,-0.1 -0.9,0 -1.1,-0.4 -0.2,-0.4 -0.1,-0.7 0.2,-1.1 -1.3,1.4 -2.3,3 -4.2,3.6 -0.2,0.1 -0.4,0.2 -0.5,0.3 -0.3,0.5 -0.7,1 -1.3,0.7 -0.9,-0.5 -1.6,-1.1 -1.9,-2 -0.2,-0.5 0.3,-0.8 0.6,-1 0.7,-0.3 1.4,0.1 2,0.3 0.5,0.2 0.9,0.3 1.3,-0.1 1.3,-1.2 2.4,-2.5 3.8,-3.6 2,-1.6 4.2,-2.6 6.6,-3.2 1.2,-0.3 2.3,-0.6 3.5,-0.9 0.6,-0.4 1.1,-0.6 1.5,-0.1 z"
   id="path1031" />
		<path
   fill="#828282"
   d="m 35.5,-32.7 c 0.2,-1.9 -0.1,-3.9 0.2,-5.8 0.1,-0.9 0.2,-1.4 1.3,-1.4 1.5,0 3.1,0.1 4.7,-0.1 1.3,-0.1 1.5,0.4 1.5,1.6 0,1.9 -0.2,3.9 0.2,5.8 v 0 c -1,0.9 -2.2,0.5 -3.3,0.6 -1.4,0.1 -2.9,0 -4.4,-0.4 -0.3,0.2 -0.3,0 -0.2,-0.3 z"
   id="path1033" />
		<path
   fill="#4a4a4a"
   d="m 44.2,-10.6 c 0,11.6 0,23.2 0,34.9 -0.5,-0.1 -0.4,-0.5 -0.4,-0.7 0,-11.4 0,-22.8 0,-34.2 0.1,-0.1 0.2,-0.1 0.4,0 z"
   id="path1035" />
		<path
   fill="#202020"
   d="m 43.4,-41.1 c 0.9,-0.8 1.5,-1.8 1.9,-2.9 0.2,-0.4 0.4,-0.8 0.8,-1 0.1,1.4 -0.5,2.6 -1.4,3.7 -0.5,0.6 -0.6,1.2 -0.6,1.9 0,2.5 0,5.1 0,7.6 0,0.4 0.2,0.8 -0.2,1.1 0,0 -0.2,0 -0.3,-0.1 -0.3,-0.4 -0.5,-0.8 -0.2,-1.3 0.1,-0.1 0,-0.2 0.1,-0.3 0,0 0,0 0,0 0.5,-1.1 0.2,-2.3 0.2,-3.4 0,-1.4 0.3,-2.9 -0.3,-4.2 -0.2,-0.4 0,-0.8 0,-1.1 z"
   id="path1037" />
		<path
   fill="#2e2e2e"
   d="m 44,27.3 c 0,-0.4 0,-0.8 0,-1.2 1.7,0.5 2.6,2.1 3.8,3.1 1.3,1.1 2.8,2 4.2,3.1 0.8,0.7 1.4,0 2.1,-0.2 0.5,0.2 0.6,0.4 0.2,0.6 -0.7,0.5 -1.4,1 -2.4,0.7 C 49.6,31.7 47,30.2 45.1,27.9 44.8,27.5 44.3,27.7 44,27.3 Z"
   id="path1039" />
		<path
   fill="#333333"
   d="m 35.5,-32.7 c 0.1,0.2 0.2,0.3 0.2,0.5 0,0.3 0.4,0.7 0,1 -0.2,0.2 -0.4,0.2 -0.7,0.1 -0.4,-0.2 -0.3,-0.6 -0.3,-1 0,-2.6 0,-5.1 0,-7.7 0,-0.4 0,-0.8 0.4,-0.9 0.1,-0.1 0.3,0 0.4,0.1 0.4,0.3 0.2,0.7 0,1 -0.3,0.6 -0.3,1.2 -0.2,1.8 0.1,1.7 -0.2,3.4 0.2,5.1 z"
   id="path1041" />
		<path
   fill="#4a4a4a"
   d="m 44,27.3 c 0.5,0.1 1,-0.3 1.4,0.3 -0.4,0.4 -0.5,0.9 -0.5,1.4 0,0.6 0.3,1.3 -0.4,1.8 -0.1,0 -0.2,0 -0.3,0 -0.3,-0.2 -0.3,-0.5 -0.2,-0.8 0,-0.1 0.1,-0.2 0.1,-0.3 -0.1,0.1 -0.1,0.2 -0.3,0.2 0,-0.9 -0.3,-1.8 0.2,-2.6 z"
   id="path1043" />
		<path
   fill="#343434"
   d="m 44.2,-10.6 c -0.1,0 -0.3,0 -0.4,0 -0.1,-1.4 -0.2,-2.9 0,-4.3 0.1,0 0.2,0 0.3,0 0.1,1.4 0.1,2.8 0.1,4.3 z"
   id="path1045" />
		<path
   fill="#595959"
   d="m 51.8,33.1 c 1,0.3 1.7,-0.3 2.4,-0.7 0.3,-0.1 -0.1,-0.3 -0.2,-0.3 0.5,-0.2 0.9,-0.6 1.5,-0.7 0.2,0.2 0.4,0.5 0.2,0.8 -0.7,0.5 -1.4,1 -2.2,1.4 -0.7,0.3 -1.4,0.5 -1.7,-0.5 z"
   id="path1047" />
		<path
   fill="#222222"
   d="m 44,-24.3 c -0.4,-0.6 -0.3,-1.3 0,-1.9 0.2,0.6 0.2,1.3 0,1.9 z"
   id="path1049" />
		<path
   fill="#0b0b0b"
   d="m 43.8,29.8 c 0.1,-0.2 0.2,-0.3 0.4,-0.8 0,0.7 0,1.2 0,1.7 -0.2,0.3 -0.4,0.5 -0.7,0.2 -0.3,-0.3 -0.2,-0.6 0,-0.9 v 0 c 0.1,-0.1 0.2,-0.2 0.3,-0.2 z"
   id="path1051" />
		<path
   fill="#2e2e2e"
   d="m 55.7,32.1 c -0.1,-0.2 -0.1,-0.5 -0.2,-0.7 0.3,0 0.7,-0.1 0.9,0.2 0,0 -0.1,0 -0.1,0 -0.1,0.5 0.1,1.1 0,1.6 -0.1,0.3 0,0.7 -0.5,0.5 -0.2,-0.4 -0.3,-1 -0.1,-1.6 z"
   id="path1053" />
		<path
   fill="#fefefe"
   d="m 23.3,-50.6 c -0.6,0.6 -0.7,1.1 0.1,1.6 0.4,0.3 0.7,0.7 1,1 0.4,0.4 0.9,0.3 1,-0.2 0.1,-0.6 0.4,-0.7 0.9,-0.7 1.4,-0.2 2.1,-1.5 3.1,-2.3 0.7,-0.6 1.2,-1.3 1.9,-2 0.2,0.5 0,0.7 -0.2,0.9 -0.4,0.3 -0.7,0.6 -0.4,1.1 0.3,0.5 0.8,0.2 1.2,0 0.1,0 0.2,0 0.4,-0.1 0.1,0.4 -0.1,0.6 -0.4,0.9 -1.2,1.1 -1.3,2.8 -0.3,4 0.6,0.7 0.7,1.8 1.3,2.5 0.2,0.2 0.3,0.6 0.5,0.8 0.8,0.8 1.4,1.5 -0.5,1.2 -0.3,-0.1 -0.6,0.3 -0.6,0.6 0,0.5 -0.3,1.2 0.5,1.5 1,0.4 0.9,0.7 0,1 -0.3,0.1 -0.4,0.3 -0.5,0.6 -0.3,1.3 -0.3,2.6 0,3.9 0.1,0.2 0.1,0.4 0.4,0.6 1.2,1 1.2,2 0.1,2.9 -0.3,0.3 -0.5,0.5 -0.2,0.9 0.8,1.1 1.8,1.9 3.2,2 1.5,0.1 2.9,0.5 4.4,0 0.6,-0.2 0.6,0.5 0.7,0.8 0.4,1.5 0.7,1.6 1.9,0.5 -0.3,0.8 -0.4,1.7 -0.1,2.6 -1.4,-0.8 -1.8,-0.7 -1.8,0.8 -0.2,2.4 -0.1,4.9 0,7.3 0,0.9 0.6,1.5 1.7,0.9 0,0.6 -0.1,1 -0.1,1.5 0,0.6 0.1,1.1 -0.8,1 -0.6,-0.1 -0.8,0.7 -0.7,1 0.3,1.1 -0.3,2.1 -0.1,3.2 0.3,2.1 0.1,4.2 0.2,6.3 0,0.7 -0.1,1.4 -0.2,2.1 -0.3,1.5 0.5,2.2 1.8,1.7 0.1,0.3 0.1,0.7 0,1 -1.3,-0.5 -1.6,-0.3 -1.6,1 0.1,2.1 -0.2,4.2 -0.2,6.3 0,0.8 0.2,1.6 0.2,2.4 0,0.2 0,0.5 -0.3,0.6 -0.3,0.1 -0.5,-0.1 -0.6,-0.3 -1.6,-2.5 -4.1,-2.4 -6.6,-2.4 -0.4,0 -1.1,0.4 -1.1,-0.4 C 32.5,9.3 31.9,8.4 33,8.1 33.3,8 33.5,7.8 33.6,7.4 33.7,6.6 33.3,5.8 34,5.1 34.2,4.9 34,4.4 33.6,4.3 33.1,4.2 32.8,4.6 32.9,5 c 0.2,0.9 -0.3,0.9 -1,0.9 0.3,-0.8 0.7,-1.5 0.9,-2.3 0.1,-0.4 0.4,-0.8 1,-0.4 0.7,0.5 1,0.1 1.1,-0.5 0.4,-1.9 0.2,-3.7 0.1,-5.6 0,-0.4 -0.1,-0.9 -0.7,-1 -0.5,-0.1 -0.7,0.4 -1,0.7 -0.2,-0.4 -0.4,-0.8 -0.6,-1.3 0.6,0 1.3,0.1 1.6,-0.5 0.3,-0.6 0.1,-1.1 -0.4,-1.5 -0.3,-0.2 -0.1,-0.5 -0.1,-0.8 0,-0.3 -0.1,-0.8 -0.3,-1 -1.5,-1 -2,-2.9 -3.4,-4.1 -0.4,-0.3 -0.7,-0.9 -1.4,-0.5 -0.6,0.4 -0.3,1 0.3,1.6 -1.3,-0.3 -1.6,-1.3 -2.6,-1.6 0.4,-0.4 1.1,-0.5 0.9,-1.2 -0.1,-0.5 -0.7,-0.6 -1,-0.9 -1.3,-1 -2.6,-1.2 -4.2,-0.7 -0.8,0.2 -1.8,-0.2 -2.7,-0.2 -0.8,0 -1.4,0.2 -2,0.6 -0.5,0.4 -1,0.7 -1.6,0.8 -0.5,0.1 -1,0.4 -0.8,1 0.2,0.7 0.8,0.5 1.3,0.3 0.1,0 0.2,0 0.4,0 -0.2,0.4 -0.4,0.6 -0.5,1 -0.1,0.4 -0.3,0.7 -0.8,0.6 -0.6,-0.1 -0.2,-0.5 -0.2,-0.8 -0.2,-0.7 -0.6,-0.9 -1.1,-0.4 -0.8,0.9 -1.8,1.6 -2.6,2.5 C 9.6,-7.9 9.2,-7 9.1,-4.4 9.1,-4.2 9,-4 8.9,-3.9 7.3,-2.3 8.1,-0.4 8,1.4 8,1.8 8.1,2.5 8.8,2.6 9.1,2.7 9.1,2.9 9,3.2 8.7,4.1 9,5.1 9.4,6 c 0.6,1.2 0.5,2.8 1.7,3.6 1.6,1 2.6,2.6 4,3.8 0.6,0.5 1.5,0.7 2.2,1 0.9,0.3 1.2,0.9 0.8,1.8 -0.2,0.6 0.3,0.6 0.6,0.8 -0.3,1.3 -0.7,2.6 1,3.2 0.1,0 0.1,0.1 0.1,0.2 -0.2,1.1 0.4,1.5 1.4,1.8 0.9,0.3 1.7,0.3 2.5,0 0.5,-0.2 1.1,-0.1 1.3,0.2 1.2,1.7 2.7,1 4.2,0.9 0.2,0 0.4,-0.1 0.6,-0.1 0.3,0 0.6,-0.1 0.7,0.3 0.1,0.2 0.1,0.5 0,0.7 -0.2,0.4 -0.6,0.1 -0.8,0 -0.5,-0.3 -1.1,-0.3 -1.6,-0.2 -1.3,0.2 -2.3,-0.5 -3.5,-0.7 -2.2,-0.3 -4.4,-1.3 -6.5,0.2 -0.2,0.2 -0.4,0.2 -0.7,0.1 -0.8,-0.2 -1.1,0.3 -1.1,1 0,0.7 0.4,1.2 1.1,1 0.6,-0.1 1,-0.1 1.2,0.5 0.2,0.7 -0.4,0.8 -0.8,1 -0.5,0.4 -1.2,0.2 -1.7,0.2 -0.8,0 -1.7,0 -2.5,0 -1,0 -1.7,-0.3 -1.6,-1.5 0,-0.2 0,-0.4 -0.1,-0.5 -1,-0.3 -0.9,-1.3 -1.3,-2 -0.4,-0.6 -0.9,-1 -1.7,-0.9 -0.5,0.1 -0.8,-0.3 -1,-0.7 -0.3,-0.5 0.3,-0.5 0.5,-0.8 0.5,-0.5 1,-1 1.4,-1.6 0.5,-0.7 0.3,-1.4 -0.6,-1.4 C 8.7,17.9 8.5,17.8 8.6,17.3 8.9,17 8.1,16.1 9.2,16 9.6,16 9.9,15.7 9.8,15.4 9.3,14.5 9.1,13.3 8,12.7 7.5,12.5 6.8,12.4 6.4,12.9 5.8,13.7 5.4,13.1 4.9,12.9 4.3,12.7 4.1,12.3 4.5,11.7 4.7,11.3 4.3,11 4,10.8 3.7,10.6 3.4,10.6 3.1,10.8 2.8,11 2.8,11.4 2.9,11.7 3.5,12.8 2.8,13.1 1.9,13 1,13 0.1,13.3 -0.6,12.4 c -0.2,-0.3 -0.6,-0.1 -0.9,0 -1.4,0.5 -2.9,0.8 -3.8,2.3 -0.1,0.2 -0.4,0.5 -0.6,0.3 -0.3,-0.3 0,-0.5 0.2,-0.7 0.1,-0.1 0.2,-0.2 0.3,-0.2 0.2,-0.4 0.5,-0.8 0.3,-1.2 -0.1,-0.2 -0.3,-0.4 -0.5,-0.3 -0.5,0.2 -0.8,0.6 -0.8,1.1 0,0.5 -0.2,0.8 -0.5,1.2 -0.5,0.5 -0.4,1.1 0.3,1.5 0.6,0.4 0.6,0.8 -0.1,1.2 -0.9,0.5 -0.9,1.2 -0.3,2 0.2,0.2 0.4,0.5 0.6,0.8 0.8,1.2 0.7,1.5 -0.7,2.1 -0.3,0.2 -0.5,0.4 -0.5,0.7 0,1.1 -0.2,2 -1.6,1.9 -0.5,0 -0.6,0.5 -0.6,0.9 -0.2,1 -0.8,1.2 -1.7,1.2 -1.7,-0.1 -3.4,0 -5,0 -1.1,0 -1.6,-0.7 -1.1,-1.7 0.3,-0.5 0.3,-1 0.3,-1.5 -0.1,-1.4 -1.2,-2.2 -2.6,-1.8 -2.4,0.7 -4.9,0.6 -7.3,1.5 -1.2,0.4 -2.6,-0.2 -3.8,0.7 -0.1,0.1 -0.9,0.1 -0.8,-0.7 0.1,-0.8 -0.5,-1 -1.1,-1.1 -0.4,0 -0.9,0 -1.1,0.5 -0.2,0.4 0.2,0.7 0.5,0.8 0.7,0.3 0.5,0.8 0.3,1.3 -0.2,0.3 -0.4,0.6 -0.3,0.9 0.2,1.3 -0.6,1.1 -1.3,1 -2.2,-0.2 -4.4,-0.5 -6.6,0.1 -1.3,0.4 -1,-1.1 -1.4,-1.7 -0.2,-0.2 0,-0.6 0,-0.9 0,-7.2 0,-14.3 0,-21.5 0,-0.7 0,-1.3 0.4,-2 0.3,-0.5 0.3,-1.2 0.1,-1.8 -0.8,-2 -0.2,-3.9 0.3,-5.8 0.5,-1.6 0.3,-2.7 -0.9,-3.8 -0.3,-0.3 -0.2,-0.8 -0.2,-1.1 0,-4 0.1,-7.9 0,-11.9 -0.1,-2 0.3,-4 -0.1,-6 0,-0.9 0.4,-1.2 1.2,-1.1 2.4,0.1 4.9,0 7.3,0 1,0 1.3,-0.4 1.3,-1.4 0,-2.6 0,-5.3 0,-7.9 0,-1.1 -0.5,-1.5 -1.5,-1.5 -2,0.1 -4,0 -6,0.1 -1.2,0.1 -2.1,-0.1 -2.6,-1.3 -1,-0.7 -1.4,-1.9 -1.9,-3 -0.1,-0.4 -0.4,-0.8 -0.2,-1.3 -0.2,-1.3 -0.1,-2.7 -0.9,-3.9 -0.4,-0.2 -0.3,-0.6 -0.3,-1 0,-1.9 0,-3.9 0.2,-5.8 0.5,-1.7 0.5,-1.6 2.2,-1.6 1,0 1.9,0.3 2.8,0.2 0.8,-0.3 1.7,0 2.5,0.2 2.4,0.7 4.9,1.2 7.1,2.4 1.2,0.7 2.4,1.4 3.3,2.6 1,1.3 2.5,2.2 3.3,3.6 0.2,0.3 0.5,0.3 0.7,0.2 1.7,-0.9 3.6,-1 5.3,-1.8 1,-0.8 2.3,-0.8 3.5,-1.2 1,-0.1 2,-0.5 3.1,-0.7 0.1,0 0.3,-0.1 0.4,-0.1 1,-0.1 2,0.1 3,-0.3 5.4,-0.7 10.9,-0.5 16.3,-0.5 1.8,0 3.6,0.2 5.4,0.5 0.9,0.3 1.9,-0.1 2.7,0.6 1,0.2 2,0.4 2.9,0.7 0.6,-0.4 1.1,-0.1 1.7,0.1 0.7,0.2 1.4,0.5 2.1,0.7 0.3,0.5 1.3,0.2 1.6,1.2 z"
   id="path1055" />
		<path
   fill="#7e7e7e"
   d="m -43.6,-29.1 c 0.4,2.1 0.1,4.3 0.2,6.4 0.1,4.2 -0.1,8.4 0.1,12.6 0,3.3 -0.1,6.5 -0.1,9.8 0,9 0,17.9 0,26.9 0,1.2 -0.4,2.5 0.3,3.6 -0.5,0 -0.7,-0.3 -0.8,-0.7 -0.4,-0.4 -0.3,-0.8 0,-1.2 0.1,-1.1 0.2,-2.2 0.2,-3.3 0,-10.3 0,-20.5 0,-30.8 0,-5.6 0.1,-11.3 0,-16.9 0,-2.2 0,-4.3 0.1,-6.4 z"
   id="path1057" />
		<path
   fill="#242424"
   d="m -45.6,-45.2 c 0.6,1 1.1,2 1.7,3.1 0.2,0.7 0.2,1.5 1.2,1.7 -0.2,2.3 -0.1,4.5 -0.1,6.8 0,0.5 -0.1,1 0.2,1.4 0.1,0.1 0.2,0.2 0.3,0.3 2.4,0.5 4.8,0.4 7.2,0.3 0.1,0 0.2,0.1 0.3,0.2 -0.1,0.5 -0.5,0.6 -0.9,0.6 -1.9,0 -3.8,0.1 -5.6,-0.1 0.1,0.1 0.5,-0.1 0.5,0.3 -0.8,0 -1.7,0 -2.5,-0.1 -0.7,0 -0.4,-0.6 -0.4,-0.9 0,-2.4 -0.1,-4.8 0,-7.2 0,-1.2 -0.2,-2.2 -0.9,-3.3 -0.6,-0.9 -1.2,-1.8 -1.3,-2.9 -0.1,-0.2 -0.1,-0.4 0,-0.5 0.1,0 0.2,0.2 0.3,0.3 z"
   id="path1059" />
		<path
   fill="#3e3e3e"
   d="m -42.9,-31.7 c -0.4,-0.3 -0.2,-0.7 -0.3,-1.1 0,-1.6 0,-3.2 0,-4.8 0,-0.9 -0.1,-1.9 0.5,-2.7 2.4,-0.4 4.8,-0.3 7.3,0 0.3,0.2 0.8,0.4 0.3,0.8 -0.1,0.1 -0.2,0.1 -0.4,0.1 -0.8,0.1 -1.6,0 -2.4,-0.1 -1.5,-0.2 -2.9,-0.1 -4.3,0.3 -0.3,0.4 -0.2,0.8 -0.2,1.3 0.1,1.5 0.1,3 0,4.5 0,0.6 -0.1,1.2 -0.5,1.7 z"
   id="path1061" />
		<path
   fill="#444444"
   d="m -35.3,-39.6 c 0.1,0 0.2,0 0.3,0 0.2,-0.3 0.5,-0.4 0.7,-0.7 0.6,0.8 0.1,1.6 0.2,2.4 0.2,2.1 0.3,4.2 -0.2,6.2 -0.2,0.2 -0.4,0.4 -0.7,0.2 -0.1,0 -0.2,0 -0.3,0 -0.1,-2.7 -0.1,-5.4 0,-8.1 z"
   id="path1063" />
		<path
   fill="#262626"
   d="m -46.5,-59.8 c 0.8,0.1 1.7,0.2 2.8,0.4 -0.6,0.5 -1.1,0.3 -1.6,0.4 -0.5,0.3 -1.4,0.3 -1.4,1.2 -0.2,1.2 -0.2,2.5 -0.4,3.8 0,0.2 0.1,0.6 -0.3,0.6 0,-1.3 0,-2.6 0,-3.9 -0.1,-1.1 0.1,-1.9 0.9,-2.5 z"
   id="path1065" />
		<path
   fill="#090909"
   d="m -35,-31.5 c 0.2,-0.1 0.5,-0.1 0.7,-0.2 0.1,0.7 -0.2,1.1 -1,1.1 -1.9,0 -3.8,0 -5.7,0 -0.3,-0.3 -0.8,-0.1 -1.2,-0.4 1.9,0 3.8,0 5.7,0 0.5,0 1.1,0 1.5,-0.5 z"
   id="path1067" />
		<path
   fill="#363636"
   d="m -47.5,-53.6 c 0.4,-1 0.4,-2.1 0.5,-3.2 0,-0.5 -0.1,-0.9 0.2,-1.4 0.3,0.3 0.2,0.6 0.1,1 -0.1,2 -0.4,4 -0.2,6 -0.7,0 -0.2,-0.7 -0.5,-1 -0.1,-0.4 -0.1,-0.9 -0.1,-1.4 z"
   id="path1069" />
		<path
   fill="#262626"
   d="m -47.5,-52.1 c 0.4,0.2 0.1,0.8 0.5,1 0,0.3 0,0.6 0,0.9 0,0.4 0.4,0.9 -0.1,1.4 -0.5,-1.1 -0.4,-2.2 -0.4,-3.3 z"
   id="path1071" />
		<path
   fill="#1f1f1f"
   d="m -43.9,28.3 c 0,0.4 0,0.8 0,1.2 -0.5,0.2 -0.9,0.4 -1.4,0 0.4,-0.5 0.8,-0.9 1.4,-1.2 z"
   id="path1073" />
		<path
   fill="#363636"
   d="m -45.6,-45.2 c -0.3,-0.1 -0.5,-0.2 -0.5,0.2 -0.3,-0.7 -0.5,-1.4 -0.5,-2.2 0.4,0.1 0.1,0.6 0.5,0.7 0.2,0.5 0.4,0.9 0.5,1.3 z"
   id="path1075" />
		<path
   fill="#0f0f0f"
   d="m -34.3,-40.3 c 0.1,0.6 -0.1,0.8 -0.7,0.7 -0.1,-0.2 -0.3,-0.5 -0.4,-0.7 0.3,0 0.7,0 1.1,0 z"
   id="path1077" />
		<path
   fill="#fefefe"
   d="m 47.2,-56.2 c -0.4,-0.3 -0.6,-0.8 -1.4,-0.7 -0.6,0.1 -1.1,-1 -1.7,-1.5 0.9,0.1 1.7,-0.3 2.5,-0.4 0.4,0.8 0.6,1.7 0.6,2.6 z"
   id="path1079" />
		<path
   fill="#232323"
   d="m -25.9,-49.7 c -1.1,-1.1 -2.4,-2.1 -3.4,-3.4 -1.7,-2.1 -4.1,-3.2 -6.6,-3.9 -1.9,-0.6 -3.8,-1.3 -5.9,-1.4 -0.1,-0.1 -0.2,-0.1 -0.2,-0.3 -0.2,-0.9 0.6,-0.2 0.8,-0.5 5.9,0.6 10.9,3 14.7,7.6 0.4,0.4 0.7,1 1.3,1.1 0.4,0.9 -0.4,0.6 -0.7,0.8 z"
   id="path1081" />
		<path
   fill="#262626"
   d="m 41.8,-58.3 c -5,0.9 -9.8,2.2 -13.3,6.2 -0.6,0.6 -1.2,1.2 -1.8,1.7 -0.3,0.1 -0.5,0.2 -0.7,-0.1 -0.1,-0.2 0.1,-0.3 0.3,-0.4 1.2,-1.1 2.3,-2.3 3.4,-3.4 0.5,-0.5 1.2,-0.9 1.8,-1.4 3.1,-2 6.5,-3 10,-3.4 0.3,-0.1 0.7,-0.2 1,0 0.2,0.2 0,0.3 -0.2,0.4 -0.2,0.2 -0.4,0.1 -0.5,0.4 z"
   id="path1083" />
		<path
   fill="#333333"
   d="m 42.3,-58.6 c 0.2,-0.9 -0.5,-0.3 -0.8,-0.5 0.2,-0.2 0.5,-0.2 0.7,-0.2 0.2,0 0.6,-0.1 0.6,0.3 0.1,0.3 -0.3,0.4 -0.5,0.4 z"
   id="path1085" />
		<path
   fill="#757575"
   d="m -42,-58.6 c 0.1,0.1 0.2,0.2 0.2,0.3 -1,0 -2,0 -3,-0.2 -1.3,-0.3 -1.9,0.1 -2.1,1.4 0,-0.3 0,-0.7 -0.1,-1 0.2,-0.8 0.7,-1 1.5,-0.9 1.2,0.4 2.5,0 3.5,0.4 z"
   id="path1087" />
		<path
   fill="#fefefe"
   d="m -26.9,55.3 c -0.6,1 -1.2,2 -2,2.9 -0.8,1 -1.4,1.1 -2.3,0 -0.9,-1.2 -1.2,-1.2 -1.9,-0.2 -0.2,0.2 -0.4,0.4 -0.7,0.5 -0.9,0.6 -1.7,0.2 -1.8,-0.9 -0.2,-2 -0.4,-2.1 -2.3,-1.4 -0.4,0.2 -0.7,0.4 -1.1,0.6 -0.5,0.2 -0.9,0.4 -1.1,-0.3 0.5,-1.7 1.8,-2.7 3.1,-3.6 1.1,-0.9 1.2,-0.9 0.1,-1.9 -0.5,-0.4 -0.9,-0.9 -1.3,-1.4 -1.5,-2.5 -3.7,-4.6 -4.6,-7.4 -0.2,-0.5 -0.6,-1 -0.9,-1.5 -0.1,-0.5 -0.6,-0.5 -1,-0.5 -1.9,0.4 -3.9,0.7 -5.8,1.1 -1,0.2 -1.6,1 -1.9,1.9 -0.2,0 -0.4,0 -0.5,-0.1 -1.2,-1.1 -1.2,-1.1 -2.7,-0.7 0,-0.1 -0.1,-0.2 -0.1,-0.3 0.4,-1.6 0.4,-1.6 -1.2,-1.8 -0.7,-0.1 -1.1,-0.3 -1,-1.1 0.1,0 0.2,-0.1 0.2,-0.3 0.4,-0.3 0.8,-0.6 1.2,-1 0.8,-0.4 0.9,-1.1 0.6,-1.9 -0.2,-0.5 -0.4,-0.9 -0.2,-1.5 0.6,-0.4 1.1,-0.1 1.6,0.3 2,1.1 1.9,1.1 3.6,-0.3 1.8,-1.4 3.6,-2.8 5.2,-4.4 0.4,-0.4 0.8,-0.4 1,0.2 0.2,0.7 0.7,0.7 1.3,0.7 3.7,0 7.4,0 11,-0.1 0.6,0 1,0.2 1.3,0.7 0.3,0.6 0.7,1.2 1,1.8 1.4,2 2.7,4.1 4,6.2 2.6,3.9 6,6.9 9.9,9.4 2.6,1.7 5.4,2.9 8.4,3.8 0.5,0.2 1.1,0.2 1.5,0.7 1.3,0.4 2.7,0.3 3.9,1.2 -1.3,0 -2.6,0.1 -3.9,0 -2.6,-0.2 -5.2,-0.1 -7.8,-0.1 -4,0.1 -8,0.1 -12.1,-0.1 -0.2,0 -0.4,0.1 -0.5,0.2 0.2,0.5 0,0.6 -0.2,0.6 z"
   id="path1089" />
		<path
   fill="#fefefe"
   d="m 55.7,32.1 c 0.3,0.5 0.1,1.1 0.2,1.7 0.1,0.4 0.1,0.7 0.1,1.1 0,0.8 0.6,1 1.1,1.3 v 0 c 0.2,0.1 0.4,0.2 0.5,0.3 0.3,0.3 0.8,0.6 0.5,1.1 -0.1,0.5 -0.6,0.4 -1,0.4 -0.3,0 -0.6,-0.1 -0.9,0.1 -0.7,0.2 -0.6,0.7 -0.5,1.2 -0.1,0.4 0.3,0.9 -0.2,1.2 -0.5,0.2 -0.6,-0.3 -0.9,-0.5 -0.4,-0.2 -0.8,-0.4 -0.9,0.3 v 0 c -0.3,0.3 -0.2,0.9 -0.7,1 -1,-0.1 -1.3,-1.1 -2.1,-1.5 -0.4,-0.4 -0.8,-0.4 -1.3,-0.5 -0.1,0 -0.2,0 -0.3,-0.1 -0.8,-0.1 -1.6,-0.5 -2.5,-0.6 -0.2,0 -0.3,0 -0.5,-0.1 -0.7,-0.1 -1.5,-0.6 -2.2,-0.1 -0.3,0.4 -0.7,0.7 -1,1 -1.8,3.6 -4,6.9 -6.4,10.1 -0.6,0.5 -1.3,1.1 -1.9,1.6 0,0.4 -0.2,0.8 -0.3,1.2 0.3,0.5 1,0.6 1.4,1 0.8,0.2 1.2,0.7 1.5,1.4 0.3,0.4 0.6,0.7 0.9,1.1 0.2,0.3 0.3,0.6 0,0.9 -0.3,0.3 -0.6,0.2 -0.9,-0.1 -0.6,-0.5 -1.3,-0.7 -2.1,-0.9 -0.8,-0.2 -1.3,0.1 -1.3,1 0,0.7 0.1,1.5 -0.7,1.7 -0.7,0.3 -1.3,-0.3 -1.7,-0.8 -1,-1 -1.5,-0.9 -1.9,0.5 0,0 0,0 0,0 -0.4,0.8 -0.9,0.8 -1.6,0.5 -1.2,-0.9 -1.7,-2.2 -2.4,-3.3 -0.1,-0.3 -0.3,-0.5 -0.4,-0.7 -0.8,-0.5 -1.6,0 -2.3,0 -3.3,-0.1 -6.7,0 -10.1,-0.1 -2.9,-0.1 -5.7,0.1 -8.6,0.1 -0.4,0 -0.8,0 -1.2,-0.1 0.1,-0.4 0.9,-0.1 1.3,-0.5 0.5,-0.5 1.2,-0.2 1.8,-0.5 3.3,-0.7 6.3,-2.2 9.3,-3.6 5,-3.2 9.2,-7.3 12.4,-12.4 1.2,-1.9 1.9,-4 3.2,-5.9 0.4,-0.6 1,-0.8 1.7,-0.8 3.3,0 6.5,0 9.8,0 0.6,0 1.3,0.5 1.9,-0.1 0.4,-0.7 0.2,-1.5 0.1,-2.2 -0.1,-0.7 0.1,-1 0.8,-0.9 1.2,1.4 2.4,2.7 4.1,3.6 0.9,0.5 1.6,1.3 2.4,1.9 0.4,0.7 0.9,0.6 1.5,0.3 0.7,-0.5 1.4,-1.1 2.3,-1.3 z"
   id="path1091" />
		<path
   fill="#060606"
   d="m -6,53.7 c -2.5,-0.6 -4.9,-1.6 -7.2,-2.7 -6.5,-3.2 -11.2,-8.1 -14.8,-14.3 -0.6,-1 -1.5,-1.9 -1.7,-3.1 0.1,-1.1 -0.7,-1.9 -1.2,-2.8 0.8,-0.2 0.8,-0.2 1.3,0.4 1.4,2.6 2.8,5.1 4.4,7.5 1.9,2.7 3.9,5.2 6.6,7.2 1.6,1.2 3.2,2.6 5,3.4 2.7,1.3 5.6,2.4 8.5,3.1 0.4,0.1 0.9,0.2 1.3,0.3 0.5,0.2 1.1,0 1.6,0.2 0.5,0.2 0.8,0.4 0.2,0.8 -0.6,0 -1.2,0.1 -1.8,-0.1 -0.7,0.1 -1.5,-0.1 -2.2,0.1 z"
   id="path1093" />
		<path
   fill="#767676"
   d="m -26.9,55.3 c 0.1,-0.3 0.2,-0.4 0.5,-0.4 1.1,0.3 2.2,0.3 3.3,0.3 5.8,0 11.7,0 17.5,0 0.4,0 0.9,-0.1 1.3,0.5 -7.3,0 -14.5,0 -21.8,0 -0.2,-0.4 -0.5,-0.3 -0.8,-0.4 z"
   id="path1095" />
		<path
   fill="#747474"
   d="m 25,54.9 c 0.3,0.1 0.5,0.4 0.4,0.7 -0.3,-0.1 -0.4,-0.6 -0.8,-0.4 -0.3,0.1 -0.1,0.4 -0.2,0.6 -0.4,-0.2 -0.8,-0.2 -1.3,-0.2 -6.3,0 -12.5,0 -18.8,0 0.3,-0.7 0.9,-0.5 1.3,-0.5 5.3,0 10.6,0 15.9,0 1.3,0.1 2.4,0.1 3.5,-0.2 z"
   id="path1097" />
		<path
   fill="#494949"
   d="m -3.8,53.8 c 0.6,0 1.3,0 1.9,0 1.3,-0.7 2.7,-0.2 4.1,-0.3 0.9,0 1.8,0 2.8,0 0.5,0 1,0 1.3,0.4 -0.6,0.1 -1.3,0 -1.9,0.1 -2.2,0 -4.5,0 -6.7,0 -0.5,0 -1.1,0.1 -1.5,-0.2 z"
   id="path1099" />
		<path
   fill="#fefefe"
   d="m -4.1,53 c -4.1,-0.9 -8.1,-2.2 -11.6,-4.5 -4,-2.7 -7.5,-5.9 -10.1,-10 -1.2,-2 -2.5,-4 -3.6,-6 -0.2,-0.3 -0.4,-0.8 -0.3,-1.2 0.1,0 0.1,0 0.2,-0.1 0.8,-0.3 1.6,0 2.4,0 5.3,0 10.6,-0.1 15.8,0 4.9,0.1 9.8,0.2 14.7,0.1 8,-0.2 16,-0.2 24,-0.2 0.5,0 1,-0.1 1.4,-0.2 0.7,-0.1 1.2,0.2 1.1,1 0,1 -0.3,1.9 -0.7,2.7 -3.4,6.2 -8,11.3 -14.1,15 -3.6,1.6 -7.1,3.2 -11,3.7 -2.8,0.1 -5.5,0.1 -8.2,-0.3 z"
   id="path1101" />
		<path
   fill="#7e7e7e"
   d="m 29.6,32.4 c 0.3,-1.1 -0.1,-1.3 -1.1,-1.1 -0.5,0.1 -1,0.1 -1.4,0.1 -5.5,0 -11,-0.3 -16.4,0.1 -5.3,0.3 -10.6,0.4 -15.9,0.2 -7.4,-0.3 -14.9,-0.1 -22.3,-0.2 -0.6,0 -1.3,-0.1 -1.9,-0.2 0.2,-0.3 0.5,-0.3 0.7,-0.3 6.8,0 13.6,0 20.4,0 0.6,0 1.3,0.2 1.9,0.2 0.3,-0.3 0.6,-0.3 1,-0.3 0.3,0 0.6,0 0.9,0 4,0 8,0 12.1,0 0.6,0 1.3,-0.1 1.9,-0.1 6.1,0 12.3,0 18.4,0 -6,0 -12,0 -18,0 C 9.4,30.7 9.1,30.4 9,30 8.9,29.1 9.3,28.3 9.2,27.4 9,26.8 9.1,26.4 8.9,26 8.8,25.9 8.6,25.7 8.4,25.6 7.9,25.4 7.4,25.5 6.9,25.5 c -3.9,0 -7.7,0 -11.6,0 -0.5,0 -1,-0.1 -1.4,0.2 -0.6,1 -0.1,2 -0.3,3 -0.1,0.5 0.1,1.2 -0.6,1.4 -0.5,0.2 -1,0.3 -1.5,0.3 -11.2,0 -22.4,0 -33.6,0 -0.4,0 -0.8,0.2 -1.1,-0.3 4.4,0 8.7,0 13.1,0 6.7,0.1 13.3,0 20,-0.1 2.9,0 2.9,0 2.9,-2.9 0,-0.4 0,-0.8 0,-1.2 0,-0.7 0.4,-1.1 1.1,-1.1 4.9,0 9.8,0 14.6,0 0.8,0 1.1,0.4 1.1,1.1 0,0.9 0,1.8 -0.1,2.8 -0.1,1.1 0.3,1.4 1.4,1.4 C 16.1,30 21.3,30 26.5,30 c 5.6,0.1 11.1,-0.1 16.7,0.1 -0.1,0.8 -0.8,0.5 -1.2,0.6 -3.7,0.1 -7.3,-0.1 -11,0.1 -0.4,0.2 -0.6,0.5 -0.7,0.8 -0.2,0.4 -0.3,0.8 -0.7,0.8 z"
   id="path1103" />
		<path
   fill="#40261f"
   d="m -6.9,30.2 c 0.5,-1 0.1,-2.1 0.2,-3.2 0,-0.5 -0.2,-1.1 0.2,-1.6 0.4,-0.1 0.8,-0.3 1.1,0.1 -1,1.9 -1,3.7 -0.1,5.6 -0.3,0 -0.6,0 -0.9,0 -0.3,-0.2 -0.9,-0.4 -0.5,-0.9 z"
   id="path1105" />
		<path
   fill="#4c4c4c"
   d="m -55.9,34.8 c 0,0.6 0.2,1.1 0.4,1.7 0.3,0.8 0.1,1.5 -0.9,1.7 0.7,-0.6 0.7,-1.3 0.4,-2 -0.1,-0.5 -0.3,-1 0.1,-1.4 z"
   id="path1107" />
		<path
   fill="#222222"
   d="m 37.2,54.9 c -0.5,-0.5 -1,-0.9 -1.5,-1.4 0.1,-0.1 0,-0.5 0.3,-0.4 0.7,0.3 1.2,0.8 1.5,1.5 0.2,0.3 -0.1,0.3 -0.3,0.3 z"
   id="path1109" />
		<path
   fill="#202020"
   d="M 34.3,52.5 C 33.7,52 34,51.6 34.6,51.3 c 0.8,-0.1 0.8,0.5 0.7,1 -0.2,0.8 -0.7,0.1 -1,0.2 z"
   id="path1111" />
		<path
   fill="#1c1c1c"
   d="m 36.4,56.9 c -0.6,0.1 -1,0.2 -1.5,0.3 -0.3,0.1 -0.6,0 -0.6,-0.3 0,-0.3 0.2,-0.5 0.5,-0.5 0.6,-0.1 1.1,0.1 1.6,0.5 z"
   id="path1113" />
		<path
   fill="#1e1e1e"
   d="m 30,58.8 c -0.1,-0.1 -0.2,-0.2 -0.3,-0.3 0.6,-1 0.9,-1 1.6,0.1 -0.4,0.1 -0.9,-0.2 -1.3,0.2 z"
   id="path1115" />
		<path
   fill="#1f1f1f"
   d="m -54.2,43.4 c -0.2,-0.1 -0.6,0.1 -0.6,-0.3 0,-0.4 0.4,-0.6 0.8,-0.6 0.3,0 0.5,0.1 0.5,0.5 0,0.4 -0.4,0.4 -0.7,0.4 z"
   id="path1117" />
		<path
   fill="#282828"
   d="m -56.8,40.9 c 0.6,-0.2 1,-0.3 1.2,0.3 0,0.1 -0.1,0.4 -0.1,0.4 -0.7,0.1 -0.7,-0.4 -1.1,-0.7 z"
   id="path1119" />
		<path
   fill="#404040"
   d="m -38.1,49.7 c 0.7,0.5 1.4,1 2,1.6 0.5,0.5 0.8,1 0,1.5 -1.6,0.9 -2.7,2.3 -3.8,3.8 -0.3,0.9 -0.2,0.9 1.1,0.9 0.1,0.3 -0.3,0.3 -0.4,0.6 -0.6,0.3 -1.2,0.1 -1.5,-0.3 -0.4,-0.5 -0.2,-1.2 0.2,-1.7 0.8,-1.2 1.8,-2.2 2.8,-3.2 0.7,-0.6 0.8,-1.2 0,-1.8 -0.5,-0.5 -1.1,-0.9 -1.4,-1.6 0.3,-0.2 0.4,0.8 1,0.2 z"
   id="path1121" />
		<path
   fill="#232323"
   d="m -38,57 c 0.5,-0.5 0.9,-0.6 1.5,-0.6 0.3,0 0.6,0.1 0.6,0.4 0,0.2 0,0.4 -0.1,0.6 -0.2,0.3 -0.4,0 -0.6,-0.1 -0.5,-0.2 -0.9,-0.2 -1.4,-0.3 z"
   id="path1123" />
		<path
   fill="#2f2f2f"
   d="m 43,39.6 c 0.2,-0.4 0.5,-0.9 0.7,-1.3 0.3,0.2 0.3,0.5 0.3,0.8 -0.1,0.2 -0.2,0.3 -0.3,0.5 -0.1,0 -0.1,0 -0.2,0.1 -0.2,-0.4 -0.4,-0.2 -0.5,-0.1 z"
   id="path1125" />
		<path
   fill="#363636"
   d="m 50.9,39.6 c 0.8,0.3 1.2,1.2 1.9,1.7 0.3,0.3 0.8,0.6 0.4,1 -0.5,0.4 -0.6,-0.3 -0.9,-0.5 -0.2,-0.1 -0.3,-0.2 -0.5,-0.3 0,0 0,0 0,0 -0.3,-0.5 -0.7,-0.9 -1.2,-1.2 -0.2,-0.1 -0.4,-0.4 -0.2,-0.7 0.1,-0.2 0.3,-0.2 0.5,0 z"
   id="path1127" />
		<path
   fill="#323232"
   d="m 53.5,40.3 c 0.3,-0.1 0.7,-0.3 0.8,0.1 0.2,0.6 -0.5,0.4 -0.7,0.7 0,-0.3 0,-0.6 -0.1,-0.8 0,0 0,0 0,0 z"
   id="path1129" />
		<path
   fill="#181818"
   d="m -31.7,58.8 c -0.1,-0.1 -0.2,-0.2 -0.3,-0.2 -0.3,-0.2 -0.8,0.2 -0.8,-0.4 0,-0.2 0.3,-0.4 0.5,-0.3 0.5,0.1 1.1,0.2 0.6,0.9 0,0 0,0 0,0 z"
   id="path1131" />
		<path
   fill="#4f4f4f"
   d="m 27.9,59 c 0.6,0 1.2,0.1 1.6,-0.5 -0.3,1 -0.8,1.2 -1.6,0.5 z"
   id="path1133" />
		<path
   fill="#212121"
   d="m 55.7,35 c -0.1,-0.4 0,-0.8 0.2,-1.2 0.5,-0.5 0.3,-1 0.2,-1.5 C 56,32 56,31.8 56.4,31.7 c 0.4,0.6 0.3,1.3 0.2,2 -0.1,0.5 -0.2,1.1 0.1,1.6 -0.1,0.1 -0.2,0.2 -0.2,0.2 C 56,35.6 55.9,35.2 55.7,35 Z"
   id="path1135" />
		<path
   fill="#595959"
   d="m 56.2,38.1 c 0.3,-0.3 0.6,-0.2 1,-0.2 0.3,0 0.8,0.1 0.9,-0.3 0.2,-0.5 -0.3,-0.7 -0.5,-0.9 -0.1,-0.1 -0.3,-0.3 -0.4,-0.4 0.5,-0.1 0.8,0.3 1,0.7 0.2,0.3 0.5,0.6 0.3,1 -0.2,0.3 -0.5,0.3 -0.9,0.3 -0.5,-0.2 -1,-0.2 -1.4,-0.2 z"
   id="path1137" />
		<path
   fill="#595959"
   d="m 55.7,35 c 0.2,0.2 0.5,0.3 0.7,0.5 0.2,0.3 0.7,0.3 0.7,0.7 -0.7,-0.1 -1.3,-0.3 -1.4,-1.2 z"
   id="path1139" />
		<path
   fill="#5d5d5d"
   d="m 50.9,39.6 c -0.7,0.2 -0.3,0.5 0,0.7 0.4,0.3 1,0.6 1,1.2 -0.9,-0.9 -2,-1.5 -3.2,-1.6 -1.5,-0.1 -2.8,-1.1 -4.4,-0.8 0,-0.7 0.6,-0.7 1.1,-0.7 1,0.2 2,0.6 3.1,0.8 0.4,0.1 0.8,0.4 1.2,-0.1 0.3,-0.1 0.8,0 1.2,0.5 z"
   id="path1141" />
		<path
   fill="#2a2a2a"
   d="m 45.4,38.6 c -0.4,0 -0.9,-0.1 -1.2,0.5 -0.1,0 -0.1,0 -0.2,0 -0.3,-0.2 -0.3,-0.5 -0.3,-0.8 0.9,-0.9 1.6,-0.1 2.4,0.1 -0.1,0.5 -0.4,0.3 -0.7,0.2 z"
   id="path1143" />
		<path
   fill="#848484"
   d="m 12,-53.3 c -6.4,-0.7 -12.8,-0.8 -19.3,-0.1 -0.9,0.1 -1.8,0.1 -2.7,0.1 -0.1,-0.1 -0.1,-0.3 0.1,-0.4 1.1,-0.5 2.2,-0.4 3.3,-0.5 2,-0.4 4,-0.2 6.1,-0.2 1.8,0 3.7,0 5.5,0 0.4,0 0.9,0.2 1.2,-0.4 1.3,0 2.7,0 4,0 0.4,0 0.9,-0.1 1.1,0.4 -0.7,0.4 -1.5,0 -2.2,0.2 0.7,0.1 1.4,0 2.1,0.1 0.2,0.2 0.8,0.1 0.8,0.8 z"
   id="path1145" />
		<path
   fill="#6c6c6c"
   d="m 6,-54.8 c 0.1,0.2 0.7,0.5 0,0.7 -0.3,0.1 -0.6,0 -0.9,0 -3.2,0 -6.5,0 -9.7,0 -0.7,0 -1.4,0.1 -2.1,0.2 -0.5,-0.4 -1.1,-0.1 -1.7,-0.2 -0.5,-0.1 -0.5,-0.1 -0.5,-0.6 1.3,-0.1 2.6,0.1 3.9,-0.1 0.2,0 0.3,0 0.5,-0.1 1.1,-0.2 2.2,0 3.4,-0.1 0.1,0.3 0.1,0.5 0.6,0.4 0.8,-0.2 1.7,-0.1 2.5,-0.1 0.3,0 0.6,0.1 0.8,-0.2 1,0.2 2.1,0.2 3.2,0.1 z"
   id="path1147" />
		<path
   fill="#646464"
   d="m 12,-53.3 c -0.6,-0.6 -1.3,-0.5 -2,-0.5 -0.6,0 -1.4,0.2 -2,-0.5 1.1,-0.4 2.1,-0.3 3.1,0 1.7,0.3 3.5,0.5 5.2,0.8 -0.4,0.9 -1.2,0.2 -1.7,0.5 -0.8,-0.2 -1.7,0.1 -2.6,-0.3 z"
   id="path1149" />
		<path
   fill="#494949"
   d="m -9.1,-54.5 c 0.8,0.4 1.6,0.1 2.4,0.2 0.7,0.1 0.1,0.3 0,0.4 -1.1,0.1 -2.2,0.2 -3.3,0.3 -0.6,0.4 -1.3,0.3 -1.9,0.3 -0.4,0 -0.8,-0.1 -1.2,0.1 v 0 c -0.4,0.2 -0.8,0.1 -1.1,0.1 -0.3,0 -0.5,-0.2 -0.3,-0.5 1.3,-0.3 2.5,-0.5 3.8,-0.8 0.4,-0.3 1,-0.4 1.6,-0.1 z"
   id="path1151" />
		<path
   fill="#585858"
   d="m -16.3,-52.3 c -1.2,0.3 -2.4,0.6 -3.6,1 -0.3,0 -0.7,0 -1,-0.1 0.1,-0.4 0.6,-0.4 0.7,-0.7 1.2,-0.3 2.4,-0.7 3.6,-1 0.4,-0.1 0.9,-0.3 1,0.2 0.3,0.6 -0.5,0.3 -0.7,0.6 z"
   id="path1153" />
		<path
   fill="#3f3f3f"
   d="m 2.7,-54.7 c 0.2,0.4 0,0.5 -0.4,0.4 -1.2,0 -2.4,0 -3.8,0 0.3,-0.2 0.5,-0.3 0.6,-0.5 0.1,0 0.1,-0.1 0.2,-0.1 1,0 2,-0.1 2.9,0.1 0.2,0 0.3,0.1 0.5,0.1 z"
   id="path1155" />
		<path
   fill="#868686"
   d="m -16.3,-52.3 c 0,-0.3 0.7,-0.2 0.6,-0.6 -0.1,-0.3 -0.6,-0.1 -0.8,-0.2 0.6,-0.4 1.3,-0.3 2,-0.4 0.2,0.9 1,0.2 1.4,0.5 -1.1,0.3 -2.1,0.6 -3.2,0.7 z"
   id="path1157" />
		<path
   fill="#868686"
   d="m -9.1,-54.5 c -0.6,-0.1 -1.1,0.2 -1.7,0.2 0.2,-0.6 0.7,-0.4 1.1,-0.5 1.6,0 3.1,0 4.7,0 -1.4,0.5 -2.7,0.1 -4.1,0.3 z"
   id="path1159" />
		<path
   fill="#868686"
   d="m -0.9,-54.7 c -1.2,0 -2.4,0 -3.6,0 1.2,-0.4 2.4,-0.1 3.6,-0.2 0.1,0 0.1,0 0,0.2 0,-0.1 0,0 0,0 z"
   id="path1161" />
		<path
   fill="#6c6c6c"
   d="m -0.9,-54.7 c 0,-0.1 0,-0.1 0,-0.2 1,0 2.1,-0.3 3.1,0.2 -1,-0.1 -2.1,-0.1 -3.1,0 z"
   id="path1163" />
		<path
   fill="#595959"
   d="m 21.3,-51.4 c -1.3,-0.2 -2.4,-0.9 -3.8,-1 -0.1,-0.3 -0.5,-0.2 -0.5,-0.7 1.9,-0.1 3.6,0.6 5.3,1.2 0,0.7 0,0.7 -1,0.5 z"
   id="path1165" />
		<path
   fill="#6f6f6f"
   d="m 21.3,-51.4 c 0.4,-0.1 0.9,0.2 1,-0.5 1.3,0.2 2.5,1 3.9,1 -0.4,0.7 0.3,0.4 0.5,0.5 -0.4,0.6 -0.8,0.4 -1.3,0.3 -0.7,-0.2 -1.3,-0.5 -2.1,-0.5 -0.6,-0.6 -1.4,-0.4 -2,-0.8 z"
   id="path1167" />
		<path
   d="m 31.8,-0.2 c 0,3.6 -1.2,6.7 -3.5,9.5 -3.3,4 -10.2,4.1 -14,-0.4 -4.4,-5.4 -4.3,-15.6 2.5,-20.2 2.1,-1.4 4.7,-2 7.3,-1 4.8,1.9 7.7,6.3 7.7,12.1 z"
   id="path1169" />
		<path
   fill="#fecab4"
   d="m 38.9,16.8 c -0.6,2.7 -2.3,4.3 -5.1,4.6 -2.4,0.3 -4.8,0.4 -7.3,-0.1 -1.5,-0.2 -1.9,-1 -1.7,-2.4 0.1,-0.4 -0.1,-0.6 -0.5,-0.7 -0.4,-0.1 -0.7,0 -1.1,-0.1 -0.1,-0.1 -0.1,-0.2 0,-0.3 0.1,-0.1 0.2,-0.1 0.3,-0.1 1.1,0 2,-0.6 3,-0.9 0.1,0 0.2,-0.1 0.4,-0.1 1.2,0.1 2.4,-0.2 3.6,-0.6 0.2,0 0,0 0.1,0 0.4,-0.1 1.2,0 1.1,-0.6 0,-0.5 -0.7,-0.1 -1,-0.2 -0.2,-0.1 -0.3,-0.1 -0.4,-0.3 0.2,-0.6 0.8,-0.6 1.3,-1.1 -0.8,0.2 -1.5,0.4 -2.2,0.5 -0.5,0 -0.9,-0.1 -1,-0.6 -0.1,-0.5 0.3,-0.6 0.6,-0.7 2.5,-1.1 5,-1.4 7.7,-0.9 2,0.3 2.8,2.3 2.2,4.6 z"
   id="path1171" />
		<path
   fill="#fefefe"
   d="m 40.8,16.2 c 0.3,2.7 -0.3,5.2 -0.2,7.8 0,0.9 0.5,1.7 0.1,2.6 -0.2,0.5 -0.4,0.7 -0.9,0.7 -1.5,0 -3,0 -4.4,0 -0.6,0 -0.9,-0.3 -1,-0.9 -0.2,-1.1 -0.6,-2.1 -0.7,-3.2 0,-0.5 0,-0.6 0.4,-0.6 3.5,-0.3 5.1,-2.6 6.3,-5.5 0,-0.3 0,-0.6 0.4,-0.9 z"
   id="path1173" />
		<path
   fill="#fbd8c1"
   d="m 38.9,16.8 c -0.1,-1.1 0.3,-2.2 -0.5,-3.2 -0.8,-1.2 -2.1,-1.6 -3.3,-1.5 -2,0.1 -4,0.2 -5.8,1.1 -0.3,0.1 -0.7,0.2 -0.6,0.6 0.1,0.4 0.6,0.4 0.9,0.3 0.7,-0.2 1.4,-0.2 2.1,-0.6 0.2,-0.1 0.6,-0.1 0.7,0.2 0.2,0.4 -0.2,0.4 -0.4,0.6 -0.5,0.3 -1.1,0.4 -1.5,0.9 0,0.2 -0.2,0.3 -0.4,0.4 -1.6,0.7 -3.2,0.7 -4.9,1.1 -0.4,0.1 -0.7,0.1 -1,-0.2 0.9,-0.4 1.6,-1.1 2.3,-1.9 1.1,-1.4 2.6,-2.1 4.4,-2.5 2,-0.4 3.9,-0.7 5.9,-0.2 2.1,0.6 3.2,3.1 2.1,4.9 z"
   id="path1175" />
		<path
   fill="#fefefe"
   d="m -2.2,24 c 1.5,-1.2 1.5,-1.4 -0.7,-2.7 1.6,0.5 3.1,1.1 4.9,1 C 3.7,22.1 5.1,21.2 6.6,20.4 6.3,21 5.5,21.6 4.8,21.9 4.3,22.1 3.7,22.4 3.9,23.1 4.1,23.8 4.6,24 5.4,23.9 6.3,23.7 7.2,23.3 8.2,23.7 8.5,23.8 9,23.8 8.8,24.4 8.6,24.9 8.1,25 7.8,24.6 7.1,23.9 6.6,24.4 5.8,24.5 5.1,24.6 4,25 3.1,24.4 2.2,23.7 1.3,23.5 0.2,24.1 -0.5,24.5 -1.3,23.7 -2.2,24 Z"
   id="path1177" />
		<path
   fill="#fefefe"
   d="m 18.8,17 c 0.2,-0.5 0.3,-1 1.1,-1 0.5,0 1.1,-0.3 1,-0.9 0,-0.6 -0.5,-0.9 -1,-1 -1.1,-0.1 -2,-0.5 -2.9,-1.2 0.4,-0.2 0.7,-0.1 1,0 2.4,1 4.8,1.3 7.2,0 0.2,-0.1 0.5,-0.3 0.7,0 0.2,0.3 -0.1,0.4 -0.2,0.6 -0.7,2.1 -2.4,2.5 -4.3,2.7 -1,0 -1.7,0.7 -2.6,0.8 z"
   id="path1179" />
		<path
   fill="#2f2f2f"
   d="m -3.1,14.6 c 2.9,-1.6 5.8,-1.7 8.7,0 0,0 -0.1,0.1 -0.1,0.1 -0.1,0.2 -0.7,0 -0.3,0.5 0.2,0.3 0.6,0.4 0.8,0.6 0.2,0.3 0.7,0.6 0.1,1 -0.4,0 -0.7,-0.2 -1,-0.4 -2,-1.2 -4.2,-1.5 -6.4,-0.7 -0.3,0.1 -0.7,0.2 -1,0 -0.4,-0.4 0.2,-0.6 0.3,-0.9 -0.4,-0.2 -0.8,0.2 -1.1,-0.2 z"
   id="path1181" />
		<path
   fill="#222222"
   d="m -28.1,25.2 c 1,0 2,-0.3 3,-0.7 1.7,-0.7 3.6,-0.6 5.4,-0.9 0.4,-0.1 0.7,0.1 0.8,0.6 0.1,0.4 -0.2,0.7 -0.6,0.7 -3,-0.3 -5.7,1.2 -8.6,1.2 -0.4,0.1 -0.8,0 -1.2,0.1 -0.3,0 -0.5,-0.1 -0.5,-0.4 0,-0.3 0.2,-0.4 0.4,-0.5 0.5,-0.1 0.9,0.1 1.3,-0.1 z"
   id="path1183" />
		<path
   fill="#202020"
   d="m 26.1,25.9 c -1.2,0 -2.4,-0.2 -3.6,-0.6 -0.7,-0.2 -1.4,-0.4 -2.1,-0.4 -0.4,0 -1,0 -1,-0.5 0,-0.7 0.6,-0.6 1.1,-0.6 1.8,0.1 3.5,0.6 5.2,1 1.6,0.3 3.2,0.7 4.8,0.9 0.3,0 0.6,0 0.6,0.4 0,0.4 -0.4,0.3 -0.7,0.3 -1.5,0.1 -2.9,-0.1 -4.3,-0.5 z"
   id="path1185" />
		<path
   fill="#fefefe"
   d="m 42.4,-52.1 c 0.6,-0.2 1.2,-0.8 1.5,0.2 0.4,1.1 1,1.5 2,0.6 0.2,0.6 -0.1,0.8 -0.5,0.9 -0.9,0.2 -1.1,0.6 -0.2,1.2 0.2,0.1 0.4,0.2 0.4,0.4 -0.4,1.5 -0.2,3.2 -1.3,4.5 -0.2,0.2 -0.3,0.3 -0.5,0.1 -0.2,-0.2 -0.6,-0.3 -0.3,-0.6 0.4,-0.7 0.4,-1.4 0.6,-2.1 0.5,-1.4 -0.1,-3.7 -1.3,-4.6 -0.1,-0.2 -0.3,-0.3 -0.4,-0.6 z"
   id="path1187" />
		<path
   fill="#1a1a1a"
   d="m -3.1,14.6 c 0.6,0.2 1.2,-0.5 1.8,-0.1 -0.1,0.6 -0.8,0.6 -1.1,1.1 -0.1,0.2 -0.2,0.3 -0.4,0.5 -1,1 -1,1.2 0,2.2 0.5,0.5 1,0.8 1.6,1 0.1,0 0.2,0.1 0.2,0.2 0,0.1 0,0.2 -0.1,0.3 -0.2,0.3 -0.5,0.4 -0.9,0.5 -0.7,-0.1 -1.2,-0.6 -1.8,-0.8 -1.8,-1.7 -1.6,-3.7 0.7,-4.9 z"
   id="path1189" />
		<path
   fill="#372d2a"
   d="m 36.4,-44.2 c -1.8,-1.3 -2.6,-3.1 -2,-5.3 0.4,-1.3 1.2,-2.2 2.5,-2.7 0.3,-0.1 0.6,-0.2 0.8,0.1 0.2,0.6 -0.5,0.7 -0.8,1.1 -0.1,0.1 -0.2,0.2 -0.3,0.2 -1.3,1.1 -1.6,2.9 -0.7,4.6 0.2,0.2 0.4,0.4 0.6,0.6 0.2,0.2 0.4,0.4 0.6,0.6 0.1,0.2 0.2,0.5 0,0.7 -0.1,0.4 -0.4,0.2 -0.7,0.1 z"
   id="path1191" />
		<path
   fill="#fefefe"
   d="m 24.8,27.2 c -0.9,0.2 -1.5,0.5 -1.1,1.4 0.1,0.3 0,0.5 -0.3,0.5 -1.6,0 -3.1,0 -4.7,-0.1 1.1,-0.6 2.3,-0.7 2.6,-2.2 0,0 0.1,-0.1 0.2,-0.1 0.8,0.5 2.1,-0.2 3.3,0.5 z"
   id="path1193" />
		<path
   fill="#64534d"
   d="m 37.2,-44.4 c -0.1,-0.2 -0.1,-0.3 -0.2,-0.5 1,-0.1 1.9,0.4 2.9,0.1 0.6,0.1 1.8,-0.4 1.9,-0.9 0,-0.1 -0.4,0 -0.4,-0.3 -0.1,-0.3 0.1,-0.6 0.2,-0.9 0.2,-1.2 0.4,-2.4 -0.7,-3.4 -0.2,-0.2 -0.4,-0.4 -0.4,-0.7 0.7,-0.5 0.9,0.1 1.3,0.4 0.4,0.3 0.3,1 0.9,1 0.6,2.8 0.1,4.5 -2.3,5.9 -0.2,0.1 -0.3,0.2 -0.5,0.3 -0.3,0.2 -0.5,0.1 -0.8,0.1 -0.2,-0.4 -0.5,-0.5 -0.9,-0.5 -0.3,-0.1 -0.8,-0.2 -1,-0.6 z"
   id="path1195" />
		<path
   fill="#fefefe"
   d="m -31.1,27.6 c 0.8,0.3 1.6,0.1 2.3,0.2 0.4,0 0.7,0.2 0.7,0.7 0,0.4 -0.3,0.5 -0.6,0.5 0,0 -0.1,0 -0.1,0 -0.8,0.8 -1.7,0.4 -2.6,0 -0.4,-0.2 -0.8,-0.1 -0.7,-0.7 0.1,-0.5 0.6,-0.6 1,-0.7 z"
   id="path1197" />
		<path
   fill="#434343"
   d="m 26.1,25.9 c 1.6,-0.1 3.1,0.6 4.7,0.3 -1.7,-0.5 -3.5,-0.7 -5.1,-1.3 2.2,0 4.3,0.8 6.6,0.9 0.4,0 0.6,0.3 0.6,0.7 0,0.4 -0.3,0.7 -0.6,0.5 -1.8,-0.7 -3.7,-0.1 -5.5,-0.9 -0.2,0 -0.4,-0.1 -0.7,-0.2 z"
   id="path1199" />
		<path
   fill="#fefefe"
   d="m 33.6,28.8 c -1.9,0.5 -3.6,0.7 -5.2,0.2 -0.3,-0.1 -0.6,-0.1 -0.6,-0.4 0,-0.3 0.1,-0.8 0.6,-0.7 1,0 2.2,-0.3 3.1,0.6 0.5,0.4 1.2,0.2 2.1,0.3 z"
   id="path1201" />
		<path
   fill="#fefefe"
   d="m 38.7,-56.4 c 0.1,0 0.1,-0.1 0.2,-0.1 0.7,-0.1 1.9,0.1 2.5,0.5 0.5,0.3 1.1,0.5 1.7,0.5 0.3,0 0.7,-0.1 0.8,0.3 0.2,0.5 0.6,1.1 0.1,1.4 -0.4,0.3 -1.1,-0.1 -1.4,-0.5 -1,-1.3 -2.5,-1.4 -3.9,-2.1 z"
   id="path1203" />
		<path
   fill="#fefefe"
   d="m -21.3,29 c -0.2,0 -0.4,0 -0.6,0 -1.4,0 -1.9,-0.5 -1.6,-1.8 0.1,-0.5 0.7,-0.5 0.9,-0.2 0.8,1 1.8,1.4 3.1,1.2 0.3,0 0.4,0.1 0.4,0.3 0,0.3 -0.2,0.4 -0.4,0.5 -0.7,0 -1.3,0 -1.8,0 0,0 0,0 0,0 z"
   id="path1205" />
		<path
   fill="#4c4c4c"
   d="m 42,30.5 c 0.4,-0.1 0.9,0.3 1.2,-0.3 0.1,-0.1 0.2,-0.1 0.3,-0.2 0.1,0.4 -0.2,1.2 0.7,0.7 0.1,0 0.2,0 0.3,0 -0.2,0.6 -0.7,0.5 -1.2,0.5 -3.3,0 -6.5,0.1 -9.8,0 -1,0 -1.9,0 -2.5,0.9 -0.3,-0.9 0.1,-1.2 0.9,-1.4 2.9,0 5.9,0 8.8,0 0.4,0 0.9,0.1 1.3,-0.2 z"
   id="path1207" />
		<path
   fill="#353332"
   d="m 42.7,-49.7 c -0.1,0.3 0.1,0.6 -0.3,0.9 -0.3,-1.1 -0.7,-2.1 -2,-2.3 -0.2,0.1 -0.4,0 -0.6,-0.1 -0.5,-0.9 -1.5,-0.4 -2.2,-0.6 -0.2,-0.3 -0.5,-0.2 -0.8,-0.3 0.1,-0.1 0.2,-0.2 0.3,-0.2 1,-0.5 2,-0.8 3,0 1.4,0.4 2.1,1.4 2.6,2.6 z"
   id="path1209" />
		<path
   fill="#2c2c2c"
   d="m -28.1,25.2 c -0.3,0.4 -0.7,0.2 -1.1,0.2 -0.2,0 -0.4,0.1 -0.4,0.3 0,0.3 0.3,0.2 0.5,0.2 0.4,-0.1 0.7,0 1,0.2 -1.1,0.7 -2.4,0.5 -3.6,0.6 -0.2,0 -0.5,-0.1 -0.5,-0.4 -0.1,-0.3 0.1,-0.6 0.4,-0.6 1.3,0.1 2.4,-0.9 3.7,-0.5 z"
   id="path1211" />
		<path
   fill="#212121"
   d="m 23.6,17.9 c -0.1,0 -0.1,0.1 -0.2,0 -0.9,0.1 -1.7,0.5 -2.5,0.8 -0.3,0.1 -0.8,0.2 -1,-0.2 -0.2,-0.4 0.3,-0.6 0.5,-0.8 0.4,-0.3 1,-0.3 1.4,-0.6 0.3,-0.1 0.6,-0.2 0.9,-0.2 0.5,-0.2 1,0 1.5,-0.1 0.4,0 0.5,0.3 0.3,0.6 -0.1,0.5 -0.6,0.4 -0.9,0.5 z"
   id="path1213" />
		<path
   fill="#fefefe"
   d="m -2.1,24 c -0.6,0.6 -3,1 -3.9,0.6 -0.2,-0.1 -0.4,-0.2 -0.3,-0.4 0,-0.4 0.4,-0.5 0.7,-0.5 1.1,0.1 2.3,-0.2 3.5,0.3 z"
   id="path1215" />
		<path
   fill="#fefefe"
   d="m 11.3,-5.9 c -0.7,-1.4 0.7,-2.2 0.6,-3.4 0,-0.1 0.9,-0.6 1.2,-0.4 0.5,0.3 0,0.7 -0.3,1 -0.8,0.7 -1.1,1.8 -1.5,2.8 z"
   id="path1217" />
		<path
   fill="#fefefe"
   d="m 30.2,9.3 c 0,0.5 0.1,0.9 0.4,1.4 -1.2,-0.2 -2,0.4 -3,0.9 0.1,-0.7 0.8,-0.7 1.2,-1.1 0.5,-0.3 0.9,-0.7 1.4,-1.2 z"
   id="path1219" />
		<path
   fill="#62534e"
   d="m 24.5,17 c -0.6,0 -1.1,0 -1.7,0 0.5,-0.3 1.1,-0.1 1.5,-0.4 1.7,-0.5 3.4,-0.4 5,-1.1 0.3,-0.1 0.6,-0.2 0.9,-0.1 -0.2,0.8 -1,0.9 -1.6,1 -1.3,0.3 -2.7,0.5 -4.1,0.6 z"
   id="path1221" />
		<path
   fill="#62534e"
   d="m 21.9,17.2 c -0.2,0.4 -0.6,0.4 -0.9,0.5 -0.4,0.2 -1.1,0.2 -0.9,0.7 0.2,0.6 0.8,0.1 1.2,0 0.7,-0.2 1.3,-0.6 2,-0.4 0,0.1 0,0.1 0,0.2 -0.9,0.3 -1.8,0.5 -2.7,0.8 -0.4,0.1 -0.8,0.2 -1,-0.3 -0.2,-0.5 0.2,-0.7 0.6,-0.9 0.5,-0.3 1,-0.7 1.7,-0.6 z"
   id="path1223" />
		<path
   fill="#2c2c2c"
   d="m 5.6,14.6 c 1.1,0.6 2,1.4 1.9,2.7 0,1.2 -0.9,2 -1.9,2.4 0,0 -0.1,-0.1 -0.1,-0.1 C 5.5,19 6,18.7 6.4,18.4 7.1,17.6 7.2,17 6.5,16.1 6.2,15.7 5.6,15.4 5.6,14.8 c -0.1,-0.2 0,-0.2 0,-0.2 z"
   id="path1225" />
		<path
   fill="#2c2c2c"
   d="m -3.6,19.4 c 0.7,0 1.2,0.7 2,0.7 1.7,-0.2 3.3,-0.1 5,0 0.1,0.1 0.2,0.1 0.3,0.3 -2.6,0.3 -5.1,0.7 -7.3,-1 z"
   id="path1227" />
		<path
   fill="#433f3d"
   d="m 37.2,-44.4 c 0.5,0.3 1.1,0.2 1.7,0.2 0.9,0 0.5,0.4 0.2,0.7 -0.7,0.1 -1.4,0.3 -2.1,-0.2 -0.2,-0.2 -0.4,-0.3 -0.6,-0.5 0.3,0 0.6,0.1 0.8,-0.2 z"
   id="path1229" />
		<path
   fill="#fefefe"
   d="m 11.4,6.3 c 0.5,0.4 0.7,0.9 0.8,1.3 0.1,0.2 0.3,0.5 0.1,0.6 C 12,8.4 11.7,8.4 11.6,8 11.4,7.5 10.7,7.1 11.4,6.3 Z"
   id="path1231" />
		<path
   fill="#fefefe"
   d="m 34.2,-51.7 c 0,-1.3 0.4,-1.6 1.5,-1.4 -0.5,0.5 -1,0.9 -1.5,1.4 z"
   id="path1233" />
		<path
   fill="#fefefe"
   d="m 42.5,-11.2 c 0.1,-0.3 -0.1,-0.8 0.4,-0.8 0.4,0 0.3,0.4 0.3,0.6 0,0.4 0,0.8 -0.5,0.8 -0.4,0 -0.1,-0.4 -0.2,-0.6 z"
   id="path1235" />
		<path
   fill="#5b4e4a"
   d="m 40.2,-52.4 c -1,-0.5 -2,-0.1 -3,0 1,-0.7 2,-1 3,0 z"
   id="path1237" />
		<path
   fill="#fefefe"
   d="m 36.3,-43 c -0.6,0.6 -1,0.6 -1.3,0.4 -0.1,-0.1 0,-0.5 0.1,-0.6 0.5,-0.4 0.6,0.3 1.2,0.2 z"
   id="path1239" />
		<path
   fill="#fbc2ad"
   d="m 37.1,-43.7 c 0.7,0.2 1.4,0.4 2.1,0.2 0.3,0 0.6,0 0.9,0 -1.1,0.4 -2.1,0.7 -3,-0.2 z"
   id="path1241" />
		<path
   fill="#fefefe"
   d="M 10,-1.3 C 9.9,-1.8 9.7,-2.4 10.1,-3 10.6,-2.4 10,-1.8 10,-1.3 Z"
   id="path1243" />
		<path
   fill="#fefefe"
   d="m 42.4,-17.1 c -0.1,-0.5 0,-0.9 0.3,-1.3 0,0 0.2,0.1 0.3,0.2 0.3,0.7 -0.5,0.7 -0.6,1.1 z"
   id="path1245" />
		<path
   fill="#2c2c2c"
   d="m 5.6,19.7 c -0.6,0.4 -1.2,0.8 -1.9,0.7 0,0 0,-0.1 -0.1,-0.1 0.2,-0.6 0.8,-0.6 1.2,-0.8 0.2,-0.1 0.5,-0.1 0.7,0.1 0,0 0.1,0.1 0.1,0.1 z"
   id="path1247" />
		<path
   fill="#fefefe"
   d="m 42.6,24.5 c -0.1,-0.6 -0.2,-0.9 0.2,-1.1 0.1,0 0.2,0.1 0.3,0.1 0.2,0.4 -0.2,0.6 -0.5,1 z"
   id="path1249" />
		<path
   d="m -31,-0.5 c 0.5,-3.7 1.2,-7.4 4.4,-10.1 4.1,-3.5 9.8,-2.8 13.1,1.1 4.6,5.5 4,14.5 -1.1,19.3 -3.1,3 -9.2,3.2 -12.6,-0.4 -2.5,-2.8 -3.5,-6.1 -3.8,-9.9 z"
   id="path1251" />
		<path
   fill="#fdcab4"
   d="m -24.2,17.9 c -0.5,0.1 -0.5,0.5 -0.4,0.9 0.1,0.9 -0.4,1.4 -1.1,1.7 -2.5,1.5 -8.5,1.1 -10.7,-0.8 -2,-1.7 -2.2,-2.4 -1.4,-4.4 1.2,-2.4 3.3,-2.9 5.7,-2.5 0.8,0.1 0.8,0.8 1,1.3 -0.3,0.4 -0.9,0.6 -0.7,1.2 0.2,0.6 0.7,0.6 1.2,0.7 0.2,0 0.4,0 0.6,0.1 0.3,0.1 0.7,0.2 1.1,0.3 0.9,0.4 1.9,0.6 2.9,0.6 0.7,0 1.5,0 1.8,0.9 z"
   id="path1253" />
		<path
   fill="#352a28"
   d="m -33.1,-45.6 c -0.6,0.9 -1.1,1.8 -2.1,2.4 -1.4,0.8 -2.8,0.8 -4,-0.2 -1.6,-1.2 -2.6,-2.8 -2.2,-4.9 0.2,-1.4 1.1,-2.4 2.3,-3 0.6,-0.3 1.2,-0.7 2,-0.8 0.4,0 1,0 1,0.5 0,0.5 -0.5,0.6 -0.9,0.6 -0.7,0 -1.3,0.2 -1.8,0.8 -1.2,1 -1.5,2.4 -1.2,3.9 0.6,2.1 2.8,3 4.5,1.9 0.2,-0.3 0.4,-0.5 0.7,-0.7 0.7,-0.3 0.8,-1.1 1.2,-1.6 0.2,-0.2 0.6,-0.5 0.6,0.1 0,0.2 0.1,0.6 -0.1,1 z"
   id="path1255" />
		<path
   fill="#fce1cc"
   d="m -31.1,14.1 c -0.2,-0.1 -0.4,-0.2 -0.5,-0.3 -0.3,-0.2 0.2,-1 -0.7,-0.9 -1.2,0.2 -2.5,-0.4 -3.6,0.6 -0.7,0.6 -1.3,1.2 -2,1.9 0.7,-2.1 2.2,-3.1 4.3,-2.8 1.6,0.2 3.3,0.1 4.7,0.9 0.2,0.1 0.6,0.1 0.7,0.4 0.2,0.8 0.9,0.8 1.5,0.9 0.4,0.1 1,0.2 1,0.8 -1.5,-0.3 -3,-0.2 -4.4,-0.8 -0.3,-0.2 -0.8,-0.3 -1,-0.7 z"
   id="path1257" />
		<path
   fill="#5a5350"
   d="m -39.1,-50.4 c 0.6,-1.2 1.7,-0.9 2.8,-1.1 -0.3,-0.6 -0.7,-0.6 -1.2,-0.5 -0.6,0.1 -1,0.6 -1.7,0.6 1.6,-1.3 3,-1.2 4.7,0.2 0.6,0.5 1.1,1 1.3,1.8 -0.1,0.1 -0.2,0.1 -0.2,0.2 0.1,-0.1 0.1,-0.2 0.2,-0.2 0.4,1.3 0.5,2.6 0,3.9 0,-0.3 0,-0.5 0,-0.8 0,-0.7 -0.3,-0.2 -0.5,-0.2 -0.4,-0.6 -0.3,-1.3 -0.5,-2 -0.2,-0.6 -0.4,-1.1 -1,-1.4 -1,-0.7 -2.1,-1 -3.3,-0.4 -0.1,0 -0.4,0.1 -0.6,-0.1 z"
   id="path1259" />
		<path
   fill="#e5cab6"
   d="m -24.2,17.9 c -0.6,-0.5 -1.4,-0.7 -2.2,-0.7 -0.9,0 -1.8,-0.1 -2.6,-0.7 0.4,-0.4 0.9,-0.2 1.3,-0.1 1.7,0.3 3.5,0.5 5.2,1 1,0.2 1.8,0.6 2.8,0.7 0.1,-0.7 -0.8,-0.6 -0.7,-1.1 0.7,-0.2 1.4,0 1.6,0.8 0.1,0.4 0.1,0.8 -0.3,1.1 -0.3,0.3 -0.7,0.3 -1,0.1 -1.2,-0.8 -2.7,-1 -4.1,-1.1 z"
   id="path1261" />
		<path
   fill="#4e3c36"
   d="m -22.3,17.7 c -1.9,-0.3 -3.7,-0.7 -5.6,-1 -0.4,-0.1 -0.7,-0.3 -1.2,-0.2 -0.3,-0.1 -0.7,0.1 -1,-0.2 0,-0.1 0,-0.3 0.1,-0.3 0.5,-0.3 1,-0.2 1.5,-0.1 0.9,0.3 1.7,0.6 2.7,0.7 0.7,0 0.7,0.1 0.6,-0.3 1.1,-0.1 2,0.2 3,0.5 0.3,0.1 0.5,0.1 0.8,0.2 -0.2,0.3 -0.4,0.3 -0.7,0.3 -0.4,-0.1 -0.1,0.3 -0.2,0.4 z"
   id="path1263" />
		<path
   fill="#191919"
   d="m -22.3,17.7 c -0.1,-0.4 -0.7,-0.2 -0.9,-0.7 0.7,0 1.3,-0.1 1.9,-0.1 0.3,0 0.6,0 0.9,0 0.2,0.1 0.4,0.2 0.6,0.3 0.5,0.2 0.8,0.6 0.6,1.1 -0.2,0.5 -0.7,0.2 -1,0 -0.6,-0.3 -1.4,-0.2 -2.1,-0.6 z"
   id="path1265" />
		<path
   fill="#fdcab4"
   d="m -30,14.4 c 0.8,0.8 2,0.4 2.9,0.7 0.5,0.1 1,0.2 1.4,0.5 0.2,0.1 0.3,0.3 0.5,0.4 -0.1,0.1 -0.1,0.2 -0.3,0.3 -1.5,0 -2.9,-0.9 -4.3,-1.1 -0.2,0 -0.3,-0.3 -0.3,-0.5 0,-0.1 0,-0.2 0.1,-0.3 z"
   id="path1267" />
		<path
   fill="#e5cab6"
   d="m -22.1,16.8 c -1,-0.1 -2,-0.5 -3.1,-0.5 0,0 -0.1,-0.1 -0.1,-0.1 0,0 0,-0.1 0,-0.1 0,0 0.1,-0.1 0.1,-0.1 1.1,0.1 2.3,-0.1 3.1,0.8 z"
   id="path1269" />
		<path
   fill="#6c6c6c"
   d="m -13.2,-53.1 c 1,-0.5 2.1,0 3.1,-0.4 0,0.1 0,0.2 0,0.2 -1,0.4 -2,0.2 -3.1,0.2 z"
   id="path1271" />
		<path
   fill="#828282"
   d="m -35.3,-39.6 c 0.3,0.3 0.3,0.7 0.3,1.1 0,1.9 0,3.9 0,5.8 0,0.4 -0.1,0.8 -0.3,1.1 -1.8,0.4 -3.6,0.3 -5.5,0.1 -0.6,-0.1 -1.4,0.5 -2,-0.3 0.4,-0.4 1,-0.3 1.5,-0.3 1.4,0 2.8,0 4.2,0 0.3,0 0.6,0 0.9,-0.1 0.2,-0.1 0.3,-0.2 0.3,-0.5 -0.1,-0.3 -0.3,-0.2 -0.5,-0.1 -1.4,0.7 -2.8,0.6 -4.3,0.4 -0.9,-0.1 -1.4,-0.6 -1.4,-1.5 0,-1.5 -0.2,-3 0.2,-4.5 0.2,-0.7 -0.4,-0.9 -0.6,-1.3 2.4,-0.3 4.8,-0.1 7.2,0.1 z"
   id="path1273" />
		<path
   fill="#8b8b8b"
   d="m -42.5,-39.6 c 0.4,0.1 0.9,0.3 1.4,0.4 -1.1,1.9 -0.4,4 -0.6,5.9 0,0.3 0.2,0.5 0.5,0.6 1.4,0.2 2.8,0.3 4.2,0 0.1,0 0.3,-0.2 0.4,-0.3 0.2,-0.2 0.2,-0.9 0.7,-0.5 0.4,0.3 0.6,0.8 0.6,1.3 -0.1,0.5 -0.5,0.5 -0.9,0.5 -2.2,0 -4.3,0 -6.5,0 -0.1,0 -0.1,0 -0.2,0 0.2,-2.3 0.3,-4.7 0,-7 0,-0.4 0.1,-0.7 0.4,-0.9 z"
   id="path1275" />
		<path
   fill="#060606"
   d="m 31.7,30.9 c -0.4,0.3 -0.6,0.7 -0.7,1.2 -1.4,3.3 -3.2,6.3 -5.4,9.1 -2.2,2.7 -4.7,5.1 -7.5,7.2 -0.8,0.6 -1.6,1.1 -2.4,1.7 -0.1,0 -0.1,0.1 -0.2,0.1 -0.4,0 -1,0.6 -1.2,0 -0.2,-0.5 0.6,-0.6 0.9,-0.9 3.5,-2.4 6.7,-5 9.4,-8.3 1.8,-2.3 3.4,-4.7 4.7,-7.3 0.2,-0.5 0.2,-0.9 0.3,-1.3 0.7,-0.4 0.2,-1.4 0.9,-1.7 0.4,-0.1 0.9,-0.4 1.2,0.2 z"
   id="path1277" />
		<path
   fill="#0f0f0f"
   d="m 15.1,49.4 c -0.1,0.4 -0.7,0.4 -0.8,0.9 0.5,0.2 0.9,-0.3 1.3,-0.1 -3,1.4 -6,3 -9.4,3.6 -1.4,0 -2.7,0 -4.1,0 -0.5,-0.4 -0.3,-0.5 0.2,-0.6 0.6,-0.1 1.3,0.2 1.9,-0.1 3.6,-0.5 6.9,-1.9 10.1,-3.4 0.4,-0.2 0.6,-0.3 0.8,-0.3 z"
   id="path1279" />
		<path
   fill="#2f2f2f"
   d="m 45.4,38.6 c 0.3,0 0.6,0 0.7,-0.2 0.2,0 0.3,0 0.5,0 0.8,0.4 1.8,0.6 2.7,0.7 0.1,0 0.1,0 0.2,0 0.3,0.8 -0.2,0.7 -0.6,0.6 -1.2,-0.4 -2.4,-0.7 -3.5,-1.1 z"
   id="path1281" />
		<path
   fill="#5d5d5d"
   d="m 49.3,39.1 c -1,0.1 -1.9,0 -2.7,-0.7 0.9,0.2 1.8,0.4 2.7,0.7 z"
   id="path1283" />
		<path
   fill="#282828"
   d="m 4.3,53 c -0.5,0.5 -1.2,0.2 -1.8,0.3 -0.3,0 -0.5,0.1 -0.4,0.5 -1.4,0 -2.7,0 -4.1,0 0.2,-0.4 0,-0.4 -0.4,-0.5 -0.6,-0.1 -1.3,0.2 -1.8,-0.3 2.9,0 5.7,0 8.5,0 z"
   id="path1285" />
		<path
   fill="#7b1508"
   d="m -5.5,31.1 c -1.4,-1.4 -1.4,-4.3 0,-5.5 0.4,-0.3 0.8,-0.2 1.3,-0.2 1.1,0 2.2,0 3.4,0 2.9,0 5.7,0 8.6,0 0.9,0.2 1.2,0.9 1.3,1.8 C 9.2,28.1 9,28.9 9,29.8 9,30.7 8.6,31 7.6,31 c -3.7,0 -7.3,0 -11,0 -0.4,0 -0.9,-0.1 -1.3,0.1 -0.3,0 -0.6,0 -0.8,0 z"
   id="path1287" />
		<path
   fill="#3b3b3b"
   d="m 9.6,30.4 c 6.1,0 12.3,0 18.4,0 0.4,0 0.9,-0.1 1.5,0.2 -0.5,0.4 -1,0.2 -1.4,0.2 -5.9,0 -11.7,0 -17.6,0 -0.4,0 -0.7,0 -1.1,0.1 -0.2,-0.2 0,-0.3 0.2,-0.5 z"
   id="path1289" />
		<path
   fill="#40261f"
   d="M 9.6,30.4 C 9.5,30.6 9.5,30.8 9.4,31 9.2,31 9,31.1 8.8,31.1 c -4.5,0 -9.1,0 -13.6,0 0.4,-0.3 0.8,-0.2 1.3,-0.2 3.6,0 7.2,0 10.7,0 0.6,0 1.2,0 1.3,-0.8 0.2,-1.1 0.1,-2.3 0,-3.4 0,-0.5 -0.5,-0.8 -0.9,-1 0.4,-0.7 0.9,-0.4 1.3,-0.3 0.1,0.1 0.2,0.2 0.2,0.2 0.2,1 0.2,2 0,3 -0.1,0.4 -0.2,0.7 0,1 0.1,0.4 0.3,0.7 0.5,0.8 z"
   id="path1291" />
		<path
   fill="#3b3b3b"
   d="m 8.9,25.4 c -0.4,0 -0.9,-0.2 -1.2,0.2 -2.9,0 -5.8,0 -8.6,0 -1.1,-0.2 -2.2,-0.2 -3.4,0 -0.4,0 -0.8,0 -1.2,0 -0.3,-0.3 -0.7,-0.2 -1,-0.3 0.5,-0.4 1.2,-0.1 1.7,-0.1 4.3,0 8.5,0 12.8,0 0.3,0 0.7,-0.1 0.9,0.2 z"
   id="path1293" />
		<path
   fill="#3b3b3b"
   d="m 31.7,30.9 c -0.3,-0.5 -0.8,-0.1 -1.2,-0.3 0.4,-0.3 0.8,-0.2 1.3,-0.2 3.4,0 6.8,0 10.3,0 -0.2,0.7 -0.8,0.4 -1.2,0.4 -3.1,0.1 -6.2,0.1 -9.2,0.1 z"
   id="path1295" />
		<path
   fill="#3b3b3b"
   d="m 9.2,29.7 c -0.6,-0.8 0.1,-1.5 0,-2.3 -0.1,-0.6 0,-1.2 0,-1.8 0.5,1.4 0,2.8 0,4.1 z"
   id="path1297" />
		<path
   fill="#131313"
   d="m -36.7,51.4 c 0.8,0.5 0.7,0.9 -0.1,1.4 0.1,-0.5 0.1,-0.9 0.1,-1.4 z"
   id="path1299" />
		<path
   fill="#fbfbfb"
   d="m 21.5,-11.9 c 1.6,0 3.2,2.2 2.8,3.9 -0.3,1.2 -1.1,1.9 -2.1,2.5 -0.3,0.2 -0.7,0.2 -1,0.1 -1.1,-0.2 -2.2,-1.9 -2.2,-3.1 0,-1.6 0.9,-3 2.2,-3.4 0.1,0 0.3,0 0.3,0 z"
   id="path1301" />
		<path
   fill="#2f2422"
   d="m 24.5,17 c 1,-0.4 2,-0.7 3.1,-0.7 1,0 1.8,-0.5 2.7,-0.9 0.1,-0.1 0.2,-0.1 0.3,-0.2 0.3,-0.1 0.5,-0.1 0.8,-0.2 0.4,-0.1 0.9,-0.2 1.1,0.3 0.2,0.6 -0.3,0.9 -0.8,1 -0.3,0.1 -0.5,0.1 -0.8,0.1 -1.3,0.3 -2.6,0.6 -3.9,0.7 H 26.9 26.8 C 26,17 25.4,17.8 24.6,17.6 24.5,17.3 24.8,17.1 24.5,17 Z"
   id="path1303" />
		<path
   fill="#62534e"
   d="m 24.5,17.5 c 0.7,-0.1 1.4,-0.7 2.2,-0.5 -1,0.5 -2,1 -3.2,0.9 0.4,-0.1 0.7,-0.3 1,-0.4 z"
   id="path1305" />
		<path
   fill="#62534e"
   d="m 26.9,17 c 1.3,-0.2 2.5,-0.7 3.9,-0.7 -1.2,0.6 -2.5,0.9 -3.9,0.7 z"
   id="path1307" />
		<path
   fill="#3c3c3c"
   d="m -2.9,18.5 c -1.4,-1.2 -1.2,-2.1 0.5,-2.9 0.3,0 0.6,0 0.8,-0.1 2.9,-1.2 5.4,-0.4 7.8,1.3 C 6.6,17.2 6.4,17.6 6.1,18 4,19.7 1.6,20.4 -1,19.5 v 0 c -0.6,-0.4 -1.2,-0.7 -1.9,-1 z"
   id="path1309" />
		<path
   fill="#121212"
   d="M 6,17.7 C 6.3,17.4 6.2,17.1 6.2,16.7 6.1,16 5.6,15.7 5.1,15.4 4.8,15.2 4.2,15.2 4.4,14.6 c 0.2,-0.5 0.7,0 1,-0.1 0.3,0.3 0.4,0.5 0.6,0.7 1.7,1.7 1.7,2.2 0,3.9 -0.2,0.2 -0.3,0.3 -0.5,0.5 -0.2,0 -0.4,0.1 -0.7,0.1 C 4.7,19.6 4.6,19.4 4.6,19.2 4.9,18.5 5.8,18.4 6,17.7 Z"
   id="path1311" />
		<path
   fill="#1a1a1a"
   d="m 4.8,19.2 c 0,0.2 0,0.3 0,0.5 -0.3,0.4 -0.8,0.3 -1.2,0.6 -1.8,0 -3.5,0.2 -5.2,-0.2 0.1,-0.3 0.4,-0.5 0.7,-0.5 0.7,-0.2 1.5,-0.1 2.2,-0.1 1,0 2,0.1 3,-0.5 0.2,0 0.4,0 0.5,0.2 z"
   id="path1313" />
		<path
   fill="#2c2c2c"
   d="M 4.8,19.2 C 3,20 1,19.5 -0.9,19.6 c 0,-0.1 0,-0.2 0,-0.2 0.6,0 1.3,-0.1 1.9,0 2,0.2 3.5,-0.6 5.1,-1.7 -0.1,0.8 -1,0.9 -1.3,1.5 z"
   id="path1315" />
		<path
   fill="#2c2c2c"
   d="m -2.9,18.5 c 0.8,0 1.4,0.3 1.9,1 -0.8,0 -1.4,-0.4 -1.9,-1 z"
   id="path1317" />
		<path
   fill="#fbd6bd"
   d="m 40.1,-51.3 c 0.1,0.2 0.3,0.2 0.5,0.2 2,1.3 1.8,3.6 1,5.2 -0.2,0.6 -0.7,0.8 -1.3,1 -1.3,0.6 -2.6,0 -3.8,-0.5 -0.2,-0.1 -0.4,-0.2 -0.4,-0.4 -0.4,-0.7 -0.6,-1.5 -0.6,-2.4 0,-1.2 0.3,-2.1 1.3,-2.8 0,-0.1 0,-0.1 0,-0.2 1.1,-0.4 2.1,-1.3 3.3,-0.1 z"
   id="path1319" />
		<path
   fill="#fbc2ad"
   d="m 36.7,-50.9 c -1.5,1.5 -1.4,3.3 -0.7,5.2 -1.3,-1.9 -1,-4.1 0.7,-5.2 z"
   id="path1321" />
		<path
   fill="#fbc2ad"
   d="m 36.4,-45.4 c 0.6,-0.2 1,0.3 1.6,0.4 0.8,0.2 1.6,0 2.5,-0.1 0,0.2 -0.1,0.4 -0.4,0.4 -1.1,0.4 -2.1,0.2 -3.1,-0.3 -0.2,-0.1 -0.4,-0.2 -0.6,-0.4 z"
   id="path1323" />
		<path
   fill="#5b4e4a"
   d="m 40.1,-51.3 c -1.1,-0.6 -2.2,-0.1 -3.3,0.2 0.2,-0.4 0.7,-0.4 0.9,-0.8 0.9,-0.3 1.8,-0.6 2.4,0.6 z"
   id="path1325" />
		<path
   fill="#2c211e"
   d="m 40.1,-44.7 c 0.1,-0.1 0.2,-0.3 0.4,-0.4 0.4,-0.3 0.7,-0.5 1.1,-0.8 0.3,0 0.4,-0.5 0.7,-0.2 0.2,0.2 0,0.4 -0.2,0.6 -0.4,0.4 -0.7,0.8 -1.1,1.1 -0.4,0.3 -0.8,0.3 -0.9,-0.3 z"
   id="path1327" />
		<path
   fill="#4f4f4f"
   d="m -17.9,-8.2 c 0,1.7 -1.5,3.6 -2.8,3.7 -1.4,0 -3,-1.9 -3.1,-3.6 0,-1.7 1.5,-3.6 3,-3.6 1.4,0 2.9,1.8 2.9,3.5 z"
   id="path1329" />
		<path
   fill="#e5cab6"
   d="m -30,14.4 c 0,0.1 0,0.2 0,0.3 -0.2,0.1 -0.4,0.1 -0.6,0.1 -0.3,0 -0.8,-0.3 -0.9,0.2 -0.1,0.4 0.3,0.6 0.7,0.7 0.2,0.1 0.5,0.1 0.7,0.2 0,0 0.1,0.1 0.1,0.1 0,0.1 0,0.2 0,0.2 -0.8,0 -1.8,0.2 -2.1,-0.9 -0.2,-0.7 -0.1,-1.4 0.9,-1.3 0.4,0.2 0.8,0.3 1.2,0.4 z"
   id="path1331" />
		<path
   fill="#fbd8bf"
   d="m -39.1,-50.4 c 1.4,-0.6 2.8,-1.1 4.1,0.2 1.5,1.5 1.6,3.7 0.3,5.2 -0.2,0.2 -0.4,0.4 -0.5,0.6 -1.5,1.1 -3.9,0.5 -5,-1.9 -0.4,-1.6 -0.4,-3.1 1.1,-4.1 z"
   id="path1333" />
		<path
   fill="#fcc3ad"
   d="m -34.7,-45.1 c 1.1,-1.8 0.9,-3.5 -0.3,-5.2 1.6,0.8 1.3,2.3 1.4,3.6 -0.2,0.7 -0.4,1.4 -1.1,1.6 z"
   id="path1335" />
		<path
   fill="#bb907d"
   d="m -40.3,-46.4 c 1.2,1.8 2.8,2.7 5,1.9 -0.5,0.8 -1.3,0.9 -2.1,0.7 -1.3,-0.3 -2.5,-1.1 -2.9,-2.6 z"
   id="path1337" />
		<path
   fill="#1b1414"
   d="m -33.1,-49.5 c 0,0.3 -0.1,0.7 -0.1,1.1 -0.5,-0.8 -0.5,-0.9 0.1,-1.1 0,0 0,0 0,0 z"
   id="path1339" />
		<path
   fill="#080606"
   d="m -28.3,16.1 c -0.6,0 -1.1,0 -1.7,0 0,0 0,0 0,0 -0.1,-0.1 -0.2,-0.1 -0.3,-0.1 -0.5,0 -0.9,-0.2 -1,-0.7 0,-0.2 0,-0.3 0.1,-0.4 0.4,-0.2 0.8,-0.1 1.2,0.2 0.4,0.3 0.9,0.2 1.3,0.4 0.4,0.1 0.5,0.2 0.4,0.6 z"
   id="path1341" />
		<path
   fill="#0b0606"
   d="m -28.3,16.1 c -0.1,-0.2 -0.2,-0.3 -0.2,-0.5 1.2,-0.1 2.2,0.7 3.4,0.7 0,0 0,0 0,0 0.1,0.1 0.3,0.2 0.6,0.4 -1.5,0.2 -2.7,0 -3.8,-0.6 z"
   id="path1343" />
		<path
   fill="#4e3c36"
   d="m -25.2,16.3 c -1.2,0.2 -2.3,-0.4 -3.4,-0.7 -0.5,-0.1 -1.1,-0.2 -1.6,-0.5 -0.3,-0.2 -0.7,-0.4 -0.9,-0.1 -0.2,0.4 0.3,0.6 0.6,0.7 0.2,0.1 0.3,0.2 0.5,0.3 -0.2,0 -0.4,0 -0.6,0 -0.7,-0.1 -1.4,-0.4 -1.2,-1.1 0.2,-0.9 0.9,-0.4 1.5,-0.3 0.1,0 0.2,0 0.3,0.1 1.5,0.7 3.2,1 4.8,1.4 0,0 0,0.1 0,0.2 z"
   id="path1345" />
		<path
   fill="#e43801"
   d="m 1.3,26.1 c 2,0 4,0 6,0 0.6,0 0.9,0.3 0.9,0.8 0,0.1 0,0.2 0,0.2 -0.1,1 0.3,2 -0.2,2.8 -0.6,1 -1.8,0.2 -2.6,0.1 -3.3,0 -6.5,0.3 -9.8,0.3 -1.4,0 -1.7,-0.3 -1.5,-1.6 0,-0.2 0.1,-0.5 0,-0.7 -0.2,-1.9 -0.1,-2 1.8,-2 1.8,0.1 3.6,0.1 5.4,0.1 0,0 0,0 0,0 z"
   id="path1347" />
		<path
   fill="#40261f"
   d="m -4.3,25.6 c 1.1,-0.4 2.2,-0.4 3.4,0 -1.1,0 -2.3,0 -3.4,0 z"
   id="path1349" />
		<path
   fill="#fbc2ad"
   d="m 38.6,-50 c 1.8,0 2.2,0.4 2.2,1.9 0,1.1 -1,2.2 -2,2.2 -1.2,0 -2.3,-1 -2.3,-2.2 0,-1.6 0.3,-1.9 2.1,-1.9 z"
   id="path1351" />
		<path
   fill="#fcfcfc"
   d="m -18.3,-8.1 c -0.2,1.3 -0.8,2.4 -2,3.1 -0.4,0.3 -0.9,0.2 -1.3,0 -1.9,-0.9 -2.5,-3.8 -1.1,-5.4 1.2,-1.4 2.7,-1.2 3.6,0.3 0.6,0.6 0.7,1.2 0.8,2 z"
   id="path1353" />
		<path
   fill="#fcc3ad"
   d="m -37.3,-45.4 c -1.3,0 -2.1,-0.8 -2.1,-2.2 0,-1.2 1.2,-2.4 2.3,-2.4 1,0 2.2,1.3 2.2,2.4 0.1,1.5 -0.7,2.2 -2.4,2.2 z"
   id="path1355" />
	</g>
</g>
</svg>
