<?xml version="1.0" encoding="UTF-8" standalone="no"?>
<!-- Generator: Adobe Illustrator 20.0.0, SVG Export Plug-In . SVG Version: 6.00 Build 0)  -->

<svg
   version="1.1"
   id="svg2"
   inkscape:version="1.1 (c68e22c387, 2021-05-23)"
   sodipodi:docname="pishrobotcustomespbotfriendb-.svg"
   x="0px"
   y="0px"
   viewBox="0 0 130.30001 130.51393"
   overflow="scroll"
   xml:space="preserve"
   width="130.3"
   height="130.51393"
   xmlns:inkscape="http://www.inkscape.org/namespaces/inkscape"
   xmlns:sodipodi="http://sodipodi.sourceforge.net/DTD/sodipodi-0.dtd"
   xmlns="http://www.w3.org/2000/svg"
   xmlns:svg="http://www.w3.org/2000/svg"><defs
   id="defs228" />
<sodipodi:namedview
   bordercolor="#666666"
   borderopacity="1.0"
   id="base"
   inkscape:current-layer="svg2"
   inkscape:cx="192.94592"
   inkscape:cy="72.012887"
   inkscape:document-units="px"
   inkscape:guide-bbox="true"
   inkscape:pageopacity="0.0"
   inkscape:pageshadow="2"
   inkscape:snap-center="true"
   inkscape:window-height="847"
   inkscape:window-maximized="1"
   inkscape:window-width="1600"
   inkscape:window-x="-8"
   inkscape:window-y="-8"
   inkscape:zoom="1.6455388"
   pagecolor="#ffffff"
   showgrid="false"
   showguides="true"
   inkscape:pagecheckerboard="0"
   fit-margin-top="0"
   fit-margin-left="0"
   fit-margin-right="0"
   fit-margin-bottom="0">
	
	
</sodipodi:namedview>
<g
   id="g225"
   transform="translate(65.2,64.513929)">
	<path
   fill="#5c5c5c"
   d="m -54.5,30.2 c 0,-0.9 0,-1.8 0,-2.6 0,-22.5 0,-45 0,-67.5 0,-0.6 0,-1.2 0,-1.8 0.3,-0.3 0.7,-0.5 1,0 0.4,0.9 0.4,1.9 0.4,2.9 0,22.1 0,44.3 0,66.4 0,0.6 0,1.3 0,1.9 0,0.4 0.4,0.8 -0.1,1.1 -0.6,0.2 -1,-0.1 -1.3,-0.4 z"
   id="path5" />
	<path
   fill="#8a8a8a"
   d="m -54.5,30.2 c 0.4,0.1 0.8,0.2 1.4,0.3 -0.6,-0.8 -0.5,-1.5 -0.5,-2.3 0,-22.7 0,-45.3 0,-68 0,-0.7 -0.1,-1.5 -0.2,-2.2 -0.1,-0.7 0.1,-0.8 0.6,-0.4 0.4,0.7 0.3,1.6 0.3,2.4 0,22.3 0,44.5 0,66.8 0,3 -0.2,2.9 2.8,2.8 10.3,-0.3 20.6,-0.3 30.9,-0.2 6.8,0.1 13.6,-0.2 20.4,0 3.3,0.1 6.7,0.2 10,0.1 6,-0.2 11.9,-0.1 17.8,-0.1 2.8,0 5.6,0.1 8.3,0.1 0.3,0 0.6,0 0.8,0.2 0.2,1.1 -0.7,0.8 -1.2,1 -26.9,0 -53.8,0 -80.7,0 -0.8,0 -1.6,0 -2.4,0.1 -0.6,-0.2 -0.5,0.6 -0.9,0.7 -1.8,-0.1 -3.6,0.1 -5.5,0 -0.8,0 -1.5,0 -2.1,-0.7 0.2,-0.3 0.2,-0.5 0.2,-0.6 z"
   id="path7" />
	<path
   fill="#787878"
   d="m -54.5,-43 c 0.5,-1 1.5,-1.2 2.4,-1.6 3,-1.1 6.1,-2.2 9.2,-3.1 4.8,-1.3 9.7,-2.4 14.6,-3.2 3.9,-0.7 7.9,-1.1 11.9,-1.5 0.7,-0.1 1.2,-0.3 1.6,-0.9 2.1,-2.8 4.4,-5.5 7.7,-6.9 0.5,-0.2 0.9,-1.5 1.6,-0.3 -0.6,0.7 -1.6,0.9 -2.2,1.6 -2.4,1 -4.1,2.8 -5.6,4.9 -0.3,0.4 -0.7,0.9 -1,1.3 -0.8,0.8 -1.5,1.6 -2.3,2.4 -0.5,-0.3 -1,-0.4 -1.5,-0.3 -0.5,0.1 -1,0.1 -1.4,-0.2 -0.1,-0.1 -0.1,-0.2 -0.1,-0.3 0.1,-0.1 0.2,-0.2 0.3,-0.2 0.2,0 0.3,0 0.3,0 -0.8,0.1 -1.9,-0.1 -2.9,0.3 -0.7,0.3 -1.5,0.2 -2.3,0.2 -0.5,0 -1,0.1 -1.5,0.2 0.5,-0.1 0.9,-0.2 1.4,-0.2 0.3,0 0.7,0 1,0 0.2,0 0.4,0.1 0.5,0.4 -0.1,0.1 -0.1,0.3 -0.2,0.3 -1.9,0.2 -3.7,0.8 -5.7,0.5 0.1,-0.4 0.2,-0.6 -0.4,-0.3 -0.9,0.5 -1.9,0.3 -2.9,0.5 -4.9,1 -9.7,2 -14.4,3.7 -2.5,0.7 -4.9,1.5 -7.2,2.8 -0.3,0.1 -0.6,0.1 -0.9,-0.1 z"
   id="path9" />
	<path
   fill="#717171"
   d="m -17.3,62.5 c -0.5,-2 1,-3.2 2,-4.6 0.2,-0.3 0.8,-0.5 0.6,-1 -0.2,-0.4 -0.7,-0.2 -1,-0.3 -3.7,-0.5 -7.2,-1.5 -10.7,-2.8 -3.4,-1.2 -6.6,-2.6 -9.6,-4.7 -0.5,-0.3 -1,-0.3 -1.6,-0.3 -2.4,0 -4.9,0.4 -7.3,-0.5 -1,-0.4 -2,-0.6 -2.5,-1.6 0.1,0 0.1,-0.1 0.2,-0.1 1.6,0.6 3.1,1.4 4.8,1.5 0.7,0 1.4,-0.1 1.7,0 -0.7,0 -1.7,0 -2.7,-0.3 -0.6,-0.2 -1.4,0 -1.7,-0.7 0.3,-0.4 0.7,-0.4 1.1,-0.3 1.3,0.3 2.5,0.1 3.8,0.4 0.5,0.1 0.8,0 1.1,-0.4 0.8,-0.2 0.9,0.5 1.2,0.9 3.3,1 6.1,3.3 9.4,4.5 1.1,0.4 2.3,0.6 3.3,1.2 1.1,0.3 2,0.9 3.2,1 1.9,0.6 3.8,1 5.7,1.5 0.1,0.2 0.2,0 0.1,0 -0.3,-0.2 -0.6,-0.4 -0.1,-0.7 2.3,-0.1 4.6,0.1 6.9,0.4 0.9,0.1 1.9,0.1 2.8,0.2 0.5,0 1.1,-0.1 1.3,0.6 -0.5,0.5 -1.2,0.3 -1.8,0.3 -1.4,0 -2.7,0.1 -4.1,-0.1 -0.8,-0.1 -1.6,-0.6 -2.5,-0.3 -0.3,1.1 -0.9,1.9 -1.7,2.6 -0.3,0.3 -0.5,0.6 0.1,0.7 0.1,0.4 -0.1,0.7 -0.4,0.9 -0.4,0.2 -0.4,0.7 -0.6,1.1 -0.2,0.3 -0.4,0.5 -0.6,0.7 -0.1,0.2 -0.3,0.2 -0.4,0.2 z"
   id="path11" />
	<path
   fill="#b7b7b7"
   d="m 34.7,45.4 c -1,1.5 -2.4,2.5 -3.9,3.4 -1.8,1.2 -3.6,2.3 -5.5,3.2 -1.7,0.9 -3.6,1.3 -5.4,2.1 -1.6,0.7 -3.4,0.9 -5,1.7 -1.9,0.3 -3.6,1.1 -5.5,1 0.1,0.5 0.4,0.5 0.5,0.8 0.8,0.5 1.7,1 2.5,1.5 1.8,1.3 2,1.8 1.3,3.3 -0.3,0 -0.5,0 -0.8,0 C 13.1,60.5 11.7,59.8 10.4,59 9.8,58.6 9.1,58.5 8.6,58 8.5,57.9 8.3,57.8 8.2,57.7 7.9,57.5 7.5,57.2 7.6,56.7 7.7,56.2 8.2,56 8.7,56 c 2,0 3.9,-0.6 5.8,-1 0.8,-0.2 1.7,-0.5 2.5,-0.6 0.7,-0.2 1.4,-0.5 2.1,-0.8 1.3,-0.6 2.7,-0.9 4,-1.7 0.2,-0.1 0.3,-0.1 0.5,-0.2 2.9,-1.2 5.7,-2.7 8.2,-4.7 0.8,-0.7 1.7,-1.3 2.6,-1.9 0.1,0.1 0.2,0.2 0.3,0.3 z"
   id="path13" />
	<path
   fill="#464646"
   d="m 8.8,58 c 1.2,0.5 2.4,1.2 3.5,2 0.9,0.7 1.1,1.5 0.6,2.5 -0.7,0 -1.3,0 -2,0 -0.5,-0.3 -1,-0.2 -1.6,-0.2 -8,0 -16,0 -24,0 -0.4,0 -0.8,0.1 -1.1,-0.2 0.3,-0.9 1.1,-0.6 1.7,-0.6 8,0 16,0 23.9,0 0.4,0 0.7,0 1.1,0 0.3,0 0.5,-0.1 0.6,-0.3 -1.3,-1.4 -3,-2.1 -4.7,-2.8 -0.7,-0.3 -1.6,-0.3 -2.2,-1 0,-0.1 0,-0.2 0,-0.4 0.7,-0.4 1.2,0.2 1.9,0.2 C 6,56.6 5.1,57 4.5,56.6 4.4,56.5 4.4,56.4 4.4,56.3 5.2,55.7 6.1,56 7,56.1 c 0.2,0 0.5,0.2 0.5,0.5 -0.2,1 0.7,1 1.3,1.4 z"
   id="path15" />
	<path
   fill="#c2c4c4"
   d="m 54.5,18.5 c -0.5,1.8 -1.7,3 -3.3,3.5 -1.3,0.4 -2,1.2 -2.4,2.3 -0.9,2.3 -2.4,4 -4.3,5.4 -0.8,0.5 -1.6,1 -2.5,1.3 -1.1,0.3 -1.1,1 -1.1,1.9 0,2.4 -0.3,4.8 -1.8,6.9 -0.1,-0.1 -0.2,-0.3 -0.2,-0.5 0,-0.2 0,-0.4 0.1,-0.6 0.8,-1.9 1.1,-3.9 1.1,-6 0,-1.1 0.4,-1.8 1.4,-2.2 0.9,-0.4 1.8,-0.7 2.6,-1.3 1.9,-1.4 3.3,-3.1 4,-5.4 0.3,-1 1.2,-1.6 2.2,-2.1 0.4,-0.2 0.9,-0.3 1.3,-0.6 0.6,-0.4 1.1,-1 1.6,-1.5 0.4,-0.5 0.5,-1.4 1.3,-1.1 z"
   id="path17" />
	<path
   fill="#313131"
   d="m -14.8,62 c 8.2,0 16.4,0 24.6,0 0.4,0 1,-0.2 1.1,0.5 -8.6,0 -17.1,0 -25.7,0 -0.2,-0.2 -0.2,-0.3 0,-0.5 z"
   id="path19" />
	<path
   fill="#3a3a3a"
   d="m 46.4,7.9 c 2.6,2.4 5.4,4.5 7.7,7.3 0.1,0.1 0.3,0.2 0.5,0.3 0,0.5 0,1 0,1.5 -0.7,0.1 -0.7,-0.6 -1,-0.9 -0.6,-1.7 -2.4,-2.4 -3.4,-3.7 -0.1,-0.1 -0.3,-0.1 -0.4,-0.1 -1.9,0.4 -3.8,0 -5.6,0.6 -0.1,0 -0.1,-0.1 -0.2,-0.1 -0.1,-0.7 0.5,-0.7 0.9,-0.9 1.1,-0.4 2.2,-0.7 3.5,-0.5 -1.5,-1.9 -3.7,-3.2 -4.6,-5.6 0.1,-0.5 -0.3,-1.3 0.8,-1.1 0.3,0.3 0.2,0.7 0.3,1 0.4,0.8 0.8,1.6 1.5,2.2 z"
   id="path21" />
	<path
   fill="#333333"
   d="m -7.9,-59 c 0.5,-0.9 1.4,-1.2 2.3,-1.5 0.1,0 0.3,0 0.4,0 1.3,0 2.3,0.8 3.3,1.4 2.2,1.4 4.2,3 5.5,5.4 0,0.3 -0.1,0.5 -0.3,0.6 -0.7,0 -1.1,-0.5 -1.5,-1 -1.5,-2 -3.5,-3.5 -5.7,-4.7 -1,-0.5 -1.9,-0.7 -2.9,-0.1 -0.3,0.2 -0.7,0.5 -1.1,0.2 -0.1,-0.1 -0.1,-0.2 0,-0.3 z"
   id="path23" />
	<path
   fill="#555555"
   d="m -54.5,-43 c 1.3,-0.5 2.6,-1.2 3.9,-1.7 1.3,-0.6 2.7,-0.8 4.1,-1.3 0.3,0.1 0.4,0.3 0.2,0.6 -2.2,1.2 -4.6,2.1 -7,2.9 -0.3,0 -0.5,0.2 -0.5,0.5 -0.2,0.1 -0.5,0.2 -0.7,0.3 0,-0.5 0,-0.9 0,-1.3 z"
   id="path25" />
	<path
   fill="#868686"
   d="m 3.6,-53.6 c -1.6,-2.6 -3.9,-4.6 -6.6,-5.8 -0.7,-0.3 -1.4,-0.7 -2.1,-1.1 0,-0.8 0.7,-0.4 1,-0.5 0,0.3 0.1,0.5 0.4,0.6 3.1,1.3 5.5,3.6 7.6,6.2 0.2,0.2 0.2,0.5 0.1,0.7 -0.3,0.2 -0.4,0.2 -0.4,-0.1 z"
   id="path27" />
	<path
   fill="#b7b7b7"
   d="m 39.1,39.2 c 0,0.2 0,0.4 0,0.5 -0.7,0.7 -1.1,1.7 -1.6,2.5 -0.8,1.2 -1.7,2.2 -2.8,3.2 -0.1,0 -0.1,-0.1 -0.2,-0.1 -0.2,-0.4 0,-0.7 0.3,-0.9 1.3,-1.2 2.1,-2.8 3,-4.2 0.4,-0.4 0.6,-1 1.3,-1 z"
   id="path29" />
	<path
   fill="#fafafa"
   d="M 9.8,57.8 C 9.3,57.7 8.9,57.6 8.5,57 c 2.2,0 4.2,-1 6.3,-1.1 -1.4,0.4 -2.6,1.1 -4.1,1 -0.5,0 -0.9,0.2 -0.9,0.9 z"
   id="path31" />
	<path
   fill="#353535"
   d="m 53.8,16 c 0.4,0.2 0.2,0.9 0.7,1 0,0.5 0,1 0,1.5 -0.7,0.1 -0.7,0.8 -1.2,1.1 -0.1,-0.1 -0.2,-0.1 -0.1,-0.2 0.3,-1.1 0.3,-2.2 0.6,-3.4 z"
   id="path33" />
	<path
   fill="#fafafa"
   d="m 13.6,62.5 c 0.8,-1.6 -0.5,-2.3 -1.3,-3.3 1.5,0.6 2,1.4 1.8,2.8 0,0.3 -0.2,0.5 -0.5,0.5 z"
   id="path35" />
	<path
   fill="#383838"
   d="m -14.8,62 c 0,0.2 0,0.3 0,0.5 -0.7,0 -1.3,0 -2,0 0,-0.4 0,-0.7 0.5,-0.8 0.2,0 0.4,0.1 0.5,0.3 0.3,0 0.6,0 1,0 z"
   id="path37" />
	<path
   fill="#868686"
   d="M 44.6,6 C 44.3,5.7 44.4,5.3 44.4,4.9 44,4.4 44,3.8 44,3.2 c 0,-14.9 0,-29.9 0,-44.8 0,-2.6 0,-2.7 -2.5,-3.5 -3.8,-1.2 -7.5,-2.4 -11.4,-3.3 -0.5,-0.1 -0.9,-0.2 -1.3,0.1 -0.8,0.1 -1.7,0.3 -2.3,-0.6 0.2,-0.3 0.6,-0.2 0.9,-0.2 -2,-0.1 -3.9,-0.7 -5.8,-1.1 -0.2,0 -0.4,-0.2 -0.2,-0.5 1.4,-0.3 2.7,0.1 3.9,0.5 5.2,1.1 10.4,2.3 15.5,4 1.2,0.4 2.3,1 3.5,1.4 0.6,0.2 0.5,0.8 0.5,1.3 0,14.7 0,29.4 0,44.1 0,1.8 0,3.5 0,5.3 0,0.1 -0.1,0.2 -0.2,0.1 z"
   id="path39" />
	<path
   fill="#5c5c5c"
   d="m 44.6,6 c 0.1,0 0.2,0 0.3,-0.1 0.7,0.6 1.1,1.2 1.5,2 C 45.5,7.6 45.2,6.6 44.6,6 Z"
   id="path41" />
	<path
   fill="#fefefe"
   d="m 26.6,-48.8 c 0.8,0.2 1.5,0.3 2.3,0.5 0.4,-0.2 0.7,-0.1 1.1,0 4.1,1.1 8.1,2.1 12,3.6 1.8,0.7 2,1 2,3 0,14.8 0,29.7 0,44.5 0,1.1 -0.7,2.1 -0.2,3.2 1.1,1.8 2.4,3.4 4.1,4.6 0.4,0.3 1,0.5 0.8,1.1 -0.2,0.5 -0.8,0.2 -1.2,0.2 -1.3,-0.1 -2.6,0.2 -3.8,0.9 -0.4,0.7 -1.2,0.9 -1.8,1.4 -2.4,2.3 -1.9,5.7 1.1,7.1 0.4,0.2 0.8,0.4 1.2,0.7 0.5,0.4 1.1,0.5 1.7,0.6 1.4,0.2 1.6,0.5 1.3,1.9 -0.4,0.8 -0.7,1.6 -1.7,2 -1.8,-0.3 -3.7,0.3 -5.5,0.1 -0.9,-0.1 -1.2,0.3 -1.2,1.2 0,0.7 0.3,1.5 -0.6,2 -2.3,0.2 -4.6,0.2 -6.9,0.2 -6.5,-0.1 -13.1,-0.1 -19.6,0 -3,0.1 -6.1,-0.1 -9.1,-0.1 -5.9,0 -11.9,0.1 -17.8,0.1 -8.5,0 -17,0 -25.6,-0.1 -3.7,0 -7.4,0.1 -11.1,0.2 -1.1,0 -1.6,-0.2 -1.6,-1.5 0,-22.9 0,-45.8 0,-68.6 0,-0.8 0,-1.6 0,-2.4 2.2,-1.4 4.7,-2 7,-3 1.8,-1.1 3.8,-1.5 5.7,-2 3,-0.8 6,-1.5 9.1,-2 0.9,-0.2 1.8,-0.4 2.7,-0.3 2,-0.2 4,-0.5 6,-0.7 1,-0.6 2.1,-0.5 3.2,-0.3 0.6,0.1 1.2,0 1.8,-0.2 0.7,-0.3 1.1,-0.1 1.2,0.7 0.4,0.6 -0.1,1 -0.3,1.5 -0.8,1.4 -1.3,2.9 -1.7,4.6 0.8,-0.2 0.8,-0.8 0.9,-1.3 0.7,-2.4 2,-4.5 3.1,-6.7 1,-1.2 1.9,-2.4 2.9,-3.5 1.1,-1.2 2.2,-2.4 3.8,-2.8 1.7,-1.3 3.3,-1 5.1,0.1 2.4,1.5 4.2,3.4 6,5.5 1,0.9 1.8,2 2.4,3.2 0.8,1.6 1.7,3.3 2.1,5.1 0.1,0.3 0.1,0.6 0.7,0.7 -0.2,-1.1 -0.4,-2.1 -0.9,-3.1 -0.5,-1.2 -1.3,-2.3 -1.7,-3.6 0.1,-0.9 0.6,-1 1.4,-0.9 1.6,0.3 3.1,0.6 4.8,0.5 0.4,0 0.8,0 1.2,0.1 0.6,0.2 1.3,0.1 2,0.3 0.3,0.1 0.6,0.2 1,0.3 0.8,0.2 1.6,0.1 2.4,0.1 0.8,0 1.5,0.3 2.3,0.2 2.1,0.1 4.1,0.2 5.9,1.1 z"
   id="path43" />
	<path
   fill="#454545"
   d="m -46.6,30.4 c 0.9,-0.4 1.8,-0.3 2.7,-0.3 16.1,0 32.3,0 48.4,0 10.4,0 20.8,0 31.2,0 0.5,0 0.9,0 1.4,0 0.4,0.3 0.3,0.6 -0.1,0.7 -0.5,0.2 -1.1,0.1 -1.6,0.1 -7.8,0 -15.6,0 -23.3,0 -0.5,0.1 -0.9,-0.3 -1.4,-0.3 0.4,0.5 0.6,1.1 0.6,1.7 0.2,-0.2 -0.5,-1 0.5,-0.9 0.2,1.4 0.6,2.8 0.8,4.3 -0.5,0.6 -0.3,1.3 -0.1,1.9 0.4,1 0.8,1.9 1.1,2.9 0.1,0.4 0.4,0.9 0,1.3 -0.6,0 -0.7,-0.5 -0.9,-0.9 -1,-2.3 -1.8,-4.6 -2.2,-7.1 0,-0.2 -0.1,-0.5 -0.1,-0.7 -0.2,-0.9 -0.4,-1.7 -1.6,-1.8 -1.9,-0.2 -2.4,0 -3,1.3 -0.2,0.4 -0.3,1 -0.8,1.2 -0.1,0 -0.3,0 -0.4,0 C 4.3,33 5,32.4 5.1,31.7 5.2,31.4 5.4,31.3 5.4,31 5.1,31.1 5.2,31.5 5.1,31.7 4.9,32.4 4.7,33.1 4.2,33.7 4,33.9 3.8,34.3 3.5,33.9 3.4,33.6 3.5,33.3 3.6,33 4.1,31.5 4,31.4 2.4,31.4 c -4.3,0 -8.5,0 -12.8,0 -0.7,0 -1.4,0 -2.1,0 -1.2,0.1 -1.3,0.3 -1,1.4 0.2,0.5 0.4,1 0.2,1.6 -0.4,0.5 -0.6,0.1 -0.7,-0.2 -0.3,-0.8 -0.8,-1.4 -0.8,-2.3 0,-0.8 -0.5,-0.8 -1,-0.7 -8.6,-0.1 -17.3,0 -25.9,0 -1,0 -1.9,-0.1 -2.8,0.1 -0.1,0.1 -0.2,0.1 -0.3,0.2 -0.3,0.2 -0.6,0.8 -1,0.5 -0.8,-0.4 -0.9,-1 -0.8,-1.6 z"
   id="path45" />
	<path
   fill="#5f6061"
   d="m 11.7,31 c 0.4,-0.3 0.8,-0.3 1.3,-0.3 7.7,0 15.4,0 23.1,0 0.3,0 1,0.5 1,-0.5 0.5,-0.1 1,0.2 1.2,-0.5 0.4,-0.7 0.2,-1.5 0.2,-2.2 0,-1 0.5,-1.5 1.4,-1.4 2,0.2 3.9,-0.3 5.9,0.1 0.1,0.1 0.1,0.3 0,0.4 -0.9,0.8 -1.9,0.1 -2.8,0.2 -0.8,0 -1.6,0 -2.4,0 -1,-0.1 -1.5,0.3 -1.2,1.4 0.1,0.4 0,0.8 -0.1,1.2 -0.2,1 0.1,1.3 1.1,1 1,-0.3 2,-0.9 3,-1.3 0.2,-0.1 0.3,-0.1 0.5,-0.1 0.2,0 0.4,0 0.5,0.2 -0.7,0.9 -1.8,1.1 -2.8,1.5 -0.9,0.4 -1.2,0.9 -1.2,1.9 0.1,2.2 -0.2,4.2 -1.3,6.2 -0.6,-1.1 0.2,-1.9 0.4,-2.8 0.1,-0.4 0.1,-0.6 -0.3,-0.6 0,0 0,-0.1 -0.1,-0.1 -0.2,-0.8 0.1,-1.5 0,-2.2 -0.1,-1.2 -0.5,-1.5 -1.5,-1.5 -7.9,0.2 -15.8,0.1 -23.8,0 -1.5,0 -1.6,0.1 -1.4,1.6 0.2,1.2 0.8,2.3 0.6,3.6 -0.1,0.1 -0.1,0.2 -0.3,0.3 -0.6,-0.2 -0.5,-0.6 -0.4,-1.1 -0.4,-1.5 -0.9,-3 -0.8,-4.6 0,-0.2 0,-0.3 0.2,-0.4 z"
   id="path47" />
	<path
   fill="#6a6a6a"
   d="m -46.6,30.4 c 0.2,0.5 0.3,0.9 0.5,1.4 0.3,-0.3 0.6,-0.5 0.8,-0.6 0.2,1.3 0.1,2.5 -0.1,3.8 -0.1,0.1 -0.2,0.2 -0.2,0.3 -0.1,0.2 -0.3,-0.4 -0.3,0 0.3,1.9 1.1,3.7 2.2,5.3 0.2,0.4 0.6,0.7 0.5,1.2 0,0.1 -0.1,0.2 -0.2,0.3 -2.4,-3 -3.7,-6.3 -3.3,-10.2 0,-0.2 -0.1,-0.5 -0.2,-0.7 0.2,-0.3 -0.3,-0.7 0.3,-0.8 z"
   id="path49" />
	<path
   fill="#717171"
   d="m -47.4,46.6 c -0.2,-0.2 -0.5,-0.4 -0.7,-0.7 -0.6,-0.8 -0.4,-1.3 0.5,-1.6 1,-0.3 2.1,-0.4 3.2,-0.5 1.4,-0.2 1.6,-0.4 1,-1.7 0,0 0.1,-0.1 0.1,-0.1 0.1,0 0.2,0 0.3,0.1 0.2,0.2 0.4,0.5 0.5,0.7 0,0.1 0.1,0.2 0.1,0.4 -0.1,1.1 -1,1.2 -1.8,1.4 -0.8,0.2 -1.6,0.1 -2.3,0.3 -0.8,0.2 -1.3,0.4 -0.7,1.3 0.1,0.1 0,0.3 0,0.5 -0.1,-0.1 -0.1,-0.1 -0.2,-0.1 z"
   id="path51" />
	<path
   fill="#4f4f4f"
   d="m -28.8,-49.8 c -2.4,0.7 -4.9,0.9 -7.3,1.5 -3.2,0.8 -6.5,1.5 -9.6,2.8 -0.2,0.1 -0.4,0 -0.6,0 -0.1,-0.2 -0.2,-0.3 -0.2,-0.5 3.1,-1.3 6.4,-2 9.7,-2.8 2.8,-0.7 5.6,-1.3 8.6,-1.5 -0.3,0.1 -0.5,0.3 -0.6,0.5 z"
   id="path53" />
	<path
   fill="#1b1b1b"
   d="m -14.3,-52.1 c -1.2,2.4 -2.7,4.7 -3.3,7.4 -0.1,0.5 -0.4,1 -1,0.8 -0.7,-0.2 -0.3,-0.8 -0.2,-1.3 0.6,-1.8 1.3,-3.5 2.2,-5.2 0,-1.4 1.5,-1.6 2,-2.5 0.6,0.1 0.4,0.5 0.3,0.8 z"
   id="path55" />
	<path
   fill="#2a2a2a"
   d="m -14.3,-52.1 c 0,-0.3 0.1,-0.6 -0.2,-0.7 1.5,-2.3 3.3,-4.3 5.5,-5.8 0.4,-0.3 0.8,-0.2 1.2,-0.3 0,0.1 0,0.3 0.1,0.4 -2.8,1.5 -4.7,4 -6.6,6.4 z"
   id="path57" />
	<path
   fill="#2d2d2d"
   d="m -23.4,-50.7 c -0.3,0 -0.6,0 -1,0 -0.2,-0.1 -0.2,-0.3 0,-0.4 0.8,0 1.6,-0.1 2.5,-0.3 0.8,0 1.7,-0.5 2.5,0.3 -0.1,0 -0.1,0 -0.2,0 -1.2,0.6 -2.5,0.2 -3.8,0.4 z"
   id="path59" />
	<path
   fill="#4f4f4f"
   d="m -19.4,-51.1 c -0.8,-0.5 -1.7,-0.1 -2.5,-0.3 1.3,-0.5 2.7,-0.1 4.2,-0.3 -0.5,0.7 -1.1,0.6 -1.7,0.6 z"
   id="path61" />
	<path
   fill="#4f4f4f"
   d="m -23.4,-50.7 c 1.3,-0.1 2.5,-0.3 3.8,-0.4 0,0.1 0,0.2 0,0.3 -1.1,0.1 -2.1,0.2 -3.2,0.3 -0.2,-0.1 -0.4,-0.1 -0.6,-0.2 z"
   id="path63" />
	<path
   fill="#4f4f4f"
   d="m -24.3,-51.1 c 0,0.1 0,0.3 0,0.4 -0.5,0 -1,0 -1.5,0 0.5,-0.2 0.9,-0.5 1.5,-0.4 z"
   id="path65" />
	<path
   fill="#fefefe"
   d="m -45.5,35.2 c 0.1,-1.3 -0.3,-2.7 0.2,-4 0,0 0,0 0,0 0.2,-0.4 0.5,-0.4 0.8,-0.4 8.8,0.2 17.5,0.1 26.3,0.1 2.4,0 2.5,-0.3 3.4,3 0.5,1.2 0.9,2.4 1.3,3.6 0.2,0.9 0.5,1.8 1,2.7 0.3,0.6 0.4,1.2 0.1,1.8 0,0.1 -0.1,0.2 -0.1,0.3 -0.3,0.5 -0.4,1.1 -0.7,1.6 -0.1,0.3 -0.2,0.7 0,0.9 0.3,0.3 0.6,0.2 0.9,0 2.1,-0.8 2.3,-0.7 2.4,1.6 0,0.6 -0.1,1.3 0.6,1.5 0.8,0.2 1.3,-0.5 1.9,-1 0.5,-0.4 0.9,-1 1.6,-0.8 0.5,0.2 0.8,0.6 1,1 0.3,0.5 0.5,1 1,1.3 0.5,0.2 0.7,-0.1 0.9,-0.4 0.7,-1 1.5,-1.9 2,-3 0.2,-0.3 0.4,-0.5 0.7,-0.7 0.7,-0.3 1.3,-0.1 1.8,0.3 0.3,0.3 0.7,0.5 1.1,0.3 C 3.2,44.6 3.1,44.1 3.1,43.7 3.1,43.1 3,42.5 2.8,42 1.9,39.8 2.8,37.9 3.5,36 3.8,35.2 4.1,34.4 4.7,33.8 4.8,33.7 4.9,33.5 5,33.4 6.1,30.9 6.4,30.6 9.1,31 c 0.8,0.1 1.1,0.7 1.3,1.4 0.3,1.1 0.4,2.3 0.7,3.5 0.5,2.1 1.3,4.1 2.3,6.1 0.6,0.2 0.8,0.7 1,1.2 1.6,3.1 3.7,5.7 6.5,7.7 0.2,0.1 0.3,0.3 0.4,0.4 0.4,0.6 0.2,1.1 -0.5,1.4 -1,0.5 -2,0.8 -3,1.1 -0.8,0.3 -1.6,0.7 -2.5,0.9 C 11.9,55.5 8.5,56.3 4.9,56.3 3,56.3 1,56.7 -0.9,56.9 -2.1,57 -3.4,57 -4.6,57 -5,57 -5.4,57 -5.7,56.6 -8.1,56.4 -10.6,56 -13,55.9 c -1.3,-0.1 -2.6,-0.3 -4,-0.3 -1.9,0.1 -3.6,-0.5 -5.4,-1 -0.8,-0.2 -1.6,-0.4 -2.4,-0.8 -4.4,-1.3 -8.4,-3.2 -12.2,-5.8 -2.1,-1.5 -4,-3.2 -5.7,-5.1 -0.2,-0.4 -0.5,-0.8 -0.8,-1.1 -0.9,-1.6 -1.9,-3.1 -2.3,-4.9 0.3,-0.7 0,-1.2 0.3,-1.7 z"
   id="path67" />
	<path
   fill="#fafafa"
   d="m 4.6,57.2 c 2.6,0.7 5.1,1.9 7.3,3.5 0.2,0.6 0.1,0.9 -0.6,0.9 -0.2,0 -0.4,0 -0.6,0 -8.5,0 -17,0 -25.5,0 -0.2,0 -0.5,0 -0.7,0 -0.7,-0.2 -0.9,-0.5 -0.3,-1.1 0.3,-0.2 0.5,-0.4 0.6,-0.7 0.2,-1.3 1.3,-1.9 2.2,-2.7 0.5,-0.4 1.1,-0.4 1.7,-0.2 1,0.3 2,0.3 3.1,0.3 1.4,-0.1 2.8,0.2 4.2,0.3 2.6,0.1 5.2,-0.3 7.8,-0.4 C 4,57 4.3,56.9 4.6,57.2 Z"
   id="path69" />
	<path
   fill="#f7f7f7"
   d="m -39.1,46.8 c 0.1,0.6 0.2,1 -0.7,0.9 -1.7,-0.3 -3.5,-0.4 -5.3,-0.6 -0.3,0.1 -0.7,0 -1,-0.2 -0.5,-0.3 -1,-0.6 -0.9,-1.2 0.1,-0.7 0.7,-0.9 1.2,-0.9 1.3,0 2.5,-0.7 3.8,-0.7 1.1,0.8 2.3,1.4 2.9,2.7 z"
   id="path71" />
	<path
   fill="#545454"
   d="m -41.8,44.3 c -1.5,0.1 -2.9,0.9 -4.4,0.9 -0.6,0 -0.6,0.4 -0.2,0.9 0.4,0.4 0.9,0.7 1.5,0.9 1.6,0.8 3.4,0.5 5.2,1.1 -2.7,0.6 -5.5,-0.1 -7.4,-1.6 -1,-1.8 -1,-1.8 1.1,-2.1 0.8,-0.2 1.6,-0.1 2.4,-0.3 0.8,-0.2 1.2,-0.5 1.2,-1.3 0.6,0.3 0.6,0.9 0.6,1.5 z"
   id="path73" />
	<path
   fill="#3f3f3f"
   d="m -36.6,47.6 c 1.8,0.8 3.4,2.1 5.3,3 2.3,1.1 4.6,2 7,2.8 -0.3,0.4 -0.7,0.2 -1,0.3 -3.7,-1.2 -7.3,-2.6 -10.5,-4.9 -0.7,-0.5 -1.7,-0.1 -2.4,-0.7 0.4,-0.5 1.1,-0.1 1.6,-0.5 z"
   id="path75" />
	<path
   fill="#919191"
   d="m -15.9,60.5 c -0.5,1 0.2,1 0.9,1 5,0 9.9,0 14.9,0 3.7,0 7.4,0 11.1,0 0.6,0 1,-0.1 0.9,-0.8 0.8,0.6 0.4,0.9 -0.3,1 -0.6,0.1 -1.2,0 -1.7,0 -8.1,0 -16.1,0 -24.2,0 -0.5,0 -1.1,-0.1 -1.6,0.2 -0.2,-0.1 -0.3,-0.2 -0.5,-0.3 0.2,-0.4 -0.2,-1 0.5,-1.1 z"
   id="path77" />
	<path
   fill="#191919"
   d="m -36.6,47.6 c 0,0.2 0.2,0.5 -0.2,0.5 -0.5,0 -1,0 -1.5,0 0,-0.6 -0.3,-1 -0.8,-1.2 -1,-0.8 -2,-1.5 -2.8,-2.5 -0.5,-0.4 -0.4,-1.1 -0.7,-1.5 0,0 0,0 0,0 0,-0.4 0.2,-0.4 0.5,-0.2 1.7,1.7 3.6,3.3 5.5,4.9 z"
   id="path79" />
	<path
   fill="#595959"
   d="m 4.6,57.2 c -5,0.6 -10,0.4 -15,0.1 -1,-0.1 -2,-0.8 -2.9,0.2 0.1,-0.6 -0.1,-1.2 -0.8,-1.3 0.9,-0.6 1.8,0.1 2.8,0 0.8,1 1.9,0.5 2.9,0.6 3.6,0 7.2,0 10.8,0 0.7,0.1 1.3,-0.3 1.9,-0.1 0.1,0 0.3,0.1 0.3,0.2 0,0.2 0,0.2 0,0.3 z"
   id="path81" />
	<path
   fill="#464646"
   d="M 4.4,56.9 C 3.8,57 3.2,57.1 2.5,57.1 2.1,56.8 1.6,56.9 1.2,56.9 -2.4,56.8 -6,57 -9.5,56.8 c 0.3,0 0.6,-0.1 0.7,0.3 -0.8,0.2 -1.5,-0.1 -2.2,-0.2 -0.4,-0.1 -0.6,-0.3 -0.3,-0.7 2,0.4 4,0.2 6,0.2 1.6,0 3.3,0 4.9,0 1.6,0 3.2,-0.3 4.8,0 l 0.1,0.1 c 0,0.1 0,0.3 -0.1,0.4 z"
   id="path83" />
	<path
   fill="#595959"
   d="m -22.1,54.1 c 1.8,0.4 3.7,0.9 5.5,1.3 0.3,0.5 1,0.1 1.4,0.8 -2.5,0 -4.7,-0.7 -6.9,-1.5 0,-0.2 -0.1,-0.4 0,-0.6 z"
   id="path85" />
	<path
   fill="#383838"
   d="m -14.1,56.2 c 0.2,0 0.3,0 0.5,0 0.3,0 0.7,-0.2 0.9,0.2 0.2,0.4 -0.3,0.5 -0.4,0.8 -0.1,0.1 -0.1,0.2 -0.1,0.3 -0.7,0.7 -1.5,1.3 -2,2.2 -0.3,0 -0.5,0.5 -1,0.3 0.2,-1.5 2.3,-2 2.1,-3.8 z"
   id="path87" />
	<path
   fill="#3a3a3a"
   d="m -22.1,54.1 c 0,0.2 0.3,0.4 0,0.6 -1.2,0.1 -2.2,-0.6 -3.2,-1 0.3,-0.4 0.7,-0.2 1,-0.3 0.7,0.2 1.5,0.5 2.2,0.7 z"
   id="path89" />
	<path
   fill="#0b0b0b"
   d="M 21.4,51.1 C 18.5,49.4 16.5,46.7 14.8,43.9 14.4,43.2 14.1,42.5 13.7,41.8 13.5,40.6 13,39.4 12.5,38.3 12.2,37.7 12,37 11.9,36.3 c 0,-0.4 0.1,-0.5 0.5,-0.3 0.1,0.3 0.2,0.7 0.3,1 0.5,0.6 0.6,1.3 0.9,2 0.2,0.5 0.3,0.9 0.7,1.3 0.7,0.9 1,2 1.6,3 1.7,2.8 3.9,5.2 6.5,7.1 0.4,0.3 0.8,0.5 1.1,0.8 0.2,0.3 0.4,0.5 0.1,0.8 -0.2,0 -0.3,0.1 -0.5,0.1 -1.2,0.8 -1.1,-0.6 -1.7,-1 z"
   id="path91" />
	<path
   fill="#3b3b3b"
   d="m 23.6,52.1 c -0.1,-0.2 -0.2,-0.5 -0.2,-0.7 1.2,-1 2.6,-1.5 4,-2.3 3.7,-2.2 6.8,-4.9 9.3,-8.4 0.2,-0.3 0.5,-0.7 0.9,-0.9 0.4,-0.1 0.8,-0.2 0.6,0.4 -0.8,2 -2.4,3.4 -3.6,5 -3.1,2.9 -6.8,5 -10.6,6.9 -0.1,0.1 -0.3,0 -0.4,0 z"
   id="path93" />
	<path
   fill="#686868"
   d="m 4.4,56.4 c -1.6,0 -3.2,0 -4.8,0 C 1,56.2 2.5,56 3.9,56 c 4,0.1 7.8,-0.9 11.6,-1.8 0.1,0 0.2,0 0.4,0 0.3,0.4 0.7,0.1 1.1,0.3 0.1,0.1 0.2,0.1 0.2,0.2 -2.9,0.6 -5.7,1.8 -8.7,1.7 -0.3,0 -0.6,0 -0.7,0.4 -0.1,0.4 0.3,0.5 0.5,0.7 0.2,0.1 0.5,0.2 0.6,0.4 C 8.1,57.7 7.2,57.7 7.3,56.5 7.3,56.1 7,56.1 6.8,56.1 6,56.3 5.1,56 4.4,56.4 Z"
   id="path95" />
	<path
   fill="#585858"
   d="m 21.4,51.1 c 0.8,0 0.7,1.5 1.8,1.1 -1.1,1.1 -2.7,1.2 -4,1.7 C 19.1,54 19,54 18.9,54 19,53.3 18.2,53.9 18.1,53.4 19,53 20,52.6 20.9,52.3 c 0.8,-0.2 0.9,-0.6 0.5,-1.2 z"
   id="path97" />
	<path
   fill="#686868"
   d="m 18.8,53.9 c 0.1,0 0.2,0 0.3,0 -0.6,0.3 -1.2,0.7 -2,0.8 0,0 -0.1,-0.1 -0.1,-0.1 0.5,-0.7 1,-1.1 1.8,-0.7 z"
   id="path99" />
	<path
   fill="#080808"
   d="m 4.4,56.9 c 0,-0.1 0,-0.3 0,-0.4 2,-0.1 2,-0.1 2.6,1.1 -0.9,-0.2 -1.6,-0.4 -2.4,-0.7 0,0 -0.1,0 -0.2,0 z"
   id="path101" />
	<path
   fill="#010101"
   d="m 44.1,22.1 c -1.3,-0.5 -2.3,-1.3 -3,-2.4 -1.6,-2.3 -1.1,-4.1 1.1,-6.1 0.4,-0.4 1.1,-0.6 1.6,-0.9 0.7,0.1 1.4,-0.3 2,-0.4 0.8,-0.2 1.6,-0.3 2.4,0 0.5,0.2 1.1,0.4 1.3,-0.4 0.1,-0.2 0.2,-0.3 0.4,-0.1 1.1,1.6 3.3,2.2 3.9,4.3 0.4,1.3 -0.1,2.4 -0.5,3.6 -0.4,0.6 -0.9,1.2 -1.5,1.5 -0.9,0.3 -1.9,0.6 -2.7,1.2 -0.5,0.4 -1.1,0.4 -1.7,0.2 -0.9,-0.2 -1.7,0 -2.6,-0.2 -0.2,-0.2 -0.5,-0.1 -0.7,-0.3 z"
   id="path103" />
	<path
   fill="#404040"
   d="m 44.8,22.1 c 1,0 2,-0.1 3,0.1 0.7,0.2 1.2,-0.2 1.7,-0.5 0.7,-0.4 1.5,-0.8 2.3,-0.7 -0.4,0.5 -0.9,0.5 -1.4,0.7 -1,0.5 -1.8,1.1 -2.1,2.1 -0.7,2.3 -2.1,3.9 -4,5.3 -0.2,0 -0.3,0 -0.5,0 -0.2,-0.6 0.4,-0.8 0.7,-1.1 0.5,-0.5 1.2,-0.9 1.3,-1.7 0,-0.1 0,-0.2 0,-0.3 0.5,-0.5 1,-1.1 1.3,-1.7 0.7,-1.4 0.6,-1.5 -1,-1.7 -0.5,0.1 -1,0.1 -1.3,-0.5 z"
   id="path105" />
	<path
   fill="#4e4e4e"
   d="m 38.1,40.3 c 0,-0.5 -0.3,-0.3 -0.6,-0.3 0.3,-1.6 0.8,-3.2 1.7,-4.5 0.6,-0.4 0.7,-0.1 0.6,0.4 -0.2,1 -0.8,1.9 -0.7,2.9 0,0.2 0,0.3 0,0.5 -0.4,0.3 -0.7,0.6 -1,1 z"
   id="path107" />
	<path
   fill="#5c5c5c"
   d="M 43.8,6 C 43.4,5.7 43.4,5.3 43.4,4.9 c 0.3,-15.8 0.1,-31.6 0.2,-47.4 0,-0.8 -0.3,-1.3 -1,-1.5 -3.3,-1.3 -6.7,-2.5 -10.2,-3.2 -1.2,-0.2 -2.4,-0.7 -3.6,-1.1 -0.2,-0.2 -0.6,-0.5 0.2,-0.5 1.4,0 2.8,0.5 4.1,0.9 3.5,1 7.1,1.9 10.5,3.4 0.7,0.3 1,0.7 0.8,1.5 -0.2,0.5 -0.1,1.1 -0.1,1.6 0,15.5 0,31 0,46.4 -1,-0.1 -0.2,0.7 -0.5,1 z"
   id="path109" />
	<path
   fill="#282828"
   d="m 6.1,-50.6 c 1.3,1.9 2,4 2.7,6.1 0.2,0.4 0.2,0.7 -0.2,0.9 -0.4,0.2 -0.8,-0.1 -0.9,-0.4 -0.2,-0.6 -0.3,-1.3 -0.6,-1.9 -0.9,-2.2 -1.7,-4.3 -3.3,-6.1 -0.2,-0.3 -0.5,-0.5 -0.5,-1 0.1,-0.2 0.2,-0.4 0.3,-0.6 0.1,0.1 0.2,0.1 0.3,0.2 0.6,0.2 0.6,1 1.2,1.1 1.3,0 0.6,1.2 1,1.7 z"
   id="path111" />
	<path
   fill="#494949"
   d="m 15.3,-50.6 c -0.7,-0.1 -1.4,-0.2 -2.1,-0.2 0.9,-0.7 1.9,-0.3 2.8,-0.4 1.8,0 3.5,0.5 5.2,0.6 0,0 0,0 0,0 1.8,0.4 3.7,0.8 5.5,1.3 0.3,0.1 0.6,0.1 0.8,0.4 -0.4,0 -0.7,0.1 -1.1,0.1 -1.9,-0.1 -3.8,-0.8 -5.7,-1.1 -0.8,-0.2 -1.6,-0.3 -2.4,-0.4 -0.9,-0.1 -1.9,0 -3,-0.3 z"
   id="path113" />
	<path
   fill="#868686"
   d="m 21.4,-50.6 c -1.8,0.2 -3.5,-0.5 -5.2,-0.5 -2.2,0.1 -4.2,-0.3 -6.3,-0.3 -0.2,0 0,0.3 0,0.1 0,0 0,-0.1 0.1,-0.1 0.7,0.2 1.7,-0.4 2.3,0.5 -1.7,0.1 -3.3,-0.1 -4.9,-0.5 -0.7,-0.2 -1.1,-0.1 -1.1,0.8 -0.8,-0.3 0,-1.6 -1,-1.7 4.8,0.5 9.7,0.4 14.5,1.4 0.4,0 1.1,-0.2 1.6,0.3 z"
   id="path115" />
	<path
   d="m 22.9,9.4 c -4.7,-2.9 -7.3,-10.7 -6,-16 1.1,-4.4 3.1,-8 7.1,-10.4 4.2,-2.4 10.3,-1.7 13.9,2.2 4.7,5.2 5.5,11.4 3.2,17.8 -1.4,4 -4.3,6.9 -8.5,8.3 -3.6,1.3 -6.8,0.4 -9.7,-1.9 z"
   id="path117" />
	<path
   fill="#fedfcd"
   d="m 21.1,12 c 0.8,0.5 1.6,1.1 1.5,2.3 -0.1,1.3 -0.7,2.2 -2,2.7 -2.3,0.8 -4.6,1.6 -7,1.8 C 12.1,19 9.2,17.3 8.4,15.8 7.5,14.2 7.9,11.6 9.1,10.2 10.1,9 11.2,8 12.9,8.5 c 2.9,0.7 5.6,1.9 8.2,3.5 z"
   id="path119" />
	<path
   fill="#131212"
   d="M 14.9,8 C 13.6,7.4 12.2,6.8 10.9,6.2 10.5,6 10,5.8 10.3,5.3 c 0.2,-0.5 0.8,-0.4 1.1,-0.1 1,0.7 2.2,1 3.3,1.5 1.9,0.9 3.8,1.7 5.7,2.5 0.5,0.2 0.9,0.4 1.3,0.8 0.2,0.3 0.8,0.3 0.7,0.7 C 22.3,11.1 21.8,11 21.5,11 19.1,10.3 16.8,9.4 14.9,8 Z"
   id="path121" />
	<path
   fill="#342d2b"
   d="m -6.4,-45.3 c -2.1,-0.5 -2.9,-2.3 -3.1,-4.1 -0.2,-1.6 0.7,-3.1 2.2,-4 1.6,-0.8 3.3,-1.1 5,-0.3 0.2,0.3 0,0.5 -0.1,0.7 -0.2,0.1 -0.4,0.1 -0.5,0 -1.5,-0.7 -2.6,-0.6 -3.6,0.5 -1.3,1.3 -1.9,2.7 -1.1,4.5 0.3,0.6 0.9,1 1.3,1.6 1,0.9 2.3,0.4 3.4,0.5 0.3,0.1 0.5,0.2 0.6,0.4 -0.1,0.1 -0.1,0.2 -0.2,0.3 -1.3,0.5 -2.6,0.4 -3.9,-0.1 z"
   id="path123" />
	<path
   fill="#fbf5e4"
   d="m 14.9,8 c 2.1,0.9 4.3,1.9 6.4,2.8 0.2,0.1 0.6,0 0.6,0.4 -0.5,0 -0.9,0.2 -0.8,0.8 C 19.6,11.7 18.3,10.9 16.9,10.3 15.5,9.7 14.2,9 12.8,8.5 c 0.5,0 1,0 1.5,0.1 C 15,8.7 15.1,8.5 14.9,8 Z"
   id="path125" />
	<path
   fill="#0e0f10"
   d="m 23.8,17.3 c 0.4,-0.4 0.9,-0.4 1.1,0.1 0.3,0.5 -0.2,0.8 -0.5,1 -1.2,0.7 -2.5,0.8 -3.8,1.2 -1.2,0.4 -2.5,0.6 -3.7,0.9 -0.1,0.1 -0.2,0.1 -0.3,0 -0.2,-0.1 0.2,-0.4 -0.1,-0.3 -0.5,0.1 -1,0.5 -1.7,0.3 -0.1,-0.1 0,-0.2 0,-0.3 2.2,-0.6 4.3,-1.4 6.5,-1.9 0.9,-0.3 1.8,-0.6 2.5,-1 0.1,0.1 0.1,0.2 0.2,0.3 0,-0.2 -0.1,-0.3 -0.2,-0.3 z"
   id="path127" />
	<path
   fill="#2a2827"
   d="m -2.3,-45.5 c -0.2,0 -0.4,-0.1 -0.6,-0.3 0,-0.3 0.2,-0.6 0.3,-0.8 0.8,-1 1.8,-1.9 1.6,-3.4 -0.1,-0.6 -0.7,-1.1 -0.5,-1.8 -0.4,-0.4 1,0.2 0.3,-0.5 -0.3,-0.3 -0.7,-0.6 -0.7,-1.1 0,0 0.1,-0.1 0.1,-0.1 1.7,0.8 2.4,2.3 2.4,4 0.1,1.9 -1.3,3.4 -2.9,4 z"
   id="path129" />
	<path
   fill="#cfcece"
   d="m 22.9,9.4 c 1.1,0.5 2.1,1.1 3.2,1.6 2.1,1 4.3,0.7 6.5,0.2 -1.8,1.3 -3.7,0.9 -5.7,0.4 -0.4,-0.1 -0.8,-0.5 -1.4,-0.3 0.5,0.5 1.6,0.8 0.9,1.7 -0.4,0.5 -1.1,0.1 -1.6,-0.3 0.2,-0.2 0.5,-0.2 0.7,-0.4 -0.7,-0.5 -1.3,-0.9 -2.1,-1.2 -0.4,-0.2 -0.9,-0.2 -0.9,-0.8 1,0 0.5,-0.5 0.4,-0.9 z"
   id="path131" />
	<path
   fill="#191919"
   d="m 16.6,20.3 c 0.1,0 0.2,0.1 0.3,0.1 -1.8,1 -3.9,1.1 -5.7,1.9 -0.4,0.2 -1,0.2 -1.1,-0.4 -0.1,-0.6 0.5,-0.6 0.9,-0.8 1.3,-0.4 2.6,-0.7 3.9,-1.1 0,0.1 0,0.2 0,0.3 -0.4,0.5 -0.9,0.5 -1.3,0.5 1,0.3 1.9,-1 3,-0.5 z"
   id="path133" />
	<path
   fill="#39393a"
   d="m 22.6,10.3 c 0.8,0.7 1.9,0.7 2.7,1.5 0.3,0.3 1.1,0.2 0.9,0.8 -0.2,0.7 -0.9,0.1 -1.3,0.2 -0.9,-0.6 -1.9,-1.1 -3,-1.5 -0.2,-0.1 -0.4,-0.3 -0.6,-0.4 0.3,0 0.5,-0.1 0.9,-0.1 -0.2,-0.3 -0.4,-0.5 -0.5,-0.7 0.2,0 0.6,0.1 0.9,0.2 z"
   id="path135" />
	<path
   fill="#414141"
   d="m 12.1,-50.9 c -0.7,-0.6 -1.7,0 -2.5,-0.7 2.2,-0.1 4.4,-0.1 6.5,0.5 -0.9,0.6 -1.9,0.1 -2.8,0.3 -0.4,0 -0.8,0 -1.2,-0.1 z"
   id="path137" />
	<path
   fill="#463f3d"
   d="m -2.4,-53.4 c -1.2,-0.9 -2.5,-0.5 -3.8,-0.3 -0.4,0.1 -0.7,0.4 -1.2,0.3 1.9,-1.2 4,-1.2 5.5,-0.1 0,0.1 0,0.1 0,0.2 -0.1,0.1 -0.3,0.1 -0.5,-0.1 z"
   id="path139" />
	<path
   fill="#c2c4c4"
   d="m 44.8,22.1 c 0.5,0.4 1.1,0.4 1.6,0.4 0.5,0 1.1,-0.1 1.3,0.5 0.2,0.6 -0.2,1 -0.6,1.4 0.4,-1.1 0.2,-1.6 -1.1,-1.6 -0.7,0 -1.4,-0.2 -1.9,-0.8 0.2,0.1 0.5,0.1 0.7,0.1 z"
   id="path141" />
	<path
   fill="#4d4745"
   d="m -6.4,-45.3 c 1.3,0.2 2.6,0.2 3.9,0 -1.3,0.9 -2.6,0.9 -3.9,0 z"
   id="path143" />
	<path
   fill="#868686"
   d="m 15.3,-50.6 c 1.1,0 2.2,-0.2 3.3,0.2 -0.1,0.1 -0.2,0.2 -0.3,0.2 -0.7,-0.1 -1.5,0.1 -2.2,-0.1 -0.2,-0.1 -0.5,-0.2 -0.8,-0.3 z"
   id="path145" />
	<path
   fill="#868686"
   d="m 18.7,-50.4 c 0.8,0.1 1.5,0 2.2,0.5 -0.8,0.3 -1.5,-0.2 -2.3,-0.2 -0.1,0 -0.1,-0.1 -0.1,-0.1 0,-0.1 0,-0.1 0,-0.1 0.1,-0.1 0.1,-0.1 0.2,-0.1 z"
   id="path147" />
	<path
   fill="#bfbfbf"
   d="m 18.6,-50.3 c 0,0.1 0.1,0.1 0,0.2 -0.8,0 -1.7,0.2 -2.5,-0.2 0.8,0 1.7,0 2.5,0 z"
   id="path149" />
	<path
   fill="#fdfdfd"
   d="m -13.6,34.5 c 0.1,-0.7 -0.2,-1.3 -0.5,-1.9 -0.5,-1.2 -0.2,-1.6 1.1,-1.6 5.4,0 10.9,0 16.3,0 1,0 1.3,0.5 0.9,1.4 C 4,32.9 3.5,33.3 3.6,34 3.8,35.2 3,36 2.7,37 2.6,37.5 2.3,37.9 2.1,38.4 1.4,39.7 1.9,40.9 2.2,42.1 2.3,42.6 2.6,43.2 2.1,43.6 1.7,44 1.2,43.7 0.7,43.5 0.3,43.2 0,43.1 -0.4,43.6 c -0.4,0.5 -0.8,1.1 -1.1,1.6 -0.3,0.5 -0.7,1 -1.1,1.5 -0.7,0.8 -1.1,0.8 -1.9,0.1 C -4.6,46.7 -4.6,46.7 -4.7,46.6 -6,45 -6,45 -7.5,46.5 c -0.1,0.1 -0.3,0.2 -0.5,0.3 -1,0.2 -1.4,-0.2 -1.3,-1.2 0.1,-0.5 0.1,-0.9 0,-1.4 -0.2,-0.6 -0.5,-1.2 -1.3,-0.6 -0.4,0.3 -0.9,0.5 -1.3,0 -0.4,-0.5 -0.1,-1 0.1,-1.4 0.4,-0.7 0.6,-1.4 0,-2 -0.9,-1.5 -1.4,-3 -1.8,-4.7 0,-0.4 -0.2,-0.7 0,-1 z"
   id="path151" />
	<path
   fill="#6a6a6a"
   d="m -14.9,34.3 c -0.4,-0.7 -0.5,-1.5 -0.7,-2.3 -0.2,-0.6 -0.5,-1 -1.2,-1 -4.3,0.3 -8.6,0.1 -12.9,0.1 -4.4,0 -8.8,0 -13.2,0 -0.8,0 -1.5,-0.4 -2.3,0 0,-0.7 0.5,-0.5 0.9,-0.5 9.2,0 18.4,0 27.5,0 0.4,0 0.8,0 1.2,0.3 0.8,1 1.2,2.1 0.7,3.4 z"
   id="path153" />
	<path
   fill="#1b1b1b"
   d="m -14.9,34.3 c 0.1,-1.2 -0.4,-2.2 -0.8,-3.3 0.1,-0.4 0.3,-0.6 0.7,-0.5 0.4,0.1 0.4,0.4 0.4,0.7 -0.2,1.3 0.6,2.2 1,3.3 0.7,1.8 1.1,3.8 2,5.5 0.5,0.7 0.6,1.4 0,2.1 -0.4,0.5 -0.4,1.1 -0.7,1.6 -0.2,0.1 -0.4,0.1 -0.6,0 -0.3,-0.6 0.2,-1 0.3,-1.6 v 0 c 0.4,-0.5 0.5,-1.1 0.1,-1.7 -0.5,-0.9 -0.8,-1.9 -1.1,-2.8 -0.6,-1.1 -0.9,-2.2 -1.3,-3.3 z"
   id="path155" />
	<path
   fill="#565656"
   d="m -0.6,43.6 c 0.2,-0.8 0.8,-0.9 1.4,-0.4 0.4,0.3 0.7,0.7 1.2,0.3 0.5,-0.4 0,-0.8 -0.1,-1.3 -0.2,-1.3 -0.9,-2.6 0,-3.9 0.5,1 -0.2,2.3 0.5,3.2 -0.6,-2.9 0.6,-5.4 2.3,-7.7 0.1,0 0.2,0 0.3,0 -0.4,1.6 -1.3,3 -1.7,4.5 -0.3,0.8 -0.5,1.5 -0.3,2.4 0.3,1 0.5,2 0.6,3.1 C 3.7,44.3 3.9,45 3.2,45.3 2.6,45.6 2,45.5 1.6,45.1 1.1,44.6 0.5,44.5 -0.2,44.7 0,44.1 0.2,43.5 -0.6,43.6 Z"
   id="path157" />
	<path
   fill="#1a1a1a"
   d="M 4.7,33.7 C 4.4,34.9 3.7,35.9 3.3,37 2.7,38.6 2.3,40 2.9,41.6 3,41.8 3.1,42.3 2.7,42.3 2.3,42.4 2.3,42 2.2,41.7 1.8,40.5 1.8,39.3 2,38.1 2.5,36.8 3,35.4 3.6,34 c 0.5,-0.8 1.2,-1.5 1.3,-2.5 0.3,-0.1 0.4,0 0.5,0.3 -0.3,0.6 -0.5,1.3 -0.7,1.9 z"
   id="path159" />
	<path
   fill="#070707"
   d="m 11.7,31 c 0,0.1 -0.1,0.3 -0.1,0.4 -0.4,0.5 -0.1,1.1 -0.4,1.8 0,-1.1 -0.5,-1.8 -1,-2.7 0.6,-0.1 1.2,-0.4 1.5,0.5 z"
   id="path161" />
	<path
   fill="#090909"
   d="M 5.4,31.7 C 5.2,31.6 5.1,31.5 4.9,31.4 c 0,-0.4 -0.2,-0.9 0.4,-1 0.2,0 0.6,-0.1 0.7,0.1 0.1,0.6 -0.4,0.8 -0.6,1.2 z"
   id="path163" />
	<path
   fill="#fefefe"
   d="m 39.2,35.4 c -0.5,1.6 -1,3.1 -1.7,4.5 -3,4.7 -7.1,8.1 -12.1,10.4 -0.7,0.3 -1.2,1 -2,1 -3.9,-2.4 -6.8,-5.7 -8.7,-9.9 -0.2,-0.3 -0.4,-0.7 -0.5,-1 -0.7,-1.1 -1,-2.3 -1.2,-3.5 -0.3,-1.4 -0.6,-2.9 -0.9,-4.3 -0.3,-1.4 0,-1.7 1.4,-1.6 0.5,0.1 1.1,0 1.6,0 7.2,0 14.5,0 21.7,0 0.2,0 0.5,0 0.7,0 1.6,-0.2 1.9,0 2,1.7 0.1,1 -0.1,1.9 -0.3,2.7 z"
   id="path165" />
	<path
   fill="#3d1411"
   d="m 45.8,26.4 c 0.9,0.2 0.3,0.5 0.1,0.8 -0.6,0.8 -1.5,1.1 -2.1,2 -1.1,0.5 -2.3,1 -3.4,1.6 -0.6,0.3 -1.1,0.1 -1.6,-0.2 -0.5,-0.4 -0.1,-0.8 0.1,-1.2 0.2,-0.5 0.2,-1 0,-1.5 -0.3,-1.2 0.2,-1.5 1.3,-1.4 0.9,0.2 1.9,0.2 2.8,0 1,-0.3 1.9,0.4 2.8,-0.1 z"
   id="path167" />
	<path
   fill="#454545"
   d="m 12.9,37 c 0.4,1.2 0.8,2.4 1.2,3.5 C 13,39.6 13,38.2 12.7,37 c 0,0 0.1,0 0.2,0 z"
   id="path169" />
	<path
   fill="#404040"
   d="m 43.1,26.4 c -0.9,0.3 -1.9,0.3 -2.8,0 0.9,0 1.9,0 2.8,0 z"
   id="path171" />
	<path
   fill="#373737"
   d="m -45.5,35.2 c 0.5,2.3 1.6,4.3 2.7,6.3 0.2,0.3 0.2,0.5 -0.2,0.5 -0.1,0 -0.1,0 -0.2,-0.1 -0.9,-1.5 -1.8,-3 -2.4,-4.6 -0.3,-0.9 -0.5,-1.7 -0.4,-2.7 0.2,0.3 0.3,0.5 0.5,0.6 z"
   id="path173" />
	<path
   fill="#545454"
   d="m -43.1,42 c 0.2,-0.1 0.2,-0.3 0.2,-0.5 0.4,0.2 0.7,0.6 0.7,1 -0.2,0 -0.4,0 -0.5,0.2 0,-0.2 -0.2,-0.4 -0.4,-0.7 z"
   id="path175" />
	<path
   fill="#393939"
   d="m -12.4,43.6 c 0,-0.5 0.2,-1 0.5,-1.4 0.5,-0.7 0.6,-1.4 0.3,-2.2 0.9,0.7 0.7,1.4 0.2,2.2 -0.3,0.4 -0.8,0.8 -0.3,1.3 0.5,0.5 0.8,-0.1 1.1,-0.3 0.7,-0.6 1.2,-0.3 1.5,0.5 0.2,0.6 0.2,1.3 0.1,2 -0.2,1 0.1,1.3 1,0.9 0.1,1.2 -0.8,0.7 -1.5,0.8 1,0.6 1.5,-0.4 2.1,-0.4 0.1,0 0.2,0.1 0.3,0.1 -0.6,0.6 -1.2,1.7 -2.2,1.2 -1.1,-0.4 -0.9,-1.6 -0.9,-2.5 0,-0.5 0.1,-1 -0.4,-1.3 -0.6,-0.3 -0.8,0.2 -1.1,0.5 -0.5,0.4 -1.1,0.6 -1.6,0.2 -0.6,-0.4 -0.3,-1 -0.1,-1.5 0.2,-0.6 0.3,-1.2 0.8,-1.7 -0.1,0.5 -0.1,1 -0.2,1.6 0.2,0.3 -0.3,0.7 0.2,1 0.4,-0.3 0.1,-0.7 0.2,-1 z"
   id="path177" />
	<path
   fill="#0e0e0e"
   d="m -0.6,43.6 c 0.2,-0.1 0.3,-0.1 0.5,-0.2 0.3,-0.1 0.7,-0.1 0.9,0.2 0.2,0.5 -0.4,0.4 -0.6,0.6 -0.1,0.1 -0.2,0.2 -0.3,0.4 -0.2,0.2 -0.3,0.4 -0.5,0.5 -0.7,0.9 -1.2,2.1 -2.3,2.8 -0.2,-0.1 -0.4,-0.3 -0.4,-0.6 0.5,-0.8 1.2,-1.4 1.5,-2.3 0.3,-0.6 0.8,-1 1.2,-1.4 z"
   id="path179" />
	<path
   fill="#313131"
   d="m 18.8,53.9 c -0.7,0 -1.2,0.4 -1.8,0.7 -0.4,-0.1 -1.1,0.5 -1.2,-0.4 0.7,-0.3 1.5,-0.5 2.2,-0.8 0.2,0 0.4,0 0.6,0 0.1,0 0.4,-0.1 0.4,0.1 0.1,0.1 -0.1,0.3 -0.2,0.4 z"
   id="path181" />
	<path
   fill="#090909"
   d="m -3.1,47.4 c 0.1,0.2 0.2,0.3 0.3,0.5 0.1,0.9 -0.4,1 -1,0.7 -0.6,-0.2 -0.8,-0.7 -1,-1.3 0.1,-0.2 0.2,-0.3 0.4,-0.4 0.4,0.2 0.8,0.3 1.3,0.5 z"
   id="path183" />
	<path
   fill="#131313"
   d="m -4.6,47.1 c -0.1,0.1 -0.2,0.1 -0.2,0.2 -0.3,-0.3 -0.5,-0.6 -0.8,-0.9 -0.2,-0.5 -0.7,0 -1,-0.3 -0.1,-0.1 -0.1,-0.2 -0.1,-0.4 0.6,-1 1,-1.1 1.5,-0.2 0.3,0.5 0.9,0.9 0.6,1.6 z"
   id="path185" />
	<path
   fill="#353535"
   d="m -3.9,48.6 c 0.5,-0.1 1,-0.1 1,-0.7 0.9,-0.8 1.3,-2 2.3,-2.8 -0.4,1.4 -1.5,2.3 -2.3,3.5 -0.2,0.3 -0.6,0.4 -1,0 z"
   id="path187" />
	<path
   fill="#393939"
   d="m -13.6,37.5 c 0.7,1 1,2.2 1.5,3.3 0.2,0.4 0.2,1 -0.5,1.2 0.3,-0.8 0.1,-1.5 -0.3,-2.3 -0.4,-0.6 -0.8,-1.3 -0.7,-2.2 z"
   id="path189" />
	<path
   fill="#353535"
   d="m -6.6,46.1 c 0.3,0.1 0.8,-0.2 1,0.3 -0.7,-0.3 -1,0.4 -1.4,0.7 -0.1,0 -0.2,0 -0.3,0 -0.1,-0.6 0.2,-0.8 0.7,-1 z"
   id="path191" />
	<path
   fill="#030303"
   d="m -8.8,57.1 c -0.3,-0.1 -0.7,-0.2 -1,-0.3 0,0 0,-0.1 0,-0.1 2.1,0 4.2,0 6.2,0 2,0 4,0 6,0 0.5,0 0.9,0 0.2,0.5 -3.8,0.1 -7.6,0.1 -11.4,-0.1 z"
   id="path193" />
	<path
   fill="#fbfbfb"
   d="m 32.6,-10 c 0,-1.4 1,-2.7 2.1,-2.7 1,0 2.5,1.7 2.4,2.8 -0.1,1.3 -1.4,2.8 -2.5,2.7 -1.1,0 -2,-1.2 -2,-2.8 z"
   id="path195" />
	<path
   fill="#faf2e6"
   d="m -1.4,-51.9 c 1.3,2.4 1.2,3.4 -1,5.5 -1.4,0.9 -2.8,0.8 -4.2,0.1 -0.4,-0.5 -1,-0.8 -1.3,-1.5 -0.1,-0.4 -0.1,-0.8 -0.2,-1.2 -0.5,-2.6 2.2,-5.1 4.9,-3.9 0.2,0.1 0.4,0.2 0.7,0.2 0.6,-0.1 1,0.2 1.1,0.8 z"
   id="path197" />
	<path
   fill="#fdd8cb"
   d="m -2.4,-52.6 c -0.4,0.4 -0.9,0 -1.3,-0.1 -2.6,-0.6 -4.2,0.7 -4.2,3.4 0,0.5 0,1 0,1.5 -0.9,-1.8 -0.6,-3.1 1.1,-4.8 1.2,-1.2 2.5,-1.1 3.9,-0.5 0.1,0.1 0.2,0.2 0.3,0.1 0.2,0.1 0.3,0.1 0.2,0.4 z"
   id="path199" />
	<path
   fill="#4d4745"
   d="m -6.6,-46.3 c 1.4,0.4 2.8,0.5 4.2,-0.1 0,0.3 -0.2,0.4 -0.5,0.6 -1.3,0.3 -2.6,0.7 -3.7,-0.5 z"
   id="path201" />
	<path
   fill="#161212"
   d="m -2.4,-52.6 c -0.1,-0.1 -0.2,-0.2 -0.2,-0.3 0,-0.2 0.1,-0.4 0.2,-0.5 0.2,0 0.3,0.1 0.5,0.1 0.5,0.6 1.3,1 1.5,2.1 -0.5,-0.3 -0.8,-0.5 -1.1,-0.7 -0.2,-0.2 -0.5,-0.5 -0.9,-0.7 z"
   id="path203" />
	<path
   fill="#463f3d"
   d="m -2.9,-53 c -1.4,-0.3 -2.7,-0.4 -3.9,0.5 0.8,-1.4 2.8,-1.6 3.9,-0.5 z"
   id="path205" />
	<path
   fill="#080909"
   d="m 16.6,20.3 c -0.6,0 -1.1,0.2 -1.6,0.5 -0.5,0.3 -1.1,0.4 -1.7,0.2 0.5,-0.4 1.1,-0.5 1.6,-0.7 0.6,-0.2 1.1,-0.6 1.8,-0.5 0.6,0.1 -0.1,0.3 -0.1,0.5 z"
   id="path207" />
	<path
   fill="#0f0f0f"
   d="m 23.8,17.3 c 0.6,0.5 0.6,0.5 -0.3,1 -0.3,-0.5 0.4,-0.7 0.3,-1 0,0 0,0 0,0 z"
   id="path209" />
	<path
   fill="#353535"
   d="m -4.6,47.1 c 0,-0.6 -0.4,-1.1 -0.8,-1.5 -0.6,-0.8 -1,-0.6 -1.3,0.2 -0.3,0.3 -0.4,0.9 -1,0.5 0.1,-0.2 0.2,-0.3 0.4,-0.5 1.4,-1.5 1.5,-1.5 2.6,0.3 0.8,1.2 1.1,1.2 2,0.2 0.3,-0.4 0.7,-0.8 1,-1.3 0,1.1 -0.9,1.6 -1.5,2.4 -0.4,-0.1 -0.9,-0.2 -1.4,-0.3 z"
   id="path211" />
	<path
   fill="#191919"
   d="m -7.6,46.3 c 0.5,0.1 0.7,-0.3 1,-0.5 0,0.1 0,0.2 0,0.3 -0.3,0.3 -0.5,0.7 -0.8,1 -0.3,0.2 -0.5,0.4 -0.8,0.6 -0.3,0.2 -0.7,0.6 -1.1,0.3 -0.4,-0.3 -0.6,-0.7 -0.5,-1.3 0.7,0 1.4,1.1 1.9,-0.1 0.1,-0.1 0.2,-0.2 0.3,-0.3 z"
   id="path213" />
	<path
   fill="#101010"
   d="m -12.4,43.6 c 0.2,0.4 0.8,0.7 0.2,1.2 -0.3,0.3 -0.7,0.4 -1,0.1 -0.5,-0.5 0.1,-0.9 0.3,-1.3 0.2,0 0.4,0 0.5,0 z"
   id="path215" />
	<path
   fill="#0c0c0c"
   d="m 3,43.3 c 0.3,0.8 0.6,1.3 0,1.6 -0.4,0.2 -1,0 -1.1,-0.3 C 1.7,43.8 2.7,43.9 3,43.3 Z"
   id="path217" />
	<path
   fill="#f84202"
   d="m 42.2,27.4 c 0.3,0 0.9,-0.1 1.6,-0.2 0.3,0 0.6,0 0.7,0.3 0.1,0.3 -0.2,0.5 -0.4,0.7 -1,0.6 -2.1,0.8 -3.1,1.4 -0.4,0.3 -1,0 -1.1,-0.7 -0.1,-0.7 0,-1.4 0.8,-1.6 0.4,0.1 0.7,0.1 1.5,0.1 z"
   id="path219" />
	<path
   fill="#090909"
   d="m -9.4,45.4 c -0.4,-0.5 -0.6,-0.8 -0.9,-1.1 -0.2,-0.2 -0.4,-0.4 -0.2,-0.7 0.1,-0.2 0.3,-0.3 0.5,-0.2 0.3,0.1 0.5,0.3 0.5,0.6 0.2,0.3 0.1,0.7 0.1,1.4 z"
   id="path221" />
	<path
   fill="#fdd8cb"
   d="m -6.9,-49.6 c 0,-1.4 1,-2.5 2.3,-2.5 1.2,0 2.5,1.3 2.5,2.6 0,1.4 -0.9,2.2 -2.6,2.2 -1.4,0 -2.2,-0.8 -2.2,-2.3 z"
   id="path223" />
</g>
</svg>
