<?xml version="1.0" encoding="UTF-8" standalone="no"?>
<!-- Generator: Adobe Illustrator 25.0.1, SVG Export Plug-In . SVG Version: 6.00 Build 0)  -->

<svg
   version="1.1"
   id="PISHI_1_"
   x="0px"
   y="0px"
   viewBox="0 0 80 99.999999"
   xml:space="preserve"
   sodipodi:docname="pishi.ai-2.svg"
   inkscape:version="1.3.2 (091e20e, 2023-11-25, custom)"
   width="80"
   height="100"
   xmlns:inkscape="http://www.inkscape.org/namespaces/inkscape"
   xmlns:sodipodi="http://sodipodi.sourceforge.net/DTD/sodipodi-0.dtd"
   xmlns="http://www.w3.org/2000/svg"
   xmlns:svg="http://www.w3.org/2000/svg"><defs
   id="defs1" /><sodipodi:namedview
   id="namedview1"
   pagecolor="#ffffff"
   bordercolor="#666666"
   borderopacity="1.0"
   inkscape:showpageshadow="2"
   inkscape:pageopacity="0.0"
   inkscape:pagecheckerboard="0"
   inkscape:deskcolor="#d1d1d1"
   showgrid="false"
   inkscape:zoom="4.6032651"
   inkscape:cx="1.4120412"
   inkscape:cy="37.256164"
   inkscape:window-width="1600"
   inkscape:window-height="847"
   inkscape:window-x="-8"
   inkscape:window-y="-8"
   inkscape:window-maximized="1"
   inkscape:current-layer="PISHI_1_" />
<style
   type="text/css"
   id="style1">
	.st0{fill:#00CCCC;}
	.st1{fill:#FFFFFF;}
	.st2{fill:#CCF5F5;}
	.st3{fill:#E0F9F9;}
	.st4{display:none;}
	.st5{display:inline;fill:#00CCCC;}
	.st6{display:inline;fill:#FFFFFF;}
	.st7{display:inline;fill:#CCF5F5;}
</style>
<g
   id="PISHI"
   transform="translate(-216.74117,-184.54113)"
   inkscape:label="PISHI.AI">
	<g
   id="FOOT-RIGHT_1_"
   inkscape:label="RIGHT-LEG">
		<path
   id="FOOT-LEFT-BACKGROUND-BLUE_3_"
   inkscape:label="RIGHT-LEG-BACKGROUND"
   class="st0"
   d="m 255.20462,268.65161 v 0.10001 c -0.39999,2.89999 -0.8,5.79998 -1.3,8.70001 -0.10001,0.29999 -0.10001,0.70001 -0.30001,0.89999 -0.3,0.29999 -0.39999,0.70002 -0.5,1.10001 -0.39999,1.5 -0.6,3 -0.8,4.5 0,0.20001 0.10001,0.39999 0.3,0.39999 0.30001,0 0.60001,0 0.80001,0 4.89998,0 9.69999,0 14.59999,0 1.79999,0 3.6,-0.1 5.39999,-0.1 0.29999,0 0.52368,-0.02 0.9,-0.10001 0.28378,-0.0732 0.28924,-0.0339 0.29998,-0.39999 0,-0.29999 0,-0.29999 -0.1,-0.9 -0.20972,-1.48266 -1.10001,-3.39999 -2.29999,-4.70001 -1,-1.10001 -1.66431,-1.6553 -3.0643,-2.25531 -0.39795,-0.19998 -0.52188,-0.31775 -0.61011,-1.25259 -0.0775,-1.965 -0.49344,-6.31397 -0.39346,-7.71396 -3.24292,1.24472 -7.34186,1.74893 -12.9321,1.72186 z" />
		<path
   id="FOOT-LEFT-WHITE-BOTTOM_3_"
   inkscape:label="RIGHT-FOOT"
   class="st1"
   d="m 259.5899,278.73761 c 1.30253,-0.38727 2.5,-0.70001 3.80002,-0.89999 1.29999,-0.20002 2.5,-0.29999 3.79999,-0.20002 0.29999,0 0.5,0 0.79999,0.10001 1.79999,0.70001 3.20001,1.79999 4.20001,3.5 0.142,0.31183 0.29999,0.5 0.29999,0.79999 -0.10001,0.1 -0.20001,0.1 -0.29999,0.1 -2.60001,0 -5.20001,0 -7.89999,0.10001 -0.10001,0 -0.29999,0 -0.4,0 -1.39999,-0.29999 -2.89999,-0.60001 -4.1,-1.5 -0.60001,-0.5 -0.85236,-1.76688 -0.85236,-1.76688 0,0 0.38785,-0.1553 0.65234,-0.23312 z" />
		<path
   id="FOOT-LEFT-SHADOW-BOTTOM_3_"
   inkscape:label="RIGHT-FOOT-SHADOW"
   class="st2"
   d="m 262.38312,279.16876 c 0.15722,1.16779 3.3306,2.35294 6.22058,2.97382 -0.19998,0 -1.31207,0.0209 -1.41208,0.0209 -2.29999,0 -3.64813,0.26084 -4.23499,0.0741 -0.32351,-0.10294 -0.57351,-3.06885 -0.57351,-3.06885 z" />
		<path
   id="FOOT-LEFT-WHITE-TOP_5_"
   inkscape:label="RIGHT-LEG"
   class="st1"
   d="m 260.27075,269.92065 c 0.54999,0.02 1.09,0.02 1.63999,0.06 1.8106,-0.0304 4.25872,-0.78912 4.43545,-0.52136 0.1178,0.1785 0.20706,0.98331 0.23908,1.94675 0.0736,1.11038 0.17889,2.08081 0.2243,3.20602 0.01,0.24069 -0.20007,0.16492 -0.91882,0.21863 -0.54001,0.07 -4.16001,0.54001 -5.42002,0.78 -0.11999,0.02 -0.0388,0.01 -0.15881,0.02 -0.5,-0.03 -0.76117,-0.44 -0.78119,-0.76999 -0.09,-1.54999 0.07,-3.09 0.45001,-4.60001 0.04,-0.14001 0.16001,-0.25 0.28998,-0.33999 z" />
		<path
   id="FOOT-LEFT-WHITE-TOP_4_"
   inkscape:label="RIGHT-LEG-SHADOW"
   class="st2"
   d="m 260.27072,269.92068 c -0.54938,1.63254 -0.8024,3.63724 0.0412,5.71 -0.82001,0.23001 -2.12183,0.45614 -2.9418,0.68612 -0.23001,0.06 -0.35001,-0.04 -0.32001,-0.29001 0.06,-0.54001 0.13,-1.08999 0.20999,-1.63 0.19,-1.32001 0.37,-2.64999 0.57001,-3.97 0.02,-0.15 0.07,-0.29999 0.11001,-0.44 0.05,-0.17002 0.16999,-0.25 0.34,-0.23999 0.53998,0.04 1.4043,0.13198 1.9906,0.17388 z" />
	</g>
	<g
   id="TUMMY"
   inkscape:label="CHEST">
		<path
   class="st0"
   d="m 241.57313,252.48093 c -1.36692,8.83731 3.39779,16.69027 10.21677,18.11847 9.35747,2.5718 20.35747,-0.54584 19.94573,-16.07526 -0.4238,-15.98314 -5.36661,-16.63062 -14.32978,-17.05698 -1.05432,-0.0502 -2.11963,0.0193 -3.15416,0.22867 -6.80055,1.37604 -11.2033,5.24738 -12.67856,14.7851 z"
   id="path1"
   inkscape:label="CHEST-BACKGROUND" />
		<path
   id="TUMMY-SHADOW"
   inkscape:label="CHEST-SHADOW"
   class="st3"
   d="m 267.4433,243.38217 c -2.76282,-1.45363 -11.0018,-0.0933 -13.77875,6.78256 -5.69363,19.80057 11.68838,15.85898 13.25409,13.76181 -0.54199,1.14548 -5.0221,6.69135 -14.63377,3.21415 -7.31395,-2.64597 -8.10808,-6.52832 -7.59629,-14.91068 0.89998,-7.14705 4.17021,-13.00371 11.373,-13.05563 9.62256,-0.0694 11.38172,4.20779 11.38172,4.20779 z" />
		<path
   id="TUMMY-WHITE"
   inkscape:label="CHEST-FRONT"
   class="st1"
   d="m 262.25903,241.90045 c 2.95331,-0.71271 5.30011,-1.22926 6.42584,5.84023 0.85956,4.93051 0.80625,7.04622 0,10.90001 -0.74475,3.5599 -1.12573,7.10833 -6.39999,7.70001 -8.74043,0.41873 -11.08304,-6.1695 -10.37715,-11.11069 1.54488,-10.14705 8.3159,-12.83836 10.3513,-13.32956 z" />
	</g>
	<g
   id="TAIL">
		<path
   id="TAIL-BLUE-BACKGROUND"
   inkscape:label="TAIL-BACKGROUND"
   class="st0"
   d="m 243.35101,259.88901 -0.12309,0.0696 c -0.83496,0.39099 -1.71278,0.5625 -2.56387,0.63763 -2.21073,0.11301 -4.11115,-0.51816 -5.85114,-1.72748 -1.64363,-1.18258 -2.89123,-2.67034 -3.96225,-4.42048 -1.0014,-1.627 -1.68699,-3.27019 -2.4422,-5.03644 -0.0429,-0.21948 -0.0857,-0.43892 -0.12863,-0.65839 -0.28955,-1.94838 -1.85851,-4.14801 -4.75987,-4.53802 -2.29647,-0.32594 -4.82805,0.94334 -5.76949,3.58789 -0.63116,1.90044 -0.16502,3.58647 1.08257,5.07425 0.3052,0.39603 0.51407,0.76533 0.59982,1.20425 0.38037,1.24712 0.88384,2.42464 1.51041,3.53252 1.43525,2.68143 3.29329,4.96127 5.52061,7.03226 3.12683,2.94326 6.91709,4.61776 11.17807,4.96997 2.63904,0.21344 5.28865,0.0147 7.90599,-0.81568 0.12311,-0.0696 1.37281,-0.4598 1.4959,-0.52942 0.28726,-2.64379 -2.13446,-5.77066 -3.69283,-8.38247 z" />
		<path
   id="TAIL-WHITE-END"
   inkscape:label="TAIL-END"
   class="st1"
   d="m 233.086,261.96838 c 0.17659,-0.26233 0.27293,-0.23559 0.53528,-0.0591 0.52467,0.35318 1.07609,0.60996 1.72386,0.8935 1.75058,0.79711 2.94723,1.02545 4.66752,1.00659 0.72866,-0.0252 0.99747,-0.0307 1.39753,-0.05 0.42253,-0.0203 0.38543,0.10696 0.52469,0.35318 0.18595,0.37796 0.23196,0.47815 0.39097,0.83496 0.0644,0.39371 -0.39195,0.66129 -0.94633,0.68012 -3.0083,-0.005 -6.04448,-0.54456 -8.98873,-1.15403 -0.48179,-0.13369 -1.15632,-0.32083 -1.28494,-0.97921 0,0 1.50392,-0.9318 1.98015,-1.52607 z" />
		<path
   id="TAIL-SHADOW"
   inkscape:label="TAIL-END-SHADOW"
   class="st2"
   d="m 231.10585,263.49445 c 0.0696,0.1231 1.15578,0.49484 1.82422,0.66348 0.0964,0.0268 1.89737,0.40359 2.75151,0.556 0.89397,0.14429 1.91103,0.21899 2.83174,0.26691 1.11343,0.10141 2.43623,0.0447 3.81253,-0.0333 0.20098,0.40946 0.34149,0.77091 0.454,1.11347 0.0969,0.29864 -0.27294,0.23556 -0.49239,0.27847 -2.79947,0.36471 -5.5616,0.22089 -8.17941,-0.81693 -1.12956,-0.41723 -2.23239,-0.93081 -3.18538,-1.61041 -0.10263,-0.0875 -0.18643,-0.2019 0.05,-0.32696 z" />
		<path
   id="TAIL-WHITE-MIDDLE"
   inkscape:label="TAIL-MIDDLE"
   class="st1"
   d="m 226.5574,253.46451 c 0.19272,0.0535 0.15271,0.0128 0.22232,0.13591 0.9742,1.81234 2.45937,3.99174 3.94373,5.79402 0.30521,0.39603 0.37483,0.5191 -0.0479,0.92068 -0.46227,0.42069 -1.57355,0.80872 -2.52098,0.85712 -0.48705,-0.062 -0.43338,-0.0405 -0.63286,-0.14151 -0.23335,-0.11822 -0.42662,-0.3797 -0.91705,-0.93005 -1.18677,-1.48233 -1.89829,-2.58359 -2.80333,-4.18385 -0.20887,-0.3693 -0.34742,-0.59208 -0.50052,-0.91463 -0.0311,-0.19396 0.0867,-0.26204 0.21649,-0.30574 1.07054,-0.11803 2.00186,-0.48227 2.82066,-1.18906 0.11078,-0.0616 0.21948,-0.0429 0.21948,-0.0429 z" />
		<path
   id="TAIL-WHITE-CIRCLE"
   inkscape:label="TAIL-HEAD"
   class="st1"
   d="m 222.33884,251.46358 c -1.15631,-0.32088 -1.87925,-1.45549 -1.55835,-2.61182 0.32087,-1.15631 1.52511,-1.75613 2.65467,-1.33888 1.1563,0.32088 1.75614,1.52511 1.46199,2.58507 -0.17102,0.99032 -1.402,1.6865 -2.55831,1.36563 z" />
	</g>
	
	<g
   id="FOOT-LEFT"
   inkscape:label="LEFT-LEG">
		<path
   id="FOOT-LEFT-BACKGROUND-BLUE"
   inkscape:label="LEFT-LEG-BACKGROUND"
   class="st0"
   d="m 244.98486,268.84067 v 0.1 c -0.39999,2.9 -0.8,5.79999 -1.3,8.70002 -0.10001,0.29998 -0.10001,0.70001 -0.3,0.89999 -0.30001,0.29999 -0.4,0.70001 -0.5,1.10001 -0.4,1.5 -0.60001,3 -0.80001,4.5 0,0.20001 0.10001,0.39999 0.30001,0.39999 0.3,0 0.6,0 0.8,0 4.89999,0 9.7,0 14.59999,0 1.79999,0 3.60001,-0.10001 5.39999,-0.10001 0.29999,0 0.60001,0 0.9,-0.1 0.29999,0 0.39999,-0.10001 0.29999,-0.4 0,-0.29998 0,-0.6 -0.10001,-0.89999 -0.29999,-1.79999 -1.10001,-3.39999 -2.29999,-4.70001 -1,-1.10001 -2.20001,-1.9 -3.6,-2.5 -0.79999,-0.29999 -0.79999,-0.20001 -0.70002,-1.10001 0.10001,-1.39999 0.58362,-4.19922 0.6836,-5.59921 -3.92647,-1.17877 -9.38355,-1.80078 -13.38355,-0.30078 z" />
		<path
   id="FOOT-LEFT-WHITE-BOTTOM"
   inkscape:label="LEFT-FOOT"
   class="st1"
   d="m 248.88486,278.84067 c 1.3025,-0.38727 2.5,-0.70001 3.8,-0.9 1.3,-0.20001 2.5,-0.29998 3.8,-0.20001 0.29999,0 0.5,0 0.79999,0.10001 1.79999,0.70001 3.20001,1.79999 4.20001,3.5 0.10001,0.29999 0.29999,0.5 0.29999,0.79999 -0.10001,0.1 -0.20001,0.1 -0.29999,0.1 -2.6,0 -5.20001,0 -7.89999,0.10001 -0.10001,0 -0.3,0 -0.39999,0 -1.4,-0.29999 -2.9,-0.60001 -4.10001,-1.5 -0.60001,-0.5 -0.85237,-1.76688 -0.85237,-1.76688 0,0 0.38785,-0.15527 0.65236,-0.23312 z" />
		<path
   id="FOOT-LEFT-SHADOW-BOTTOM"
   inkscape:label="LEFT-FOOT-SHADOW"
   class="st2"
   d="m 248.55241,278.9523 c 0.15723,1.16779 0.001,1.28836 1.10117,1.98834 0.3,0.20001 0.62242,0.33649 1.10001,0.5 0.85594,0.29471 1.17411,0.42804 2,0.70001 0.19999,0.10001 0.31185,0.10749 0.5,0.20002 -0.2,0 -0.4,0 -0.5,0 -2.30001,0 -4.7,0 -7,0 -0.2,0 -0.4,0 -0.60001,0 -0.2,0 -0.3,-0.10001 -0.2,-0.29999 0.10001,-0.5 0.2,-1 0.30001,-1.39999 0.0873,-0.23722 0.18831,-0.38947 0.39999,-0.5 0.79999,-0.40006 2.89883,-1.18839 2.89883,-1.18839 z" />
		<path
   id="FOOT-LEFT-WHITE-TOP_1_"
   inkscape:label="LEFT-LEG"
   class="st1"
   d="m 249.47183,270.88876 c 2.42598,0.27265 2.83278,0.31677 5.83731,0.34125 0.3171,0.0999 0.48645,0.12665 0.47571,0.51065 -0.0373,1.33191 -0.10001,2.5 -0.20001,3.30002 -0.0421,0.59073 -0.10001,0.70001 -0.8,0.79999 -0.5,0.1 -1.10001,0.1 -1.60001,0.20001 -1.3,0.10001 -4,0.60001 -4.2,0.60001 -0.5,0 -0.6,-0.5 -0.6,-0.79999 -0.009,-1.4115 -0.005,-3.43466 0.72302,-4.55487 z" />
		<path
   id="FOOT-LEFT-WHITE-TOP"
   inkscape:label="LEFT-LEG-SHADOW"
   class="st2"
   d="m 249.47183,270.88876 c -0.38603,0.88236 -0.82759,2.02304 -0.84927,2.92279 -0.0173,0.71695 0.0414,2.10825 0.54139,2.80823 -0.87228,0.15869 -1.72154,0.33515 -2.57908,0.62091 -0.2,0.10001 -0.4,0 -0.3,-0.29999 0.1,-0.5 0.80372,-6.89752 0.90707,-7.37487 0.67754,0.5588 1.5416,1.09341 2.27989,1.32293 z" />
	</g>
	<g
   id="HAND-RIGHT"
   inkscape:label="RIGHT-HAND">
		<path
   id="HAND-RIGHT-BACKGROUND-BLUE"
   inkscape:label="RIGHT-HAND-BACKGROUND"
   class="st0"
   d="m 279.55975,255.57227 c 0.40625,0.0703 0.7721,0.23201 1.13797,0.39376 1.88922,0.75785 3.08707,1.09659 4.95615,0.66053 2.66949,-0.8517 5.41595,-4.32798 4.14761,-7.8973 -1.28979,-2.58554 -2.2576,-3.78175 -7.8164,-4.33053 -2.35678,-0.60463 -12.3859,-2.435 -13.38138,-2.65644 0.70602,4.41176 0.70602,8.17647 1.22122,12.07215 0,0 6.66754,1.2764 9.73483,1.75783 z" />
		<path
   id="HAND-RIGHT-WHITE-TOP"
   inkscape:label="RIGHT-ARM"
   class="st1"
   d="m 277.83627,249.00479 c -0.16269,0.63313 -6.46814,-0.98056 -7.19473,-3.5979 2.42349,0.46576 5.79025,0.80751 8.73599,1.47459 -0.69082,0.51737 -1.34323,1.47146 -1.54126,2.12331 z" />
		<path
   id="HAND-RIGHT-SHADOW"
   inkscape:label="RIGHT-ARM-SHADOW"
   class="st3"
   d="m 277.90384,248.78519 c -0.38495,1.36422 -0.44666,2.5251 0.45029,4.03013 -3.55927,-0.71274 -3.40375,-0.68556 -6.6073,-1.24553 -0.15049,-2.84221 -0.60923,-3.88992 -1.10529,-6.1629 1.84836,1.86771 4.75354,3.48038 7.2623,3.3783 z" />
		<path
   id="HAND-RIGHT-WHITE-CIRCLE"
   inkscape:label="RIGHT-HAND"
   class="st1"
   d="m 287.01679,250.24287 c 0.0315,1.09957 -0.24549,1.90781 -0.93091,2.42765 -1.36505,1.23957 -3.46994,1.09977 -4.61243,-0.36812 -0.82828,-0.97669 -0.86551,-2.27616 -0.0944,-3.29865 1.15371,-1.63371 3.54986,-1.80236 4.99509,-0.2431 0.41412,0.48836 0.63122,1.0824 0.6427,1.48222 z" />
	</g>
	<g
   id="HAND-LEFT"
   inkscape:label="LEFT-HAND">
		<path
   id="HAND-LEFT-BACKGROUND-BLUE"
   inkscape:label="LEFT-HAND-BACKGROUND"
   class="st0"
   d="m 247.93845,242.89683 c -0.52282,-0.58024 -1.34926,-1.2488 -2.65601,-1.39843 -1.10306,-0.0574 -2.39821,0.0927 -4.07378,0.75795 -1.47569,0.6575 -2.54783,1.39947 -2.47058,3.39798 0.0618,1.59881 0.54192,3.43542 0.88106,4.66945 0,0 2.62999,8.30903 2.71899,8.82011 0.0718,0.4122 0.25765,0.87213 0.37304,1.26797 1.44104,3.59549 6.38083,4.55689 9.1782,1.84681 1.63694,-1.66449 2.26299,-3.59012 1.67838,-5.76914 -0.11925,-0.49577 -0.22128,-0.82457 -0.45378,-1.3835 -0.59241,-1.4853 -3.11714,-8.13815 -3.45311,-9.07338 -0.55756,-1.47958 -1.09967,-2.55946 -1.72241,-3.13582 z" />
		<path
   id="HAND-LEFT-WHITE"
   inkscape:label="LEFT-ARM"
   class="st1"
   d="m 244.57002,244.1264 c 0.83211,0.12436 1.53966,0.87482 1.68381,1.13579 0.26276,0.47568 0.46637,0.80666 0.86894,1.76776 0.5576,1.47957 1.06374,2.89769 1.57282,4.44255 0.24875,0.7356 0.3426,0.49859 -0.38037,0.51508 -1.09974,0.0251 -1.85277,0.32414 -2.96686,0.91531 -0.48804,0.3191 -0.97222,0.7381 -1.35646,1.15326 -0.38424,0.41516 -0.38424,0.41516 -0.60729,-0.17666 -0.23074,-0.79168 -0.45764,-1.48343 -0.6884,-2.2751 -0.46151,-1.58336 -0.92596,-3.5811 -1.17329,-4.73792 -0.24871,-1.19781 0.13394,-1.70789 0.61081,-2.04541 0.3088,-0.28333 1.36238,-0.85516 2.43629,-0.69466 z" />
		<path
   id="HAND-LEFT-WHITE-CIRCLE"
   inkscape:label="LEFT-HAND"
   class="st1"
   d="m 248.89813,254.8645 c 1.81903,0.52748 2.36948,2.6023 1.34281,4.25031 -0.63668,1.04147 -1.91988,1.60128 -3.15635,1.26785 -1.72305,-0.44846 -2.47502,-2.24585 -1.78663,-3.854 0.60417,-1.5024 2.68457,-1.93604 3.60017,-1.66416 z" />
	</g>
	<g
   id="HEAD">
		<path
   id="FACE-BLUE-BACKGROUND"
   inkscape:label="HEAD-BACKGROUND"
   class="st0"
   d="m 294.41879,231.04454 c -0.17117,-0.14389 -0.43957,-0.31108 -0.63406,-0.35773 -0.65738,-0.2605 -1.33808,-0.42373 -1.99545,-0.68422 -0.75461,-0.28381 -1.50925,-0.56761 -2.36112,-0.87474 -0.29172,-0.07 -0.36566,-0.19053 -0.39294,-0.50557 0.0154,-0.92183 0.007,-1.74641 0.0229,-2.66824 -0.0273,-0.31506 0.0933,-0.38896 0.28779,-0.34233 0.2178,-0.0506 0.41229,-0.004 0.60678,0.0427 1.50528,0.15533 3.10782,0.33398 4.61309,0.48929 0.19449,0.0466 0.4123,-0.004 0.6301,-0.0545 0.43561,-0.10122 0.70007,-0.3463 0.79334,-0.73526 0.0933,-0.38897 -0.10514,-0.8479 -0.47083,-1.03843 -0.17117,-0.14389 -0.36563,-0.19053 -0.46289,-0.21385 -0.38895,-0.0933 -0.70401,-0.066 -1.09299,-0.15928 -1.50528,-0.15532 -3.01056,-0.31066 -4.51584,-0.46596 -0.31506,0.0273 -0.38897,-0.0933 -0.39294,-0.50557 -0.0218,-1.43082 -0.0907,-2.91412 -0.12894,-3.32167 0.0193,-0.50954 0.0193,-0.50954 0.45496,-0.61073 0.2178,-0.0506 0.1564,-0.0309 1.17871,-0.16916 1.18628,-0.22968 2.04175,-0.39539 3.20465,-0.52784 0.21783,-0.0506 0.53287,-0.0779 0.65344,-0.15181 0.5795,-0.27235 0.74274,-0.95306 0.34979,-1.45863 -0.319,-0.38501 -0.67709,-0.53433 -1.12027,-0.47433 -0.74841,0.10131 -0.74841,0.10131 -1.38073,0.18304 -1.06574,0.15576 -2.03418,0.33485 -3.12323,0.58786 -0.21781,0.0506 -0.38895,-0.0933 -0.34232,-0.28775 -0.0273,-0.31506 0.0427,-0.6068 0.0154,-0.92183 -0.0431,-1.9642 -0.0123,-3.80786 -0.0554,-5.77208 -0.12893,-3.32165 -1.29629,-6.1725 -3.5993,-8.57585 -0.24509,-0.26443 -0.39295,-0.50555 -0.44354,-0.72337 -0.17511,-0.55618 -0.35025,-1.11237 -0.52536,-1.66853 -0.7511,-2.44251 -1.47892,-4.98226 -2.54505,-7.3975 -0.323,-0.7973 -0.66928,-1.49736 -1.11282,-2.22073 -0.14786,-0.24113 -0.29569,-0.48225 -0.46686,-0.62614 -0.24505,-0.26444 -0.46289,-0.21386 -0.70401,-0.066 -0.38501,0.319 -0.84396,0.51744 -1.22897,0.83647 -1.54398,0.86374 -2.94016,1.96862 -4.16513,3.21738 -1.73056,1.64169 -3.3133,3.52449 -4.89603,5.4073 -0.14389,0.17116 -0.28778,0.34234 -0.43164,0.51351 -0.14389,0.17116 -0.26447,0.24509 -0.45892,0.19845 -0.0973,-0.0233 -0.31504,0.0273 -0.4123,0.004 -3.59005,-0.0383 -7.27737,-0.0999 -10.89074,-0.0409 -3.49282,-0.015 -6.939,-0.22441 -10.42786,0.17294 -1.98753,0.14037 -4.07231,0.2574 -6.08317,0.49501 -0.94515,0.0819 -0.94515,0.0819 -1.53257,-0.47038 -1.49385,-1.48946 -3.01101,-2.88166 -4.67205,-4.10266 -1.98006,-1.60607 -4.10399,-3.04093 -6.53904,-4.03623 -1.21751,-0.49765 -1.29142,-0.61822 -1.83574,0.79378 -0.0233,0.0972 -0.0233,0.0972 -0.0466,0.19447 -0.47433,1.12027 -0.77749,2.38443 -1.08067,3.64859 -0.79289,3.30625 -1.39131,6.65915 -1.98973,10.01204 -0.11661,0.48621 -0.20989,0.87518 -0.42374,1.33808 -0.42769,0.92578 -0.78146,1.97213 -0.91742,2.96788 -0.1826,1.19023 -0.17073,2.4271 -0.0616,3.68731 0.0779,0.53285 -0.0387,1.01906 -0.15533,1.50528 -0.70358,2.50499 -0.58256,5.00206 0.5069,7.32004 0.19845,0.45894 0.37358,1.01511 0.35422,1.52464 0.14036,1.98754 0.2574,4.07231 0.39776,6.05985 0.0625,1.45468 0.44003,2.88208 1.03536,4.25888 0.61865,1.27956 1.38119,2.38794 2.4082,3.25125 1.12422,0.88664 2.41566,1.50484 3.94426,1.56293 1.52861,0.0581 3.08052,0.0189 4.70637,0.10032 1.64917,-0.0158 3.37226,0.0889 4.9981,0.17029 0.60679,0.0427 1.13965,-0.0352 1.74641,0.007 -0.31506,0.0273 -0.31506,0.0273 0,0 0,0 6.55002,0.13112 12.49326,0.21956 4.92416,0.0497 13.82342,-0.18129 15.49591,-0.29437 3.41888,-0.1056 6.8378,-0.21122 10.25668,-0.31681 1.45468,-0.0625 2.85877,-0.34277 4.16162,-1.05868 1.3262,-0.81314 2.48123,-1.77017 3.31726,-3.1122 0.64548,-0.9764 1.19376,-1.97609 1.45029,-3.04578 0.0466,-0.19447 0.16721,-0.2684 0.45892,-0.19844 0.46289,0.21385 1.04636,0.35378 1.50925,0.56761 0.85187,0.30713 1.70374,0.61425 2.45837,0.89808 0.29172,0.0699 0.58347,0.13992 0.77793,0.18655 0.41229,-0.004 0.77399,-0.22572 0.96448,-0.59139 0.4045,-0.82858 0.20605,-1.2875 -0.13627,-1.57527 z" />
		<path
   id="FACE-LEFT-WHITE"
   inkscape:label="HEAD-SIDE"
   class="st1"
   d="m 225.51015,225.80382 c -0.002,-0.15602 -4.6e-4,-0.0767 -0.003,-0.28229 0.29799,0.12546 0.29799,0.12546 0.39524,0.14877 2.70158,0.92392 4.94519,0.30928 6.96351,-1.67474 1.46614,-1.39659 2.10372,-3.19757 2.37564,-5.18906 0.22528,-1.79703 -0.0823,-3.51614 -0.80215,-5.23131 -0.61864,-1.27955 -1.45511,-2.50851 -2.60268,-3.29789 -2.1006,-1.53212 -4.40715,-1.77677 -6.8457,-0.61338 -0.12058,0.0739 -0.33838,0.12452 -0.48226,0.29569 -0.17115,-0.14389 -0.14784,-0.24112 -0.10119,-0.43561 0.27588,-1.57921 1.01466,-2.94456 2.19301,-3.99882 0.50557,-0.39293 0.98784,-0.68862 1.44676,-0.88707 2.0069,-0.64991 4.06439,-1.08199 6.12189,-1.51407 2.25199,-0.38545 4.60121,-0.74759 6.90379,-0.91524 0.25633,-0.0207 0.41229,-0.004 0.50954,0.0194 0.0973,0.0233 0.19448,0.0466 0.17115,0.14388 -0.0233,0.0973 -0.14387,0.17117 -0.1672,0.26842 -1.67601,2.27179 -2.30567,4.89733 -2.15738,7.70945 0.0858,1.35744 0.14828,2.81212 0.13685,4.14624 -0.0233,0.0973 0.0273,0.31505 0.004,0.41228 -0.0233,0.0973 -0.14389,0.17116 -0.24112,0.14784 -0.58346,-0.13992 -1.04635,-0.35377 -1.53258,-0.47038 -0.19447,-0.0466 -0.4862,-0.11659 -0.68069,-0.16324 -0.58347,-0.13992 -1.18628,0.22969 -1.42343,0.78982 -0.23718,0.56015 0.10911,1.2602 0.66925,1.49738 0.56015,0.23717 1.24084,0.40041 1.80096,0.63757 0.38898,0.0933 0.65738,0.26049 1.04636,0.35378 0.38896,0.0933 0.53682,0.33441 0.46686,0.62613 0.0312,0.72734 0.0625,1.45468 0.0704,2.27926 0.0273,0.31505 0.0546,0.63011 0.0818,0.94515 -0.24113,0.14784 -0.4356,0.10119 -0.65342,0.15181 -0.92183,-0.0154 -1.94089,-0.0541 -2.86274,-0.0695 -0.35108,0.004 -0.50953,-0.0194 -0.72734,0.0312 -0.53285,0.0779 -0.9645,0.59139 -0.98385,1.10093 -0.0427,0.60678 0.35025,1.11235 0.9337,1.25227 0.19449,0.0466 0.37779,0.0212 0.60678,0.0427 1.11632,0.062 2.25595,0.0268 3.37227,0.0889 0.31505,-0.0273 0.38896,0.0933 0.41624,0.40833 0.0119,1.23687 0.14432,2.39984 0.15621,3.6367 0.0506,0.2178 -0.0837,0.29884 -0.28777,0.34233 -0.856,0.2217 -1.64003,0.44957 -2.63698,0.70447 -0.21664,0.0554 -0.38829,0.11059 -0.67674,0.24904 -0.5795,0.27235 -0.91391,0.80917 -0.73878,1.36535 0.17512,0.55618 0.68861,0.98783 1.31872,0.93328 0.34145,-0.047 0.439,-0.0621 0.75066,-0.1285 0.87121,-0.20239 1.6452,-0.42813 2.41917,-0.65385 0.31822,-0.0643 0.41229,-0.004 0.46291,0.21385 0.35025,1.11235 0.93364,2.31181 1.5836,3.25917 0.26669,0.32613 0.46686,0.62615 0.71193,0.89058 -0.51341,0.006 -0.63356,-10e-4 -1.20929,6e-4 -5.22693,-0.65546 -8.2193,-1.85039 -12.07028,-3.80228 -1.09696,-0.57158 -2.02939,-1.4155 -2.77855,-2.40294 -0.57173,-0.77124 -1.10274,-1.54153 -1.40636,-2.84837 z" />
		<path
   id="SHADOW"
   inkscape:label="HEAD-SIDE-SHADOW"
   class="st3"
   d="m 225.50668,225.52153 c 0,0 0.0739,0.12056 0,0 0.76255,1.10838 1.41419,2.28404 2.09316,3.27853 0.70279,1.02939 1.36393,1.63102 2.32634,2.3061 0.63406,0.35772 1.26811,0.71545 1.9255,0.97595 1.0976,0.459 1.97214,0.78146 2.92125,1.11191 1.27979,0.38821 5.79814,1.66227 6.7966,1.90184 0.0973,0.0233 1.22791,0.22828 1.42238,0.27491 -1.21264,0.022 -11.4902,-0.0549 -12.22487,-0.0524 -1.85824,0.053 -2.7967,-0.77355 -3.63318,-2.00251 -0.68861,-0.98782 -1.06219,-2.00293 -1.29187,-3.18921 -0.2803,-1.40408 -0.31945,-2.95599 -0.33531,-4.60516 z" />
		<path
   id="FACE-RIGHT-WHITE"
   inkscape:label="FACE-FRONT"
   class="st1"
   d="m 243.43014,227.96887 c -0.0585,-1.04239 -0.11705,-2.08478 -0.10163,-3.00661 -0.0506,-0.2178 0.07,-0.29173 0.28776,-0.34231 1.11632,0.062 2.25594,0.0268 3.37225,0.0889 0.31505,-0.0273 0.70402,0.066 1.01906,0.0387 0.84792,-0.10517 1.32622,-0.81316 1.10048,-1.58713 -0.10121,-0.43561 -0.3463,-0.70007 -0.8325,-0.81668 -0.29173,-0.07 -0.58347,-0.13992 -0.8985,-0.11263 -1.23688,0.0119 -2.45042,-0.0735 -3.78455,-0.0849 -0.41229,0.004 -0.48622,-0.11661 -0.49019,-0.5289 -0.0545,-0.6301 -0.0858,-1.35744 -0.14036,-1.98752 -0.0273,-0.31506 0.19052,-0.36564 0.48224,-0.29568 1.43532,0.44705 2.84732,0.99134 4.28265,1.43838 0.19447,0.0466 0.38896,0.0933 0.48621,0.11661 0.50953,0.0193 0.99177,-0.27634 1.22896,-0.83647 0.21385,-0.46289 0.0387,-1.01908 -0.4981,-1.35349 -0.17117,-0.14387 -0.36564,-0.19052 -0.56015,-0.23716 -1.53256,-0.47039 -3.04179,-1.038 -4.57437,-1.50835 -0.94911,-0.33046 -0.94911,-0.33046 -0.9337,-1.25228 -0.0158,-1.64918 -0.15224,-3.22442 -0.16809,-4.87358 -0.008,-0.82458 0.007,-1.7464 0.0968,-2.54766 0.34584,-1.87093 1.15459,-3.52802 2.59738,-4.82738 1.17835,-1.05428 2.53185,-1.55238 4.06044,-1.49428 1.33413,0.0114 2.76548,0.0462 4.0996,0.0576 8.0047,0.0687 16.0094,0.13727 24.13464,0.13199 0.50955,0.0194 0.92185,0.0154 1.33411,0.0114 1.23691,-0.0119 2.35714,0.46244 3.40747,1.2285 1.39264,1.05383 2.27969,2.50058 2.70785,4.14579 0.29966,0.89455 0.47873,1.86301 0.44004,2.88208 -0.0269,2.25594 0.0669,4.43796 0.04,6.69391 l -0.0233,0.0973 c -0.0194,0.50953 -0.0194,0.50953 -0.45496,0.61073 -0.65344,0.15181 -1.40408,0.2803 -2.05749,0.4321 -0.21783,0.0506 -0.53287,0.0779 -0.67676,0.24904 -0.5795,0.27235 -0.71942,0.85582 -0.32648,1.36139 0.43433,0.40029 0.43433,0.40029 1.02304,0.451 0.31504,-0.0273 0.53284,-0.0779 0.84787,-0.10516 0.53287,-0.0779 0.96848,-0.17908 1.40409,-0.28031 0.2178,-0.0506 0.29172,0.07 0.36563,0.19054 -0.0154,0.92183 0.0431,1.9642 0.0277,2.88604 -0.43561,0.1012 -1.82034,-0.12805 -2.13538,-0.10076 -0.50955,-0.0194 -0.79733,0.32296 -0.89059,0.71192 -0.0933,0.38897 0.10513,0.8479 0.56805,1.06174 0.17118,0.14389 0.46289,0.21385 0.65738,0.2605 0.50952,0.0194 0.99576,0.13596 1.50528,0.15533 0.29172,0.07 0.38898,0.0933 0.41626,0.40833 0.0546,0.63011 0.0119,1.23688 0.0431,1.96422 -0.0467,0.19447 -0.07,0.29173 -0.36169,0.22177 -0.65738,-0.2605 -1.4353,-0.44707 -2.09271,-0.70755 -0.29172,-0.07 -0.58347,-0.13993 -0.8985,-0.11263 -0.43561,0.1012 -0.70008,0.34629 -0.79334,0.73525 -0.0933,0.38897 0.0312,0.72734 0.37357,1.0151 0.24509,0.26445 0.63406,0.35773 1.02304,0.45102 0.65738,0.26049 1.43533,0.44705 2.09271,0.70754 0.29172,0.07 0.36563,0.19052 0.29569,0.48224 -0.66092,1.89821 -1.66413,3.50866 -3.54648,4.49693 -0.72339,0.44354 -1.57129,0.54869 -2.39591,0.55662 -1.86694,0.0664 -3.73394,0.13288 -5.60089,0.19933 -7.56512,0.24245 -15.13028,0.48489 -22.59816,0.75067 -3.32165,0.12892 -5.51951,-1.42653 -7.00192,-4.25007 -0.19846,-0.45893 -0.3969,-0.91788 -0.49809,-1.35349 0.31108,-0.43956 3.45759,-1.12468 4.54663,-1.37769 0.2178,-0.0506 0.55618,-0.17512 0.77397,-0.22572 0.5795,-0.27235 0.81668,-0.8325 0.66487,-1.48593 -0.17512,-0.55617 -0.68861,-0.98782 -1.31871,-0.93326 -0.21782,0.0506 -0.43561,0.1012 -0.65343,0.1518 -1.20961,0.32693 -4.16159,1.05871 -4.49997,1.18324 z" />
		<path
   id="MOUTH"
   class="st0"
   d="m 271.24817,227.75017 c -1.74597,2.5635 -4.18454,3.72691 -7.2923,3.39294 -2.20932,-0.22133 -3.99093,-1.36844 -5.19699,-3.20019 -1.30331,-1.85509 -1.9299,-3.95923 -1.87973,-6.31241 0.0194,-0.50954 0.13596,-0.99576 0.25256,-1.48197 0.11658,-0.48622 0.50162,-0.80522 1.01114,-0.78587 0.41229,-0.004 0.92182,0.0154 1.33414,0.0114 0.8985,0.11264 1.89426,0.24861 2.81607,0.264 3.03388,0.21341 6.0911,0.32956 9.16763,-0.0638 0.94516,-0.0819 1.3108,0.10867 1.70771,1.02655 0.0851,0.26428 0.16735,0.50538 0.17505,0.74302 0.0219,0.67836 -0.008,1.15915 -0.18348,1.71363 -0.39352,1.24269 -1.26184,3.69709 -1.9118,4.69264 z" />
		<path
   id="EYE-RIGHT"
   class="st0"
   d="m 277.42551,209.28152 c 0.58346,0.13993 1.14361,0.37711 1.68039,0.71151 1.70767,1.02655 3.00705,2.46934 3.55972,4.45292 -0.0233,0.0973 0.0506,0.21781 0.0506,0.21781 0.15179,0.65341 0.12848,0.75065 -0.52494,0.90246 -0.33834,0.12453 -0.75067,0.12848 -1.08902,0.25301 -0.33835,0.12453 -0.53286,0.0779 -0.7546,-0.28381 -0.36963,-0.60282 -0.73923,-1.20563 -1.22941,-1.73453 -0.46685,-0.62613 -0.98037,-1.05779 -1.61441,-1.41551 -0.73129,-0.38105 -1.4353,-0.44706 -2.18597,-0.31858 -0.53287,0.0779 -1.01511,0.37358 -1.30289,0.7159 -0.46487,0.55306 -0.92981,1.10606 -1.39468,1.65912 -0.24545,0.29202 -0.61078,0.47275 -0.99228,0.47044 -1.21027,-0.007 -1.68835,-0.66621 -1.34302,-1.58438 0.47434,-1.12027 1.0459,-2.21722 1.8859,-3.14697 0.45495,-0.61073 1.68203,-1.01067 2.40936,-1.04192 1.06571,-0.15576 1.75226,-0.0167 2.84525,0.14253 z" />
		<path
   id="EYE-LEFT"
   class="st0"
   d="m 255.27837,209.00917 c 1.093,0.15929 2.06938,0.80479 2.75798,1.79262 0.36962,0.60283 0.76257,1.10838 1.13217,1.71121 0.29568,0.48224 0.37356,1.01509 0.13641,1.57524 -0.07,0.29173 -0.19055,0.36565 -0.5289,0.49017 -0.45892,0.19846 -0.94513,0.0819 -1.3847,-0.22923 -0.36567,-0.19053 -0.61075,-0.45497 -0.92975,-0.83999 -0.14786,-0.24112 -0.39295,-0.50557 -0.66136,-0.67278 -1.32268,-1.34555 -3.65253,-1.49297 -5.11866,-0.0964 -0.5289,0.49019 -0.96055,1.00368 -1.31826,1.63773 -0.16723,0.26841 -0.45499,0.61073 -0.62218,0.87915 -0.28777,0.34231 -0.62615,0.46686 -1.11235,0.35025 -0.38896,-0.0933 -0.61073,-0.45497 -0.63802,-0.77002 -0.0506,-0.21781 -0.004,-0.41229 0.0194,-0.50954 0.15927,-1.093 0.51305,-2.13934 1.23247,-2.99516 0.96054,-1.00366 2.06894,-1.76621 3.30185,-2.19039 1.23291,-0.42417 2.46979,-0.43606 3.73395,-0.1329 z" />
		<g
   id="g3"
   inkscape:label="ROBOT-EAR">
			<path
   id="EAR-ROBOT-WHITE"
   inkscape:label="ROBOT-EAR-OUTSIDE"
   class="st1"
   d="m 228.54805,223.98852 c 0.12057,-0.0739 0.24113,-0.14782 0.38502,-0.31899 1.41948,-1.20211 2.08432,-2.68804 2.21238,-4.50837 0.0581,-1.52859 -0.19889,-3.0299 -0.91478,-4.33279 -0.56806,-1.06174 -1.30332,-1.85509 -2.37694,-2.5239 -0.26842,-0.16722 -0.53682,-0.33441 -0.80522,-0.50161 -0.0973,-0.0233 -0.17116,-0.14389 -0.17116,-0.14389 -0.0506,-0.21781 0.0662,-0.19674 0.2872,-0.24463 1.15279,-0.0302 1.91814,0.0537 2.8206,0.5786 0.7313,0.38104 1.31871,0.93327 1.76226,1.65664 1.52905,2.62908 1.70063,5.34395 0.24641,7.97742 -0.69212,1.17088 -1.60605,1.98006 -2.9362,2.3809 -0.12058,0.0739 -0.31505,0.0273 -0.43561,0.10122 -2e-5,-4e-5 -0.0973,-0.0233 -0.074,-0.1206 z" />
			<path
   id="EAR-ROBOT-CIRCLE-WHITE"
   inkscape:label="ROBOT-EAR-MIDDLE"
   class="st1"
   d="m 228.72626,219.815 c -0.27985,1.16692 -0.8787,1.94882 -1.8432,2.54019 -0.96451,0.59139 -1.83969,0.3815 -2.43108,-0.583 -0.22177,-0.3617 -0.44353,-0.72339 -0.54474,-1.159 -0.52536,-1.66853 -0.42065,-3.39162 0.17029,-4.99809 0.21385,-0.4629 0.42769,-0.9258 0.8127,-1.2448 0.52888,-0.49017 0.81912,-0.41399 1.38077,-0.18305 0.99971,0.54827 1.83221,1.36492 2.15913,2.57451 0.3969,0.91787 0.45543,1.96025 0.29613,3.05324 z" />
			<path
   id="EAR-ROBOT-DOT"
   inkscape:label="ROBOT-EAR-CENTER"
   class="st0"
   d="m 224.7547,217.93704 c 0.11661,-0.4862 0.50162,-0.80522 0.81667,-0.8325 0.41229,-0.004 0.87518,0.20988 1.07364,0.66881 0.19844,0.45893 0.0818,0.94514 -0.10869,1.3108 -0.33441,0.53682 -1.07765,0.49333 -1.45468,0.0625 -0.34232,-0.28777 -0.44355,-0.72338 -0.32694,-1.2096 z" />
		</g>
		<g
   id="g2"
   inkscape:label="RIGHT-EAR">
			<path
   id="EAR-LEFT-MIDDLE-WHITE"
   inkscape:label="RIGHT-EAR-MIDDLE"
   class="st1"
   d="m 271.55441,199.02969 c 0.95264,-1.82826 5.63877,-6.36038 7.71561,-7.302 0.8035,1.01416 2.57071,5.35857 2.94189,8.31534 -0.70401,-0.066 -0.72735,0.0312 -0.90246,-0.52493 -0.42417,-1.23293 -0.75107,-2.44251 -1.29584,-3.6015 -0.19842,-0.45893 -0.39688,-0.91788 -0.61865,-1.27958 -0.29523,-0.3379 -0.29523,-0.3379 -0.77792,-0.18655 -1.40012,0.69258 -2.55515,1.6496 -3.56232,2.84776 -0.5289,0.49019 -0.96057,1.00366 -1.41553,1.61441 -0.14389,0.17116 -0.33999,0.27954 -0.5795,0.27236 -0.60315,-0.0181 -1.01907,-0.0387 -1.50528,-0.15531 z" />
			<path
   id="EAR-LEFT-INSIDE_1_"
   inkscape:label="RIGHT-EAR-INSIDE"
   class="st1"
   d="m 275.38043,199.24206 c 0.61688,-1.10514 2.19959,-2.81407 2.99133,-3.18113 0.14252,-0.10506 0.36429,-0.0519 0.41205,0.23807 0.33353,1.05459 0.55615,2.08261 0.92124,3.00556 0.0793,0.15827 -0.0947,0.39499 -0.31656,0.34179 l -0.1109,-0.0266 c -1.21997,-0.29259 -2.50308,-0.32185 -3.89716,-0.37769 z" />
		</g>
		<g
   id="g1"
   inkscape:label="LEFT-EAR">
			<path
   id="EAR-RIGHT-MIDDLE-WHITE"
   inkscape:label="LEFT-EAR-MIDDLE"
   class="st1"
   d="m 236.47021,199.89473 c -0.62614,0.075 -1.00012,0.1478 -1.53297,0.22569 -0.31505,0.0273 -0.60678,-0.0427 -0.85185,-0.30713 -0.83251,-0.81666 -1.68834,-1.53608 -2.54416,-2.2555 -0.78189,-0.59885 -1.58713,-1.10047 -2.53622,-1.43093 -0.46291,-0.21385 -0.5416,-0.0629 -0.79731,0.32297 -0.14428,0.27886 -0.21385,0.46289 -0.28381,0.75462 -0.27985,1.16692 -0.55333,2.24108 -0.71898,3.42682 -0.0842,0.60244 -0.31051,0.6819 -0.86331,1.027 -0.37648,0.18644 -0.15578,0.097 -0.33836,0.12451 -0.13987,0.021 -0.29174,-0.07 -0.24509,-0.26445 0.0233,-0.0973 0.0233,-0.0973 0.0466,-0.19447 0.51306,-2.13935 0.8083,-4.22809 1.32136,-6.36742 0.1166,-0.48622 0.30471,-0.9615 0.47037,-1.53258 0.0836,-0.28811 0.19054,-0.36563 0.45894,-0.19844 0.461,0.21298 0.94174,0.51825 1.36023,0.7361 0.004,0.002 0.007,0.004 0.0103,0.006 2.14513,1.33679 4.04969,2.82123 5.90767,4.49983 0.34233,0.28777 0.68467,0.57553 1.00367,0.96054 0.1544,0.13909 0.24034,0.27925 0.31854,0.45172 z" />
			<path
   id="EAR-LEFT-INSIDE"
   inkscape:label="LEFT-EAR-INSIDE"
   class="st1"
   d="m 228.55275,200.81342 c -0.10742,0.0191 0.13126,-0.54728 0.15457,-0.64452 0.11661,-0.48621 0.2332,-0.97243 0.37312,-1.55588 0.23322,-0.97243 0.23322,-0.97243 1.01511,-0.37358 0.53682,0.33441 1.05031,0.76607 1.56381,1.19772 0.16957,0.16854 0.73685,0.67292 0.8185,0.8068 -1.16663,0.0946 -2.25941,0.17497 -3.53267,0.4821 z" />
		</g>
	</g>
</g>
</svg>
