<?xml version="1.0" encoding="UTF-8" standalone="no"?>
<svg
   version="1.1"
   width="77.702003"
   height="24.700001"
   viewBox="-0.5 -0.49976696 77.702003 24.700001"
   id="svg8"
   sodipodi:docname="pishrobot-scratch-logo.svg"
   inkscape:version="1.3.2 (091e20e, 2023-11-25, custom)"
   inkscape:label="TBD"
   xmlns:inkscape="http://www.inkscape.org/namespaces/inkscape"
   xmlns:sodipodi="http://sodipodi.sourceforge.net/DTD/sodipodi-0.dtd"
   xmlns="http://www.w3.org/2000/svg"
   xmlns:svg="http://www.w3.org/2000/svg">
  <defs
     id="defs12">
    <linearGradient
       id="linearGradient6035"
       inkscape:swatch="solid">
      <stop
         style="stop-color:#000000;stop-opacity:1;"
         offset="0"
         id="stop6033" />
    </linearGradient>
  </defs>
  <sodipodi:namedview
     id="namedview10"
     pagecolor="#ffffff"
     bordercolor="#666666"
     borderopacity="1.0"
     inkscape:pageshadow="2"
     inkscape:pageopacity="0.0"
     inkscape:pagecheckerboard="0"
     showgrid="false"
     inkscape:zoom="7.2674864"
     inkscape:cx="30.615812"
     inkscape:cy="11.214331"
     inkscape:window-width="1600"
     inkscape:window-height="847"
     inkscape:window-x="-8"
     inkscape:window-y="-8"
     inkscape:window-maximized="1"
     inkscape:current-layer="svg8"
     width="600px"
     height="24.7px"
     inkscape:lockguides="false"
     inkscape:showpageshadow="2"
     inkscape:deskcolor="#d1d1d1"
     showguides="true">
    <sodipodi:guide
       position="32.875,19.325001"
       orientation="0,-1"
       id="guide1"
       inkscape:locked="false" />
    <sodipodi:guide
       position="9.375,5.5750008"
       orientation="0,-1"
       id="guide3"
       inkscape:locked="false" />
    <sodipodi:guide
       position="19.9375,12.012501"
       orientation="0,-1"
       id="guide4"
       inkscape:locked="false" />
    <sodipodi:guide
       position="21.121471,18.095241"
       orientation="0,-1"
       id="guide68"
       inkscape:locked="false" />
  </sodipodi:namedview>
  <!-- Exported by Scratch - http://scratch.mit.edu/ -->
  <g
     id="g47"
     transform="translate(0.99781769,-0.63149623)"
     inkscape:label="PISHROBOT-LOGO">
    <g
       id="g110"
       inkscape:label="PISHROBOT-BACKGROUND"
       style="display:inline;mix-blend-mode:normal;stroke:#ffffff;stroke-width:64.7422;stroke-linecap:round;stroke-linejoin:round;stroke-miterlimit:4;stroke-dasharray:none;stroke-opacity:1;paint-order:normal"
       transform="matrix(0.18680151,0,0,0.1869885,8.3156981,-21.266872)">
      <g
         id="g100"
         inkscape:label="ROBOT"
         transform="translate(280.06982,107.84455)"
         style="stroke:#ffffff;stroke-width:64.7422;stroke-linecap:round;stroke-linejoin:round;stroke-miterlimit:4;stroke-dasharray:none;stroke-opacity:1;paint-order:normal">
        <g
           id="g91"
           transform="translate(-59.450266,-107.59903)"
           inkscape:label="ID0.027221741154789925-9-T"
           style="display:inline;stroke:#ffffff;stroke-width:64.7422;stroke-linecap:round;stroke-linejoin:round;stroke-miterlimit:4;stroke-dasharray:none;stroke-opacity:1;paint-order:normal">
          <g
             id="g90"
             inkscape:label="T-F"
             style="stroke:#ffffff;stroke-width:64.7422;stroke-linecap:round;stroke-linejoin:round;stroke-miterlimit:4;stroke-dasharray:none;stroke-opacity:1;paint-order:normal">
            <path
               id="path89"
               fill="#ffffff"
               d="m 110.64226,159.72279 c -0.41001,1.643 -0.76202,3.87 -1.05503,6.685 -0.119,1.40799 -0.061,2.55099 0.17601,3.43099 0.40801,1.467 0.38101,2.435 -0.088,2.903 -0.64602,0.586 -1.52504,0.879 -2.63907,0.879 -1.29103,0 -2.14305,-0.383 -2.55106,-1.151 -0.061,-2.362 -0.031,-4.578 0.088,-6.64599 0.115,-2.54 0.176,-3.869 0.176,-3.987 -0.061,0 -0.148,-0.059 -0.26401,-0.178 -5.455142,0.237 -10.58627,0.589 -15.394392,1.059 -0.118,0.589 -0.118,1.528 0,2.82 0.23301,1.82199 0.35201,2.87999 0.35201,3.17199 -0.234,1.822 -0.35201,4.524 -0.35201,8.109 0.23301,1.528 0.35201,8.07999 0.35201,19.65499 v 6.43499 c 0,0.999 0.14501,1.704 0.43601,2.115 h 5.401142 c 0.98702,-0.117 1.78504,0.118 2.39606,0.704 0.60901,0.587 0.914018,1.29 0.914018,2.11 0,1.289 -0.615018,2.199 -1.847048,2.728 -0.76302,0.292 -2.11105,0.352 -4.0461,0.176 -0.93802,-0.06 -2.317052,-0.06 -4.135102,0 -1.64204,0.204 -4.2801,0.409 -7.91619,0.615 -3.167104,0.117 -5.102158,-0.323 -5.806177,-1.319 -0.470009,-0.703 -0.470009,-1.437 0,-2.199 0.820019,-1.289 2.961086,-1.935 6.422187,-1.935 1.23103,0 1.99205,-0.102 2.28606,-0.307 0.29301,-0.205 0.44001,-0.601 0.44001,-1.187 0,-0.526 0,-1.023 0,-1.492 0,-0.877 0,-2.16499 0,-3.86199 0.176,-2.983 0.176,-7.432 0,-13.343 -0.23501,-8.48499 -0.118,-15.94499 0.35201,-22.38298 -0.059,-0.058 -0.14701,-0.146 -0.26601,-0.264 -2.12305,0.118 -5.543155,0.059 -10.260276,-0.177 -0.531019,0 -2.331056,0.119 -5.396122,0.353 0.762009,5.33699 1.231029,9.35399 1.407028,12.05099 0,0.352 -0.059,1.144 -0.175999,2.375 -0.059,0.879 -0.792019,1.319 -2.199057,1.319 -0.763019,0 -1.202028,-0.262 -1.319028,-0.785 -0.059,-0.115 -0.41101,-1.687 -1.056029,-4.711 -0.352009,-1.977 -0.851018,-4.769 -1.495027,-8.37499 0,-0.23 -0.20601,-0.957 -0.615017,-2.18 -0.35001,-0.989 -0.525007,-1.745 -0.525007,-2.268 0,-0.406 0.277007,-0.917 0.836014,-1.526 0.557009,-0.61 1.393028,-1.004 2.507056,-1.179 0.176,0 0.45301,0 0.836019,0 0.38001,0 0.688019,0 0.923019,0 6.979169,0 10.028245,0 9.148216,0 4.75015,0.177 8.97225,0.177 12.66634,0 5.277132,-0.233 10.495266,-0.703 15.657402,-1.407 0.352,-0.176 0.87902,-0.352 1.58203,-0.527 1.29104,-0.117 2.34607,0.176 3.16809,0.88 0.82002,0.702 1.11303,1.641 0.87902,2.814 z"
               stroke-width="1"
               style="stroke:#ffffff;stroke-width:64.7422;stroke-linecap:round;stroke-linejoin:round;stroke-miterlimit:4;stroke-dasharray:none;stroke-opacity:1;paint-order:normal" />
          </g>
        </g>
        <g
           id="g93"
           transform="translate(-79.828236,-119.20599)"
           style="display:inline;stroke:#ffffff;stroke-width:64.7422;stroke-linecap:round;stroke-linejoin:round;stroke-miterlimit:4;stroke-dasharray:none;stroke-opacity:1;paint-order:normal"
           inkscape:label="ID0.4667737828567624-O">
          <g
             id="g92"
             inkscape:label="O-F"
             style="stroke:#ffffff;stroke-width:64.7422;stroke-linecap:round;stroke-linejoin:round;stroke-miterlimit:4;stroke-dasharray:none;stroke-opacity:1;paint-order:normal">
            <path
               id="path91"
               fill="#ffffff"
               d="m 78.477033,181.88921 c 0,1.84449 -0.400355,4.96059 -1.196831,9.34574 -0.24905,1.59546 -0.747167,3.2657 -1.496034,5.0099 -1.147535,2.5925 -3.102593,4.8858 -5.868565,6.87905 -2.766824,1.99325 -5.446102,2.9903 -8.037821,2.9903 -0.847475,0 -1.620151,-0.1241 -2.318019,-0.37315 -3.788537,-1.19595 -6.728773,-3.46375 -8.822384,-6.80425 -0.400358,-0.64685 -0.923125,-1.7442 -1.570843,-3.28949 -0.697866,-1.7442 -1.083783,-3.08975 -1.158584,-4.03751 -0.0748,-0.94605 -0.261808,-2.19215 -0.561016,-3.73745 v -5.53348 c 0.198908,-0.0986 0.09946,-0.2482 -0.299209,-0.44796 h 0.448817 c 0,-0.24905 0.0986,-0.7225 0.299208,-1.42035 0.198051,-0.69785 0.299209,-1.22145 0.299209,-1.57079 0,-0.29921 -0.0748,-0.57291 -0.224408,-0.82281 0.198058,0 0.373158,-0.0748 0.522767,-0.2244 -0.05015,-0.0994 -0.175109,-0.14959 -0.373168,-0.14959 0.0493,-0.0493 0.136859,-0.1241 0.261809,-0.22441 0.124108,-0.0994 0.211659,-0.17425 0.262659,-0.2244 -0.051,-0.0501 -0.1122,-0.0875 -0.18785,-0.11305 -0.0748,-0.0238 -0.137709,-0.0612 -0.187009,-0.1122 0.300059,-0.7973 0.572917,-1.8938 0.822826,-3.2895 0.19805,-1.1458 0.598417,-2.71575 1.195984,-4.70984 0.897617,-2.89 2.941076,-5.88115 6.13122,-8.9726 0.897618,-0.8466 1.869189,-1.37021 2.916414,-1.56995 0.149609,0 1.121184,-0.0501 2.916436,-0.15045 2.492269,-0.0986 4.834086,0.42415 7.027996,1.5708 2.543272,1.29625 4.535721,3.2402 5.981614,5.83184 0.748867,1.34556 1.445893,3.16541 2.093609,5.45785 0.748868,2.5415 1.122033,4.73536 1.122033,6.579 v 4.11315 z m -4.934383,-8.29855 c -0.297508,-0.697 -0.646017,-1.5946 -1.042975,-2.69195 -0.498116,-2.24314 -1.976306,-4.31034 -4.434571,-6.20584 -2.459119,-1.89381 -4.731229,-2.74041 -6.818039,-2.5415 -0.943526,0.1003 -2.533927,1.6711 -4.770327,4.7107 -1.093131,1.44585 -2.185406,4.33669 -3.27769,8.67254 -0.993676,4.0375 -1.466292,7.15275 -1.415293,9.34574 0.09861,2.7914 0.248208,4.73535 0.447117,5.831 0.346808,2.04426 1.092284,3.9134 2.23471,5.6083 1.093134,1.49515 1.938059,2.4667 2.53392,2.91635 2.234703,1.59545 4.345313,2.3919 6.333523,2.3919 0.446258,0 0.868717,-0.0493 1.266534,-0.1496 0.943525,-0.1496 2.06046,-0.7718 3.352495,-1.86915 1.093124,-0.99705 1.912548,-1.91845 2.459965,-2.76676 0.744615,-1.24523 1.44079,-3.11439 2.086806,-5.60744 0.992824,-3.638 1.490942,-7.50125 1.490942,-11.58889 0.0017,-2.19215 -0.147909,-4.2109 -0.447117,-6.0554 z"
               stroke-width="1"
               style="stroke:#ffffff;stroke-width:64.7422;stroke-linecap:round;stroke-linejoin:round;stroke-miterlimit:4;stroke-dasharray:none;stroke-opacity:1;paint-order:normal" />
          </g>
        </g>
        <g
           id="g95"
           transform="translate(-121.62828,-99.142535)"
           style="display:inline;stroke:#ffffff;stroke-width:64.7422;stroke-linecap:round;stroke-linejoin:round;stroke-miterlimit:4;stroke-dasharray:none;stroke-opacity:1;paint-order:normal"
           inkscape:label="ID0.4668309511616826-B">
          <g
             id="g94"
             inkscape:label="B-F"
             style="stroke:#ffffff;stroke-width:64.7422;stroke-linecap:round;stroke-linejoin:round;stroke-miterlimit:4;stroke-dasharray:none;stroke-opacity:1;paint-order:normal">
            <path
               id="path93"
               fill="#ffffff"
               d="m 87.67899,184.19311 c -0.587,2.463 -2.258,4.692 -5.014,6.685 -2.345998,1.643 -4.397995,2.846 -6.156992,3.606 -1.758997,0.763 -3.488988,1.496 -5.188976,2.199 -1.290994,0.528 -3.548979,1.174 -6.772958,1.936 -3.51899,0.822 -6.15699,1.555 -7.91599,2.199 -2.17,0.821 -3.461,1.174 -3.87,1.056 -0.587,-0.177 -0.998,-0.353 -1.230998,-0.528 -0.411,-0.293 -0.704,-0.673 -0.88,-1.144 -0.235,-0.88 0.117,-1.612 1.055998,-2.199 0.409,-0.293 1.553,-0.585 3.431,-0.88 0,-0.058 -0.044,-0.233 -0.132,-0.527 -0.089,-0.293 -0.133,-0.527 -0.133,-0.704 0.177,-1.348 0.265,-2.08 0.265,-2.198 -0.235,-3.576 -0.616,-8.885 -1.144,-15.921 -0.118,-1.76 -0.206,-3.195 -0.265,-4.311 -0.059,-0.116 -0.176,-0.264 -0.352,-0.439 0.586,-3.812 0.41,-8.502 -0.527,-14.074 l 0.176,-0.176 c -0.528,-0.058 -1.056,-0.088 -1.582998,-0.088 -0.471,0 -1.086,0.06 -1.848,0.176 -0.763,0.118 -1.349,0.176 -1.759,0.176 -1.28901,0 -2.521009,-0.538 -3.694009,-1.616 -0.058,-0.658 -0.058,-1.047 0,-1.166 0.527,-1.193 2.197999,-1.703 5.014009,-1.527 0.176,0 0.659,-0.058 1.451,-0.176 0.792,-0.117 1.332998,-0.205 1.626998,-0.264 0.293,-0.059 0.732,-0.146 1.319,-0.265 8.562,-0.409 13.398975,-0.557 14.513966,-0.439 3.811976,0.294 6.361961,0.587 7.651959,0.88 3.459995,0.821 5.862991,2.258 7.212991,4.31 0.469,0.763 0.527,1.906 0.176,3.431 -0.646,2.287 -2.520998,4.281 -5.628993,5.981 -1.230999,0.703 -3.753993,1.73 -7.563966,3.078 8.267965,1.702 14.042959,4.868 17.327959,9.5 0.35,0.526 0.496,1.669 0.438,3.429 z m -12.928989,-25.861 c -2.110988,-0.586 -4.661973,-0.938 -7.652955,-1.056 h -4.74997 c -1.350002,0 -2.814002,0.176 -4.397002,0.527 0.469,3.285 0.732,5.689 0.792,7.213 v 5.278 c 3.048,-0.469 7.240981,-1.612 12.577948,-3.431 2.755982,-0.938 4.484977,-1.905 5.188976,-2.903 0.937999,-1.348 1.406998,-2.345 1.406998,-2.99 0,-1.171 -1.055999,-2.051 -3.165995,-2.638 z m 7.386989,26.653 c 0.469,-0.938 0.469,-1.729 0,-2.375 -4.221994,-5.219 -10.437971,-7.829 -18.64692,-7.829 -1.349996,0 -2.813996,0.06 -4.396996,0.176 0.293,6.1 0.732,12.345 1.319,18.736 0,0.41 0,0.646 0,0.703 0.232,0.411 0.436,0.88 0.61,1.407 3.141993,-0.352 7.081966,-1.539 11.822936,-3.562 4.739986,-2.023 7.838982,-4.442 9.29198,-7.256 z"
               stroke-width="1"
               style="stroke:#ffffff;stroke-width:64.7422;stroke-linecap:round;stroke-linejoin:round;stroke-miterlimit:4;stroke-dasharray:none;stroke-opacity:1;paint-order:normal" />
          </g>
        </g>
        <g
           id="g97"
           transform="translate(-154.29196,-115.76006)"
           style="display:inline;stroke:#ffffff;stroke-width:64.7422;stroke-linecap:round;stroke-linejoin:round;stroke-miterlimit:4;stroke-dasharray:none;stroke-opacity:1;paint-order:normal"
           inkscape:label="ID0.4667737828567624-O">
          <g
             id="g96"
             inkscape:label="O-F"
             style="stroke:#ffffff;stroke-width:64.7422;stroke-linecap:round;stroke-linejoin:round;stroke-miterlimit:4;stroke-dasharray:none;stroke-opacity:1;paint-order:normal">
            <path
               id="path95"
               fill="#ffffff"
               d="m 80.588972,179.92215 c 0,1.953 -0.423907,5.2524 -1.267228,9.89549 -0.263709,1.6893 -0.791113,3.4578 -1.584037,5.3046 -1.21502,2.745 -3.28507,5.17321 -6.213752,7.2837 -2.929581,2.1105 -5.766471,3.1662 -8.510643,3.1662 -0.897318,0 -1.715445,-0.1314 -2.454363,-0.39511 -4.011417,-1.2663 -7.124611,-3.6675 -9.341374,-7.20449 -0.423909,-0.6849 -0.977427,-1.84679 -1.663247,-3.483 -0.738918,-1.8468 -1.147527,-3.2715 -1.226736,-4.275 -0.0792,-1.0017 -0.2772,-2.3211 -0.59401,-3.95729 v -5.859 c 0.210601,-0.1044 0.105301,-0.2628 -0.316808,-0.4743 h 0.475209 c 0,-0.2637 0.1044,-0.765 0.316809,-1.5039 0.209709,-0.7389 0.316809,-1.2933 0.316809,-1.6632 0,-0.3168 -0.0792,-0.6066 -0.237609,-0.8712 0.209709,0 0.395118,-0.0792 0.553518,-0.2376 -0.0531,-0.1053 -0.185409,-0.1584 -0.395109,-0.1584 0.0522,-0.0522 0.1449,-0.1314 0.277208,-0.2376 0.131401,-0.1053 0.224101,-0.1845 0.27811,-0.2376 -0.054,-0.0531 -0.118809,-0.0927 -0.198909,-0.1197 -0.0792,-0.0252 -0.145809,-0.0648 -0.19801,-0.1188 0.31771,-0.8442 0.606619,-2.00519 0.871228,-3.48299 0.209709,-1.2132 0.63362,-2.8755 1.266338,-4.9869 0.950426,-3.06 3.11409,-6.2271 6.491884,-9.5004 0.950427,-0.89639 1.979154,-1.4508 3.08799,-1.6623 0.1584,0 1.187136,-0.0531 3.08799,-0.15929 2.638872,-0.1044 5.118443,0.4491 7.441407,1.6632 2.692872,1.3725 4.802529,3.43079 6.333466,6.17489 0.792913,1.4247 1.530925,3.3516 2.21675,5.7789 0.792912,2.691 1.188018,5.01389 1.188018,6.96599 v 4.3551 z m -5.224613,-8.78669 c -0.315006,-0.738 -0.684012,-1.68841 -1.104332,-2.8503 -0.527409,-2.37511 -2.092554,-4.5639 -4.695426,-6.5709 -2.603772,-2.0052 -5.009551,-2.90159 -7.219107,-2.69099 -0.999027,0.1062 -2.682973,1.76939 -5.050944,4.98778 -1.157427,1.53091 -2.313967,4.5918 -3.470494,9.18271 -1.052136,4.27499 -1.552545,7.57349 -1.498545,9.89549 0.104399,2.9556 0.262809,5.01389 0.473409,6.174 0.367218,2.16449 1.156536,4.14359 2.366172,5.9382 1.157431,1.58309 2.052058,2.61179 2.682976,3.08789 2.366172,1.68931 4.600935,2.5326 6.706082,2.5326 0.472515,0 0.919824,-0.0522 1.341034,-0.1584 0.999036,-0.1584 2.181672,-0.8172 3.549708,-1.9791 1.157436,-1.0557 2.025063,-2.03129 2.604681,-2.9295 0.788418,-1.3185 1.525536,-3.2976 2.209554,-5.9373 1.051232,-3.85199 1.578638,-7.94249 1.578638,-12.27059 0.0018,-2.3211 -0.156599,-4.45859 -0.473406,-6.41159 z"
               stroke-width="1"
               style="stroke:#ffffff;stroke-width:64.7422;stroke-linecap:round;stroke-linejoin:round;stroke-miterlimit:4;stroke-dasharray:none;stroke-opacity:1;paint-order:normal" />
          </g>
        </g>
        <g
           id="g99"
           transform="translate(-193.80489,-109.93892)"
           style="display:inline;stroke:#ffffff;stroke-width:64.7422;stroke-linecap:round;stroke-linejoin:round;stroke-miterlimit:4;stroke-dasharray:none;stroke-opacity:1;paint-order:normal"
           inkscape:label="ID0.5629414552822709-R">
          <g
             id="g98"
             inkscape:label="R-F"
             style="stroke:#ffffff;stroke-width:64.7422;stroke-linecap:round;stroke-linejoin:round;stroke-miterlimit:4;stroke-dasharray:none;stroke-opacity:1;paint-order:normal">
            <path
               id="path97"
               fill="#ffffff"
               d="m 91.897228,203.02582 c 0.233,0.88 -0.161,2.215 -1.186,4.003 -1.023,1.789 -2.104994,3.064 -3.245988,3.826 -1.141001,0.762 -2.911009,1.261 -5.308004,1.495 -1.931001,0.176 -3.730001,-0.675 -5.395996,-2.551 -1.668,-1.876 -2.617,-3.958 -2.851,-6.245 -0.645,-6.45 -1.464,-11.083 -2.458,-13.898 -0.118,-0.703 -0.439,-1.743 -0.965996,-3.122 -0.526,-1.377 -1.725,-2.507 -3.596998,-3.387 -1.404997,-0.527 -2.836997,-1.084 -4.298997,-1.671 -0.234,-0.058 -0.526,-0.058 -0.877,0 -0.819,0.234 -2.517,0.703 -5.09,1.407 v 1.671 6.861 c 0,0.118 0.044,0.675 0.132,1.671 0.088,0.998 0.132,1.702 0.132,2.111 0.117,0.998 0.265,3.637 0.44,7.916 0.409,0.177 0.849,0.177 1.319,0 1.583,-0.645 2.99,-0.791 4.222,-0.439 0.88,0.294 1.319,0.998 1.319,2.111 0,1.643 -0.865,2.625 -2.595,2.946 -1.73,0.323 -4.266,0.778 -7.608,1.364 -2.698,0.527 -4.692,0.791 -5.981,0.791 -1.994002,0 -3.373002,-0.469 -4.134002,-1.407 -0.176,-1.936 0.82,-3.107 2.99,-3.519 1.760002,-0.176 3.519002,-0.381 5.277002,-0.616 0.234,-0.292 0.353,-0.615 0.353,-0.967 -0.06,-1.349 -0.382,-6.187 -0.968,-14.514 -0.176,-1.993 -0.235,-3.519 -0.176,-4.574 -1.056,-0.058 -1.76,-0.146 -2.111,-0.264 -0.88,-0.293 -1.438002,-0.85 -1.671002,-1.671 v -0.265 c 0.116,-0.058 0.204,-0.352 0.264,-0.879 0.820002,-1.29 1.876002,-1.788 3.167002,-1.496 0.116,-0.352 0.088,-1.289 -0.089,-2.814 -0.527,-5.57 -0.851,-10.027 -0.967,-13.37 -0.235,-0.233 -0.734,-0.293 -1.496,-0.176 -1.173002,0.235 -1.789002,0.352 -1.847002,0.352 -3.167,0 -4.692,-0.761 -4.574,-2.287 0.117,-1.407 1.319,-2.256 3.606,-2.551 2.052,-0.409 6.362001,-1.055 12.931001,-1.935 -0.294,0.059 1.788,0.146 6.245,0.264 5.158996,0.411 8.765992,1.262 10.818992,2.551 2.227995,1.467 3.722995,3.401 4.484995,5.806 0.233,0.763 0.293,1.906 0.176,3.431 -0.059,1.525 -0.294,2.609 -0.703,3.254 -1.35,2.463 -4.075995,4.662 -8.180995,6.598 0,0.176 0.029,0.294 0.088,0.352 1.466,1.056 2.463,1.994 2.991,2.814 1.523,2.463 2.551,6.041 3.077995,10.731 0.762,6.393 1.377,10.409 1.847,12.051 0.059,0.352 0.469,0.909 1.231,1.671 0.762,0.764 1.378001,1.174 1.847998,1.231 1.815998,0.118 2.932002,-0.703 3.342999,-2.463 -0.06,-0.645 0.204007,-1.524 0.791004,-2.639 0.821004,-0.762 1.816998,-1.144 2.990992,-1.144 1.175,0.002 1.937,0.531 2.29,1.585 z m -17.591988,-30.874 c 0.527,-0.527 0.791,-1.348 0.791,-2.463 0,-2.99 -1.056,-5.13 -3.166,-6.421 -2.110996,-1.289 -6.685991,-1.876 -13.722991,-1.759 -0.527,0 -1.319,0.234 -2.375,0.703 0.177,0.88 0.177,1.613 0,2.199 -0.059,0.88 -0.059,1.701 0,2.463 0.029,1.583 0.089,3.549 0.177,5.894 0.292,3.46 0.439,5.396 0.439,5.805 0.996,-0.058 2.463,-0.352 4.398,-0.879 0.292,-0.293 0.703,-0.616 1.231,-0.968 0.409,-0.117 1.465,-0.176 3.166,-0.176 3.225995,10e-4 6.246991,-1.464 9.061991,-4.398 z"
               stroke-width="1"
               style="stroke:#ffffff;stroke-width:64.7422;stroke-linecap:round;stroke-linejoin:round;stroke-miterlimit:4;stroke-dasharray:none;stroke-opacity:1;paint-order:normal" />
          </g>
        </g>
      </g>
      <g
         id="g109"
         inkscape:label="PISH"
         transform="translate(90.563562,-57.877051)"
         style="stroke:#ffffff;stroke-width:64.7422;stroke-linecap:round;stroke-linejoin:round;stroke-miterlimit:4;stroke-dasharray:none;stroke-opacity:1;paint-order:normal">
        <g
           id="g102"
           transform="translate(-36.374599,48.043597)"
           style="display:inline;stroke:#ffffff;stroke-width:64.7422;stroke-linecap:round;stroke-linejoin:round;stroke-miterlimit:4;stroke-dasharray:none;stroke-opacity:1;paint-order:normal"
           inkscape:label="ID0.3487820033915341-H">
          <g
             id="g101"
             style="display:inline;stroke:#ffffff;stroke-width:64.7422;stroke-linecap:round;stroke-linejoin:round;stroke-miterlimit:4;stroke-dasharray:none;stroke-opacity:1;paint-order:normal"
             inkscape:label="H-F">
            <path
               id="path100"
               fill="#ffffff"
               d="m 69.90096,211.52756 c 0.0493,0.49726 -0.22525,1.07101 -0.822799,1.71871 -0.5984,0.6477 -1.645599,0.97239 -3.139897,0.97239 -0.34935,0 -0.9231,0 -1.71955,0 -0.797302,0.0493 -1.420352,0.0748 -1.869151,0.0748 -0.946901,0 -1.919302,0.0748 -2.915501,0.22524 -0.5491,0.0986 -1.719549,0.49725 -3.514747,1.19595 -1.595449,0.64686 -2.791397,0.97241 -3.588697,0.97241 -0.64855,0 -1.246949,-0.23716 -1.794348,-0.7106 -0.5491,-0.47431 -0.82195,-1.0353 -0.82195,-1.68216 0,-1.04635 1.220599,-1.8683 3.663497,-2.4667 3.538547,-0.8976 5.357545,-1.37105 5.457845,-1.42035 -0.100297,-3.1892 -0.2244,-6.8527 -0.373149,-10.99135 -0.1496,-3.8879 -0.22525,-5.73155 -0.22525,-5.53265 v -4.1871 c 0,-0.0502 0,-0.4233 0,-1.122 0.05015,-0.54825 0.05015,-0.9452 0,-1.19595 -0.05015,-0.44795 -0.224399,-0.72165 -0.52275,-0.82195 -0.05015,-0.0502 -0.797299,-0.0757 -2.243148,-0.0757 -2.493047,0.051 -5.383045,0.40035 -8.672542,1.04635 -1.246949,0.30005 -3.116098,0.7242 -5.608296,1.2716 v 10.69129 c 0.0493,0.19976 0.0748,1.17216 0.0748,2.91636 0,1.39655 0.15045,2.24315 0.4488,2.5415 0.249049,0.1003 1.569948,0.19975 3.962697,0.30005 1.644748,0.0502 2.665598,0.64854 3.065097,1.7935 0.0986,0.30005 -0.0136,0.748 -0.336599,1.3464 -0.324701,0.59755 -0.66045,0.97239 -1.0098,1.12115 -0.797299,0.2992 -1.345549,0.44795 -1.644749,0.44795 -1.097349,-0.0502 -3.813096,-0.27455 -8.149793,-0.67235 h -4.860295 c -0.7973,-0.051 -1.56995,-0.28815 -2.317948,-0.7106 -0.748,-0.4233 -1.12115,-0.90866 -1.12115,-1.4586 0,-0.79645 0.47345,-1.44415 1.420349,-1.94311 0.748,-0.34849 1.570799,-0.5236 2.467548,-0.5236 0.34765,0 0.9724,0.0136 1.868299,0.0374 0.897598,0.0255 1.544448,0.0136 1.943948,-0.0374 -0.100297,-1.93545 -0.100297,-4.89004 0,-8.86379 0,0.051 0,-2.01025 0,-6.18035 0,-0.14876 0.06205,-0.459 0.18785,-0.9316 0.1241,-0.47175 0.187,-0.83215 0.187,-1.0795 -0.19975,-0.1989 -0.400351,-0.4964 -0.5984,-0.8942 -0.100297,-0.39695 -0.100297,-0.74375 0,-1.04381 0.3485,-0.79474 0.47345,-2.0349 0.37315,-3.72384 0,-0.29751 0.03825,-0.8058 0.113049,-1.52576 0.0748,-0.71994 0.112201,-1.25459 0.112201,-1.60224 0,-0.64515 -0.12495,-2.3579 -0.374,-5.1391 v -6.18206 c 0,-0.29664 -0.09775,-0.76839 -0.29325,-1.41439 -1.370199,0.14959 -2.374048,0.2244 -3.008997,0.2244 -2.838998,0 -4.404696,-1.02085 -4.697096,-3.0651 0.747148,-1.5436 2.117348,-2.31795 4.112297,-2.31795 -0.051,0 1.121148,0.1003 3.513896,0.2992 2.243148,0.19975 3.862397,0.2499 4.860296,0.1496 2.790548,-0.1496 4.037497,-0.2244 3.737446,-0.2244 2.741249,0 3.962697,0.8228 3.664348,2.46755 -0.2499,1.19594 -1.396549,1.81985 -3.439947,1.8683 -1.545299,0.051 -3.064248,0.1003 -4.560246,0.1496 0.261799,1.7459 0.436049,3.68985 0.523599,5.83185 0,1.34554 0,3.2657 0,5.75705 0,2.6911 0,4.63505 0,5.831 0.0493,0.051 0.1241,0.10029 0.2244,0.1496 0.797299,0.051 1.594599,0.0748 2.391898,0.0748 1.843648,0 4.211747,-0.1496 7.102594,-0.44795 3.887896,-0.44794 6.253445,-0.69699 7.101744,-0.74799 0.24905,-1.59461 0.374,-3.48841 0.374,-5.68225 0,-4.13696 -0.34935,-8.77201 -1.04635,-13.90686 0.0493,0 -0.946898,0 -2.991147,0 -1.046349,0 -1.994099,-0.19125 -2.841547,-0.57545 -0.84745,-0.3842 -1.270749,-1.16619 -1.270749,-2.346 0,-0.51254 0.174249,-0.92225 0.523599,-1.2291 0.9962,-0.87125 2.216798,-1.3073 3.663497,-1.3073 2.691947,0 3.787597,0.0748 3.289497,0.2244 h 5.158649 c 0.19805,0 0.6596,-0.0374 1.382953,-0.1122 0.722498,-0.0748 1.283498,-0.1122 1.682148,-0.1122 1.594599,0 2.591647,0.50065 2.991148,1.4977 0.198049,0.40035 0.299199,0.77521 0.299199,1.12285 0,1.0982 -1.021699,1.7476 -3.065097,1.94736 -1.495148,0.051 -2.991151,0.10029 -4.485452,0.14959 0.548252,5.93895 0.822801,11.65435 0.822801,17.14535 v 19.84152 c 0,0.30005 0.06375,0.87465 0.192951,1.7221 0.169999,1.29795 0.255849,2.5704 0.255849,3.8182 -0.05015,2.24655 -0.05015,3.99414 0,5.24194 0.09945,0.14961 0.19805,0.27286 0.2992,0.37316 2.442052,-0.34935 3.638,-0.52275 3.589551,-0.52275 1.794347,0.002 2.740397,0.72335 2.840697,2.17004 z"
               stroke-width="1"
               style="stroke:#ffffff;stroke-width:64.7422;stroke-linecap:round;stroke-linejoin:round;stroke-miterlimit:4;stroke-dasharray:none;stroke-opacity:1;paint-order:normal" />
          </g>
        </g>
        <g
           id="g104"
           transform="translate(-79.570236,67.134422)"
           style="display:inline;stroke:#ffffff;stroke-width:64.7422;stroke-linecap:round;stroke-linejoin:round;stroke-miterlimit:4;stroke-dasharray:none;stroke-opacity:1;paint-order:normal"
           inkscape:label="ID0.9805312547832727-S">
          <g
             id="g103"
             style="display:inline;stroke:#ffffff;stroke-width:64.7422;stroke-linecap:round;stroke-linejoin:round;stroke-miterlimit:4;stroke-dasharray:none;stroke-opacity:1;paint-order:normal"
             inkscape:label="S-F">
            <path
               id="path102"
               fill="#ffffff"
               d="m 67.174454,182.09686 c 0.293,3.637 0.233,5.981 -0.176,7.037 -1.702,4.809 -7.420005,7.828 -17.152005,9.06 -3.285,0.411 -6.568,-1.143 -9.853,-4.662 0,0.528 0.117,2.111 0.353,4.751 0.176,1.935 0.146,3.518 -0.088,4.749 -1.467,0.938 -2.639,1.408 -3.519,1.408 -1.35,0 -2.023,-1.319 -2.023,-3.959 0,-0.469 0.029,-1.216 0.088,-2.242 0.058,-1.025 0.088,-1.744 0.088,-2.155 0,-0.997 -0.088,-1.7 -0.264,-2.111 v -4.838 c 0,-0.117 0.029,-0.249 0.088,-0.396 0.058,-0.146 0.117,-0.278 0.176,-0.396 -0.059,-0.82 -0.03,-2.081 0.088,-3.782 0.117,-1.056 0.117,-1.729 0,-2.023 -0.294,-0.585 -0.439,-0.937 -0.439,-1.055 0.233,-1.642 1.437,-2.463 3.606,-2.463 1.407,0 2.257,0.499 2.551,1.495 0,0.938 0.117,2.317 0.352,4.134 0.353,2.111 1.466,4.223 3.343,6.333 2.052,2.405 4.016,3.519 5.894,3.343 2.111,-0.233 4.222,-0.732 6.333,-1.495 2.932,-1.056 4.691,-2.287 5.278,-3.694 0.409,-1.056 0.615,-2.169 0.615,-3.343 0,-3.576 -1.319,-6.245 -3.958,-8.004 -1.174,-0.762 -3.343,-1.378 -6.51,-1.848 -1.818,-0.233 -2.933,-0.352 -3.342,-0.352 -2.815,0.059 -5.44,-0.85 -7.873,-2.727 -2.434,-1.876 -3.65,-4.047 -3.65,-6.51 v -5.101 c 0,-1.113 0.645,-3.723 1.936,-7.828 0.585,-1.936 0.908,-2.961 0.968,-3.079 0.527,-1.231 1.201,-2.052 2.022,-2.463 1.993,-0.996 4.104,-1.495 6.333,-1.495 4.339,0 7.535,1.759 9.588,5.277 0.176,0.176 0.469,0.44 0.88,0.792 0.058,-0.82 0.176,-2.081 0.352,-3.782 -0.059,-0.762 -0.118,-1.495 -0.176,-2.199 0,-0.82 0.409,-1.377 1.231,-1.671 0.234,-0.117 0.557,-0.205 0.968,-0.264 0.586,-0.117 1.217,0.03 1.892,0.439 0.672995,0.411 0.951995,1.643 0.834995,3.694 -0.059,1.29 -0.176,3.108 -0.352,5.453 -0.176,1.936 -0.438995,4.897 -0.791995,8.885 0.117,0.938 0.117,2.229 0,3.87 -0.294,1.114 -1.174,1.671 -2.639,1.671 -0.763,0 -1.495,-0.205 -2.199,-0.615 -0.352,-1.113 -0.527,-1.584 -0.527,-1.408 0.116,-1.583 -0.206,-3.694 -0.968,-6.333 -0.646,-1.348 -1.539,-3.268 -2.683,-5.761 -1.144,-2.492 -2.654,-3.827 -4.53,-4.003 -2.346,-0.176 -3.87,0.616 -4.574,2.375 -0.234,0.763 -0.558,1.878 -0.967,3.343 -0.704,2.17 -1.144,4.252 -1.32,6.245 -0.059,0.646 -0.118,0.91 -0.176,0.792 0.176,1.174 0.381,2.346 0.616,3.519 0.293,1.466 1.012,2.581 2.155,3.342 1.144,0.763 3.327,1.231 6.553,1.407 7.916,0.471 12.811995,3.227 14.689005,8.269 0.292,0.47 0.585,1.261 0.879,2.374 z"
               stroke-width="1"
               style="stroke:#ffffff;stroke-width:64.7422;stroke-linecap:round;stroke-linejoin:round;stroke-miterlimit:4;stroke-dasharray:none;stroke-opacity:1;paint-order:normal" />
          </g>
        </g>
        <g
           id="g106"
           transform="translate(-93.901766,51.9785)"
           inkscape:label="ID0.0413050539791584-I"
           style="stroke:#ffffff;stroke-width:64.7422;stroke-linecap:round;stroke-linejoin:round;stroke-miterlimit:4;stroke-dasharray:none;stroke-opacity:1;paint-order:normal">
          <g
             id="g105"
             inkscape:label="I-F"
             style="stroke:#ffffff;stroke-width:64.7422;stroke-linecap:round;stroke-linejoin:round;stroke-miterlimit:4;stroke-dasharray:none;stroke-opacity:1;paint-order:normal">
            <path
               id="path104"
               fill="#ffffff"
               d="m 43.169819,154.47109 c 0.0493,0.2499 0.0748,0.49895 0.0748,0.748 0,1.19595 -0.7973,1.96945 -2.3919,2.31795 -1.34555,0.1003 -2.667299,0.2244 -3.962699,0.37315 -0.3995,0.051 -0.57375,0.30005 -0.52275,0.748 0.0493,0.3995 0.0986,0.7973 0.1496,1.19595 0,1.24695 0.0493,3.0651 0.1496,5.45786 v 28.11205 c 0.45305,0.1003 1.4875,0.15045 3.09995,0.15045 1.310699,-0.0501 2.243148,0.1003 2.798199,0.44795 0.35275,0.2499 0.580549,0.7735 0.680849,1.5708 0.0493,0.74715 -0.0748,1.34555 -0.372299,1.7935 -0.54655,0.40035 -1.38975,0.8228 -2.531299,1.2716 l -5.3618,-0.30005 h -1.78755 c -1.78755,0 -3.0787,0 -3.873449,0 -1.540199,-0.0986 -2.3579,-0.1496 -2.4565,-0.1496 -1.09395,-0.19805 -1.788399,-0.697 -2.08505,-1.49515 -0.150449,-0.4488 0.0442,-1.02085 0.58395,-1.71955 0.5389,-0.697 1.101601,-1.12115 1.6881,-1.27075 1.3685,0.0501 3.12885,-0.0995 5.279349,-0.4488 0,-2.79055 0,-8.22461 0,-16.29875 -0.051,-1.59461 -0.051,-3.19006 0,-4.78551 0,-1.99325 0,-3.38894 0,-4.1871 v -5.0099 c 0.0493,-1.19595 -0.0748,-2.79055 -0.374,-4.78465 -1.745049,0.2992 -2.866199,0.44795 -3.364299,0.44795 -1.5453,0 -2.691099,-0.49725 -3.439099,-1.49515 -0.100305,-0.30005 -0.1496,-0.5729 -0.1496,-0.8228 0,-1.94395 2.018749,-3.1144 6.056248,-3.51475 1.8938,-0.19805 3.71195,-0.1496 5.457849,0.15045 1.444999,0.1496 2.916349,0.2992 4.410649,0.44795 1.346399,0.10285 2.0944,0.4505 2.243151,1.0489 z"
               stroke-width="1"
               style="stroke:#ffffff;stroke-width:64.7422;stroke-linecap:round;stroke-linejoin:round;stroke-miterlimit:4;stroke-dasharray:none;stroke-opacity:1;paint-order:normal" />
          </g>
        </g>
        <g
           id="g108"
           style="display:inline;stroke:#ffffff;stroke-width:64.7422;stroke-linecap:round;stroke-linejoin:round;stroke-miterlimit:4;stroke-dasharray:none;stroke-opacity:1;paint-order:normal"
           inkscape:label="ID0.5210809488780797-P"
           transform="translate(-131.06483,63.322243)">
          <g
             id="g107"
             style="display:inline;stroke:#ffffff;stroke-width:64.7422;stroke-linecap:round;stroke-linejoin:round;stroke-miterlimit:4;stroke-dasharray:none;stroke-opacity:1;paint-order:normal"
             inkscape:label="P-F">
            <path
               id="path106"
               fill="#ffffff"
               d="m 62.380812,161.8148 c -0.759961,3.98808 -2.659866,6.94913 -5.696713,8.88417 -2.103894,1.35002 -5.259736,2.37504 -9.465524,3.07905 -5.143741,0.88002 -8.297583,1.52503 -9.465524,1.93604 v 4.57308 c 0.174991,1.87804 0.291985,5.4841 0.349982,10.8192 0.058,3.57707 0.378981,6.48012 0.961952,8.70816 0.058,0.11801 0.494975,0.11801 1.310934,0 1.105945,-0.058 2.79586,-0.205 5.068745,-0.439 0.465977,-0.11701 1.164942,-0.26401 2.097895,-0.44001 1.630918,-0.176 2.736862,0.118 3.319833,0.88001 0.348982,0.41101 0.523973,0.99802 0.523973,1.76004 0,1.46702 -0.658966,2.34604 -1.9789,2.63905 -1.318934,0.294 -2.801859,0.352 -4.441777,0.176 -0.937953,-0.116 -2.141892,-0.088 -3.605818,0.088 -2.110894,0.23501 -3.283835,0.35201 -3.518823,0.35201 -1.230938,0.06 -3.239838,0.295 -6.024698,0.70401 -2.78486,0.40901 -4.764761,0.61601 -5.936702,0.61601 -1.877905,0 -3.226838,-0.359 -4.046796,-1.07402 -0.702965,-0.53701 -0.850958,-1.13402 -0.438978,-1.79003 0.408979,-0.83602 0.879956,-1.34303 1.406929,-1.52103 1.172941,-0.47801 2.813858,-0.71701 4.925752,-0.71701 1.464927,0 3.399829,-0.17401 5.805708,-0.52601 -0.117994,-0.99502 -0.146992,-2.45705 -0.08799,-4.39008 0,-0.46701 -0.06,-1.17103 -0.175991,-2.10804 0,-0.058 -0.044,-0.20301 -0.132994,-0.43701 -0.08799,-0.234 -0.131993,-0.41001 -0.131993,-0.52801 0,-2.16604 -0.03,-3.48206 -0.088,-3.95107 -0.233988,-0.81902 -0.321983,-2.36905 -0.263986,-4.65309 0,-3.21906 0,-5.00309 0,-5.3551 0,-0.35201 -0.059,-0.71701 -0.175992,-1.09802 -0.117994,-0.37901 -0.175991,-0.60001 -0.175991,-0.65801 v -5.88311 c 0,1.05502 -0.234988,-4.56408 -0.703964,-16.85631 0,-0.40901 -0.175991,-0.73102 -0.526974,-0.96602 -0.762961,0.059 -1.949902,0.26401 -3.561821,0.61501 -1.612919,0.35201 -2.800859,0.52701 -3.561821,0.52701 -1.466926,0 -2.638867,-0.49701 -3.518823,-1.49503 -0.059,-0.409 -0.08799,-0.79101 -0.08799,-1.14402 0,-0.52701 0.175991,-0.93701 0.526973,-1.23102 1.289935,-0.99602 3.254837,-1.61203 5.893704,-1.84703 2.051897,-0.11701 4.134792,-0.23301 6.244686,-0.35201 0.292985,0 0.703965,0 1.230938,0 0.527973,0 0.908954,0 1.143942,0 0.468978,0 1.847909,0 4.134794,0 1.640917,-0.059 2.989849,-0.059 4.045796,0 2.695864,0.234 6.186689,0.90902 10.467474,2.02204 0.175991,0.06 1.054947,0.49901 2.638867,1.31902 1.054947,0.52801 2.110894,1.31903 3.165841,2.37504 1.288935,1.23103 2.022898,2.40505 2.198889,3.51907 0.292985,2.05104 0.40998,3.34106 0.350982,3.86807 z m -5.276734,-1.19402 c -1.056947,-5.00809 -7.270635,-7.54214 -18.646062,-7.60214 -0.293986,0 -0.733964,0.178 -1.318934,0.53001 0,0.59001 0.08799,2.77005 0.263987,6.54112 0.058,2.47605 0.204989,6.18811 0.437978,11.13721 0.114994,0 0.932953,-0.088 2.451876,-0.26601 0.465977,0 1.106945,-0.088 1.924903,-0.265 2.80286,-0.47101 5.633717,-0.97202 8.494573,-1.50303 3.442827,-0.82402 5.485724,-2.68005 6.128692,-5.56811 0.350982,-1.23702 0.438978,-2.23704 0.262987,-3.00405 z"
               stroke-width="1"
               style="display:inline;stroke:#ffffff;stroke-width:64.7422;stroke-linecap:round;stroke-linejoin:round;stroke-miterlimit:4;stroke-dasharray:none;stroke-opacity:1;paint-order:normal" />
          </g>
        </g>
      </g>
    </g>
    <g
       id="g68"
       inkscape:label="PISHROBOT-STROKE"
       style="display:inline;mix-blend-mode:normal;stroke:#fe3800;stroke-width:26.753;stroke-linecap:round;stroke-linejoin:round;stroke-miterlimit:4;stroke-dasharray:none;stroke-opacity:1;paint-order:normal"
       transform="matrix(0.18680151,0,0,0.1869885,8.3156981,-21.266872)">
      <g
         id="g58"
         inkscape:label="ROBOT"
         transform="translate(280.06982,107.84455)"
         style="stroke:#fe3800;stroke-width:26.753;stroke-linecap:round;stroke-linejoin:round;stroke-miterlimit:4;stroke-dasharray:none;stroke-opacity:1;paint-order:normal">
        <g
           id="g57"
           transform="translate(-59.450266,-107.59903)"
           inkscape:label="ID0.027221741154789925-9-T"
           style="display:inline;stroke:#fe3800;stroke-width:26.753;stroke-linecap:round;stroke-linejoin:round;stroke-miterlimit:4;stroke-dasharray:none;stroke-opacity:1;paint-order:normal">
          <g
             id="g56"
             inkscape:label="T-F"
             style="stroke:#fe3800;stroke-width:26.753;stroke-linecap:round;stroke-linejoin:round;stroke-miterlimit:4;stroke-dasharray:none;stroke-opacity:1;paint-order:normal">
            <path
               id="path55"
               fill="#ffffff"
               d="m 110.64226,159.72279 c -0.41001,1.643 -0.76202,3.87 -1.05503,6.685 -0.119,1.40799 -0.061,2.55099 0.17601,3.43099 0.40801,1.467 0.38101,2.435 -0.088,2.903 -0.64602,0.586 -1.52504,0.879 -2.63907,0.879 -1.29103,0 -2.14305,-0.383 -2.55106,-1.151 -0.061,-2.362 -0.031,-4.578 0.088,-6.64599 0.115,-2.54 0.176,-3.869 0.176,-3.987 -0.061,0 -0.148,-0.059 -0.26401,-0.178 -5.455142,0.237 -10.58627,0.589 -15.394392,1.059 -0.118,0.589 -0.118,1.528 0,2.82 0.23301,1.82199 0.35201,2.87999 0.35201,3.17199 -0.234,1.822 -0.35201,4.524 -0.35201,8.109 0.23301,1.528 0.35201,8.07999 0.35201,19.65499 v 6.43499 c 0,0.999 0.14501,1.704 0.43601,2.115 h 5.401142 c 0.98702,-0.117 1.78504,0.118 2.39606,0.704 0.60901,0.587 0.914018,1.29 0.914018,2.11 0,1.289 -0.615018,2.199 -1.847048,2.728 -0.76302,0.292 -2.11105,0.352 -4.0461,0.176 -0.93802,-0.06 -2.317052,-0.06 -4.135102,0 -1.64204,0.204 -4.2801,0.409 -7.91619,0.615 -3.167104,0.117 -5.102158,-0.323 -5.806177,-1.319 -0.470009,-0.703 -0.470009,-1.437 0,-2.199 0.820019,-1.289 2.961086,-1.935 6.422187,-1.935 1.23103,0 1.99205,-0.102 2.28606,-0.307 0.29301,-0.205 0.44001,-0.601 0.44001,-1.187 0,-0.526 0,-1.023 0,-1.492 0,-0.877 0,-2.16499 0,-3.86199 0.176,-2.983 0.176,-7.432 0,-13.343 -0.23501,-8.48499 -0.118,-15.94499 0.35201,-22.38298 -0.059,-0.058 -0.14701,-0.146 -0.26601,-0.264 -2.12305,0.118 -5.543155,0.059 -10.260276,-0.177 -0.531019,0 -2.331056,0.119 -5.396122,0.353 0.762009,5.33699 1.231029,9.35399 1.407028,12.05099 0,0.352 -0.059,1.144 -0.175999,2.375 -0.059,0.879 -0.792019,1.319 -2.199057,1.319 -0.763019,0 -1.202028,-0.262 -1.319028,-0.785 -0.059,-0.115 -0.41101,-1.687 -1.056029,-4.711 -0.352009,-1.977 -0.851018,-4.769 -1.495027,-8.37499 0,-0.23 -0.20601,-0.957 -0.615017,-2.18 -0.35001,-0.989 -0.525007,-1.745 -0.525007,-2.268 0,-0.406 0.277007,-0.917 0.836014,-1.526 0.557009,-0.61 1.393028,-1.004 2.507056,-1.179 0.176,0 0.45301,0 0.836019,0 0.38001,0 0.688019,0 0.923019,0 6.979169,0 10.028245,0 9.148216,0 4.75015,0.177 8.97225,0.177 12.66634,0 5.277132,-0.233 10.495266,-0.703 15.657402,-1.407 0.352,-0.176 0.87902,-0.352 1.58203,-0.527 1.29104,-0.117 2.34607,0.176 3.16809,0.88 0.82002,0.702 1.11303,1.641 0.87902,2.814 z"
               stroke-width="1"
               style="stroke:#fe3800;stroke-width:26.753;stroke-linecap:round;stroke-linejoin:round;stroke-miterlimit:4;stroke-dasharray:none;stroke-opacity:1;paint-order:normal" />
          </g>
        </g>
        <g
           id="g55"
           transform="translate(-79.828236,-119.20599)"
           style="display:inline;stroke:#fe3800;stroke-width:26.753;stroke-linecap:round;stroke-linejoin:round;stroke-miterlimit:4;stroke-dasharray:none;stroke-opacity:1;paint-order:normal"
           inkscape:label="ID0.4667737828567624-O">
          <g
             id="g54"
             inkscape:label="O-F"
             style="stroke:#fe3800;stroke-width:26.753;stroke-linecap:round;stroke-linejoin:round;stroke-miterlimit:4;stroke-dasharray:none;stroke-opacity:1;paint-order:normal">
            <path
               id="path53"
               fill="#ffffff"
               d="m 78.477033,181.88921 c 0,1.84449 -0.400355,4.96059 -1.196831,9.34574 -0.24905,1.59546 -0.747167,3.2657 -1.496034,5.0099 -1.147535,2.5925 -3.102593,4.8858 -5.868565,6.87905 -2.766824,1.99325 -5.446102,2.9903 -8.037821,2.9903 -0.847475,0 -1.620151,-0.1241 -2.318019,-0.37315 -3.788537,-1.19595 -6.728773,-3.46375 -8.822384,-6.80425 -0.400358,-0.64685 -0.923125,-1.7442 -1.570843,-3.28949 -0.697866,-1.7442 -1.083783,-3.08975 -1.158584,-4.03751 -0.0748,-0.94605 -0.261808,-2.19215 -0.561016,-3.73745 v -5.53348 c 0.198908,-0.0986 0.09946,-0.2482 -0.299209,-0.44796 h 0.448817 c 0,-0.24905 0.0986,-0.7225 0.299208,-1.42035 0.198051,-0.69785 0.299209,-1.22145 0.299209,-1.57079 0,-0.29921 -0.0748,-0.57291 -0.224408,-0.82281 0.198058,0 0.373158,-0.0748 0.522767,-0.2244 -0.05015,-0.0994 -0.175109,-0.14959 -0.373168,-0.14959 0.0493,-0.0493 0.136859,-0.1241 0.261809,-0.22441 0.124108,-0.0994 0.211659,-0.17425 0.262659,-0.2244 -0.051,-0.0501 -0.1122,-0.0875 -0.18785,-0.11305 -0.0748,-0.0238 -0.137709,-0.0612 -0.187009,-0.1122 0.300059,-0.7973 0.572917,-1.8938 0.822826,-3.2895 0.19805,-1.1458 0.598417,-2.71575 1.195984,-4.70984 0.897617,-2.89 2.941076,-5.88115 6.13122,-8.9726 0.897618,-0.8466 1.869189,-1.37021 2.916414,-1.56995 0.149609,0 1.121184,-0.0501 2.916436,-0.15045 2.492269,-0.0986 4.834086,0.42415 7.027996,1.5708 2.543272,1.29625 4.535721,3.2402 5.981614,5.83184 0.748867,1.34556 1.445893,3.16541 2.093609,5.45785 0.748868,2.5415 1.122033,4.73536 1.122033,6.579 v 4.11315 z m -4.934383,-8.29855 c -0.297508,-0.697 -0.646017,-1.5946 -1.042975,-2.69195 -0.498116,-2.24314 -1.976306,-4.31034 -4.434571,-6.20584 -2.459119,-1.89381 -4.731229,-2.74041 -6.818039,-2.5415 -0.943526,0.1003 -2.533927,1.6711 -4.770327,4.7107 -1.093131,1.44585 -2.185406,4.33669 -3.27769,8.67254 -0.993676,4.0375 -1.466292,7.15275 -1.415293,9.34574 0.09861,2.7914 0.248208,4.73535 0.447117,5.831 0.346808,2.04426 1.092284,3.9134 2.23471,5.6083 1.093134,1.49515 1.938059,2.4667 2.53392,2.91635 2.234703,1.59545 4.345313,2.3919 6.333523,2.3919 0.446258,0 0.868717,-0.0493 1.266534,-0.1496 0.943525,-0.1496 2.06046,-0.7718 3.352495,-1.86915 1.093124,-0.99705 1.912548,-1.91845 2.459965,-2.76676 0.744615,-1.24523 1.44079,-3.11439 2.086806,-5.60744 0.992824,-3.638 1.490942,-7.50125 1.490942,-11.58889 0.0017,-2.19215 -0.147909,-4.2109 -0.447117,-6.0554 z"
               stroke-width="1"
               style="stroke:#fe3800;stroke-width:26.753;stroke-linecap:round;stroke-linejoin:round;stroke-miterlimit:4;stroke-dasharray:none;stroke-opacity:1;paint-order:normal" />
          </g>
        </g>
        <g
           id="g53"
           transform="translate(-121.62828,-99.142535)"
           style="display:inline;stroke:#fe3800;stroke-width:26.753;stroke-linecap:round;stroke-linejoin:round;stroke-miterlimit:4;stroke-dasharray:none;stroke-opacity:1;paint-order:normal"
           inkscape:label="ID0.4668309511616826-B">
          <g
             id="g52"
             inkscape:label="B-F"
             style="stroke:#fe3800;stroke-width:26.753;stroke-linecap:round;stroke-linejoin:round;stroke-miterlimit:4;stroke-dasharray:none;stroke-opacity:1;paint-order:normal">
            <path
               id="path51"
               fill="#ffffff"
               d="m 87.67899,184.19311 c -0.587,2.463 -2.258,4.692 -5.014,6.685 -2.345998,1.643 -4.397995,2.846 -6.156992,3.606 -1.758997,0.763 -3.488988,1.496 -5.188976,2.199 -1.290994,0.528 -3.548979,1.174 -6.772958,1.936 -3.51899,0.822 -6.15699,1.555 -7.91599,2.199 -2.17,0.821 -3.461,1.174 -3.87,1.056 -0.587,-0.177 -0.998,-0.353 -1.230998,-0.528 -0.411,-0.293 -0.704,-0.673 -0.88,-1.144 -0.235,-0.88 0.117,-1.612 1.055998,-2.199 0.409,-0.293 1.553,-0.585 3.431,-0.88 0,-0.058 -0.044,-0.233 -0.132,-0.527 -0.089,-0.293 -0.133,-0.527 -0.133,-0.704 0.177,-1.348 0.265,-2.08 0.265,-2.198 -0.235,-3.576 -0.616,-8.885 -1.144,-15.921 -0.118,-1.76 -0.206,-3.195 -0.265,-4.311 -0.059,-0.116 -0.176,-0.264 -0.352,-0.439 0.586,-3.812 0.41,-8.502 -0.527,-14.074 l 0.176,-0.176 c -0.528,-0.058 -1.056,-0.088 -1.582998,-0.088 -0.471,0 -1.086,0.06 -1.848,0.176 -0.763,0.118 -1.349,0.176 -1.759,0.176 -1.28901,0 -2.521009,-0.538 -3.694009,-1.616 -0.058,-0.658 -0.058,-1.047 0,-1.166 0.527,-1.193 2.197999,-1.703 5.014009,-1.527 0.176,0 0.659,-0.058 1.451,-0.176 0.792,-0.117 1.332998,-0.205 1.626998,-0.264 0.293,-0.059 0.732,-0.146 1.319,-0.265 8.562,-0.409 13.398975,-0.557 14.513966,-0.439 3.811976,0.294 6.361961,0.587 7.651959,0.88 3.459995,0.821 5.862991,2.258 7.212991,4.31 0.469,0.763 0.527,1.906 0.176,3.431 -0.646,2.287 -2.520998,4.281 -5.628993,5.981 -1.230999,0.703 -3.753993,1.73 -7.563966,3.078 8.267965,1.702 14.042959,4.868 17.327959,9.5 0.35,0.526 0.496,1.669 0.438,3.429 z m -12.928989,-25.861 c -2.110988,-0.586 -4.661973,-0.938 -7.652955,-1.056 h -4.74997 c -1.350002,0 -2.814002,0.176 -4.397002,0.527 0.469,3.285 0.732,5.689 0.792,7.213 v 5.278 c 3.048,-0.469 7.240981,-1.612 12.577948,-3.431 2.755982,-0.938 4.484977,-1.905 5.188976,-2.903 0.937999,-1.348 1.406998,-2.345 1.406998,-2.99 0,-1.171 -1.055999,-2.051 -3.165995,-2.638 z m 7.386989,26.653 c 0.469,-0.938 0.469,-1.729 0,-2.375 -4.221994,-5.219 -10.437971,-7.829 -18.64692,-7.829 -1.349996,0 -2.813996,0.06 -4.396996,0.176 0.293,6.1 0.732,12.345 1.319,18.736 0,0.41 0,0.646 0,0.703 0.232,0.411 0.436,0.88 0.61,1.407 3.141993,-0.352 7.081966,-1.539 11.822936,-3.562 4.739986,-2.023 7.838982,-4.442 9.29198,-7.256 z"
               stroke-width="1"
               style="stroke:#fe3800;stroke-width:26.753;stroke-linecap:round;stroke-linejoin:round;stroke-miterlimit:4;stroke-dasharray:none;stroke-opacity:1;paint-order:normal" />
          </g>
        </g>
        <g
           id="g51"
           transform="translate(-154.29196,-115.76006)"
           style="display:inline;stroke:#fe3800;stroke-width:26.753;stroke-linecap:round;stroke-linejoin:round;stroke-miterlimit:4;stroke-dasharray:none;stroke-opacity:1;paint-order:normal"
           inkscape:label="ID0.4667737828567624-O">
          <g
             id="g50"
             inkscape:label="O-F"
             style="stroke:#fe3800;stroke-width:26.753;stroke-linecap:round;stroke-linejoin:round;stroke-miterlimit:4;stroke-dasharray:none;stroke-opacity:1;paint-order:normal">
            <path
               id="path49"
               fill="#ffffff"
               d="m 80.588972,179.92215 c 0,1.953 -0.423907,5.2524 -1.267228,9.89549 -0.263709,1.6893 -0.791113,3.4578 -1.584037,5.3046 -1.21502,2.745 -3.28507,5.17321 -6.213752,7.2837 -2.929581,2.1105 -5.766471,3.1662 -8.510643,3.1662 -0.897318,0 -1.715445,-0.1314 -2.454363,-0.39511 -4.011417,-1.2663 -7.124611,-3.6675 -9.341374,-7.20449 -0.423909,-0.6849 -0.977427,-1.84679 -1.663247,-3.483 -0.738918,-1.8468 -1.147527,-3.2715 -1.226736,-4.275 -0.0792,-1.0017 -0.2772,-2.3211 -0.59401,-3.95729 v -5.859 c 0.210601,-0.1044 0.105301,-0.2628 -0.316808,-0.4743 h 0.475209 c 0,-0.2637 0.1044,-0.765 0.316809,-1.5039 0.209709,-0.7389 0.316809,-1.2933 0.316809,-1.6632 0,-0.3168 -0.0792,-0.6066 -0.237609,-0.8712 0.209709,0 0.395118,-0.0792 0.553518,-0.2376 -0.0531,-0.1053 -0.185409,-0.1584 -0.395109,-0.1584 0.0522,-0.0522 0.1449,-0.1314 0.277208,-0.2376 0.131401,-0.1053 0.224101,-0.1845 0.27811,-0.2376 -0.054,-0.0531 -0.118809,-0.0927 -0.198909,-0.1197 -0.0792,-0.0252 -0.145809,-0.0648 -0.19801,-0.1188 0.31771,-0.8442 0.606619,-2.00519 0.871228,-3.48299 0.209709,-1.2132 0.63362,-2.8755 1.266338,-4.9869 0.950426,-3.06 3.11409,-6.2271 6.491884,-9.5004 0.950427,-0.89639 1.979154,-1.4508 3.08799,-1.6623 0.1584,0 1.187136,-0.0531 3.08799,-0.15929 2.638872,-0.1044 5.118443,0.4491 7.441407,1.6632 2.692872,1.3725 4.802529,3.43079 6.333466,6.17489 0.792913,1.4247 1.530925,3.3516 2.21675,5.7789 0.792912,2.691 1.188018,5.01389 1.188018,6.96599 v 4.3551 z m -5.224613,-8.78669 c -0.315006,-0.738 -0.684012,-1.68841 -1.104332,-2.8503 -0.527409,-2.37511 -2.092554,-4.5639 -4.695426,-6.5709 -2.603772,-2.0052 -5.009551,-2.90159 -7.219107,-2.69099 -0.999027,0.1062 -2.682973,1.76939 -5.050944,4.98778 -1.157427,1.53091 -2.313967,4.5918 -3.470494,9.18271 -1.052136,4.27499 -1.552545,7.57349 -1.498545,9.89549 0.104399,2.9556 0.262809,5.01389 0.473409,6.174 0.367218,2.16449 1.156536,4.14359 2.366172,5.9382 1.157431,1.58309 2.052058,2.61179 2.682976,3.08789 2.366172,1.68931 4.600935,2.5326 6.706082,2.5326 0.472515,0 0.919824,-0.0522 1.341034,-0.1584 0.999036,-0.1584 2.181672,-0.8172 3.549708,-1.9791 1.157436,-1.0557 2.025063,-2.03129 2.604681,-2.9295 0.788418,-1.3185 1.525536,-3.2976 2.209554,-5.9373 1.051232,-3.85199 1.578638,-7.94249 1.578638,-12.27059 0.0018,-2.3211 -0.156599,-4.45859 -0.473406,-6.41159 z"
               stroke-width="1"
               style="stroke:#fe3800;stroke-width:26.753;stroke-linecap:round;stroke-linejoin:round;stroke-miterlimit:4;stroke-dasharray:none;stroke-opacity:1;paint-order:normal" />
          </g>
        </g>
        <g
           id="g49"
           transform="translate(-193.80489,-109.93892)"
           style="display:inline;stroke:#fe3800;stroke-width:26.753;stroke-linecap:round;stroke-linejoin:round;stroke-miterlimit:4;stroke-dasharray:none;stroke-opacity:1;paint-order:normal"
           inkscape:label="ID0.5629414552822709-R">
          <g
             id="g48"
             inkscape:label="R-F"
             style="stroke:#fe3800;stroke-width:26.753;stroke-linecap:round;stroke-linejoin:round;stroke-miterlimit:4;stroke-dasharray:none;stroke-opacity:1;paint-order:normal">
            <path
               id="path47"
               fill="#ffffff"
               d="m 91.897228,203.02582 c 0.233,0.88 -0.161,2.215 -1.186,4.003 -1.023,1.789 -2.104994,3.064 -3.245988,3.826 -1.141001,0.762 -2.911009,1.261 -5.308004,1.495 -1.931001,0.176 -3.730001,-0.675 -5.395996,-2.551 -1.668,-1.876 -2.617,-3.958 -2.851,-6.245 -0.645,-6.45 -1.464,-11.083 -2.458,-13.898 -0.118,-0.703 -0.439,-1.743 -0.965996,-3.122 -0.526,-1.377 -1.725,-2.507 -3.596998,-3.387 -1.404997,-0.527 -2.836997,-1.084 -4.298997,-1.671 -0.234,-0.058 -0.526,-0.058 -0.877,0 -0.819,0.234 -2.517,0.703 -5.09,1.407 v 1.671 6.861 c 0,0.118 0.044,0.675 0.132,1.671 0.088,0.998 0.132,1.702 0.132,2.111 0.117,0.998 0.265,3.637 0.44,7.916 0.409,0.177 0.849,0.177 1.319,0 1.583,-0.645 2.99,-0.791 4.222,-0.439 0.88,0.294 1.319,0.998 1.319,2.111 0,1.643 -0.865,2.625 -2.595,2.946 -1.73,0.323 -4.266,0.778 -7.608,1.364 -2.698,0.527 -4.692,0.791 -5.981,0.791 -1.994002,0 -3.373002,-0.469 -4.134002,-1.407 -0.176,-1.936 0.82,-3.107 2.99,-3.519 1.760002,-0.176 3.519002,-0.381 5.277002,-0.616 0.234,-0.292 0.353,-0.615 0.353,-0.967 -0.06,-1.349 -0.382,-6.187 -0.968,-14.514 -0.176,-1.993 -0.235,-3.519 -0.176,-4.574 -1.056,-0.058 -1.76,-0.146 -2.111,-0.264 -0.88,-0.293 -1.438002,-0.85 -1.671002,-1.671 v -0.265 c 0.116,-0.058 0.204,-0.352 0.264,-0.879 0.820002,-1.29 1.876002,-1.788 3.167002,-1.496 0.116,-0.352 0.088,-1.289 -0.089,-2.814 -0.527,-5.57 -0.851,-10.027 -0.967,-13.37 -0.235,-0.233 -0.734,-0.293 -1.496,-0.176 -1.173002,0.235 -1.789002,0.352 -1.847002,0.352 -3.167,0 -4.692,-0.761 -4.574,-2.287 0.117,-1.407 1.319,-2.256 3.606,-2.551 2.052,-0.409 6.362001,-1.055 12.931001,-1.935 -0.294,0.059 1.788,0.146 6.245,0.264 5.158996,0.411 8.765992,1.262 10.818992,2.551 2.227995,1.467 3.722995,3.401 4.484995,5.806 0.233,0.763 0.293,1.906 0.176,3.431 -0.059,1.525 -0.294,2.609 -0.703,3.254 -1.35,2.463 -4.075995,4.662 -8.180995,6.598 0,0.176 0.029,0.294 0.088,0.352 1.466,1.056 2.463,1.994 2.991,2.814 1.523,2.463 2.551,6.041 3.077995,10.731 0.762,6.393 1.377,10.409 1.847,12.051 0.059,0.352 0.469,0.909 1.231,1.671 0.762,0.764 1.378001,1.174 1.847998,1.231 1.815998,0.118 2.932002,-0.703 3.342999,-2.463 -0.06,-0.645 0.204007,-1.524 0.791004,-2.639 0.821004,-0.762 1.816998,-1.144 2.990992,-1.144 1.175,0.002 1.937,0.531 2.29,1.585 z m -17.591988,-30.874 c 0.527,-0.527 0.791,-1.348 0.791,-2.463 0,-2.99 -1.056,-5.13 -3.166,-6.421 -2.110996,-1.289 -6.685991,-1.876 -13.722991,-1.759 -0.527,0 -1.319,0.234 -2.375,0.703 0.177,0.88 0.177,1.613 0,2.199 -0.059,0.88 -0.059,1.701 0,2.463 0.029,1.583 0.089,3.549 0.177,5.894 0.292,3.46 0.439,5.396 0.439,5.805 0.996,-0.058 2.463,-0.352 4.398,-0.879 0.292,-0.293 0.703,-0.616 1.231,-0.968 0.409,-0.117 1.465,-0.176 3.166,-0.176 3.225995,10e-4 6.246991,-1.464 9.061991,-4.398 z"
               stroke-width="1"
               style="stroke:#fe3800;stroke-width:26.753;stroke-linecap:round;stroke-linejoin:round;stroke-miterlimit:4;stroke-dasharray:none;stroke-opacity:1;paint-order:normal" />
          </g>
        </g>
      </g>
      <g
         id="g67"
         inkscape:label="PISH"
         transform="translate(90.563562,-57.877051)"
         style="stroke:#fe3800;stroke-width:26.753;stroke-linecap:round;stroke-linejoin:round;stroke-miterlimit:4;stroke-dasharray:none;stroke-opacity:1;paint-order:normal">
        <g
           id="g66"
           transform="translate(-36.374599,48.043597)"
           style="display:inline;stroke:#fe3800;stroke-width:26.753;stroke-linecap:round;stroke-linejoin:round;stroke-miterlimit:4;stroke-dasharray:none;stroke-opacity:1;paint-order:normal"
           inkscape:label="ID0.3487820033915341-H">
          <g
             id="g65"
             style="display:inline;stroke:#fe3800;stroke-width:26.753;stroke-linecap:round;stroke-linejoin:round;stroke-miterlimit:4;stroke-dasharray:none;stroke-opacity:1;paint-order:normal"
             inkscape:label="H-F">
            <path
               id="path64"
               fill="#ffffff"
               d="m 69.90096,211.52756 c 0.0493,0.49726 -0.22525,1.07101 -0.822799,1.71871 -0.5984,0.6477 -1.645599,0.97239 -3.139897,0.97239 -0.34935,0 -0.9231,0 -1.71955,0 -0.797302,0.0493 -1.420352,0.0748 -1.869151,0.0748 -0.946901,0 -1.919302,0.0748 -2.915501,0.22524 -0.5491,0.0986 -1.719549,0.49725 -3.514747,1.19595 -1.595449,0.64686 -2.791397,0.97241 -3.588697,0.97241 -0.64855,0 -1.246949,-0.23716 -1.794348,-0.7106 -0.5491,-0.47431 -0.82195,-1.0353 -0.82195,-1.68216 0,-1.04635 1.220599,-1.8683 3.663497,-2.4667 3.538547,-0.8976 5.357545,-1.37105 5.457845,-1.42035 -0.100297,-3.1892 -0.2244,-6.8527 -0.373149,-10.99135 -0.1496,-3.8879 -0.22525,-5.73155 -0.22525,-5.53265 v -4.1871 c 0,-0.0502 0,-0.4233 0,-1.122 0.05015,-0.54825 0.05015,-0.9452 0,-1.19595 -0.05015,-0.44795 -0.224399,-0.72165 -0.52275,-0.82195 -0.05015,-0.0502 -0.797299,-0.0757 -2.243148,-0.0757 -2.493047,0.051 -5.383045,0.40035 -8.672542,1.04635 -1.246949,0.30005 -3.116098,0.7242 -5.608296,1.2716 v 10.69129 c 0.0493,0.19976 0.0748,1.17216 0.0748,2.91636 0,1.39655 0.15045,2.24315 0.4488,2.5415 0.249049,0.1003 1.569948,0.19975 3.962697,0.30005 1.644748,0.0502 2.665598,0.64854 3.065097,1.7935 0.0986,0.30005 -0.0136,0.748 -0.336599,1.3464 -0.324701,0.59755 -0.66045,0.97239 -1.0098,1.12115 -0.797299,0.2992 -1.345549,0.44795 -1.644749,0.44795 -1.097349,-0.0502 -3.813096,-0.27455 -8.149793,-0.67235 h -4.860295 c -0.7973,-0.051 -1.56995,-0.28815 -2.317948,-0.7106 -0.748,-0.4233 -1.12115,-0.90866 -1.12115,-1.4586 0,-0.79645 0.47345,-1.44415 1.420349,-1.94311 0.748,-0.34849 1.570799,-0.5236 2.467548,-0.5236 0.34765,0 0.9724,0.0136 1.868299,0.0374 0.897598,0.0255 1.544448,0.0136 1.943948,-0.0374 -0.100297,-1.93545 -0.100297,-4.89004 0,-8.86379 0,0.051 0,-2.01025 0,-6.18035 0,-0.14876 0.06205,-0.459 0.18785,-0.9316 0.1241,-0.47175 0.187,-0.83215 0.187,-1.0795 -0.19975,-0.1989 -0.400351,-0.4964 -0.5984,-0.8942 -0.100297,-0.39695 -0.100297,-0.74375 0,-1.04381 0.3485,-0.79474 0.47345,-2.0349 0.37315,-3.72384 0,-0.29751 0.03825,-0.8058 0.113049,-1.52576 0.0748,-0.71994 0.112201,-1.25459 0.112201,-1.60224 0,-0.64515 -0.12495,-2.3579 -0.374,-5.1391 v -6.18206 c 0,-0.29664 -0.09775,-0.76839 -0.29325,-1.41439 -1.370199,0.14959 -2.374048,0.2244 -3.008997,0.2244 -2.838998,0 -4.404696,-1.02085 -4.697096,-3.0651 0.747148,-1.5436 2.117348,-2.31795 4.112297,-2.31795 -0.051,0 1.121148,0.1003 3.513896,0.2992 2.243148,0.19975 3.862397,0.2499 4.860296,0.1496 2.790548,-0.1496 4.037497,-0.2244 3.737446,-0.2244 2.741249,0 3.962697,0.8228 3.664348,2.46755 -0.2499,1.19594 -1.396549,1.81985 -3.439947,1.8683 -1.545299,0.051 -3.064248,0.1003 -4.560246,0.1496 0.261799,1.7459 0.436049,3.68985 0.523599,5.83185 0,1.34554 0,3.2657 0,5.75705 0,2.6911 0,4.63505 0,5.831 0.0493,0.051 0.1241,0.10029 0.2244,0.1496 0.797299,0.051 1.594599,0.0748 2.391898,0.0748 1.843648,0 4.211747,-0.1496 7.102594,-0.44795 3.887896,-0.44794 6.253445,-0.69699 7.101744,-0.74799 0.24905,-1.59461 0.374,-3.48841 0.374,-5.68225 0,-4.13696 -0.34935,-8.77201 -1.04635,-13.90686 0.0493,0 -0.946898,0 -2.991147,0 -1.046349,0 -1.994099,-0.19125 -2.841547,-0.57545 -0.84745,-0.3842 -1.270749,-1.16619 -1.270749,-2.346 0,-0.51254 0.174249,-0.92225 0.523599,-1.2291 0.9962,-0.87125 2.216798,-1.3073 3.663497,-1.3073 2.691947,0 3.787597,0.0748 3.289497,0.2244 h 5.158649 c 0.19805,0 0.6596,-0.0374 1.382953,-0.1122 0.722498,-0.0748 1.283498,-0.1122 1.682148,-0.1122 1.594599,0 2.591647,0.50065 2.991148,1.4977 0.198049,0.40035 0.299199,0.77521 0.299199,1.12285 0,1.0982 -1.021699,1.7476 -3.065097,1.94736 -1.495148,0.051 -2.991151,0.10029 -4.485452,0.14959 0.548252,5.93895 0.822801,11.65435 0.822801,17.14535 v 19.84152 c 0,0.30005 0.06375,0.87465 0.192951,1.7221 0.169999,1.29795 0.255849,2.5704 0.255849,3.8182 -0.05015,2.24655 -0.05015,3.99414 0,5.24194 0.09945,0.14961 0.19805,0.27286 0.2992,0.37316 2.442052,-0.34935 3.638,-0.52275 3.589551,-0.52275 1.794347,0.002 2.740397,0.72335 2.840697,2.17004 z"
               stroke-width="1"
               style="stroke:#fe3800;stroke-width:26.753;stroke-linecap:round;stroke-linejoin:round;stroke-miterlimit:4;stroke-dasharray:none;stroke-opacity:1;paint-order:normal" />
          </g>
        </g>
        <g
           id="g64"
           transform="translate(-79.570236,67.134422)"
           style="display:inline;stroke:#fe3800;stroke-width:26.753;stroke-linecap:round;stroke-linejoin:round;stroke-miterlimit:4;stroke-dasharray:none;stroke-opacity:1;paint-order:normal"
           inkscape:label="ID0.9805312547832727-S">
          <g
             id="g63"
             style="display:inline;stroke:#fe3800;stroke-width:26.753;stroke-linecap:round;stroke-linejoin:round;stroke-miterlimit:4;stroke-dasharray:none;stroke-opacity:1;paint-order:normal"
             inkscape:label="S-F">
            <path
               id="path62"
               fill="#ffffff"
               d="m 67.174454,182.09686 c 0.293,3.637 0.233,5.981 -0.176,7.037 -1.702,4.809 -7.420005,7.828 -17.152005,9.06 -3.285,0.411 -6.568,-1.143 -9.853,-4.662 0,0.528 0.117,2.111 0.353,4.751 0.176,1.935 0.146,3.518 -0.088,4.749 -1.467,0.938 -2.639,1.408 -3.519,1.408 -1.35,0 -2.023,-1.319 -2.023,-3.959 0,-0.469 0.029,-1.216 0.088,-2.242 0.058,-1.025 0.088,-1.744 0.088,-2.155 0,-0.997 -0.088,-1.7 -0.264,-2.111 v -4.838 c 0,-0.117 0.029,-0.249 0.088,-0.396 0.058,-0.146 0.117,-0.278 0.176,-0.396 -0.059,-0.82 -0.03,-2.081 0.088,-3.782 0.117,-1.056 0.117,-1.729 0,-2.023 -0.294,-0.585 -0.439,-0.937 -0.439,-1.055 0.233,-1.642 1.437,-2.463 3.606,-2.463 1.407,0 2.257,0.499 2.551,1.495 0,0.938 0.117,2.317 0.352,4.134 0.353,2.111 1.466,4.223 3.343,6.333 2.052,2.405 4.016,3.519 5.894,3.343 2.111,-0.233 4.222,-0.732 6.333,-1.495 2.932,-1.056 4.691,-2.287 5.278,-3.694 0.409,-1.056 0.615,-2.169 0.615,-3.343 0,-3.576 -1.319,-6.245 -3.958,-8.004 -1.174,-0.762 -3.343,-1.378 -6.51,-1.848 -1.818,-0.233 -2.933,-0.352 -3.342,-0.352 -2.815,0.059 -5.44,-0.85 -7.873,-2.727 -2.434,-1.876 -3.65,-4.047 -3.65,-6.51 v -5.101 c 0,-1.113 0.645,-3.723 1.936,-7.828 0.585,-1.936 0.908,-2.961 0.968,-3.079 0.527,-1.231 1.201,-2.052 2.022,-2.463 1.993,-0.996 4.104,-1.495 6.333,-1.495 4.339,0 7.535,1.759 9.588,5.277 0.176,0.176 0.469,0.44 0.88,0.792 0.058,-0.82 0.176,-2.081 0.352,-3.782 -0.059,-0.762 -0.118,-1.495 -0.176,-2.199 0,-0.82 0.409,-1.377 1.231,-1.671 0.234,-0.117 0.557,-0.205 0.968,-0.264 0.586,-0.117 1.217,0.03 1.892,0.439 0.672995,0.411 0.951995,1.643 0.834995,3.694 -0.059,1.29 -0.176,3.108 -0.352,5.453 -0.176,1.936 -0.438995,4.897 -0.791995,8.885 0.117,0.938 0.117,2.229 0,3.87 -0.294,1.114 -1.174,1.671 -2.639,1.671 -0.763,0 -1.495,-0.205 -2.199,-0.615 -0.352,-1.113 -0.527,-1.584 -0.527,-1.408 0.116,-1.583 -0.206,-3.694 -0.968,-6.333 -0.646,-1.348 -1.539,-3.268 -2.683,-5.761 -1.144,-2.492 -2.654,-3.827 -4.53,-4.003 -2.346,-0.176 -3.87,0.616 -4.574,2.375 -0.234,0.763 -0.558,1.878 -0.967,3.343 -0.704,2.17 -1.144,4.252 -1.32,6.245 -0.059,0.646 -0.118,0.91 -0.176,0.792 0.176,1.174 0.381,2.346 0.616,3.519 0.293,1.466 1.012,2.581 2.155,3.342 1.144,0.763 3.327,1.231 6.553,1.407 7.916,0.471 12.811995,3.227 14.689005,8.269 0.292,0.47 0.585,1.261 0.879,2.374 z"
               stroke-width="1"
               style="stroke:#fe3800;stroke-width:26.753;stroke-linecap:round;stroke-linejoin:round;stroke-miterlimit:4;stroke-dasharray:none;stroke-opacity:1;paint-order:normal" />
          </g>
        </g>
        <g
           id="g60"
           transform="translate(-93.901766,51.9785)"
           inkscape:label="ID0.0413050539791584-I"
           style="stroke:#fe3800;stroke-width:26.753;stroke-linecap:round;stroke-linejoin:round;stroke-miterlimit:4;stroke-dasharray:none;stroke-opacity:1;paint-order:normal">
          <g
             id="g59"
             inkscape:label="I-F"
             style="stroke:#fe3800;stroke-width:26.753;stroke-linecap:round;stroke-linejoin:round;stroke-miterlimit:4;stroke-dasharray:none;stroke-opacity:1;paint-order:normal">
            <path
               id="path58"
               fill="#ffffff"
               d="m 43.169819,154.47109 c 0.0493,0.2499 0.0748,0.49895 0.0748,0.748 0,1.19595 -0.7973,1.96945 -2.3919,2.31795 -1.34555,0.1003 -2.667299,0.2244 -3.962699,0.37315 -0.3995,0.051 -0.57375,0.30005 -0.52275,0.748 0.0493,0.3995 0.0986,0.7973 0.1496,1.19595 0,1.24695 0.0493,3.0651 0.1496,5.45786 v 28.11205 c 0.45305,0.1003 1.4875,0.15045 3.09995,0.15045 1.310699,-0.0501 2.243148,0.1003 2.798199,0.44795 0.35275,0.2499 0.580549,0.7735 0.680849,1.5708 0.0493,0.74715 -0.0748,1.34555 -0.372299,1.7935 -0.54655,0.40035 -1.38975,0.8228 -2.531299,1.2716 l -5.3618,-0.30005 h -1.78755 c -1.78755,0 -3.0787,0 -3.873449,0 -1.540199,-0.0986 -2.3579,-0.1496 -2.4565,-0.1496 -1.09395,-0.19805 -1.788399,-0.697 -2.08505,-1.49515 -0.150449,-0.4488 0.0442,-1.02085 0.58395,-1.71955 0.5389,-0.697 1.101601,-1.12115 1.6881,-1.27075 1.3685,0.0501 3.12885,-0.0995 5.279349,-0.4488 0,-2.79055 0,-8.22461 0,-16.29875 -0.051,-1.59461 -0.051,-3.19006 0,-4.78551 0,-1.99325 0,-3.38894 0,-4.1871 v -5.0099 c 0.0493,-1.19595 -0.0748,-2.79055 -0.374,-4.78465 -1.745049,0.2992 -2.866199,0.44795 -3.364299,0.44795 -1.5453,0 -2.691099,-0.49725 -3.439099,-1.49515 -0.100305,-0.30005 -0.1496,-0.5729 -0.1496,-0.8228 0,-1.94395 2.018749,-3.1144 6.056248,-3.51475 1.8938,-0.19805 3.71195,-0.1496 5.457849,0.15045 1.444999,0.1496 2.916349,0.2992 4.410649,0.44795 1.346399,0.10285 2.0944,0.4505 2.243151,1.0489 z"
               stroke-width="1"
               style="stroke:#fe3800;stroke-width:26.753;stroke-linecap:round;stroke-linejoin:round;stroke-miterlimit:4;stroke-dasharray:none;stroke-opacity:1;paint-order:normal" />
          </g>
        </g>
        <g
           id="g62"
           style="display:inline;stroke:#fe3800;stroke-width:26.753;stroke-linecap:round;stroke-linejoin:round;stroke-miterlimit:4;stroke-dasharray:none;stroke-opacity:1;paint-order:normal"
           inkscape:label="ID0.5210809488780797-P"
           transform="translate(-131.06483,63.322243)">
          <g
             id="g61"
             style="display:inline;stroke:#fe3800;stroke-width:26.753;stroke-linecap:round;stroke-linejoin:round;stroke-miterlimit:4;stroke-dasharray:none;stroke-opacity:1;paint-order:normal"
             inkscape:label="P-F">
            <path
               id="path60"
               fill="#ffffff"
               d="m 62.380812,161.8148 c -0.759961,3.98808 -2.659866,6.94913 -5.696713,8.88417 -2.103894,1.35002 -5.259736,2.37504 -9.465524,3.07905 -5.143741,0.88002 -8.297583,1.52503 -9.465524,1.93604 v 4.57308 c 0.174991,1.87804 0.291985,5.4841 0.349982,10.8192 0.058,3.57707 0.378981,6.48012 0.961952,8.70816 0.058,0.11801 0.494975,0.11801 1.310934,0 1.105945,-0.058 2.79586,-0.205 5.068745,-0.439 0.465977,-0.11701 1.164942,-0.26401 2.097895,-0.44001 1.630918,-0.176 2.736862,0.118 3.319833,0.88001 0.348982,0.41101 0.523973,0.99802 0.523973,1.76004 0,1.46702 -0.658966,2.34604 -1.9789,2.63905 -1.318934,0.294 -2.801859,0.352 -4.441777,0.176 -0.937953,-0.116 -2.141892,-0.088 -3.605818,0.088 -2.110894,0.23501 -3.283835,0.35201 -3.518823,0.35201 -1.230938,0.06 -3.239838,0.295 -6.024698,0.70401 -2.78486,0.40901 -4.764761,0.61601 -5.936702,0.61601 -1.877905,0 -3.226838,-0.359 -4.046796,-1.07402 -0.702965,-0.53701 -0.850958,-1.13402 -0.438978,-1.79003 0.408979,-0.83602 0.879956,-1.34303 1.406929,-1.52103 1.172941,-0.47801 2.813858,-0.71701 4.925752,-0.71701 1.464927,0 3.399829,-0.17401 5.805708,-0.52601 -0.117994,-0.99502 -0.146992,-2.45705 -0.08799,-4.39008 0,-0.46701 -0.06,-1.17103 -0.175991,-2.10804 0,-0.058 -0.044,-0.20301 -0.132994,-0.43701 -0.08799,-0.234 -0.131993,-0.41001 -0.131993,-0.52801 0,-2.16604 -0.03,-3.48206 -0.088,-3.95107 -0.233988,-0.81902 -0.321983,-2.36905 -0.263986,-4.65309 0,-3.21906 0,-5.00309 0,-5.3551 0,-0.35201 -0.059,-0.71701 -0.175992,-1.09802 -0.117994,-0.37901 -0.175991,-0.60001 -0.175991,-0.65801 v -5.88311 c 0,1.05502 -0.234988,-4.56408 -0.703964,-16.85631 0,-0.40901 -0.175991,-0.73102 -0.526974,-0.96602 -0.762961,0.059 -1.949902,0.26401 -3.561821,0.61501 -1.612919,0.35201 -2.800859,0.52701 -3.561821,0.52701 -1.466926,0 -2.638867,-0.49701 -3.518823,-1.49503 -0.059,-0.409 -0.08799,-0.79101 -0.08799,-1.14402 0,-0.52701 0.175991,-0.93701 0.526973,-1.23102 1.289935,-0.99602 3.254837,-1.61203 5.893704,-1.84703 2.051897,-0.11701 4.134792,-0.23301 6.244686,-0.35201 0.292985,0 0.703965,0 1.230938,0 0.527973,0 0.908954,0 1.143942,0 0.468978,0 1.847909,0 4.134794,0 1.640917,-0.059 2.989849,-0.059 4.045796,0 2.695864,0.234 6.186689,0.90902 10.467474,2.02204 0.175991,0.06 1.054947,0.49901 2.638867,1.31902 1.054947,0.52801 2.110894,1.31903 3.165841,2.37504 1.288935,1.23103 2.022898,2.40505 2.198889,3.51907 0.292985,2.05104 0.40998,3.34106 0.350982,3.86807 z m -5.276734,-1.19402 c -1.056947,-5.00809 -7.270635,-7.54214 -18.646062,-7.60214 -0.293986,0 -0.733964,0.178 -1.318934,0.53001 0,0.59001 0.08799,2.77005 0.263987,6.54112 0.058,2.47605 0.204989,6.18811 0.437978,11.13721 0.114994,0 0.932953,-0.088 2.451876,-0.26601 0.465977,0 1.106945,-0.088 1.924903,-0.265 2.80286,-0.47101 5.633717,-0.97202 8.494573,-1.50303 3.442827,-0.82402 5.485724,-2.68005 6.128692,-5.56811 0.350982,-1.23702 0.438978,-2.23704 0.262987,-3.00405 z"
               stroke-width="1"
               style="display:inline;stroke:#fe3800;stroke-width:26.753;stroke-linecap:round;stroke-linejoin:round;stroke-miterlimit:4;stroke-dasharray:none;stroke-opacity:1;paint-order:normal" />
          </g>
        </g>
      </g>
    </g>
    <g
       id="g89"
       inkscape:label="PISHROBOT-FOREGROUND"
       style="display:inline;mix-blend-mode:normal;stroke:#ffffff;stroke-width:3.74542;stroke-linecap:round;stroke-linejoin:round;stroke-miterlimit:4;stroke-dasharray:none;stroke-opacity:1;paint-order:normal"
       transform="matrix(0.18680151,0,0,0.1869885,8.3156981,-21.266872)">
      <g
         id="g79"
         inkscape:label="ROBOT"
         transform="translate(280.06982,107.84455)"
         style="stroke:#ffffff;stroke-width:3.74542;stroke-linecap:round;stroke-linejoin:round;stroke-miterlimit:4;stroke-dasharray:none;stroke-opacity:1;paint-order:normal">
        <g
           id="g70"
           transform="translate(-59.450266,-107.59903)"
           inkscape:label="ID0.027221741154789925-9-T"
           style="display:inline;stroke:#ffffff;stroke-width:3.74542;stroke-linecap:round;stroke-linejoin:round;stroke-miterlimit:4;stroke-dasharray:none;stroke-opacity:1;paint-order:normal">
          <g
             id="g69"
             inkscape:label="T-F"
             style="stroke:#ffffff;stroke-width:3.74542;stroke-linecap:round;stroke-linejoin:round;stroke-miterlimit:4;stroke-dasharray:none;stroke-opacity:1;paint-order:normal">
            <path
               id="path68"
               fill="#ffffff"
               d="m 110.64226,159.72279 c -0.41001,1.643 -0.76202,3.87 -1.05503,6.685 -0.119,1.40799 -0.061,2.55099 0.17601,3.43099 0.40801,1.467 0.38101,2.435 -0.088,2.903 -0.64602,0.586 -1.52504,0.879 -2.63907,0.879 -1.29103,0 -2.14305,-0.383 -2.55106,-1.151 -0.061,-2.362 -0.031,-4.578 0.088,-6.64599 0.115,-2.54 0.176,-3.869 0.176,-3.987 -0.061,0 -0.148,-0.059 -0.26401,-0.178 -5.455142,0.237 -10.58627,0.589 -15.394392,1.059 -0.118,0.589 -0.118,1.528 0,2.82 0.23301,1.82199 0.35201,2.87999 0.35201,3.17199 -0.234,1.822 -0.35201,4.524 -0.35201,8.109 0.23301,1.528 0.35201,8.07999 0.35201,19.65499 v 6.43499 c 0,0.999 0.14501,1.704 0.43601,2.115 h 5.401142 c 0.98702,-0.117 1.78504,0.118 2.39606,0.704 0.60901,0.587 0.914018,1.29 0.914018,2.11 0,1.289 -0.615018,2.199 -1.847048,2.728 -0.76302,0.292 -2.11105,0.352 -4.0461,0.176 -0.93802,-0.06 -2.317052,-0.06 -4.135102,0 -1.64204,0.204 -4.2801,0.409 -7.91619,0.615 -3.167104,0.117 -5.102158,-0.323 -5.806177,-1.319 -0.470009,-0.703 -0.470009,-1.437 0,-2.199 0.820019,-1.289 2.961086,-1.935 6.422187,-1.935 1.23103,0 1.99205,-0.102 2.28606,-0.307 0.29301,-0.205 0.44001,-0.601 0.44001,-1.187 0,-0.526 0,-1.023 0,-1.492 0,-0.877 0,-2.16499 0,-3.86199 0.176,-2.983 0.176,-7.432 0,-13.343 -0.23501,-8.48499 -0.118,-15.94499 0.35201,-22.38298 -0.059,-0.058 -0.14701,-0.146 -0.26601,-0.264 -2.12305,0.118 -5.543155,0.059 -10.260276,-0.177 -0.531019,0 -2.331056,0.119 -5.396122,0.353 0.762009,5.33699 1.231029,9.35399 1.407028,12.05099 0,0.352 -0.059,1.144 -0.175999,2.375 -0.059,0.879 -0.792019,1.319 -2.199057,1.319 -0.763019,0 -1.202028,-0.262 -1.319028,-0.785 -0.059,-0.115 -0.41101,-1.687 -1.056029,-4.711 -0.352009,-1.977 -0.851018,-4.769 -1.495027,-8.37499 0,-0.23 -0.20601,-0.957 -0.615017,-2.18 -0.35001,-0.989 -0.525007,-1.745 -0.525007,-2.268 0,-0.406 0.277007,-0.917 0.836014,-1.526 0.557009,-0.61 1.393028,-1.004 2.507056,-1.179 0.176,0 0.45301,0 0.836019,0 0.38001,0 0.688019,0 0.923019,0 6.979169,0 10.028245,0 9.148216,0 4.75015,0.177 8.97225,0.177 12.66634,0 5.277132,-0.233 10.495266,-0.703 15.657402,-1.407 0.352,-0.176 0.87902,-0.352 1.58203,-0.527 1.29104,-0.117 2.34607,0.176 3.16809,0.88 0.82002,0.702 1.11303,1.641 0.87902,2.814 z"
               stroke-width="1"
               style="stroke:#ffffff;stroke-width:3.74542;stroke-linecap:round;stroke-linejoin:round;stroke-miterlimit:4;stroke-dasharray:none;stroke-opacity:1;paint-order:normal" />
          </g>
        </g>
        <g
           id="g72"
           transform="translate(-79.828236,-119.20599)"
           style="display:inline;stroke:#ffffff;stroke-width:3.74542;stroke-linecap:round;stroke-linejoin:round;stroke-miterlimit:4;stroke-dasharray:none;stroke-opacity:1;paint-order:normal"
           inkscape:label="ID0.4667737828567624-O">
          <g
             id="g71"
             inkscape:label="O-F"
             style="stroke:#ffffff;stroke-width:3.74542;stroke-linecap:round;stroke-linejoin:round;stroke-miterlimit:4;stroke-dasharray:none;stroke-opacity:1;paint-order:normal">
            <path
               id="path70"
               fill="#ffffff"
               d="m 78.477033,181.88921 c 0,1.84449 -0.400355,4.96059 -1.196831,9.34574 -0.24905,1.59546 -0.747167,3.2657 -1.496034,5.0099 -1.147535,2.5925 -3.102593,4.8858 -5.868565,6.87905 -2.766824,1.99325 -5.446102,2.9903 -8.037821,2.9903 -0.847475,0 -1.620151,-0.1241 -2.318019,-0.37315 -3.788537,-1.19595 -6.728773,-3.46375 -8.822384,-6.80425 -0.400358,-0.64685 -0.923125,-1.7442 -1.570843,-3.28949 -0.697866,-1.7442 -1.083783,-3.08975 -1.158584,-4.03751 -0.0748,-0.94605 -0.261808,-2.19215 -0.561016,-3.73745 v -5.53348 c 0.198908,-0.0986 0.09946,-0.2482 -0.299209,-0.44796 h 0.448817 c 0,-0.24905 0.0986,-0.7225 0.299208,-1.42035 0.198051,-0.69785 0.299209,-1.22145 0.299209,-1.57079 0,-0.29921 -0.0748,-0.57291 -0.224408,-0.82281 0.198058,0 0.373158,-0.0748 0.522767,-0.2244 -0.05015,-0.0994 -0.175109,-0.14959 -0.373168,-0.14959 0.0493,-0.0493 0.136859,-0.1241 0.261809,-0.22441 0.124108,-0.0994 0.211659,-0.17425 0.262659,-0.2244 -0.051,-0.0501 -0.1122,-0.0875 -0.18785,-0.11305 -0.0748,-0.0238 -0.137709,-0.0612 -0.187009,-0.1122 0.300059,-0.7973 0.572917,-1.8938 0.822826,-3.2895 0.19805,-1.1458 0.598417,-2.71575 1.195984,-4.70984 0.897617,-2.89 2.941076,-5.88115 6.13122,-8.9726 0.897618,-0.8466 1.869189,-1.37021 2.916414,-1.56995 0.149609,0 1.121184,-0.0501 2.916436,-0.15045 2.492269,-0.0986 4.834086,0.42415 7.027996,1.5708 2.543272,1.29625 4.535721,3.2402 5.981614,5.83184 0.748867,1.34556 1.445893,3.16541 2.093609,5.45785 0.748868,2.5415 1.122033,4.73536 1.122033,6.579 v 4.11315 z m -4.934383,-8.29855 c -0.297508,-0.697 -0.646017,-1.5946 -1.042975,-2.69195 -0.498116,-2.24314 -1.976306,-4.31034 -4.434571,-6.20584 -2.459119,-1.89381 -4.731229,-2.74041 -6.818039,-2.5415 -0.943526,0.1003 -2.533927,1.6711 -4.770327,4.7107 -1.093131,1.44585 -2.185406,4.33669 -3.27769,8.67254 -0.993676,4.0375 -1.466292,7.15275 -1.415293,9.34574 0.09861,2.7914 0.248208,4.73535 0.447117,5.831 0.346808,2.04426 1.092284,3.9134 2.23471,5.6083 1.093134,1.49515 1.938059,2.4667 2.53392,2.91635 2.234703,1.59545 4.345313,2.3919 6.333523,2.3919 0.446258,0 0.868717,-0.0493 1.266534,-0.1496 0.943525,-0.1496 2.06046,-0.7718 3.352495,-1.86915 1.093124,-0.99705 1.912548,-1.91845 2.459965,-2.76676 0.744615,-1.24523 1.44079,-3.11439 2.086806,-5.60744 0.992824,-3.638 1.490942,-7.50125 1.490942,-11.58889 0.0017,-2.19215 -0.147909,-4.2109 -0.447117,-6.0554 z"
               stroke-width="1"
               style="stroke:#ffffff;stroke-width:3.74542;stroke-linecap:round;stroke-linejoin:round;stroke-miterlimit:4;stroke-dasharray:none;stroke-opacity:1;paint-order:normal" />
          </g>
        </g>
        <g
           id="g74"
           transform="translate(-121.62828,-99.142535)"
           style="display:inline;stroke:#ffffff;stroke-width:3.74542;stroke-linecap:round;stroke-linejoin:round;stroke-miterlimit:4;stroke-dasharray:none;stroke-opacity:1;paint-order:normal"
           inkscape:label="ID0.4668309511616826-B">
          <g
             id="g73"
             inkscape:label="B-F"
             style="stroke:#ffffff;stroke-width:3.74542;stroke-linecap:round;stroke-linejoin:round;stroke-miterlimit:4;stroke-dasharray:none;stroke-opacity:1;paint-order:normal">
            <path
               id="path72"
               fill="#ffffff"
               d="m 87.67899,184.19311 c -0.587,2.463 -2.258,4.692 -5.014,6.685 -2.345998,1.643 -4.397995,2.846 -6.156992,3.606 -1.758997,0.763 -3.488988,1.496 -5.188976,2.199 -1.290994,0.528 -3.548979,1.174 -6.772958,1.936 -3.51899,0.822 -6.15699,1.555 -7.91599,2.199 -2.17,0.821 -3.461,1.174 -3.87,1.056 -0.587,-0.177 -0.998,-0.353 -1.230998,-0.528 -0.411,-0.293 -0.704,-0.673 -0.88,-1.144 -0.235,-0.88 0.117,-1.612 1.055998,-2.199 0.409,-0.293 1.553,-0.585 3.431,-0.88 0,-0.058 -0.044,-0.233 -0.132,-0.527 -0.089,-0.293 -0.133,-0.527 -0.133,-0.704 0.177,-1.348 0.265,-2.08 0.265,-2.198 -0.235,-3.576 -0.616,-8.885 -1.144,-15.921 -0.118,-1.76 -0.206,-3.195 -0.265,-4.311 -0.059,-0.116 -0.176,-0.264 -0.352,-0.439 0.586,-3.812 0.41,-8.502 -0.527,-14.074 l 0.176,-0.176 c -0.528,-0.058 -1.056,-0.088 -1.582998,-0.088 -0.471,0 -1.086,0.06 -1.848,0.176 -0.763,0.118 -1.349,0.176 -1.759,0.176 -1.28901,0 -2.521009,-0.538 -3.694009,-1.616 -0.058,-0.658 -0.058,-1.047 0,-1.166 0.527,-1.193 2.197999,-1.703 5.014009,-1.527 0.176,0 0.659,-0.058 1.451,-0.176 0.792,-0.117 1.332998,-0.205 1.626998,-0.264 0.293,-0.059 0.732,-0.146 1.319,-0.265 8.562,-0.409 13.398975,-0.557 14.513966,-0.439 3.811976,0.294 6.361961,0.587 7.651959,0.88 3.459995,0.821 5.862991,2.258 7.212991,4.31 0.469,0.763 0.527,1.906 0.176,3.431 -0.646,2.287 -2.520998,4.281 -5.628993,5.981 -1.230999,0.703 -3.753993,1.73 -7.563966,3.078 8.267965,1.702 14.042959,4.868 17.327959,9.5 0.35,0.526 0.496,1.669 0.438,3.429 z m -12.928989,-25.861 c -2.110988,-0.586 -4.661973,-0.938 -7.652955,-1.056 h -4.74997 c -1.350002,0 -2.814002,0.176 -4.397002,0.527 0.469,3.285 0.732,5.689 0.792,7.213 v 5.278 c 3.048,-0.469 7.240981,-1.612 12.577948,-3.431 2.755982,-0.938 4.484977,-1.905 5.188976,-2.903 0.937999,-1.348 1.406998,-2.345 1.406998,-2.99 0,-1.171 -1.055999,-2.051 -3.165995,-2.638 z m 7.386989,26.653 c 0.469,-0.938 0.469,-1.729 0,-2.375 -4.221994,-5.219 -10.437971,-7.829 -18.64692,-7.829 -1.349996,0 -2.813996,0.06 -4.396996,0.176 0.293,6.1 0.732,12.345 1.319,18.736 0,0.41 0,0.646 0,0.703 0.232,0.411 0.436,0.88 0.61,1.407 3.141993,-0.352 7.081966,-1.539 11.822936,-3.562 4.739986,-2.023 7.838982,-4.442 9.29198,-7.256 z"
               stroke-width="1"
               style="stroke:#ffffff;stroke-width:3.74542;stroke-linecap:round;stroke-linejoin:round;stroke-miterlimit:4;stroke-dasharray:none;stroke-opacity:1;paint-order:normal" />
          </g>
        </g>
        <g
           id="g76"
           transform="translate(-154.29196,-115.76006)"
           style="display:inline;stroke:#ffffff;stroke-width:3.74542;stroke-linecap:round;stroke-linejoin:round;stroke-miterlimit:4;stroke-dasharray:none;stroke-opacity:1;paint-order:normal"
           inkscape:label="ID0.4667737828567624-O">
          <g
             id="g75"
             inkscape:label="O-F"
             style="stroke:#ffffff;stroke-width:3.74542;stroke-linecap:round;stroke-linejoin:round;stroke-miterlimit:4;stroke-dasharray:none;stroke-opacity:1;paint-order:normal">
            <path
               id="path74"
               fill="#ffffff"
               d="m 80.588972,179.92215 c 0,1.953 -0.423907,5.2524 -1.267228,9.89549 -0.263709,1.6893 -0.791113,3.4578 -1.584037,5.3046 -1.21502,2.745 -3.28507,5.17321 -6.213752,7.2837 -2.929581,2.1105 -5.766471,3.1662 -8.510643,3.1662 -0.897318,0 -1.715445,-0.1314 -2.454363,-0.39511 -4.011417,-1.2663 -7.124611,-3.6675 -9.341374,-7.20449 -0.423909,-0.6849 -0.977427,-1.84679 -1.663247,-3.483 -0.738918,-1.8468 -1.147527,-3.2715 -1.226736,-4.275 -0.0792,-1.0017 -0.2772,-2.3211 -0.59401,-3.95729 v -5.859 c 0.210601,-0.1044 0.105301,-0.2628 -0.316808,-0.4743 h 0.475209 c 0,-0.2637 0.1044,-0.765 0.316809,-1.5039 0.209709,-0.7389 0.316809,-1.2933 0.316809,-1.6632 0,-0.3168 -0.0792,-0.6066 -0.237609,-0.8712 0.209709,0 0.395118,-0.0792 0.553518,-0.2376 -0.0531,-0.1053 -0.185409,-0.1584 -0.395109,-0.1584 0.0522,-0.0522 0.1449,-0.1314 0.277208,-0.2376 0.131401,-0.1053 0.224101,-0.1845 0.27811,-0.2376 -0.054,-0.0531 -0.118809,-0.0927 -0.198909,-0.1197 -0.0792,-0.0252 -0.145809,-0.0648 -0.19801,-0.1188 0.31771,-0.8442 0.606619,-2.00519 0.871228,-3.48299 0.209709,-1.2132 0.63362,-2.8755 1.266338,-4.9869 0.950426,-3.06 3.11409,-6.2271 6.491884,-9.5004 0.950427,-0.89639 1.979154,-1.4508 3.08799,-1.6623 0.1584,0 1.187136,-0.0531 3.08799,-0.15929 2.638872,-0.1044 5.118443,0.4491 7.441407,1.6632 2.692872,1.3725 4.802529,3.43079 6.333466,6.17489 0.792913,1.4247 1.530925,3.3516 2.21675,5.7789 0.792912,2.691 1.188018,5.01389 1.188018,6.96599 v 4.3551 z m -5.224613,-8.78669 c -0.315006,-0.738 -0.684012,-1.68841 -1.104332,-2.8503 -0.527409,-2.37511 -2.092554,-4.5639 -4.695426,-6.5709 -2.603772,-2.0052 -5.009551,-2.90159 -7.219107,-2.69099 -0.999027,0.1062 -2.682973,1.76939 -5.050944,4.98778 -1.157427,1.53091 -2.313967,4.5918 -3.470494,9.18271 -1.052136,4.27499 -1.552545,7.57349 -1.498545,9.89549 0.104399,2.9556 0.262809,5.01389 0.473409,6.174 0.367218,2.16449 1.156536,4.14359 2.366172,5.9382 1.157431,1.58309 2.052058,2.61179 2.682976,3.08789 2.366172,1.68931 4.600935,2.5326 6.706082,2.5326 0.472515,0 0.919824,-0.0522 1.341034,-0.1584 0.999036,-0.1584 2.181672,-0.8172 3.549708,-1.9791 1.157436,-1.0557 2.025063,-2.03129 2.604681,-2.9295 0.788418,-1.3185 1.525536,-3.2976 2.209554,-5.9373 1.051232,-3.85199 1.578638,-7.94249 1.578638,-12.27059 0.0018,-2.3211 -0.156599,-4.45859 -0.473406,-6.41159 z"
               stroke-width="1"
               style="stroke:#ffffff;stroke-width:3.74542;stroke-linecap:round;stroke-linejoin:round;stroke-miterlimit:4;stroke-dasharray:none;stroke-opacity:1;paint-order:normal" />
          </g>
        </g>
        <g
           id="g78"
           transform="translate(-193.80489,-109.93892)"
           style="display:inline;stroke:#ffffff;stroke-width:3.74542;stroke-linecap:round;stroke-linejoin:round;stroke-miterlimit:4;stroke-dasharray:none;stroke-opacity:1;paint-order:normal"
           inkscape:label="ID0.5629414552822709-R">
          <g
             id="g77"
             inkscape:label="R-F"
             style="stroke:#ffffff;stroke-width:3.74542;stroke-linecap:round;stroke-linejoin:round;stroke-miterlimit:4;stroke-dasharray:none;stroke-opacity:1;paint-order:normal">
            <path
               id="path76"
               fill="#ffffff"
               d="m 91.897228,203.02582 c 0.233,0.88 -0.161,2.215 -1.186,4.003 -1.023,1.789 -2.104994,3.064 -3.245988,3.826 -1.141001,0.762 -2.911009,1.261 -5.308004,1.495 -1.931001,0.176 -3.730001,-0.675 -5.395996,-2.551 -1.668,-1.876 -2.617,-3.958 -2.851,-6.245 -0.645,-6.45 -1.464,-11.083 -2.458,-13.898 -0.118,-0.703 -0.439,-1.743 -0.965996,-3.122 -0.526,-1.377 -1.725,-2.507 -3.596998,-3.387 -1.404997,-0.527 -2.836997,-1.084 -4.298997,-1.671 -0.234,-0.058 -0.526,-0.058 -0.877,0 -0.819,0.234 -2.517,0.703 -5.09,1.407 v 1.671 6.861 c 0,0.118 0.044,0.675 0.132,1.671 0.088,0.998 0.132,1.702 0.132,2.111 0.117,0.998 0.265,3.637 0.44,7.916 0.409,0.177 0.849,0.177 1.319,0 1.583,-0.645 2.99,-0.791 4.222,-0.439 0.88,0.294 1.319,0.998 1.319,2.111 0,1.643 -0.865,2.625 -2.595,2.946 -1.73,0.323 -4.266,0.778 -7.608,1.364 -2.698,0.527 -4.692,0.791 -5.981,0.791 -1.994002,0 -3.373002,-0.469 -4.134002,-1.407 -0.176,-1.936 0.82,-3.107 2.99,-3.519 1.760002,-0.176 3.519002,-0.381 5.277002,-0.616 0.234,-0.292 0.353,-0.615 0.353,-0.967 -0.06,-1.349 -0.382,-6.187 -0.968,-14.514 -0.176,-1.993 -0.235,-3.519 -0.176,-4.574 -1.056,-0.058 -1.76,-0.146 -2.111,-0.264 -0.88,-0.293 -1.438002,-0.85 -1.671002,-1.671 v -0.265 c 0.116,-0.058 0.204,-0.352 0.264,-0.879 0.820002,-1.29 1.876002,-1.788 3.167002,-1.496 0.116,-0.352 0.088,-1.289 -0.089,-2.814 -0.527,-5.57 -0.851,-10.027 -0.967,-13.37 -0.235,-0.233 -0.734,-0.293 -1.496,-0.176 -1.173002,0.235 -1.789002,0.352 -1.847002,0.352 -3.167,0 -4.692,-0.761 -4.574,-2.287 0.117,-1.407 1.319,-2.256 3.606,-2.551 2.052,-0.409 6.362001,-1.055 12.931001,-1.935 -0.294,0.059 1.788,0.146 6.245,0.264 5.158996,0.411 8.765992,1.262 10.818992,2.551 2.227995,1.467 3.722995,3.401 4.484995,5.806 0.233,0.763 0.293,1.906 0.176,3.431 -0.059,1.525 -0.294,2.609 -0.703,3.254 -1.35,2.463 -4.075995,4.662 -8.180995,6.598 0,0.176 0.029,0.294 0.088,0.352 1.466,1.056 2.463,1.994 2.991,2.814 1.523,2.463 2.551,6.041 3.077995,10.731 0.762,6.393 1.377,10.409 1.847,12.051 0.059,0.352 0.469,0.909 1.231,1.671 0.762,0.764 1.378001,1.174 1.847998,1.231 1.815998,0.118 2.932002,-0.703 3.342999,-2.463 -0.06,-0.645 0.204007,-1.524 0.791004,-2.639 0.821004,-0.762 1.816998,-1.144 2.990992,-1.144 1.175,0.002 1.937,0.531 2.29,1.585 z m -17.591988,-30.874 c 0.527,-0.527 0.791,-1.348 0.791,-2.463 0,-2.99 -1.056,-5.13 -3.166,-6.421 -2.110996,-1.289 -6.685991,-1.876 -13.722991,-1.759 -0.527,0 -1.319,0.234 -2.375,0.703 0.177,0.88 0.177,1.613 0,2.199 -0.059,0.88 -0.059,1.701 0,2.463 0.029,1.583 0.089,3.549 0.177,5.894 0.292,3.46 0.439,5.396 0.439,5.805 0.996,-0.058 2.463,-0.352 4.398,-0.879 0.292,-0.293 0.703,-0.616 1.231,-0.968 0.409,-0.117 1.465,-0.176 3.166,-0.176 3.225995,10e-4 6.246991,-1.464 9.061991,-4.398 z"
               stroke-width="1"
               style="stroke:#ffffff;stroke-width:3.74542;stroke-linecap:round;stroke-linejoin:round;stroke-miterlimit:4;stroke-dasharray:none;stroke-opacity:1;paint-order:normal" />
          </g>
        </g>
      </g>
      <g
         id="g88"
         inkscape:label="PISH"
         transform="translate(90.563562,-57.877051)"
         style="stroke:#ffffff;stroke-width:3.74542;stroke-linecap:round;stroke-linejoin:round;stroke-miterlimit:4;stroke-dasharray:none;stroke-opacity:1;paint-order:normal">
        <g
           id="g81"
           transform="translate(-36.374599,48.043597)"
           style="display:inline;stroke:#ffffff;stroke-width:3.74542;stroke-linecap:round;stroke-linejoin:round;stroke-miterlimit:4;stroke-dasharray:none;stroke-opacity:1;paint-order:normal"
           inkscape:label="ID0.3487820033915341-H">
          <g
             id="g80"
             style="display:inline;stroke:#ffffff;stroke-width:3.74542;stroke-linecap:round;stroke-linejoin:round;stroke-miterlimit:4;stroke-dasharray:none;stroke-opacity:1;paint-order:normal"
             inkscape:label="H-F">
            <path
               id="path79"
               fill="#ffffff"
               d="m 69.90096,211.52756 c 0.0493,0.49726 -0.22525,1.07101 -0.822799,1.71871 -0.5984,0.6477 -1.645599,0.97239 -3.139897,0.97239 -0.34935,0 -0.9231,0 -1.71955,0 -0.797302,0.0493 -1.420352,0.0748 -1.869151,0.0748 -0.946901,0 -1.919302,0.0748 -2.915501,0.22524 -0.5491,0.0986 -1.719549,0.49725 -3.514747,1.19595 -1.595449,0.64686 -2.791397,0.97241 -3.588697,0.97241 -0.64855,0 -1.246949,-0.23716 -1.794348,-0.7106 -0.5491,-0.47431 -0.82195,-1.0353 -0.82195,-1.68216 0,-1.04635 1.220599,-1.8683 3.663497,-2.4667 3.538547,-0.8976 5.357545,-1.37105 5.457845,-1.42035 -0.100297,-3.1892 -0.2244,-6.8527 -0.373149,-10.99135 -0.1496,-3.8879 -0.22525,-5.73155 -0.22525,-5.53265 v -4.1871 c 0,-0.0502 0,-0.4233 0,-1.122 0.05015,-0.54825 0.05015,-0.9452 0,-1.19595 -0.05015,-0.44795 -0.224399,-0.72165 -0.52275,-0.82195 -0.05015,-0.0502 -0.797299,-0.0757 -2.243148,-0.0757 -2.493047,0.051 -5.383045,0.40035 -8.672542,1.04635 -1.246949,0.30005 -3.116098,0.7242 -5.608296,1.2716 v 10.69129 c 0.0493,0.19976 0.0748,1.17216 0.0748,2.91636 0,1.39655 0.15045,2.24315 0.4488,2.5415 0.249049,0.1003 1.569948,0.19975 3.962697,0.30005 1.644748,0.0502 2.665598,0.64854 3.065097,1.7935 0.0986,0.30005 -0.0136,0.748 -0.336599,1.3464 -0.324701,0.59755 -0.66045,0.97239 -1.0098,1.12115 -0.797299,0.2992 -1.345549,0.44795 -1.644749,0.44795 -1.097349,-0.0502 -3.813096,-0.27455 -8.149793,-0.67235 h -4.860295 c -0.7973,-0.051 -1.56995,-0.28815 -2.317948,-0.7106 -0.748,-0.4233 -1.12115,-0.90866 -1.12115,-1.4586 0,-0.79645 0.47345,-1.44415 1.420349,-1.94311 0.748,-0.34849 1.570799,-0.5236 2.467548,-0.5236 0.34765,0 0.9724,0.0136 1.868299,0.0374 0.897598,0.0255 1.544448,0.0136 1.943948,-0.0374 -0.100297,-1.93545 -0.100297,-4.89004 0,-8.86379 0,0.051 0,-2.01025 0,-6.18035 0,-0.14876 0.06205,-0.459 0.18785,-0.9316 0.1241,-0.47175 0.187,-0.83215 0.187,-1.0795 -0.19975,-0.1989 -0.400351,-0.4964 -0.5984,-0.8942 -0.100297,-0.39695 -0.100297,-0.74375 0,-1.04381 0.3485,-0.79474 0.47345,-2.0349 0.37315,-3.72384 0,-0.29751 0.03825,-0.8058 0.113049,-1.52576 0.0748,-0.71994 0.112201,-1.25459 0.112201,-1.60224 0,-0.64515 -0.12495,-2.3579 -0.374,-5.1391 v -6.18206 c 0,-0.29664 -0.09775,-0.76839 -0.29325,-1.41439 -1.370199,0.14959 -2.374048,0.2244 -3.008997,0.2244 -2.838998,0 -4.404696,-1.02085 -4.697096,-3.0651 0.747148,-1.5436 2.117348,-2.31795 4.112297,-2.31795 -0.051,0 1.121148,0.1003 3.513896,0.2992 2.243148,0.19975 3.862397,0.2499 4.860296,0.1496 2.790548,-0.1496 4.037497,-0.2244 3.737446,-0.2244 2.741249,0 3.962697,0.8228 3.664348,2.46755 -0.2499,1.19594 -1.396549,1.81985 -3.439947,1.8683 -1.545299,0.051 -3.064248,0.1003 -4.560246,0.1496 0.261799,1.7459 0.436049,3.68985 0.523599,5.83185 0,1.34554 0,3.2657 0,5.75705 0,2.6911 0,4.63505 0,5.831 0.0493,0.051 0.1241,0.10029 0.2244,0.1496 0.797299,0.051 1.594599,0.0748 2.391898,0.0748 1.843648,0 4.211747,-0.1496 7.102594,-0.44795 3.887896,-0.44794 6.253445,-0.69699 7.101744,-0.74799 0.24905,-1.59461 0.374,-3.48841 0.374,-5.68225 0,-4.13696 -0.34935,-8.77201 -1.04635,-13.90686 0.0493,0 -0.946898,0 -2.991147,0 -1.046349,0 -1.994099,-0.19125 -2.841547,-0.57545 -0.84745,-0.3842 -1.270749,-1.16619 -1.270749,-2.346 0,-0.51254 0.174249,-0.92225 0.523599,-1.2291 0.9962,-0.87125 2.216798,-1.3073 3.663497,-1.3073 2.691947,0 3.787597,0.0748 3.289497,0.2244 h 5.158649 c 0.19805,0 0.6596,-0.0374 1.382953,-0.1122 0.722498,-0.0748 1.283498,-0.1122 1.682148,-0.1122 1.594599,0 2.591647,0.50065 2.991148,1.4977 0.198049,0.40035 0.299199,0.77521 0.299199,1.12285 0,1.0982 -1.021699,1.7476 -3.065097,1.94736 -1.495148,0.051 -2.991151,0.10029 -4.485452,0.14959 0.548252,5.93895 0.822801,11.65435 0.822801,17.14535 v 19.84152 c 0,0.30005 0.06375,0.87465 0.192951,1.7221 0.169999,1.29795 0.255849,2.5704 0.255849,3.8182 -0.05015,2.24655 -0.05015,3.99414 0,5.24194 0.09945,0.14961 0.19805,0.27286 0.2992,0.37316 2.442052,-0.34935 3.638,-0.52275 3.589551,-0.52275 1.794347,0.002 2.740397,0.72335 2.840697,2.17004 z"
               stroke-width="1"
               style="stroke:#ffffff;stroke-width:3.74542;stroke-linecap:round;stroke-linejoin:round;stroke-miterlimit:4;stroke-dasharray:none;stroke-opacity:1;paint-order:normal" />
          </g>
        </g>
        <g
           id="g83"
           transform="translate(-79.570236,67.134422)"
           style="display:inline;stroke:#ffffff;stroke-width:3.74542;stroke-linecap:round;stroke-linejoin:round;stroke-miterlimit:4;stroke-dasharray:none;stroke-opacity:1;paint-order:normal"
           inkscape:label="ID0.9805312547832727-S">
          <g
             id="g82"
             style="display:inline;stroke:#ffffff;stroke-width:3.74542;stroke-linecap:round;stroke-linejoin:round;stroke-miterlimit:4;stroke-dasharray:none;stroke-opacity:1;paint-order:normal"
             inkscape:label="S-F">
            <path
               id="path81"
               fill="#ffffff"
               d="m 67.174454,182.09686 c 0.293,3.637 0.233,5.981 -0.176,7.037 -1.702,4.809 -7.420005,7.828 -17.152005,9.06 -3.285,0.411 -6.568,-1.143 -9.853,-4.662 0,0.528 0.117,2.111 0.353,4.751 0.176,1.935 0.146,3.518 -0.088,4.749 -1.467,0.938 -2.639,1.408 -3.519,1.408 -1.35,0 -2.023,-1.319 -2.023,-3.959 0,-0.469 0.029,-1.216 0.088,-2.242 0.058,-1.025 0.088,-1.744 0.088,-2.155 0,-0.997 -0.088,-1.7 -0.264,-2.111 v -4.838 c 0,-0.117 0.029,-0.249 0.088,-0.396 0.058,-0.146 0.117,-0.278 0.176,-0.396 -0.059,-0.82 -0.03,-2.081 0.088,-3.782 0.117,-1.056 0.117,-1.729 0,-2.023 -0.294,-0.585 -0.439,-0.937 -0.439,-1.055 0.233,-1.642 1.437,-2.463 3.606,-2.463 1.407,0 2.257,0.499 2.551,1.495 0,0.938 0.117,2.317 0.352,4.134 0.353,2.111 1.466,4.223 3.343,6.333 2.052,2.405 4.016,3.519 5.894,3.343 2.111,-0.233 4.222,-0.732 6.333,-1.495 2.932,-1.056 4.691,-2.287 5.278,-3.694 0.409,-1.056 0.615,-2.169 0.615,-3.343 0,-3.576 -1.319,-6.245 -3.958,-8.004 -1.174,-0.762 -3.343,-1.378 -6.51,-1.848 -1.818,-0.233 -2.933,-0.352 -3.342,-0.352 -2.815,0.059 -5.44,-0.85 -7.873,-2.727 -2.434,-1.876 -3.65,-4.047 -3.65,-6.51 v -5.101 c 0,-1.113 0.645,-3.723 1.936,-7.828 0.585,-1.936 0.908,-2.961 0.968,-3.079 0.527,-1.231 1.201,-2.052 2.022,-2.463 1.993,-0.996 4.104,-1.495 6.333,-1.495 4.339,0 7.535,1.759 9.588,5.277 0.176,0.176 0.469,0.44 0.88,0.792 0.058,-0.82 0.176,-2.081 0.352,-3.782 -0.059,-0.762 -0.118,-1.495 -0.176,-2.199 0,-0.82 0.409,-1.377 1.231,-1.671 0.234,-0.117 0.557,-0.205 0.968,-0.264 0.586,-0.117 1.217,0.03 1.892,0.439 0.672995,0.411 0.951995,1.643 0.834995,3.694 -0.059,1.29 -0.176,3.108 -0.352,5.453 -0.176,1.936 -0.438995,4.897 -0.791995,8.885 0.117,0.938 0.117,2.229 0,3.87 -0.294,1.114 -1.174,1.671 -2.639,1.671 -0.763,0 -1.495,-0.205 -2.199,-0.615 -0.352,-1.113 -0.527,-1.584 -0.527,-1.408 0.116,-1.583 -0.206,-3.694 -0.968,-6.333 -0.646,-1.348 -1.539,-3.268 -2.683,-5.761 -1.144,-2.492 -2.654,-3.827 -4.53,-4.003 -2.346,-0.176 -3.87,0.616 -4.574,2.375 -0.234,0.763 -0.558,1.878 -0.967,3.343 -0.704,2.17 -1.144,4.252 -1.32,6.245 -0.059,0.646 -0.118,0.91 -0.176,0.792 0.176,1.174 0.381,2.346 0.616,3.519 0.293,1.466 1.012,2.581 2.155,3.342 1.144,0.763 3.327,1.231 6.553,1.407 7.916,0.471 12.811995,3.227 14.689005,8.269 0.292,0.47 0.585,1.261 0.879,2.374 z"
               stroke-width="1"
               style="stroke:#ffffff;stroke-width:3.74542;stroke-linecap:round;stroke-linejoin:round;stroke-miterlimit:4;stroke-dasharray:none;stroke-opacity:1;paint-order:normal" />
          </g>
        </g>
        <g
           id="g85"
           transform="translate(-93.901766,51.9785)"
           inkscape:label="ID0.0413050539791584-I"
           style="stroke:#ffffff;stroke-width:3.74542;stroke-linecap:round;stroke-linejoin:round;stroke-miterlimit:4;stroke-dasharray:none;stroke-opacity:1;paint-order:normal">
          <g
             id="g84"
             inkscape:label="I-F"
             style="stroke:#ffffff;stroke-width:3.74542;stroke-linecap:round;stroke-linejoin:round;stroke-miterlimit:4;stroke-dasharray:none;stroke-opacity:1;paint-order:normal">
            <path
               id="path83"
               fill="#ffffff"
               d="m 43.169819,154.47109 c 0.0493,0.2499 0.0748,0.49895 0.0748,0.748 0,1.19595 -0.7973,1.96945 -2.3919,2.31795 -1.34555,0.1003 -2.667299,0.2244 -3.962699,0.37315 -0.3995,0.051 -0.57375,0.30005 -0.52275,0.748 0.0493,0.3995 0.0986,0.7973 0.1496,1.19595 0,1.24695 0.0493,3.0651 0.1496,5.45786 v 28.11205 c 0.45305,0.1003 1.4875,0.15045 3.09995,0.15045 1.310699,-0.0501 2.243148,0.1003 2.798199,0.44795 0.35275,0.2499 0.580549,0.7735 0.680849,1.5708 0.0493,0.74715 -0.0748,1.34555 -0.372299,1.7935 -0.54655,0.40035 -1.38975,0.8228 -2.531299,1.2716 l -5.3618,-0.30005 h -1.78755 c -1.78755,0 -3.0787,0 -3.873449,0 -1.540199,-0.0986 -2.3579,-0.1496 -2.4565,-0.1496 -1.09395,-0.19805 -1.788399,-0.697 -2.08505,-1.49515 -0.150449,-0.4488 0.0442,-1.02085 0.58395,-1.71955 0.5389,-0.697 1.101601,-1.12115 1.6881,-1.27075 1.3685,0.0501 3.12885,-0.0995 5.279349,-0.4488 0,-2.79055 0,-8.22461 0,-16.29875 -0.051,-1.59461 -0.051,-3.19006 0,-4.78551 0,-1.99325 0,-3.38894 0,-4.1871 v -5.0099 c 0.0493,-1.19595 -0.0748,-2.79055 -0.374,-4.78465 -1.745049,0.2992 -2.866199,0.44795 -3.364299,0.44795 -1.5453,0 -2.691099,-0.49725 -3.439099,-1.49515 -0.100305,-0.30005 -0.1496,-0.5729 -0.1496,-0.8228 0,-1.94395 2.018749,-3.1144 6.056248,-3.51475 1.8938,-0.19805 3.71195,-0.1496 5.457849,0.15045 1.444999,0.1496 2.916349,0.2992 4.410649,0.44795 1.346399,0.10285 2.0944,0.4505 2.243151,1.0489 z"
               stroke-width="1"
               style="stroke:#ffffff;stroke-width:3.74542;stroke-linecap:round;stroke-linejoin:round;stroke-miterlimit:4;stroke-dasharray:none;stroke-opacity:1;paint-order:normal" />
          </g>
        </g>
        <g
           id="g87"
           style="display:inline;stroke:#ffffff;stroke-width:3.74542;stroke-linecap:round;stroke-linejoin:round;stroke-miterlimit:4;stroke-dasharray:none;stroke-opacity:1;paint-order:normal"
           inkscape:label="ID0.5210809488780797-P"
           transform="translate(-131.06483,63.322243)">
          <g
             id="g86"
             style="display:inline;stroke:#ffffff;stroke-width:3.74542;stroke-linecap:round;stroke-linejoin:round;stroke-miterlimit:4;stroke-dasharray:none;stroke-opacity:1;paint-order:normal"
             inkscape:label="P-F">
            <path
               id="path85"
               fill="#ffffff"
               d="m 62.380812,161.8148 c -0.759961,3.98808 -2.659866,6.94913 -5.696713,8.88417 -2.103894,1.35002 -5.259736,2.37504 -9.465524,3.07905 -5.143741,0.88002 -8.297583,1.52503 -9.465524,1.93604 v 4.57308 c 0.174991,1.87804 0.291985,5.4841 0.349982,10.8192 0.058,3.57707 0.378981,6.48012 0.961952,8.70816 0.058,0.11801 0.494975,0.11801 1.310934,0 1.105945,-0.058 2.79586,-0.205 5.068745,-0.439 0.465977,-0.11701 1.164942,-0.26401 2.097895,-0.44001 1.630918,-0.176 2.736862,0.118 3.319833,0.88001 0.348982,0.41101 0.523973,0.99802 0.523973,1.76004 0,1.46702 -0.658966,2.34604 -1.9789,2.63905 -1.318934,0.294 -2.801859,0.352 -4.441777,0.176 -0.937953,-0.116 -2.141892,-0.088 -3.605818,0.088 -2.110894,0.23501 -3.283835,0.35201 -3.518823,0.35201 -1.230938,0.06 -3.239838,0.295 -6.024698,0.70401 -2.78486,0.40901 -4.764761,0.61601 -5.936702,0.61601 -1.877905,0 -3.226838,-0.359 -4.046796,-1.07402 -0.702965,-0.53701 -0.850958,-1.13402 -0.438978,-1.79003 0.408979,-0.83602 0.879956,-1.34303 1.406929,-1.52103 1.172941,-0.47801 2.813858,-0.71701 4.925752,-0.71701 1.464927,0 3.399829,-0.17401 5.805708,-0.52601 -0.117994,-0.99502 -0.146992,-2.45705 -0.08799,-4.39008 0,-0.46701 -0.06,-1.17103 -0.175991,-2.10804 0,-0.058 -0.044,-0.20301 -0.132994,-0.43701 -0.08799,-0.234 -0.131993,-0.41001 -0.131993,-0.52801 0,-2.16604 -0.03,-3.48206 -0.088,-3.95107 -0.233988,-0.81902 -0.321983,-2.36905 -0.263986,-4.65309 0,-3.21906 0,-5.00309 0,-5.3551 0,-0.35201 -0.059,-0.71701 -0.175992,-1.09802 -0.117994,-0.37901 -0.175991,-0.60001 -0.175991,-0.65801 v -5.88311 c 0,1.05502 -0.234988,-4.56408 -0.703964,-16.85631 0,-0.40901 -0.175991,-0.73102 -0.526974,-0.96602 -0.762961,0.059 -1.949902,0.26401 -3.561821,0.61501 -1.612919,0.35201 -2.800859,0.52701 -3.561821,0.52701 -1.466926,0 -2.638867,-0.49701 -3.518823,-1.49503 -0.059,-0.409 -0.08799,-0.79101 -0.08799,-1.14402 0,-0.52701 0.175991,-0.93701 0.526973,-1.23102 1.289935,-0.99602 3.254837,-1.61203 5.893704,-1.84703 2.051897,-0.11701 4.134792,-0.23301 6.244686,-0.35201 0.292985,0 0.703965,0 1.230938,0 0.527973,0 0.908954,0 1.143942,0 0.468978,0 1.847909,0 4.134794,0 1.640917,-0.059 2.989849,-0.059 4.045796,0 2.695864,0.234 6.186689,0.90902 10.467474,2.02204 0.175991,0.06 1.054947,0.49901 2.638867,1.31902 1.054947,0.52801 2.110894,1.31903 3.165841,2.37504 1.288935,1.23103 2.022898,2.40505 2.198889,3.51907 0.292985,2.05104 0.40998,3.34106 0.350982,3.86807 z m -5.276734,-1.19402 c -1.056947,-5.00809 -7.270635,-7.54214 -18.646062,-7.60214 -0.293986,0 -0.733964,0.178 -1.318934,0.53001 0,0.59001 0.08799,2.77005 0.263987,6.54112 0.058,2.47605 0.204989,6.18811 0.437978,11.13721 0.114994,0 0.932953,-0.088 2.451876,-0.26601 0.465977,0 1.106945,-0.088 1.924903,-0.265 2.80286,-0.47101 5.633717,-0.97202 8.494573,-1.50303 3.442827,-0.82402 5.485724,-2.68005 6.128692,-5.56811 0.350982,-1.23702 0.438978,-2.23704 0.262987,-3.00405 z"
               stroke-width="1"
               style="display:inline;stroke:#ffffff;stroke-width:3.74542;stroke-linecap:round;stroke-linejoin:round;stroke-miterlimit:4;stroke-dasharray:none;stroke-opacity:1;paint-order:normal" />
          </g>
        </g>
      </g>
    </g>
  </g>
</svg>
