<?xml version="1.0" encoding="UTF-8" standalone="no"?>
<!-- Creator: CorelDRAW 2020 (64-Bit) -->

<svg
   xml:space="preserve"
   width="233.86313"
   height="139.91176"
   version="1.1"
   style="clip-rule:evenodd;fill-rule:evenodd;image-rendering:optimizeQuality;shape-rendering:geometricPrecision;text-rendering:geometricPrecision"
   viewBox="0 0 5144.9888 3078.0587"
   id="svg2183"
   sodipodi:docname="prb-illustration.svg"
   inkscape:version="1.1 (c68e22c387, 2021-05-23)"
   xmlns:inkscape="http://www.inkscape.org/namespaces/inkscape"
   xmlns:sodipodi="http://sodipodi.sourceforge.net/DTD/sodipodi-0.dtd"
   xmlns:xlink="http://www.w3.org/1999/xlink"
   xmlns="http://www.w3.org/2000/svg"
   xmlns:svg="http://www.w3.org/2000/svg"><sodipodi:namedview
   id="namedview2185"
   pagecolor="#ffffff"
   bordercolor="#666666"
   borderopacity="1.0"
   inkscape:pageshadow="2"
   inkscape:pageopacity="0.0"
   inkscape:pagecheckerboard="0"
   inkscape:document-units="px"
   showgrid="false"
   fit-margin-top="0"
   fit-margin-left="0"
   fit-margin-right="0"
   fit-margin-bottom="0"
   units="px"
   inkscape:zoom="1.7731238"
   inkscape:cx="108.28347"
   inkscape:cy="56.679629"
   inkscape:window-width="1600"
   inkscape:window-height="847"
   inkscape:window-x="-8"
   inkscape:window-y="-8"
   inkscape:window-maximized="1"
   inkscape:current-layer="Layer_x0020_1"
   scale-x="80" />
 <defs
   id="defs2136"><linearGradient
   inkscape:collect="always"
   id="linearGradient3283"><stop
     style="stop-color:#cccccc;stop-opacity:1;"
     offset="0"
     id="stop3279" /><stop
     style="stop-color:#cccccc;stop-opacity:0;"
     offset="1"
     id="stop3281" /></linearGradient><linearGradient
   inkscape:collect="always"
   id="linearGradient15816"><stop
     style="stop-color:#009846;stop-opacity:1;"
     offset="0"
     id="stop15812" /><stop
     style="stop-color:#009846;stop-opacity:0;"
     offset="1"
     id="stop15814" /></linearGradient><linearGradient
   inkscape:collect="always"
   id="linearGradient11812"><stop
     style="stop-color:#e31e24;stop-opacity:1;"
     offset="0"
     id="stop11808" /><stop
     style="stop-color:#e31e24;stop-opacity:0;"
     offset="1"
     id="stop11810" /></linearGradient><linearGradient
   inkscape:collect="always"
   id="linearGradient11796"><stop
     style="stop-color:#009846;stop-opacity:1;"
     offset="0"
     id="stop11792" /><stop
     style="stop-color:#009846;stop-opacity:0;"
     offset="1"
     id="stop11794" /></linearGradient><linearGradient
   inkscape:collect="always"
   id="linearGradient9434"><stop
     style="stop-color:#32fa64;stop-opacity:1;"
     offset="0"
     id="stop9430" /><stop
     style="stop-color:#32fa64;stop-opacity:0;"
     offset="1"
     id="stop9432" /></linearGradient>
  <style
   type="text/css"
   id="style2134">
   <![CDATA[
    .str1 {stroke:#898989;stroke-width:3;stroke-miterlimit:2.61313}
    .str8 {stroke:#727271;stroke-width:55.56;stroke-linejoin:bevel;stroke-miterlimit:2.61313}
    .str0 {stroke:#898989;stroke-width:20.83;stroke-linejoin:bevel;stroke-miterlimit:2.61313}
    .str6 {stroke:#898989;stroke-width:6.94;stroke-linejoin:bevel;stroke-miterlimit:2.61313}
    .str7 {stroke:#EBECEC;stroke-width:3;stroke-linejoin:bevel;stroke-miterlimit:2.61313}
    .str3 {stroke:#B2B3B3;stroke-width:3;stroke-linejoin:bevel;stroke-miterlimit:2.61313}
    .str4 {stroke:#E31E24;stroke-width:3;stroke-linejoin:bevel;stroke-miterlimit:2.61313}
    .str2 {stroke:#00A0E3;stroke-width:3;stroke-linejoin:bevel;stroke-miterlimit:2.61313}
    .str5 {stroke:#009846;stroke-width:3;stroke-linejoin:bevel;stroke-miterlimit:2.61313}
    .fil8 {fill:none}
    .fil2 {fill:none;fill-rule:nonzero}
    .fil4 {fill:#B2B3B3}
    .fil5 {fill:#E31E24}
    .fil0 {fill:#F8F8F8}
    .fil7 {fill:#A2D9F7}
    .fil9 {fill:#4BB16C}
    .fil3 {fill:#00A0E3}
    .fil6 {fill:#009846}
    .fil1 {fill:#898989;fill-rule:nonzero}
   ]]>
  </style>
 <linearGradient
   inkscape:collect="always"
   xlink:href="#linearGradient9434"
   id="linearGradient9808"
   x1="1874.39"
   y1="1784.225"
   x2="3677.97"
   y2="1784.225"
   gradientUnits="userSpaceOnUse" /><linearGradient
   inkscape:collect="always"
   xlink:href="#linearGradient11796"
   id="linearGradient11798"
   x1="3886.8701"
   y1="1791.0601"
   x2="4007.99"
   y2="1791.0601"
   gradientUnits="userSpaceOnUse" /><linearGradient
   inkscape:collect="always"
   xlink:href="#linearGradient11812"
   id="linearGradient11814"
   x1="2715.6201"
   y1="2481.6101"
   x2="2836.73"
   y2="2481.6101"
   gradientUnits="userSpaceOnUse" /><linearGradient
   inkscape:collect="always"
   xlink:href="#linearGradient15816"
   id="linearGradient15818"
   x1="1544.36"
   y1="1791.0601"
   x2="1665.48"
   y2="1791.0601"
   gradientUnits="userSpaceOnUse" /><linearGradient
   inkscape:collect="always"
   xlink:href="#linearGradient3283"
   id="linearGradient3285"
   x1="203.70067"
   y1="1896.365"
   x2="5348.6593"
   y2="1896.365"
   gradientUnits="userSpaceOnUse" /></defs>
 <g
   id="Layer_x0020_1"
   inkscape:label="Layer 1"
   inkscape:groupmode="layer"
   transform="translate(-203.68567,-357.33567)">
  <metadata
   id="CorelCorpID_0Corel-Layer" />
  <path
   class="fil0 str0"
   d="M 1878.21,525.31 H 371.65 V 998.4 c 0,91.4 -15.92,182.11 -47.03,268.05 -147.36,407.02 -147.36,852.82 0,1259.84 31.11,85.94 47.03,176.65 47.03,268.05 v 473.09 h 1506.56 c 91.4,0 182.11,15.91 268.05,47.03 407.02,147.36 852.82,147.36 1259.84,0 85.94,-31.12 176.65,-47.03 268.05,-47.03 h 1506.56 v -473.09 c 0,-91.4 15.91,-182.11 47.03,-268.05 147.36,-407.02 147.36,-852.81 0,-1259.84 -31.11,-85.95 -47.03,-176.65 -47.03,-268.06 V 525.3 H 3674.15 c -91.41,0 -182.11,-15.91 -268.05,-47.03 -407.02,-147.36 -852.82,-147.36 -1259.84,0 -85.94,31.12 -176.65,47.03 -268.05,47.03 z"
   id="path11840"
   style="display:inline;fill:#ffffff;fill-opacity:1" /><path
   class="fil0 str0"
   d="M 1878.21,525.31 H 371.65 V 998.4 c 0,91.4 -15.92,182.11 -47.03,268.05 -147.36,407.02 -147.36,852.82 0,1259.84 31.11,85.94 47.03,176.65 47.03,268.05 v 473.09 h 1506.56 c 91.4,0 182.11,15.91 268.05,47.03 407.02,147.36 852.82,147.36 1259.84,0 85.94,-31.12 176.65,-47.03 268.05,-47.03 h 1506.56 v -473.09 c 0,-91.4 15.91,-182.11 47.03,-268.05 147.36,-407.02 147.36,-852.81 0,-1259.84 -31.11,-85.95 -47.03,-176.65 -47.03,-268.06 V 525.3 H 3674.15 c -91.41,0 -182.11,-15.91 -268.05,-47.03 -407.02,-147.36 -852.82,-147.36 -1259.84,0 -85.94,31.12 -176.65,47.03 -268.05,47.03 z"
   id="path2139"
   style="display:inline;fill:url(#linearGradient3285);fill-opacity:1;stroke:#737373;stroke-width:20.8;stroke-miterlimit:2.61313;stroke-dasharray:none;stroke-opacity:1" />
  <path
   class="fil1 str1"
   d="m 926.29,2035.12 h 34.22 c 6.56,0 12.41,0.58 17.56,1.74 5.15,1.16 9.84,4.52 14.08,10.07 4.24,5.55 6.36,12.36 6.36,20.44 0,16.15 -7.97,26.14 -23.92,29.98 l 30.89,46.93 h -26.19 l -30.59,-49.2 v 49.2 h -22.41 z m 22.41,50.87 h 8.48 c 5.85,0 10.42,-1.49 13.7,-4.49 3.28,-2.98 4.92,-7.17 4.92,-12.54 0,-10.55 -6,-15.82 -18.02,-15.82 h -9.09 v 32.85 z m 145.8,15.04 c 0,7.07 -0.68,13.88 -2.04,20.42 -1.36,6.56 -5.7,12.41 -13.02,17.54 -7.32,5.15 -16.33,7.72 -27.02,7.72 -6.76,0 -12.97,-1.06 -18.63,-3.18 -5.65,-2.12 -10.37,-5.17 -14.15,-9.13 -3.79,-3.99 -6.39,-8.35 -7.8,-13.1 -1.41,-4.72 -2.12,-11.48 -2.12,-20.26 v -65.91 h 22.41 v 63.94 c 0,4.92 0.23,9.26 0.69,13 0.45,3.74 2.42,6.94 5.9,9.67 3.48,2.72 7.95,4.09 13.4,4.09 6.76,0 11.53,-1.59 14.31,-4.77 2.78,-3.15 4.41,-5.98 4.92,-8.45 0.5,-2.47 0.76,-6.99 0.76,-13.53 v -63.94 h 22.41 v 65.91 z m 13.93,-65.91 h 21.35 l 49.2,65.1 c 2.43,3.33 5.15,9.19 8.18,17.56 -0.63,-3.83 -1.31,-7.87 -1.99,-12.11 -0.68,-4.24 -1.04,-6.81 -1.04,-7.72 v -62.83 h 22.41 v 109.16 h -20.74 l -50.26,-66.01 c -2.22,-2.93 -4.95,-8.58 -8.18,-16.96 l 0.61,3.48 1.06,5 1.81,10.3 v 64.19 h -22.41 z m 130.89,-3.46 16.05,3.46 -24.6,112.92 -16.23,-3.74 z m 27.48,80.22 c 8.15,10.6 16.96,15.9 26.4,15.9 4.84,0 8.88,-1.39 12.16,-4.16 3.26,-2.78 4.89,-6.23 4.89,-10.37 0,-3.74 -1.36,-6.56 -4.06,-8.48 -2.72,-1.92 -7.49,-4.11 -14.28,-6.59 -6.79,-2.47 -11.33,-4.31 -13.65,-5.52 -2.32,-1.21 -5.63,-3.69 -9.96,-7.42 -4.31,-3.73 -6.49,-9.99 -6.49,-18.77 0,-9.69 3.43,-17.67 10.27,-23.92 6.86,-6.26 15.62,-9.39 26.32,-9.39 13.3,0 24.07,4.95 32.35,14.84 l -11.81,14.38 c -6.23,-7.47 -12.92,-11.2 -20.06,-11.2 -4.04,0 -7.42,1.16 -10.12,3.48 -2.73,2.32 -4.09,5.3 -4.09,8.93 0,3.13 0.93,5.55 2.8,7.27 1.87,1.72 3.61,2.98 5.22,3.78 1.62,0.81 4.92,2.09 9.92,3.86 5,1.77 8.96,3.35 11.89,4.77 2.93,1.41 6.69,3.94 11.28,7.57 4.59,3.63 6.89,10.19 6.89,19.68 0,10.6 -3.63,19.28 -10.9,26.04 -7.27,6.76 -16.65,10.14 -28.16,10.14 -15.34,0 -27.76,-6.26 -37.24,-18.77 l 10.44,-16.05 z m 67.07,-76.76 h 72.98 v 19.83 h -25.44 v 89.33 H 1359 v -89.33 h -25.13 z m 130.81,-2.27 c 16.15,0 29.62,5.4 40.43,16.18 10.8,10.8 16.2,24.35 16.2,40.68 0,16.22 -5.4,29.78 -16.2,40.67 -10.8,10.88 -24.28,16.33 -40.43,16.33 -16.15,0 -29.63,-5.4 -40.43,-16.17 -10.8,-10.8 -16.2,-24.35 -16.2,-40.68 0,-16.22 5.4,-29.78 16.2,-40.68 10.8,-10.87 24.28,-16.33 40.43,-16.33 z m -34.22,57 c 0,9.87 3.33,18.3 9.99,25.31 6.66,6.99 14.74,10.5 24.22,10.5 9.49,0 17.56,-3.48 24.22,-10.42 6.66,-6.96 9.99,-15.47 9.99,-25.54 0,-9.87 -3.33,-18.32 -9.99,-25.39 -6.66,-7.04 -14.74,-10.57 -24.22,-10.57 -9.49,0 -17.56,3.48 -24.22,10.42 -6.66,6.96 -9.99,15.52 -9.99,25.69 z m 101.89,-54.73 h 33 c 5.65,0 11.23,0.48 16.73,1.44 5.5,0.96 10.47,4.36 14.91,10.22 4.44,5.85 6.66,13.07 6.66,21.65 0,10.59 -3,18.8 -9.01,24.6 -6.01,5.8 -14.41,8.7 -25.21,8.7 h -14.69 v 42.54 h -22.41 v -109.16 z m 22.41,48.6 h 9.09 c 5.45,0 9.71,-1.39 12.79,-4.19 3.08,-2.78 4.62,-6.66 4.62,-11.63 0,-9.84 -5.7,-14.76 -17.11,-14.76 h -9.39 v 30.59 z"
   id="path2141"
   style="display:inline" />
  <path
   class="fil1 str1"
   d="m 4159.2,2123.45 c 8.15,10.6 16.96,15.9 26.4,15.9 4.84,0 8.88,-1.39 12.16,-4.16 3.26,-2.78 4.89,-6.23 4.89,-10.37 0,-3.74 -1.36,-6.56 -4.06,-8.48 -2.72,-1.92 -7.49,-4.11 -14.28,-6.59 -6.79,-2.47 -11.33,-4.31 -13.65,-5.52 -2.32,-1.21 -5.63,-3.69 -9.96,-7.42 -4.31,-3.73 -6.49,-9.99 -6.49,-18.77 0,-9.69 3.43,-17.67 10.27,-23.92 6.86,-6.26 15.62,-9.39 26.32,-9.39 13.3,0 24.07,4.95 32.35,14.84 l -11.81,14.38 c -6.23,-7.47 -12.92,-11.2 -20.06,-11.2 -4.04,0 -7.42,1.16 -10.12,3.48 -2.73,2.32 -4.09,5.3 -4.09,8.93 0,3.13 0.93,5.55 2.8,7.27 1.87,1.72 3.61,2.98 5.22,3.78 1.62,0.81 4.92,2.09 9.92,3.86 5,1.77 8.96,3.35 11.89,4.77 2.93,1.41 6.69,3.94 11.28,7.57 4.59,3.63 6.89,10.19 6.89,19.68 0,10.6 -3.63,19.28 -10.9,26.04 -7.27,6.76 -16.65,10.14 -28.16,10.14 -15.34,0 -27.76,-6.26 -37.24,-18.77 l 10.44,-16.05 z m 375.63,-76.76 h 72.98 v 19.83 h -25.44 v 89.33 h -22.41 v -89.33 h -25.13 v -7.19 l -9.84,14.3 -4.39,-2.87 c -5.45,-3.43 -11.61,-5.15 -18.47,-5.15 -10.09,0 -18.52,3.43 -25.28,10.3 -6.76,6.87 -10.14,15.39 -10.14,25.59 0,10.4 3.35,19.05 10.07,25.97 6.71,6.91 15.11,10.37 25.21,10.37 2.32,0 4.67,-0.23 7.04,-0.68 2.37,-0.46 4.49,-1.11 6.36,-1.97 1.87,-0.86 3.46,-1.69 4.77,-2.5 1.31,-0.81 2.93,-1.97 4.84,-3.48 l 11.06,16.65 c -2.83,2.12 -5.07,3.69 -6.74,4.69 -1.67,1.01 -4.97,2.55 -9.92,4.62 -4.94,2.07 -11.71,3.1 -20.29,3.1 -15.94,0 -29.12,-5.3 -39.52,-15.9 -10.39,-10.6 -15.59,-24.12 -15.59,-40.57 0,-16.25 5.35,-29.83 16.05,-40.72 10.7,-10.9 24.02,-16.35 39.97,-16.35 3.74,0 7.19,0.28 10.37,0.83 3.18,0.56 6.48,1.46 9.92,2.72 3.43,1.26 5.96,2.35 7.57,3.26 1.41,0.79 3.73,2.31 6.96,4.55 v -9.39 z m -162,0 h 61.32 v 18.02 h -38.91 v 24.53 h 33.46 v 18.02 h -33.46 v 30.58 h 40.12 v 18.02 h -62.53 V 2046.7 Z m -62.98,0 h 22.41 v 89.48 h 33.61 v 19.68 h -56.02 z m -74.04,0 h 61.32 v 18.02 h -38.91 v 24.53 h 33.46 v 18.02 h -33.46 v 30.58 h 40.12 v 18.02 h -62.53 V 2046.7 Z"
   id="path2143" />
  <path
   class="fil1 str1"
   d="m 2296.35,812.5 c 0,26.8 -18.84,49.77 -56.53,68.93 -25.14,12.92 -55.09,22.73 -89.81,29.4 l -14.54,47.22 h -48.84 l 43.33,-139.17 h 48.56 l -20.46,65.28 c 18.43,-3.98 34.77,-10.14 49.03,-18.56 19.86,-11.85 30.19,-25.65 30.93,-41.39 0.46,-10.14 -2.92,-16.81 -10.19,-19.96 -4.31,-1.9 -12.13,-2.87 -23.43,-2.87 h -138.61 l 21.16,-34.17 h 139.68 c 20.46,0 36.07,2.55 46.81,7.59 15.28,7.13 22.92,19.72 22.92,37.69 z m 216.62,123.89 c -0.37,6.76 -3.52,12.17 -9.49,16.25 -5.41,3.61 -11.71,5.42 -18.89,5.42 h -52.22 c -7.13,0 -12.59,-1.9 -16.3,-5.69 -2.41,-2.46 -5.51,-7.78 -9.21,-15.97 l -26.67,-59.31 c 3.33,-0.6 11.07,-3.19 23.2,-7.69 11.71,-4.35 19.07,-7.31 22.08,-8.94 17.96,-9.3 26.94,-20.97 26.94,-34.95 0,-16.06 -11.39,-24.12 -34.17,-24.12 h -138.33 l 21.16,-34.17 h 136.57 c 49.12,0 73.66,15.6 73.66,46.85 0,26.44 -25.46,49.54 -76.39,69.31 l 24.12,53.01 h 53.93 z m -119.95,-117.5 -43.66,139.17 h -48.33 l 43.33,-139.17 z m 367.69,-8.93 c 0,13.29 -6.99,25.69 -21.02,37.27 -8.43,6.99 -21.25,14.68 -38.43,23.1 7.04,11.99 10.56,22.92 10.56,32.69 0,20.14 -13.01,35.05 -39.07,44.72 -18.61,6.9 -40.32,10.32 -65.09,10.32 h -70.56 l 48.89,-139.17 h 48.84 l -41.57,117.5 h 6.9 c 15.83,0 29.21,-1.81 40.14,-5.42 16.2,-5.51 24.31,-14.54 24.31,-27.04 0,-3.98 -1.81,-8.75 -5.42,-14.3 -3.61,-5.56 -5.42,-9.63 -5.42,-12.13 0,-1.3 0.09,-2.18 0.28,-2.73 1.81,-3.98 6.72,-7.87 14.77,-11.67 11.16,-5.33 19.26,-10.28 24.44,-14.77 8.66,-7.5 13.01,-16.2 13.01,-26.06 0,-13.94 -10.6,-20.88 -31.85,-20.88 h -158.7 l 20.88,-34.17 h 158.24 c 20.79,0 36.39,2.82 46.76,8.43 12.73,6.85 19.12,18.29 19.12,34.31 z m 79.63,77.1 -10.75,31 h -82.25 l 10.75,-31 z m 43.46,64.58 v -26.63 c 11.42,9.04 24.25,13.54 38.58,13.54 11.63,0 20.96,-2.67 27.92,-7.96 6.96,-5.3 10.42,-12.46 10.42,-21.5 0,-19.88 -15.17,-29.8 -45.54,-29.8 h -13.54 v -22.75 h 12.96 c 26.92,0 40.37,-9.37 40.37,-28.08 0,-17.29 -10.5,-25.92 -31.46,-25.92 -11.75,0 -22.75,4.21 -33.08,12.63 v -25.13 c 11.87,-6.67 25.92,-10 42.08,-10 15.54,0 28,3.92 37.37,11.71 9.33,7.83 14.04,17.83 14.04,30.04 0,23 -11.75,37.83 -35.17,44.42 v 0.5 c 12.63,1.21 22.59,5.63 29.92,13.25 7.33,7.63 10.96,17.13 10.96,28.54 0,15.71 -5.88,28.42 -17.67,38.04 -11.83,9.67 -27.37,14.5 -46.67,14.5 -17.33,0 -31.17,-3.13 -41.5,-9.42 z m 191.29,9.42 c -18.21,0 -32.46,-7.46 -42.67,-22.33 -10.21,-14.92 -15.29,-36.46 -15.29,-64.62 0,-30.96 5.29,-54.33 15.96,-70.21 10.67,-15.88 26.04,-23.83 46.17,-23.83 38.5,0 57.71,29.92 57.71,89.75 0,29.67 -5.42,52.25 -16.29,67.88 -10.83,15.58 -26.04,23.37 -45.58,23.37 z m 2.83,-158.5 c -21.25,0 -31.88,23.42 -31.88,70.25 0,43.83 10.42,65.75 31.25,65.75 20.5,0 30.75,-22.29 30.75,-66.83 0,-46.12 -10.04,-69.17 -30.12,-69.17 z m 135.96,158.5 c -18.21,0 -32.46,-7.46 -42.67,-22.33 -10.21,-14.92 -15.29,-36.46 -15.29,-64.62 0,-30.96 5.29,-54.33 15.96,-70.21 10.67,-15.88 26.04,-23.83 46.17,-23.83 38.5,0 57.71,29.92 57.71,89.75 0,29.67 -5.42,52.25 -16.29,67.88 -10.83,15.58 -26.04,23.37 -45.58,23.37 z m 2.83,-158.5 c -21.25,0 -31.88,23.42 -31.88,70.25 0,43.83 10.42,65.75 31.25,65.75 20.5,0 30.75,-22.29 30.75,-66.83 0,-46.12 -10.04,-69.17 -30.12,-69.17 z m 90.08,155.5 v -175 h 55.54 c 16.92,0 30.33,3.71 40.21,11.08 9.88,7.42 14.83,17.04 14.83,28.87 0,9.92 -2.83,18.54 -8.42,25.83 -5.63,7.33 -13.42,12.5 -23.33,15.63 v 0.46 c 12.04,1.42 21.67,5.87 28.88,13.37 7.21,7.54 10.79,17.33 10.79,29.42 0,14.96 -5.87,27.13 -17.67,36.42 -11.83,9.29 -26.7,13.92 -44.7,13.92 z m 28.92,-151.75 v 49.75 h 18.79 c 10.08,0 18,-2.37 23.75,-7.13 5.75,-4.75 8.58,-11.5 8.58,-20.21 0,-14.96 -10,-22.42 -30,-22.42 h -21.12 z m 0,73 v 55.5 h 24.79 c 10.79,0 19.17,-2.5 25.08,-7.5 5.87,-5.04 8.83,-11.91 8.83,-20.75 0,-18.17 -12.59,-27.25 -37.71,-27.25 h -21 z"
   id="path2145" />
  <g
   id="g2150">
   <path
   class="fil1"
   d="m 2215.98,1092.85 h -3.2 v 26.25 h 4.26 c 5.93,0 10.44,-1.13 13.56,-3.43 3.13,-2.29 4.68,-5.58 4.68,-9.86 0,-4.49 -1.53,-7.75 -4.61,-9.83 -3.08,-2.09 -7.98,-3.13 -14.7,-3.13 z m -26.67,80.28 v -98.33 h 25.3 c 7.78,0 13.96,0.56 18.52,1.69 4.56,1.13 8.61,3.03 12.15,5.69 3.66,2.67 6.5,6 8.52,10 2.01,4.01 3.01,8.24 3.01,12.71 0,9.95 -3.54,17.82 -10.63,23.66 -7.06,5.83 -16.67,8.75 -28.8,8.75 -1.25,0 -2.2,0 -2.85,-0.02 -0.63,-0.02 -1.23,-0.07 -1.76,-0.12 v 35.97 h -23.47 z m 77.62,-83.89 c 0,-3.26 1.13,-6.02 3.4,-8.26 2.24,-2.27 5,-3.41 8.26,-3.41 3.31,0 6.06,1.11 8.31,3.36 2.24,2.24 3.35,5 3.35,8.31 0,3.26 -1.13,6.04 -3.4,8.35 -2.24,2.29 -5,3.45 -8.26,3.45 -3.17,0 -5.9,-1.16 -8.22,-3.5 -2.29,-2.33 -3.45,-5.09 -3.45,-8.31 z m 22.5,83.89 h -21.52 v -61.11 l 21.52,-2.92 z m 15.72,-2.78 v -16.8 c 5.37,3.43 9.56,5.76 12.55,6.94 2.96,1.2 5.74,1.8 8.26,1.8 2.22,0 4,-0.48 5.35,-1.46 1.37,-0.97 2.04,-2.24 2.04,-3.84 0,-1.34 -0.46,-2.48 -1.41,-3.38 -0.95,-0.91 -2.59,-1.76 -4.89,-2.57 l -7.87,-2.8 c -5.14,-1.76 -9.05,-4.24 -11.71,-7.43 -2.66,-3.17 -3.98,-6.94 -3.98,-11.3 0,-6.13 2.15,-11.09 6.43,-14.81 4.31,-3.72 10.02,-5.6 17.18,-5.6 3.29,0 6.78,0.46 10.46,1.39 3.68,0.93 7.8,2.39 12.31,4.33 l -2.66,14.83 c -2.71,-2.29 -5.67,-4.09 -8.89,-5.39 -3.22,-1.32 -6.22,-1.96 -9.03,-1.96 -2.08,0 -3.77,0.48 -5.09,1.46 -1.32,0.97 -1.97,2.2 -1.97,3.68 0,1.27 0.37,2.27 1.11,3.01 0.74,0.74 2.41,1.55 4.98,2.41 l 7.34,2.64 c 5.74,2.04 9.86,4.49 12.31,7.38 2.48,2.89 3.7,6.67 3.7,11.34 0,6.74 -2.22,12.06 -6.65,15.97 -4.44,3.91 -10.46,5.86 -18.1,5.86 -3.73,0 -7.36,-0.46 -10.97,-1.39 -3.59,-0.93 -7.2,-2.36 -10.81,-4.31 z m 80.39,2.78 h -21.25 v -96.8 l 21.25,-2.92 v 47.22 c 2.98,-3.47 6.18,-6.04 9.61,-7.73 3.4,-1.69 7.11,-2.55 11.09,-2.55 6.46,0 11.37,1.85 14.7,5.56 3.35,3.7 5.02,9.1 5.02,16.22 v 41 h -21.11 v -35.02 c 0,-3.22 -0.65,-5.62 -1.97,-7.24 -1.3,-1.64 -3.24,-2.45 -5.83,-2.45 -3.68,0 -6.53,1.25 -8.52,3.72 -1.99,2.5 -2.98,6.11 -2.98,10.86 v 30.14 z m 85.56,-80.41 h -3.87 v 27.22 h 4.95 c 5.93,0 10.44,-1.2 13.56,-3.59 3.13,-2.39 4.68,-5.83 4.68,-10.3 0,-4.7 -1.5,-8.08 -4.54,-10.19 -3.03,-2.11 -7.96,-3.15 -14.79,-3.15 z m -26.65,80.41 v -98.33 h 25.28 c 8.1,0 14.37,0.53 18.84,1.6 4.47,1.06 8.4,2.82 11.85,5.32 3.66,2.61 6.5,5.85 8.52,9.72 2.01,3.87 3.01,7.94 3.01,12.22 0,6.2 -1.57,11.62 -4.72,16.27 -3.15,4.65 -7.69,8.29 -13.61,10.93 l 30,42.27 h -26.8 l -26.25,-38.61 h -3.33 v 38.61 h -22.78 z m 100.79,-30.56 c 0,5.21 1.11,9.4 3.35,12.57 2.25,3.19 5.12,4.79 8.59,4.79 3.49,0 6.34,-1.6 8.59,-4.81 2.24,-3.22 3.35,-7.39 3.35,-12.55 0,-5.11 -1.11,-9.28 -3.35,-12.52 -2.24,-3.22 -5.09,-4.84 -8.59,-4.84 -3.47,0 -6.34,1.6 -8.59,4.81 -2.24,3.22 -3.35,7.39 -3.35,12.55 z m -21.67,-0.05 c 0,-9.7 3.17,-17.71 9.51,-24 6.37,-6.27 14.37,-9.42 24.1,-9.42 9.77,0 17.82,3.15 24.19,9.42 6.37,6.3 9.56,14.31 9.56,24 0,9.72 -3.19,17.76 -9.56,24.05 -6.37,6.32 -14.42,9.47 -24.19,9.47 -9.68,0 -17.69,-3.15 -24.05,-9.47 -6.37,-6.3 -9.56,-14.33 -9.56,-24.05 z m 100.8,16.53 c 1.53,0.42 2.83,0.7 3.89,0.88 1.07,0.19 2.02,0.28 2.87,0.28 4.17,0 7.64,-1.69 10.44,-5.09 2.8,-3.38 4.19,-7.66 4.19,-12.87 0,-4.7 -1.16,-8.47 -3.5,-11.34 -2.31,-2.87 -5.32,-4.31 -9.03,-4.31 -1.04,0 -2.29,0.26 -3.75,0.79 -1.48,0.51 -3.17,1.32 -5.12,2.41 v 29.26 z m -21.25,16.99 v -99.72 l 21.25,-2.92 v 41.27 c 2.71,-1.39 5.33,-2.43 7.83,-3.15 2.52,-0.7 4.95,-1.04 7.29,-1.04 8.31,0 15.04,2.94 20.21,8.84 5.16,5.9 7.73,13.59 7.73,23.08 0,10.05 -3.06,18.13 -9.19,24.28 -6.11,6.14 -14.19,9.22 -24.17,9.22 -1.27,0 -2.69,-0.07 -4.28,-0.23 -1.57,-0.16 -3.35,-0.39 -5.35,-0.72 l -7.73,-1.83 z m 94.74,-33.47 c 0,5.21 1.11,9.4 3.35,12.57 2.25,3.19 5.12,4.79 8.59,4.79 3.49,0 6.34,-1.6 8.59,-4.81 2.24,-3.22 3.35,-7.39 3.35,-12.55 0,-5.11 -1.11,-9.28 -3.35,-12.52 -2.24,-3.22 -5.09,-4.84 -8.59,-4.84 -3.47,0 -6.34,1.6 -8.59,4.81 -2.24,3.22 -3.35,7.39 -3.35,12.55 z m -21.67,-0.05 c 0,-9.7 3.17,-17.71 9.51,-24 6.37,-6.27 14.37,-9.42 24.1,-9.42 9.77,0 17.82,3.15 24.19,9.42 6.37,6.3 9.56,14.31 9.56,24 0,9.72 -3.19,17.76 -9.56,24.05 -6.37,6.32 -14.42,9.47 -24.19,9.47 -9.68,0 -17.69,-3.15 -24.05,-9.47 -6.37,-6.3 -9.56,-14.33 -9.56,-24.05 z m 83.31,10.09 v -24.49 h -8.89 v -16.11 h 8.89 v -18.33 l 21.67,-2.92 v 21.25 h 14.44 v 16.11 h -14.44 v 25.95 c 0,5.51 0.74,9.52 2.24,11.97 1.5,2.45 4.33,4.74 8.45,6.8 l -24.17,1.67 c -3.03,-1.46 -5.14,-3.61 -6.37,-6.48 -1.23,-2.87 -1.83,-8.01 -1.83,-15.42 z m 110.13,2.73 h 9.77 c 4.68,0 8.38,-1.16 11.07,-3.45 2.69,-2.31 4.03,-5.46 4.03,-9.49 0,-3.94 -1.32,-6.97 -3.94,-9.12 -2.61,-2.15 -6.34,-3.22 -11.16,-3.22 h -9.77 z m 0,-41.67 h 7.8 c 4.61,0 8.2,-1.02 10.81,-3.03 2.59,-2.01 3.89,-4.86 3.89,-8.52 0,-3.68 -1.23,-6.37 -3.7,-8.08 -2.45,-1.74 -6.3,-2.59 -11.55,-2.59 h -7.24 v 22.22 z m -21.39,59.44 v -98.33 h 30.39 c 11.46,0 20.09,2.08 25.95,6.27 5.86,4.19 8.8,10.39 8.8,18.63 0,5.02 -1.34,9.28 -4,12.78 -2.69,3.52 -6.71,6.22 -12.11,8.17 6,1.37 10.67,4.15 14.07,8.38 3.4,4.24 5.09,9.4 5.09,15.48 0,9.44 -3.49,16.57 -10.48,21.39 -6.99,4.81 -17.34,7.22 -31.04,7.22 h -26.67 z m 103.59,0 h -21.39 V 1112 h 19.91 l 0.39,10.72 c 2.43,-4.28 5.3,-7.38 8.56,-9.33 3.26,-1.94 7.34,-2.92 12.22,-2.92 h 1.69 v 22.78 h -2.22 -2.39 c -6.62,0 -11.09,0.76 -13.36,2.27 -2.29,1.53 -3.43,5.16 -3.43,10.95 v 26.64 z m 71.97,-45.6 c -1.27,-0.72 -2.48,-1.25 -3.63,-1.55 -1.16,-0.32 -2.29,-0.48 -3.43,-0.48 -4.03,0 -7.43,1.69 -10.19,5.07 -2.76,3.35 -4.15,7.61 -4.15,12.73 0,4.79 1.2,8.8 3.63,11.99 2.43,3.19 5.37,4.79 8.87,4.79 1.39,0 2.83,-0.37 4.31,-1.11 1.48,-0.76 3.01,-1.9 4.58,-3.45 v -27.99 z m 21.25,-15.51 v 38.19 c 0,4.79 0.09,8.82 0.28,12.08 0.19,3.24 0.44,6.02 0.81,8.33 l -19.7,5.42 -1.9,-5.81 c -2.66,1.97 -5.28,3.45 -7.85,4.4 -2.55,0.95 -5.23,1.41 -8.03,1.41 -7.89,0 -14.52,-3.15 -19.86,-9.42 -5.37,-6.3 -8.06,-14.12 -8.06,-23.47 0,-9.86 3.01,-18.01 9.03,-24.42 6.02,-6.41 13.63,-9.63 22.82,-9.63 2.11,0 4.33,0.3 6.65,0.88 2.31,0.58 4.86,1.48 7.66,2.71 z m 14.75,-22.78 c 0,-3.26 1.13,-6.02 3.4,-8.26 2.24,-2.27 5,-3.41 8.26,-3.41 3.31,0 6.06,1.11 8.31,3.36 2.24,2.24 3.35,5 3.35,8.31 0,3.26 -1.13,6.04 -3.4,8.35 -2.24,2.29 -5,3.45 -8.26,3.45 -3.17,0 -5.9,-1.16 -8.22,-3.5 -2.29,-2.33 -3.45,-5.09 -3.45,-8.31 z m 22.5,83.89 h -21.52 V 1112 l 21.52,-2.92 z m 37.25,0 H 3098.3 V 1112 h 19.63 v 10.23 c 3.24,-4 6.71,-6.99 10.37,-8.96 3.66,-1.96 7.64,-2.94 11.92,-2.94 6.48,0 11.39,1.85 14.72,5.56 3.35,3.7 5.02,9.1 5.02,16.22 v 41 h -21.11 v -35.02 c 0,-3.22 -0.65,-5.62 -1.97,-7.24 -1.3,-1.64 -3.24,-2.45 -5.83,-2.45 -3.68,0 -6.53,1.25 -8.52,3.72 -1.99,2.5 -2.98,6.11 -2.98,10.86 v 30.14 z m 218.85,-15.65 -43.47,-30.17 43.2,-30.43 -71.4,-52.08 v 62.94 l -40.56,-28.14 V 1097 l 40.56,28.14 v 4.49 l -40.56,28.57 v 17.52 l 40.56,-28.56 v 60.06 l 71.66,-49.75 v 0 z m -57.35,-84.52 32.52,23.71 -31.16,21.94 -1.35,-0.94 v -44.72 z m 0,64.13 1.42,-1 30.83,21.39 -32.24,22.38 v -42.77 z"
   id="path2147" />
   <path
   id="1"
   class="fil2 str1"
   d="m 2215.98,1092.85 h -3.2 v 26.25 h 4.26 c 5.93,0 10.44,-1.13 13.56,-3.43 3.13,-2.29 4.68,-5.58 4.68,-9.86 0,-4.49 -1.53,-7.75 -4.61,-9.83 -3.08,-2.09 -7.98,-3.13 -14.7,-3.13 z m -26.67,80.28 v -98.33 h 25.3 c 7.78,0 13.96,0.56 18.52,1.69 4.56,1.13 8.61,3.03 12.15,5.69 3.66,2.67 6.5,6 8.52,10 2.01,4.01 3.01,8.24 3.01,12.71 0,9.95 -3.54,17.82 -10.63,23.66 -7.06,5.83 -16.67,8.75 -28.8,8.75 -1.25,0 -2.2,0 -2.85,-0.02 -0.63,-0.02 -1.23,-0.07 -1.76,-0.12 v 35.97 h -23.47 z m 77.62,-83.89 c 0,-3.26 1.13,-6.02 3.4,-8.26 2.24,-2.27 5,-3.41 8.26,-3.41 3.31,0 6.06,1.11 8.31,3.36 2.24,2.24 3.35,5 3.35,8.31 0,3.26 -1.13,6.04 -3.4,8.35 -2.24,2.29 -5,3.45 -8.26,3.45 -3.17,0 -5.9,-1.16 -8.22,-3.5 -2.29,-2.33 -3.45,-5.09 -3.45,-8.31 z m 22.5,83.89 h -21.52 v -61.11 l 21.52,-2.92 z m 15.72,-2.78 v -16.8 c 5.37,3.43 9.56,5.76 12.55,6.94 2.96,1.2 5.74,1.8 8.26,1.8 2.22,0 4,-0.48 5.35,-1.46 1.37,-0.97 2.04,-2.24 2.04,-3.84 0,-1.34 -0.46,-2.48 -1.41,-3.38 -0.95,-0.91 -2.59,-1.76 -4.89,-2.57 l -7.87,-2.8 c -5.14,-1.76 -9.05,-4.24 -11.71,-7.43 -2.66,-3.17 -3.98,-6.94 -3.98,-11.3 0,-6.13 2.15,-11.09 6.43,-14.81 4.31,-3.72 10.02,-5.6 17.18,-5.6 3.29,0 6.78,0.46 10.46,1.39 3.68,0.93 7.8,2.39 12.31,4.33 l -2.66,14.83 c -2.71,-2.29 -5.67,-4.09 -8.89,-5.39 -3.22,-1.32 -6.22,-1.96 -9.03,-1.96 -2.08,0 -3.77,0.48 -5.09,1.46 -1.32,0.97 -1.97,2.2 -1.97,3.68 0,1.27 0.37,2.27 1.11,3.01 0.74,0.74 2.41,1.55 4.98,2.41 l 7.34,2.64 c 5.74,2.04 9.86,4.49 12.31,7.38 2.48,2.89 3.7,6.67 3.7,11.34 0,6.74 -2.22,12.06 -6.65,15.97 -4.44,3.91 -10.46,5.86 -18.1,5.86 -3.73,0 -7.36,-0.46 -10.97,-1.39 -3.59,-0.93 -7.2,-2.36 -10.81,-4.31 z m 80.39,2.78 h -21.25 v -96.8 l 21.25,-2.92 v 47.22 c 2.98,-3.47 6.18,-6.04 9.61,-7.73 3.4,-1.69 7.11,-2.55 11.09,-2.55 6.46,0 11.37,1.85 14.7,5.56 3.35,3.7 5.02,9.1 5.02,16.22 v 41 h -21.11 v -35.02 c 0,-3.22 -0.65,-5.62 -1.97,-7.24 -1.3,-1.64 -3.24,-2.45 -5.83,-2.45 -3.68,0 -6.53,1.25 -8.52,3.72 -1.99,2.5 -2.98,6.11 -2.98,10.86 v 30.14 z m 85.56,-80.41 h -3.87 v 27.22 h 4.95 c 5.93,0 10.44,-1.2 13.56,-3.59 3.13,-2.39 4.68,-5.83 4.68,-10.3 0,-4.7 -1.5,-8.08 -4.54,-10.19 -3.03,-2.11 -7.96,-3.15 -14.79,-3.15 z m -26.65,80.41 v -98.33 h 25.28 c 8.1,0 14.37,0.53 18.84,1.6 4.47,1.06 8.4,2.82 11.85,5.32 3.66,2.61 6.5,5.85 8.52,9.72 2.01,3.87 3.01,7.94 3.01,12.22 0,6.2 -1.57,11.62 -4.72,16.27 -3.15,4.65 -7.69,8.29 -13.61,10.93 l 30,42.27 h -26.8 l -26.25,-38.61 h -3.33 v 38.61 h -22.78 z m 100.79,-30.56 c 0,5.21 1.11,9.4 3.35,12.57 2.25,3.19 5.12,4.79 8.59,4.79 3.49,0 6.34,-1.6 8.59,-4.81 2.24,-3.22 3.35,-7.39 3.35,-12.55 0,-5.11 -1.11,-9.28 -3.35,-12.52 -2.24,-3.22 -5.09,-4.84 -8.59,-4.84 -3.47,0 -6.34,1.6 -8.59,4.81 -2.24,3.22 -3.35,7.39 -3.35,12.55 z m -21.67,-0.05 c 0,-9.7 3.17,-17.71 9.51,-24 6.37,-6.27 14.37,-9.42 24.1,-9.42 9.77,0 17.82,3.15 24.19,9.42 6.37,6.3 9.56,14.31 9.56,24 0,9.72 -3.19,17.76 -9.56,24.05 -6.37,6.32 -14.42,9.47 -24.19,9.47 -9.68,0 -17.69,-3.15 -24.05,-9.47 -6.37,-6.3 -9.56,-14.33 -9.56,-24.05 z m 100.8,16.53 c 1.53,0.42 2.83,0.7 3.89,0.88 1.07,0.19 2.02,0.28 2.87,0.28 4.17,0 7.64,-1.69 10.44,-5.09 2.8,-3.38 4.19,-7.66 4.19,-12.87 0,-4.7 -1.16,-8.47 -3.5,-11.34 -2.31,-2.87 -5.32,-4.31 -9.03,-4.31 -1.04,0 -2.29,0.26 -3.75,0.79 -1.48,0.51 -3.17,1.32 -5.12,2.41 v 29.26 z m -21.25,16.99 v -99.72 l 21.25,-2.92 v 41.27 c 2.71,-1.39 5.33,-2.43 7.83,-3.15 2.52,-0.7 4.95,-1.04 7.29,-1.04 8.31,0 15.04,2.94 20.21,8.84 5.16,5.9 7.73,13.59 7.73,23.08 0,10.05 -3.06,18.13 -9.19,24.28 -6.11,6.14 -14.19,9.22 -24.17,9.22 -1.27,0 -2.69,-0.07 -4.28,-0.23 -1.57,-0.16 -3.35,-0.39 -5.35,-0.72 l -7.73,-1.83 z m 94.74,-33.47 c 0,5.21 1.11,9.4 3.35,12.57 2.25,3.19 5.12,4.79 8.59,4.79 3.49,0 6.34,-1.6 8.59,-4.81 2.24,-3.22 3.35,-7.39 3.35,-12.55 0,-5.11 -1.11,-9.28 -3.35,-12.52 -2.24,-3.22 -5.09,-4.84 -8.59,-4.84 -3.47,0 -6.34,1.6 -8.59,4.81 -2.24,3.22 -3.35,7.39 -3.35,12.55 z m -21.67,-0.05 c 0,-9.7 3.17,-17.71 9.51,-24 6.37,-6.27 14.37,-9.42 24.1,-9.42 9.77,0 17.82,3.15 24.19,9.42 6.37,6.3 9.56,14.31 9.56,24 0,9.72 -3.19,17.76 -9.56,24.05 -6.37,6.32 -14.42,9.47 -24.19,9.47 -9.68,0 -17.69,-3.15 -24.05,-9.47 -6.37,-6.3 -9.56,-14.33 -9.56,-24.05 z m 83.31,10.09 v -24.49 h -8.89 v -16.11 h 8.89 v -18.33 l 21.67,-2.92 v 21.25 h 14.44 v 16.11 h -14.44 v 25.95 c 0,5.51 0.74,9.52 2.24,11.97 1.5,2.45 4.33,4.74 8.45,6.8 l -24.17,1.67 c -3.03,-1.46 -5.14,-3.61 -6.37,-6.48 -1.23,-2.87 -1.83,-8.01 -1.83,-15.42 z m 110.13,2.73 h 9.77 c 4.68,0 8.38,-1.16 11.07,-3.45 2.69,-2.31 4.03,-5.46 4.03,-9.49 0,-3.94 -1.32,-6.97 -3.94,-9.12 -2.61,-2.15 -6.34,-3.22 -11.16,-3.22 h -9.77 z m 0,-41.67 h 7.8 c 4.61,0 8.2,-1.02 10.81,-3.03 2.59,-2.01 3.89,-4.86 3.89,-8.52 0,-3.68 -1.23,-6.37 -3.7,-8.08 -2.45,-1.74 -6.3,-2.59 -11.55,-2.59 h -7.24 v 22.22 z m -21.39,59.44 v -98.33 h 30.39 c 11.46,0 20.09,2.08 25.95,6.27 5.86,4.19 8.8,10.39 8.8,18.63 0,5.02 -1.34,9.28 -4,12.78 -2.69,3.52 -6.71,6.22 -12.11,8.17 6,1.37 10.67,4.15 14.07,8.38 3.4,4.24 5.09,9.4 5.09,15.48 0,9.44 -3.49,16.57 -10.48,21.39 -6.99,4.81 -17.34,7.22 -31.04,7.22 h -26.67 z m 103.59,0 h -21.39 V 1112 h 19.91 l 0.39,10.72 c 2.43,-4.28 5.3,-7.38 8.56,-9.33 3.26,-1.94 7.34,-2.92 12.22,-2.92 h 1.69 v 22.78 h -2.22 -2.39 c -6.62,0 -11.09,0.76 -13.36,2.27 -2.29,1.53 -3.43,5.16 -3.43,10.95 v 26.64 z m 71.97,-45.6 c -1.27,-0.72 -2.48,-1.25 -3.63,-1.55 -1.16,-0.32 -2.29,-0.48 -3.43,-0.48 -4.03,0 -7.43,1.69 -10.19,5.07 -2.76,3.35 -4.15,7.61 -4.15,12.73 0,4.79 1.2,8.8 3.63,11.99 2.43,3.19 5.37,4.79 8.87,4.79 1.39,0 2.83,-0.37 4.31,-1.11 1.48,-0.76 3.01,-1.9 4.58,-3.45 v -27.99 z m 21.25,-15.51 v 38.19 c 0,4.79 0.09,8.82 0.28,12.08 0.19,3.24 0.44,6.02 0.81,8.33 l -19.7,5.42 -1.9,-5.81 c -2.66,1.97 -5.28,3.45 -7.85,4.4 -2.55,0.95 -5.23,1.41 -8.03,1.41 -7.89,0 -14.52,-3.15 -19.86,-9.42 -5.37,-6.3 -8.06,-14.12 -8.06,-23.47 0,-9.86 3.01,-18.01 9.03,-24.42 6.02,-6.41 13.63,-9.63 22.82,-9.63 2.11,0 4.33,0.3 6.65,0.88 2.31,0.58 4.86,1.48 7.66,2.71 z m 14.75,-22.78 c 0,-3.26 1.13,-6.02 3.4,-8.26 2.24,-2.27 5,-3.41 8.26,-3.41 3.31,0 6.06,1.11 8.31,3.36 2.24,2.24 3.35,5 3.35,8.31 0,3.26 -1.13,6.04 -3.4,8.35 -2.24,2.29 -5,3.45 -8.26,3.45 -3.17,0 -5.9,-1.16 -8.22,-3.5 -2.29,-2.33 -3.45,-5.09 -3.45,-8.31 z m 22.5,83.89 h -21.52 V 1112 l 21.52,-2.92 z m 37.25,0 H 3098.3 V 1112 h 19.63 v 10.23 c 3.24,-4 6.71,-6.99 10.37,-8.96 3.66,-1.96 7.64,-2.94 11.92,-2.94 6.48,0 11.39,1.85 14.72,5.56 3.35,3.7 5.02,9.1 5.02,16.22 v 41 h -21.11 v -35.02 c 0,-3.22 -0.65,-5.62 -1.97,-7.24 -1.3,-1.64 -3.24,-2.45 -5.83,-2.45 -3.68,0 -6.53,1.25 -8.52,3.72 -1.99,2.5 -2.98,6.11 -2.98,10.86 v 30.14 z m 218.85,-15.65 -43.47,-30.17 43.2,-30.43 -71.4,-52.08 v 62.94 l -40.56,-28.14 V 1097 l 40.56,28.14 v 4.49 l -40.56,28.57 v 17.52 l 40.56,-28.56 v 60.06 l 71.66,-49.75 m -57.35,-84.52 32.52,23.71 -31.16,21.94 -1.35,-0.94 v -44.72 z m 0,64.13 1.42,-1 30.83,21.39 -32.24,22.38 v -42.77 z" />
  </g>
  <path
   class="fil3 str2"
   d="m 1334.25,1948.54 c 86.97,0 157.48,-70.51 157.48,-157.48 0,-86.97 -70.51,-157.48 -157.48,-157.48 h -314.96 c -56.26,0 -108.25,30.02 -136.38,78.74 -28.13,48.72 -28.13,108.76 0,157.48 28.13,48.72 80.12,78.74 136.38,78.74 z"
   id="path2152"
   style="fill:#00a0ff;fill-opacity:1;stroke:#808080;stroke-width:4;stroke-miterlimit:2.61313;stroke-dasharray:none;stroke-opacity:1" />
  <path
   class="fil4 str3"
   d="m 691.54,3008.58 c 0,-33.7 -27.32,-61.02 -61.02,-61.02 -33.7,0 -61.02,27.32 -61.02,61.02 0,33.7 27.32,61.02 61.02,61.02 33.7,0 61.02,-27.32 61.02,-61.02 z"
   id="path2154" />
  <path
   class="fil4 str3"
   d="m 4982.87,3008.58 c 0,-33.7 -27.32,-61.02 -61.02,-61.02 -33.7,0 -61.02,27.32 -61.02,61.02 0,33.7 27.32,61.02 61.02,61.02 33.7,0 61.02,-27.32 61.02,-61.02 z"
   id="path2156" />
  <path
   class="fil5 str4"
   d="m 2835.23,2481.61 c 0,-32.61 -26.44,-59.06 -59.06,-59.06 -32.61,0 -59.05,26.44 -59.05,59.06 0,32.61 26.44,59.06 59.05,59.06 32.61,0 59.06,-26.44 59.06,-59.06 z"
   id="path2158"
   style="fill:url(#linearGradient11814);fill-opacity:1" />
  <path
   class="fil6 str5"
   d="m 1663.98,1791.06 c 0,-32.61 -26.44,-59.06 -59.06,-59.06 -32.62,0 -59.06,26.44 -59.06,59.06 0,32.61 26.44,59.06 59.06,59.06 32.61,0 59.06,-26.44 59.06,-59.06 z"
   id="path2160"
   style="fill:url(#linearGradient15818);fill-opacity:1" />
  <path
   class="fil6 str5"
   d="m 4006.49,1791.06 c 0,-32.61 -26.44,-59.06 -59.06,-59.06 -32.62,0 -59.06,26.44 -59.06,59.06 0,32.61 26.44,59.06 59.06,59.06 32.61,0 59.06,-26.44 59.06,-59.06 z"
   id="path2162"
   style="fill:url(#linearGradient11798);fill-opacity:1" />
  <path
   class="fil7 str6"
   d="m 2908.94,2766.61 c 0,-73.38 -59.49,-132.87 -132.87,-132.87 -73.38,0 -132.87,59.49 -132.87,132.87 0,73.39 59.49,132.87 132.87,132.87 73.38,0 132.87,-59.49 132.87,-132.87 z"
   id="path2164"
   style="fill:#a2d9f7;fill-opacity:1;stroke-width:6.96;stroke-miterlimit:2.61313;stroke-dasharray:none" />
  <polygon
   class="fil8 str7"
   points="371.65,2191.65 371.65,1601.1 482.87,1601.1 482.87,2191.65 "
   id="polygon2166" />
  <polygon
   class="fil8 str7"
   points="3071.45,636.53 2480.91,636.53 2480.91,525.31 3071.45,525.31 "
   id="polygon2168" />
  <polygon
   class="fil9 str8"
   points="3650.19,2206.45 3650.19,1362 1902.17,1362 1902.17,2206.45 "
   id="polygon2170"
   style="fill:url(#linearGradient9808);fill-opacity:1;fill-rule:evenodd" />
  <polygon
   class="fil8 str7"
   points="3071.45,3156.22 2480.91,3156.22 2480.91,3267.44 3071.45,3267.44 "
   id="polygon2172" />
  <polygon
   class="fil8 str7"
   points="5180.7,1601.1 5069.48,1601.1 5069.48,2191.65 5180.7,2191.65 "
   id="polygon2174" />
  <path
   class="fil4 str3"
   d="m 691.54,784.17 c 0,-33.7 -27.32,-61.02 -61.02,-61.02 -33.7,0 -61.02,27.32 -61.02,61.02 0,33.7 27.32,61.02 61.02,61.02 33.7,0 61.02,-27.32 61.02,-61.02 z"
   id="path2176" />
  <path
   class="fil4 str3"
   d="m 4982.87,784.17 c 0,-33.7 -27.32,-61.02 -61.02,-61.02 -33.7,0 -61.02,27.32 -61.02,61.02 0,33.7 27.32,61.02 61.02,61.02 33.7,0 61.02,-27.32 61.02,-61.02 z"
   id="path2178" />
  <path
   class="fil3 str2"
   d="m 4533.07,1948.54 c 86.97,0 157.48,-70.51 157.48,-157.48 0,-86.97 -70.51,-157.48 -157.48,-157.48 h -314.96 c -56.26,0 -108.25,30.02 -136.38,78.74 -28.13,48.72 -28.13,108.76 0,157.48 28.13,48.72 80.12,78.74 136.38,78.74 z"
   id="path2180"
   style="fill:#00a0ff;fill-opacity:1;stroke:#808080;stroke-width:4;stroke-miterlimit:2.61313;stroke-dasharray:none;stroke-opacity:1" />
 </g>
</svg>
